G04 #@! TF.FileFunction,Copper,L2,Bot,Signal*
%FSLAX46Y46*%
G04 Gerber Fmt 4.6, Leading zero omitted, Abs format (unit mm)*
G04 Created by KiCad (PCBNEW 4.0.6) date Sunday, 17 September 2017 'AMt' 11:45:45*
%MOMM*%
%LPD*%
G01*
G04 APERTURE LIST*
%ADD10C,0.100000*%
%ADD11C,3.000000*%
%ADD12R,1.900000X2.000000*%
%ADD13C,1.900000*%
%ADD14R,1.700000X2.000000*%
%ADD15R,3.000000X3.000000*%
%ADD16C,1.000000*%
%ADD17C,0.254000*%
G04 APERTURE END LIST*
D10*
D11*
X179400000Y-73600000D03*
X179400000Y-95400000D03*
X103600000Y-95400000D03*
X103600000Y-73600000D03*
D12*
X145000000Y-78750000D03*
D13*
X147540000Y-78750000D03*
D12*
X140250000Y-74750000D03*
D13*
X142790000Y-74750000D03*
D12*
X138000000Y-78750000D03*
D13*
X135460000Y-78750000D03*
D12*
X142750000Y-82750000D03*
D13*
X140210000Y-82750000D03*
D14*
X152000000Y-82500000D03*
X152000000Y-78500000D03*
X131000000Y-78500000D03*
X131000000Y-82500000D03*
D15*
X135500000Y-75500000D03*
X147500000Y-75500000D03*
D16*
X142790000Y-74750000D02*
X145000000Y-76960000D01*
X145000000Y-76960000D02*
X145000000Y-78750000D01*
X147540000Y-78750000D02*
X151750000Y-78750000D01*
X151750000Y-78750000D02*
X152000000Y-78500000D01*
X151750000Y-78250000D02*
X152000000Y-78500000D01*
X179400000Y-73600000D02*
X149400000Y-73600000D01*
X149400000Y-73600000D02*
X147500000Y-75500000D01*
X179400000Y-95400000D02*
X179400000Y-73600000D01*
X103600000Y-95400000D02*
X179400000Y-95400000D01*
X103600000Y-73600000D02*
X103600000Y-95400000D01*
X140250000Y-74750000D02*
X140250000Y-74700000D01*
X141850001Y-73099999D02*
X145099999Y-73099999D01*
X140250000Y-74700000D02*
X141850001Y-73099999D01*
X145099999Y-73099999D02*
X147500000Y-75500000D01*
X142750000Y-82750000D02*
X142750000Y-77250000D01*
X142750000Y-77250000D02*
X140250000Y-74750000D01*
X138000000Y-78750000D02*
X138000000Y-80540000D01*
X138000000Y-80540000D02*
X140210000Y-82750000D01*
X135460000Y-78750000D02*
X134750000Y-78750000D01*
X134750000Y-78750000D02*
X131000000Y-82500000D01*
X131000000Y-82500000D02*
X131210000Y-82500000D01*
X152000000Y-82500000D02*
X150150000Y-82500000D01*
X148199999Y-84450001D02*
X129839999Y-84450001D01*
X150150000Y-82500000D02*
X148199999Y-84450001D01*
X129839999Y-84450001D02*
X129150000Y-83760002D01*
X129150000Y-83760002D02*
X129150000Y-80350000D01*
X129150000Y-80350000D02*
X131000000Y-78500000D01*
X135500000Y-75500000D02*
X134000000Y-75500000D01*
X134000000Y-75500000D02*
X131000000Y-78500000D01*
X131500000Y-78000000D02*
X131000000Y-78500000D01*
D17*
G36*
X181488338Y-70821046D02*
X181902333Y-71097669D01*
X182178953Y-71511660D01*
X182290000Y-72069931D01*
X182290000Y-96930069D01*
X182178953Y-97488340D01*
X181902333Y-97902331D01*
X181488338Y-98178954D01*
X180930069Y-98290000D01*
X102069931Y-98290000D01*
X101511660Y-98178953D01*
X101097669Y-97902333D01*
X100821046Y-97488338D01*
X100710000Y-96930069D01*
X100710000Y-96913970D01*
X102265635Y-96913970D01*
X102425418Y-97232739D01*
X103216187Y-97542723D01*
X104065387Y-97526497D01*
X104774582Y-97232739D01*
X104934365Y-96913970D01*
X178065635Y-96913970D01*
X178225418Y-97232739D01*
X179016187Y-97542723D01*
X179865387Y-97526497D01*
X180574582Y-97232739D01*
X180734365Y-96913970D01*
X179400000Y-95579605D01*
X178065635Y-96913970D01*
X104934365Y-96913970D01*
X103600000Y-95579605D01*
X102265635Y-96913970D01*
X100710000Y-96913970D01*
X100710000Y-95016187D01*
X101457277Y-95016187D01*
X101473503Y-95865387D01*
X101767261Y-96574582D01*
X102086030Y-96734365D01*
X103420395Y-95400000D01*
X103779605Y-95400000D01*
X105113970Y-96734365D01*
X105432739Y-96574582D01*
X105742723Y-95783813D01*
X105728056Y-95016187D01*
X177257277Y-95016187D01*
X177273503Y-95865387D01*
X177567261Y-96574582D01*
X177886030Y-96734365D01*
X179220395Y-95400000D01*
X179579605Y-95400000D01*
X180913970Y-96734365D01*
X181232739Y-96574582D01*
X181542723Y-95783813D01*
X181526497Y-94934613D01*
X181232739Y-94225418D01*
X180913970Y-94065635D01*
X179579605Y-95400000D01*
X179220395Y-95400000D01*
X177886030Y-94065635D01*
X177567261Y-94225418D01*
X177257277Y-95016187D01*
X105728056Y-95016187D01*
X105726497Y-94934613D01*
X105432739Y-94225418D01*
X105113970Y-94065635D01*
X103779605Y-95400000D01*
X103420395Y-95400000D01*
X102086030Y-94065635D01*
X101767261Y-94225418D01*
X101457277Y-95016187D01*
X100710000Y-95016187D01*
X100710000Y-93886030D01*
X102265635Y-93886030D01*
X103600000Y-95220395D01*
X104934365Y-93886030D01*
X178065635Y-93886030D01*
X179400000Y-95220395D01*
X180734365Y-93886030D01*
X180574582Y-93567261D01*
X179783813Y-93257277D01*
X178934613Y-93273503D01*
X178225418Y-93567261D01*
X178065635Y-93886030D01*
X104934365Y-93886030D01*
X104774582Y-93567261D01*
X103983813Y-93257277D01*
X103134613Y-93273503D01*
X102425418Y-93567261D01*
X102265635Y-93886030D01*
X100710000Y-93886030D01*
X100710000Y-75113970D01*
X102265635Y-75113970D01*
X102425418Y-75432739D01*
X103216187Y-75742723D01*
X104065387Y-75726497D01*
X104774582Y-75432739D01*
X104934365Y-75113970D01*
X103600000Y-73779605D01*
X102265635Y-75113970D01*
X100710000Y-75113970D01*
X100710000Y-73216187D01*
X101457277Y-73216187D01*
X101473503Y-74065387D01*
X101767261Y-74774582D01*
X102086030Y-74934365D01*
X103420395Y-73600000D01*
X103779605Y-73600000D01*
X105113970Y-74934365D01*
X105432739Y-74774582D01*
X105540376Y-74500000D01*
X109540000Y-74500000D01*
X109540000Y-88500000D01*
X109594046Y-88771705D01*
X109747954Y-89002046D01*
X109978295Y-89155954D01*
X110250000Y-89210000D01*
X127250000Y-89210000D01*
X127521705Y-89155954D01*
X127752046Y-89002046D01*
X127905954Y-88771705D01*
X127960000Y-88500000D01*
X127960000Y-88000000D01*
X131676239Y-88000000D01*
X131793084Y-88587419D01*
X132125830Y-89085409D01*
X132623820Y-89418155D01*
X133211239Y-89535000D01*
X149788761Y-89535000D01*
X150376180Y-89418155D01*
X150874170Y-89085409D01*
X151206916Y-88587419D01*
X151323761Y-88000000D01*
X151206916Y-87412581D01*
X150874170Y-86914591D01*
X150376180Y-86581845D01*
X149788761Y-86465000D01*
X133211239Y-86465000D01*
X132623820Y-86581845D01*
X132125830Y-86914591D01*
X131793084Y-87412581D01*
X131676239Y-88000000D01*
X127960000Y-88000000D01*
X127960000Y-80350000D01*
X128015000Y-80350000D01*
X128015000Y-83760002D01*
X128101397Y-84194348D01*
X128195562Y-84335275D01*
X128347434Y-84562568D01*
X129037433Y-85252567D01*
X129405653Y-85498604D01*
X129839999Y-85585001D01*
X148199999Y-85585001D01*
X148634345Y-85498604D01*
X149002565Y-85252567D01*
X150542559Y-83712573D01*
X150546838Y-83735317D01*
X150685910Y-83951441D01*
X150898110Y-84096431D01*
X151150000Y-84147440D01*
X152850000Y-84147440D01*
X153085317Y-84103162D01*
X153301441Y-83964090D01*
X153446431Y-83751890D01*
X153497440Y-83500000D01*
X153497440Y-81500000D01*
X153453162Y-81264683D01*
X153314090Y-81048559D01*
X153101890Y-80903569D01*
X152850000Y-80852560D01*
X151150000Y-80852560D01*
X150914683Y-80896838D01*
X150698559Y-81035910D01*
X150553569Y-81248110D01*
X150529898Y-81365000D01*
X150150000Y-81365000D01*
X149715654Y-81451397D01*
X149665364Y-81485000D01*
X149347434Y-81697434D01*
X147729867Y-83315001D01*
X144335000Y-83315001D01*
X144335000Y-83035750D01*
X144176250Y-82877000D01*
X142877000Y-82877000D01*
X142877000Y-82897000D01*
X142623000Y-82897000D01*
X142623000Y-82877000D01*
X142603000Y-82877000D01*
X142603000Y-82623000D01*
X142623000Y-82623000D01*
X142623000Y-81273750D01*
X142877000Y-81273750D01*
X142877000Y-82623000D01*
X144176250Y-82623000D01*
X144335000Y-82464250D01*
X144335000Y-81623691D01*
X144238327Y-81390302D01*
X144059699Y-81211673D01*
X143826310Y-81115000D01*
X143035750Y-81115000D01*
X142877000Y-81273750D01*
X142623000Y-81273750D01*
X142464250Y-81115000D01*
X141673690Y-81115000D01*
X141440301Y-81211673D01*
X141261673Y-81390302D01*
X141211988Y-81510251D01*
X141109003Y-81407086D01*
X140526659Y-81165276D01*
X140230149Y-81165017D01*
X139327075Y-80261943D01*
X139401441Y-80214090D01*
X139546431Y-80001890D01*
X139597440Y-79750000D01*
X139597440Y-77750000D01*
X139553162Y-77514683D01*
X139414090Y-77298559D01*
X139201890Y-77153569D01*
X138950000Y-77102560D01*
X137626671Y-77102560D01*
X137647440Y-77000000D01*
X137647440Y-75035750D01*
X138665000Y-75035750D01*
X138665000Y-75876309D01*
X138761673Y-76109698D01*
X138940301Y-76288327D01*
X139173690Y-76385000D01*
X139964250Y-76385000D01*
X140123000Y-76226250D01*
X140123000Y-74877000D01*
X138823750Y-74877000D01*
X138665000Y-75035750D01*
X137647440Y-75035750D01*
X137647440Y-74000000D01*
X137603162Y-73764683D01*
X137512437Y-73623691D01*
X138665000Y-73623691D01*
X138665000Y-74464250D01*
X138823750Y-74623000D01*
X140123000Y-74623000D01*
X140123000Y-73273750D01*
X140377000Y-73273750D01*
X140377000Y-74623000D01*
X140397000Y-74623000D01*
X140397000Y-74877000D01*
X140377000Y-74877000D01*
X140377000Y-76226250D01*
X140535750Y-76385000D01*
X141326310Y-76385000D01*
X141559699Y-76288327D01*
X141738327Y-76109698D01*
X141788012Y-75989749D01*
X141890997Y-76092914D01*
X142473341Y-76334724D01*
X142769851Y-76334983D01*
X143672925Y-77238057D01*
X143598559Y-77285910D01*
X143453569Y-77498110D01*
X143402560Y-77750000D01*
X143402560Y-79750000D01*
X143446838Y-79985317D01*
X143585910Y-80201441D01*
X143798110Y-80346431D01*
X144050000Y-80397440D01*
X145950000Y-80397440D01*
X146185317Y-80353162D01*
X146401441Y-80214090D01*
X146546431Y-80001890D01*
X146547055Y-79998808D01*
X146640997Y-80092914D01*
X147223341Y-80334724D01*
X147853893Y-80335275D01*
X148436657Y-80094481D01*
X148646504Y-79885000D01*
X150643156Y-79885000D01*
X150685910Y-79951441D01*
X150898110Y-80096431D01*
X151150000Y-80147440D01*
X152850000Y-80147440D01*
X153085317Y-80103162D01*
X153301441Y-79964090D01*
X153446431Y-79751890D01*
X153497440Y-79500000D01*
X153497440Y-77500000D01*
X153453162Y-77264683D01*
X153314090Y-77048559D01*
X153101890Y-76903569D01*
X152850000Y-76852560D01*
X151150000Y-76852560D01*
X150914683Y-76896838D01*
X150698559Y-77035910D01*
X150553569Y-77248110D01*
X150502560Y-77500000D01*
X150502560Y-77615000D01*
X149174593Y-77615000D01*
X149359698Y-77538327D01*
X149538327Y-77359699D01*
X149635000Y-77126310D01*
X149635000Y-75785750D01*
X149476250Y-75627000D01*
X147627000Y-75627000D01*
X147627000Y-75647000D01*
X147373000Y-75647000D01*
X147373000Y-75627000D01*
X145523750Y-75627000D01*
X145397941Y-75752809D01*
X144375018Y-74729886D01*
X144375275Y-74436107D01*
X144142889Y-73873690D01*
X145365000Y-73873690D01*
X145365000Y-75214250D01*
X145523750Y-75373000D01*
X147373000Y-75373000D01*
X147373000Y-73523750D01*
X147627000Y-73523750D01*
X147627000Y-75373000D01*
X149476250Y-75373000D01*
X149635000Y-75214250D01*
X149635000Y-74500000D01*
X155040000Y-74500000D01*
X155040000Y-88500000D01*
X155094046Y-88771705D01*
X155247954Y-89002046D01*
X155478295Y-89155954D01*
X155750000Y-89210000D01*
X172750000Y-89210000D01*
X173021705Y-89155954D01*
X173252046Y-89002046D01*
X173405954Y-88771705D01*
X173460000Y-88500000D01*
X173460000Y-75113970D01*
X178065635Y-75113970D01*
X178225418Y-75432739D01*
X179016187Y-75742723D01*
X179865387Y-75726497D01*
X180574582Y-75432739D01*
X180734365Y-75113970D01*
X179400000Y-73779605D01*
X178065635Y-75113970D01*
X173460000Y-75113970D01*
X173460000Y-74500000D01*
X173405954Y-74228295D01*
X173252046Y-73997954D01*
X173021705Y-73844046D01*
X172750000Y-73790000D01*
X155750000Y-73790000D01*
X155478295Y-73844046D01*
X155247954Y-73997954D01*
X155094046Y-74228295D01*
X155040000Y-74500000D01*
X149635000Y-74500000D01*
X149635000Y-73873690D01*
X149538327Y-73640301D01*
X149359698Y-73461673D01*
X149126309Y-73365000D01*
X147785750Y-73365000D01*
X147627000Y-73523750D01*
X147373000Y-73523750D01*
X147214250Y-73365000D01*
X145873691Y-73365000D01*
X145640302Y-73461673D01*
X145461673Y-73640301D01*
X145365000Y-73873690D01*
X144142889Y-73873690D01*
X144134481Y-73853343D01*
X143689003Y-73407086D01*
X143229267Y-73216187D01*
X177257277Y-73216187D01*
X177273503Y-74065387D01*
X177567261Y-74774582D01*
X177886030Y-74934365D01*
X179220395Y-73600000D01*
X179579605Y-73600000D01*
X180913970Y-74934365D01*
X181232739Y-74774582D01*
X181542723Y-73983813D01*
X181526497Y-73134613D01*
X181232739Y-72425418D01*
X180913970Y-72265635D01*
X179579605Y-73600000D01*
X179220395Y-73600000D01*
X177886030Y-72265635D01*
X177567261Y-72425418D01*
X177257277Y-73216187D01*
X143229267Y-73216187D01*
X143106659Y-73165276D01*
X142476107Y-73164725D01*
X141893343Y-73405519D01*
X141788133Y-73510545D01*
X141738327Y-73390302D01*
X141559699Y-73211673D01*
X141326310Y-73115000D01*
X140535750Y-73115000D01*
X140377000Y-73273750D01*
X140123000Y-73273750D01*
X139964250Y-73115000D01*
X139173690Y-73115000D01*
X138940301Y-73211673D01*
X138761673Y-73390302D01*
X138665000Y-73623691D01*
X137512437Y-73623691D01*
X137464090Y-73548559D01*
X137251890Y-73403569D01*
X137000000Y-73352560D01*
X134000000Y-73352560D01*
X133764683Y-73396838D01*
X133548559Y-73535910D01*
X133403569Y-73748110D01*
X133352560Y-74000000D01*
X133352560Y-74593782D01*
X133197434Y-74697434D01*
X131042308Y-76852560D01*
X130150000Y-76852560D01*
X129914683Y-76896838D01*
X129698559Y-77035910D01*
X129553569Y-77248110D01*
X129502560Y-77500000D01*
X129502560Y-78392308D01*
X128347434Y-79547434D01*
X128101397Y-79915654D01*
X128015000Y-80350000D01*
X127960000Y-80350000D01*
X127960000Y-74500000D01*
X127905954Y-74228295D01*
X127752046Y-73997954D01*
X127521705Y-73844046D01*
X127250000Y-73790000D01*
X110250000Y-73790000D01*
X109978295Y-73844046D01*
X109747954Y-73997954D01*
X109594046Y-74228295D01*
X109540000Y-74500000D01*
X105540376Y-74500000D01*
X105742723Y-73983813D01*
X105726497Y-73134613D01*
X105432739Y-72425418D01*
X105113970Y-72265635D01*
X103779605Y-73600000D01*
X103420395Y-73600000D01*
X102086030Y-72265635D01*
X101767261Y-72425418D01*
X101457277Y-73216187D01*
X100710000Y-73216187D01*
X100710000Y-72086030D01*
X102265635Y-72086030D01*
X103600000Y-73420395D01*
X104934365Y-72086030D01*
X178065635Y-72086030D01*
X179400000Y-73420395D01*
X180734365Y-72086030D01*
X180574582Y-71767261D01*
X179783813Y-71457277D01*
X178934613Y-71473503D01*
X178225418Y-71767261D01*
X178065635Y-72086030D01*
X104934365Y-72086030D01*
X104774582Y-71767261D01*
X103983813Y-71457277D01*
X103134613Y-71473503D01*
X102425418Y-71767261D01*
X102265635Y-72086030D01*
X100710000Y-72086030D01*
X100710000Y-72069931D01*
X100821046Y-71511662D01*
X101097669Y-71097667D01*
X101511660Y-70821047D01*
X102069931Y-70710000D01*
X180930069Y-70710000D01*
X181488338Y-70821046D01*
X181488338Y-70821046D01*
G37*
X181488338Y-70821046D02*
X181902333Y-71097669D01*
X182178953Y-71511660D01*
X182290000Y-72069931D01*
X182290000Y-96930069D01*
X182178953Y-97488340D01*
X181902333Y-97902331D01*
X181488338Y-98178954D01*
X180930069Y-98290000D01*
X102069931Y-98290000D01*
X101511660Y-98178953D01*
X101097669Y-97902333D01*
X100821046Y-97488338D01*
X100710000Y-96930069D01*
X100710000Y-96913970D01*
X102265635Y-96913970D01*
X102425418Y-97232739D01*
X103216187Y-97542723D01*
X104065387Y-97526497D01*
X104774582Y-97232739D01*
X104934365Y-96913970D01*
X178065635Y-96913970D01*
X178225418Y-97232739D01*
X179016187Y-97542723D01*
X179865387Y-97526497D01*
X180574582Y-97232739D01*
X180734365Y-96913970D01*
X179400000Y-95579605D01*
X178065635Y-96913970D01*
X104934365Y-96913970D01*
X103600000Y-95579605D01*
X102265635Y-96913970D01*
X100710000Y-96913970D01*
X100710000Y-95016187D01*
X101457277Y-95016187D01*
X101473503Y-95865387D01*
X101767261Y-96574582D01*
X102086030Y-96734365D01*
X103420395Y-95400000D01*
X103779605Y-95400000D01*
X105113970Y-96734365D01*
X105432739Y-96574582D01*
X105742723Y-95783813D01*
X105728056Y-95016187D01*
X177257277Y-95016187D01*
X177273503Y-95865387D01*
X177567261Y-96574582D01*
X177886030Y-96734365D01*
X179220395Y-95400000D01*
X179579605Y-95400000D01*
X180913970Y-96734365D01*
X181232739Y-96574582D01*
X181542723Y-95783813D01*
X181526497Y-94934613D01*
X181232739Y-94225418D01*
X180913970Y-94065635D01*
X179579605Y-95400000D01*
X179220395Y-95400000D01*
X177886030Y-94065635D01*
X177567261Y-94225418D01*
X177257277Y-95016187D01*
X105728056Y-95016187D01*
X105726497Y-94934613D01*
X105432739Y-94225418D01*
X105113970Y-94065635D01*
X103779605Y-95400000D01*
X103420395Y-95400000D01*
X102086030Y-94065635D01*
X101767261Y-94225418D01*
X101457277Y-95016187D01*
X100710000Y-95016187D01*
X100710000Y-93886030D01*
X102265635Y-93886030D01*
X103600000Y-95220395D01*
X104934365Y-93886030D01*
X178065635Y-93886030D01*
X179400000Y-95220395D01*
X180734365Y-93886030D01*
X180574582Y-93567261D01*
X179783813Y-93257277D01*
X178934613Y-93273503D01*
X178225418Y-93567261D01*
X178065635Y-93886030D01*
X104934365Y-93886030D01*
X104774582Y-93567261D01*
X103983813Y-93257277D01*
X103134613Y-93273503D01*
X102425418Y-93567261D01*
X102265635Y-93886030D01*
X100710000Y-93886030D01*
X100710000Y-75113970D01*
X102265635Y-75113970D01*
X102425418Y-75432739D01*
X103216187Y-75742723D01*
X104065387Y-75726497D01*
X104774582Y-75432739D01*
X104934365Y-75113970D01*
X103600000Y-73779605D01*
X102265635Y-75113970D01*
X100710000Y-75113970D01*
X100710000Y-73216187D01*
X101457277Y-73216187D01*
X101473503Y-74065387D01*
X101767261Y-74774582D01*
X102086030Y-74934365D01*
X103420395Y-73600000D01*
X103779605Y-73600000D01*
X105113970Y-74934365D01*
X105432739Y-74774582D01*
X105540376Y-74500000D01*
X109540000Y-74500000D01*
X109540000Y-88500000D01*
X109594046Y-88771705D01*
X109747954Y-89002046D01*
X109978295Y-89155954D01*
X110250000Y-89210000D01*
X127250000Y-89210000D01*
X127521705Y-89155954D01*
X127752046Y-89002046D01*
X127905954Y-88771705D01*
X127960000Y-88500000D01*
X127960000Y-88000000D01*
X131676239Y-88000000D01*
X131793084Y-88587419D01*
X132125830Y-89085409D01*
X132623820Y-89418155D01*
X133211239Y-89535000D01*
X149788761Y-89535000D01*
X150376180Y-89418155D01*
X150874170Y-89085409D01*
X151206916Y-88587419D01*
X151323761Y-88000000D01*
X151206916Y-87412581D01*
X150874170Y-86914591D01*
X150376180Y-86581845D01*
X149788761Y-86465000D01*
X133211239Y-86465000D01*
X132623820Y-86581845D01*
X132125830Y-86914591D01*
X131793084Y-87412581D01*
X131676239Y-88000000D01*
X127960000Y-88000000D01*
X127960000Y-80350000D01*
X128015000Y-80350000D01*
X128015000Y-83760002D01*
X128101397Y-84194348D01*
X128195562Y-84335275D01*
X128347434Y-84562568D01*
X129037433Y-85252567D01*
X129405653Y-85498604D01*
X129839999Y-85585001D01*
X148199999Y-85585001D01*
X148634345Y-85498604D01*
X149002565Y-85252567D01*
X150542559Y-83712573D01*
X150546838Y-83735317D01*
X150685910Y-83951441D01*
X150898110Y-84096431D01*
X151150000Y-84147440D01*
X152850000Y-84147440D01*
X153085317Y-84103162D01*
X153301441Y-83964090D01*
X153446431Y-83751890D01*
X153497440Y-83500000D01*
X153497440Y-81500000D01*
X153453162Y-81264683D01*
X153314090Y-81048559D01*
X153101890Y-80903569D01*
X152850000Y-80852560D01*
X151150000Y-80852560D01*
X150914683Y-80896838D01*
X150698559Y-81035910D01*
X150553569Y-81248110D01*
X150529898Y-81365000D01*
X150150000Y-81365000D01*
X149715654Y-81451397D01*
X149665364Y-81485000D01*
X149347434Y-81697434D01*
X147729867Y-83315001D01*
X144335000Y-83315001D01*
X144335000Y-83035750D01*
X144176250Y-82877000D01*
X142877000Y-82877000D01*
X142877000Y-82897000D01*
X142623000Y-82897000D01*
X142623000Y-82877000D01*
X142603000Y-82877000D01*
X142603000Y-82623000D01*
X142623000Y-82623000D01*
X142623000Y-81273750D01*
X142877000Y-81273750D01*
X142877000Y-82623000D01*
X144176250Y-82623000D01*
X144335000Y-82464250D01*
X144335000Y-81623691D01*
X144238327Y-81390302D01*
X144059699Y-81211673D01*
X143826310Y-81115000D01*
X143035750Y-81115000D01*
X142877000Y-81273750D01*
X142623000Y-81273750D01*
X142464250Y-81115000D01*
X141673690Y-81115000D01*
X141440301Y-81211673D01*
X141261673Y-81390302D01*
X141211988Y-81510251D01*
X141109003Y-81407086D01*
X140526659Y-81165276D01*
X140230149Y-81165017D01*
X139327075Y-80261943D01*
X139401441Y-80214090D01*
X139546431Y-80001890D01*
X139597440Y-79750000D01*
X139597440Y-77750000D01*
X139553162Y-77514683D01*
X139414090Y-77298559D01*
X139201890Y-77153569D01*
X138950000Y-77102560D01*
X137626671Y-77102560D01*
X137647440Y-77000000D01*
X137647440Y-75035750D01*
X138665000Y-75035750D01*
X138665000Y-75876309D01*
X138761673Y-76109698D01*
X138940301Y-76288327D01*
X139173690Y-76385000D01*
X139964250Y-76385000D01*
X140123000Y-76226250D01*
X140123000Y-74877000D01*
X138823750Y-74877000D01*
X138665000Y-75035750D01*
X137647440Y-75035750D01*
X137647440Y-74000000D01*
X137603162Y-73764683D01*
X137512437Y-73623691D01*
X138665000Y-73623691D01*
X138665000Y-74464250D01*
X138823750Y-74623000D01*
X140123000Y-74623000D01*
X140123000Y-73273750D01*
X140377000Y-73273750D01*
X140377000Y-74623000D01*
X140397000Y-74623000D01*
X140397000Y-74877000D01*
X140377000Y-74877000D01*
X140377000Y-76226250D01*
X140535750Y-76385000D01*
X141326310Y-76385000D01*
X141559699Y-76288327D01*
X141738327Y-76109698D01*
X141788012Y-75989749D01*
X141890997Y-76092914D01*
X142473341Y-76334724D01*
X142769851Y-76334983D01*
X143672925Y-77238057D01*
X143598559Y-77285910D01*
X143453569Y-77498110D01*
X143402560Y-77750000D01*
X143402560Y-79750000D01*
X143446838Y-79985317D01*
X143585910Y-80201441D01*
X143798110Y-80346431D01*
X144050000Y-80397440D01*
X145950000Y-80397440D01*
X146185317Y-80353162D01*
X146401441Y-80214090D01*
X146546431Y-80001890D01*
X146547055Y-79998808D01*
X146640997Y-80092914D01*
X147223341Y-80334724D01*
X147853893Y-80335275D01*
X148436657Y-80094481D01*
X148646504Y-79885000D01*
X150643156Y-79885000D01*
X150685910Y-79951441D01*
X150898110Y-80096431D01*
X151150000Y-80147440D01*
X152850000Y-80147440D01*
X153085317Y-80103162D01*
X153301441Y-79964090D01*
X153446431Y-79751890D01*
X153497440Y-79500000D01*
X153497440Y-77500000D01*
X153453162Y-77264683D01*
X153314090Y-77048559D01*
X153101890Y-76903569D01*
X152850000Y-76852560D01*
X151150000Y-76852560D01*
X150914683Y-76896838D01*
X150698559Y-77035910D01*
X150553569Y-77248110D01*
X150502560Y-77500000D01*
X150502560Y-77615000D01*
X149174593Y-77615000D01*
X149359698Y-77538327D01*
X149538327Y-77359699D01*
X149635000Y-77126310D01*
X149635000Y-75785750D01*
X149476250Y-75627000D01*
X147627000Y-75627000D01*
X147627000Y-75647000D01*
X147373000Y-75647000D01*
X147373000Y-75627000D01*
X145523750Y-75627000D01*
X145397941Y-75752809D01*
X144375018Y-74729886D01*
X144375275Y-74436107D01*
X144142889Y-73873690D01*
X145365000Y-73873690D01*
X145365000Y-75214250D01*
X145523750Y-75373000D01*
X147373000Y-75373000D01*
X147373000Y-73523750D01*
X147627000Y-73523750D01*
X147627000Y-75373000D01*
X149476250Y-75373000D01*
X149635000Y-75214250D01*
X149635000Y-74500000D01*
X155040000Y-74500000D01*
X155040000Y-88500000D01*
X155094046Y-88771705D01*
X155247954Y-89002046D01*
X155478295Y-89155954D01*
X155750000Y-89210000D01*
X172750000Y-89210000D01*
X173021705Y-89155954D01*
X173252046Y-89002046D01*
X173405954Y-88771705D01*
X173460000Y-88500000D01*
X173460000Y-75113970D01*
X178065635Y-75113970D01*
X178225418Y-75432739D01*
X179016187Y-75742723D01*
X179865387Y-75726497D01*
X180574582Y-75432739D01*
X180734365Y-75113970D01*
X179400000Y-73779605D01*
X178065635Y-75113970D01*
X173460000Y-75113970D01*
X173460000Y-74500000D01*
X173405954Y-74228295D01*
X173252046Y-73997954D01*
X173021705Y-73844046D01*
X172750000Y-73790000D01*
X155750000Y-73790000D01*
X155478295Y-73844046D01*
X155247954Y-73997954D01*
X155094046Y-74228295D01*
X155040000Y-74500000D01*
X149635000Y-74500000D01*
X149635000Y-73873690D01*
X149538327Y-73640301D01*
X149359698Y-73461673D01*
X149126309Y-73365000D01*
X147785750Y-73365000D01*
X147627000Y-73523750D01*
X147373000Y-73523750D01*
X147214250Y-73365000D01*
X145873691Y-73365000D01*
X145640302Y-73461673D01*
X145461673Y-73640301D01*
X145365000Y-73873690D01*
X144142889Y-73873690D01*
X144134481Y-73853343D01*
X143689003Y-73407086D01*
X143229267Y-73216187D01*
X177257277Y-73216187D01*
X177273503Y-74065387D01*
X177567261Y-74774582D01*
X177886030Y-74934365D01*
X179220395Y-73600000D01*
X179579605Y-73600000D01*
X180913970Y-74934365D01*
X181232739Y-74774582D01*
X181542723Y-73983813D01*
X181526497Y-73134613D01*
X181232739Y-72425418D01*
X180913970Y-72265635D01*
X179579605Y-73600000D01*
X179220395Y-73600000D01*
X177886030Y-72265635D01*
X177567261Y-72425418D01*
X177257277Y-73216187D01*
X143229267Y-73216187D01*
X143106659Y-73165276D01*
X142476107Y-73164725D01*
X141893343Y-73405519D01*
X141788133Y-73510545D01*
X141738327Y-73390302D01*
X141559699Y-73211673D01*
X141326310Y-73115000D01*
X140535750Y-73115000D01*
X140377000Y-73273750D01*
X140123000Y-73273750D01*
X139964250Y-73115000D01*
X139173690Y-73115000D01*
X138940301Y-73211673D01*
X138761673Y-73390302D01*
X138665000Y-73623691D01*
X137512437Y-73623691D01*
X137464090Y-73548559D01*
X137251890Y-73403569D01*
X137000000Y-73352560D01*
X134000000Y-73352560D01*
X133764683Y-73396838D01*
X133548559Y-73535910D01*
X133403569Y-73748110D01*
X133352560Y-74000000D01*
X133352560Y-74593782D01*
X133197434Y-74697434D01*
X131042308Y-76852560D01*
X130150000Y-76852560D01*
X129914683Y-76896838D01*
X129698559Y-77035910D01*
X129553569Y-77248110D01*
X129502560Y-77500000D01*
X129502560Y-78392308D01*
X128347434Y-79547434D01*
X128101397Y-79915654D01*
X128015000Y-80350000D01*
X127960000Y-80350000D01*
X127960000Y-74500000D01*
X127905954Y-74228295D01*
X127752046Y-73997954D01*
X127521705Y-73844046D01*
X127250000Y-73790000D01*
X110250000Y-73790000D01*
X109978295Y-73844046D01*
X109747954Y-73997954D01*
X109594046Y-74228295D01*
X109540000Y-74500000D01*
X105540376Y-74500000D01*
X105742723Y-73983813D01*
X105726497Y-73134613D01*
X105432739Y-72425418D01*
X105113970Y-72265635D01*
X103779605Y-73600000D01*
X103420395Y-73600000D01*
X102086030Y-72265635D01*
X101767261Y-72425418D01*
X101457277Y-73216187D01*
X100710000Y-73216187D01*
X100710000Y-72086030D01*
X102265635Y-72086030D01*
X103600000Y-73420395D01*
X104934365Y-72086030D01*
X178065635Y-72086030D01*
X179400000Y-73420395D01*
X180734365Y-72086030D01*
X180574582Y-71767261D01*
X179783813Y-71457277D01*
X178934613Y-71473503D01*
X178225418Y-71767261D01*
X178065635Y-72086030D01*
X104934365Y-72086030D01*
X104774582Y-71767261D01*
X103983813Y-71457277D01*
X103134613Y-71473503D01*
X102425418Y-71767261D01*
X102265635Y-72086030D01*
X100710000Y-72086030D01*
X100710000Y-72069931D01*
X100821046Y-71511662D01*
X101097669Y-71097667D01*
X101511660Y-70821047D01*
X102069931Y-70710000D01*
X180930069Y-70710000D01*
X181488338Y-70821046D01*
M02*
