G04 #@! TF.FileFunction,Legend,Bot*
%FSLAX46Y46*%
G04 Gerber Fmt 4.6, Leading zero omitted, Abs format (unit mm)*
G04 Created by KiCad (PCBNEW 4.0.6) date Sunday, 17 September 2017 'AMt' 11:45:45*
%MOMM*%
%LPD*%
G01*
G04 APERTURE LIST*
%ADD10C,0.100000*%
%ADD11C,0.300000*%
%ADD12C,0.150000*%
G04 APERTURE END LIST*
D10*
D11*
X165142857Y-93678571D02*
X165142857Y-92178571D01*
X164642857Y-93250000D01*
X164142857Y-92178571D01*
X164142857Y-93678571D01*
X162785714Y-93678571D02*
X162785714Y-92892857D01*
X162857143Y-92750000D01*
X163000000Y-92678571D01*
X163285714Y-92678571D01*
X163428571Y-92750000D01*
X162785714Y-93607143D02*
X162928571Y-93678571D01*
X163285714Y-93678571D01*
X163428571Y-93607143D01*
X163500000Y-93464286D01*
X163500000Y-93321429D01*
X163428571Y-93178571D01*
X163285714Y-93107143D01*
X162928571Y-93107143D01*
X162785714Y-93035714D01*
X162071428Y-92678571D02*
X162071428Y-93678571D01*
X162071428Y-92821429D02*
X162000000Y-92750000D01*
X161857142Y-92678571D01*
X161642857Y-92678571D01*
X161500000Y-92750000D01*
X161428571Y-92892857D01*
X161428571Y-93678571D01*
X160071428Y-92678571D02*
X160071428Y-93678571D01*
X160714285Y-92678571D02*
X160714285Y-93464286D01*
X160642857Y-93607143D01*
X160499999Y-93678571D01*
X160285714Y-93678571D01*
X160142857Y-93607143D01*
X160071428Y-93535714D01*
X159571428Y-92678571D02*
X158999999Y-92678571D01*
X159357142Y-93678571D02*
X159357142Y-92392857D01*
X159285714Y-92250000D01*
X159142856Y-92178571D01*
X158999999Y-92178571D01*
X157857142Y-93678571D02*
X157857142Y-92892857D01*
X157928571Y-92750000D01*
X158071428Y-92678571D01*
X158357142Y-92678571D01*
X158499999Y-92750000D01*
X157857142Y-93607143D02*
X157999999Y-93678571D01*
X158357142Y-93678571D01*
X158499999Y-93607143D01*
X158571428Y-93464286D01*
X158571428Y-93321429D01*
X158499999Y-93178571D01*
X158357142Y-93107143D01*
X157999999Y-93107143D01*
X157857142Y-93035714D01*
X156499999Y-93607143D02*
X156642856Y-93678571D01*
X156928570Y-93678571D01*
X157071428Y-93607143D01*
X157142856Y-93535714D01*
X157214285Y-93392857D01*
X157214285Y-92964286D01*
X157142856Y-92821429D01*
X157071428Y-92750000D01*
X156928570Y-92678571D01*
X156642856Y-92678571D01*
X156499999Y-92750000D01*
X156071428Y-92678571D02*
X155499999Y-92678571D01*
X155857142Y-92178571D02*
X155857142Y-93464286D01*
X155785714Y-93607143D01*
X155642856Y-93678571D01*
X155499999Y-93678571D01*
X154357142Y-92678571D02*
X154357142Y-93678571D01*
X154999999Y-92678571D02*
X154999999Y-93464286D01*
X154928571Y-93607143D01*
X154785713Y-93678571D01*
X154571428Y-93678571D01*
X154428571Y-93607143D01*
X154357142Y-93535714D01*
X153642856Y-93678571D02*
X153642856Y-92678571D01*
X153642856Y-92964286D02*
X153571428Y-92821429D01*
X153499999Y-92750000D01*
X153357142Y-92678571D01*
X153214285Y-92678571D01*
X152142857Y-93607143D02*
X152285714Y-93678571D01*
X152571428Y-93678571D01*
X152714285Y-93607143D01*
X152785714Y-93464286D01*
X152785714Y-92892857D01*
X152714285Y-92750000D01*
X152571428Y-92678571D01*
X152285714Y-92678571D01*
X152142857Y-92750000D01*
X152071428Y-92892857D01*
X152071428Y-93035714D01*
X152785714Y-93178571D01*
X151428571Y-93678571D02*
X151428571Y-92678571D01*
X151428571Y-92964286D02*
X151357143Y-92821429D01*
X151285714Y-92750000D01*
X151142857Y-92678571D01*
X151000000Y-92678571D01*
X149357143Y-93678571D02*
X149357143Y-92678571D01*
X149357143Y-92821429D02*
X149285715Y-92750000D01*
X149142857Y-92678571D01*
X148928572Y-92678571D01*
X148785715Y-92750000D01*
X148714286Y-92892857D01*
X148714286Y-93678571D01*
X148714286Y-92892857D02*
X148642857Y-92750000D01*
X148500000Y-92678571D01*
X148285715Y-92678571D01*
X148142857Y-92750000D01*
X148071429Y-92892857D01*
X148071429Y-93678571D01*
X146714286Y-93678571D02*
X146714286Y-92892857D01*
X146785715Y-92750000D01*
X146928572Y-92678571D01*
X147214286Y-92678571D01*
X147357143Y-92750000D01*
X146714286Y-93607143D02*
X146857143Y-93678571D01*
X147214286Y-93678571D01*
X147357143Y-93607143D01*
X147428572Y-93464286D01*
X147428572Y-93321429D01*
X147357143Y-93178571D01*
X147214286Y-93107143D01*
X146857143Y-93107143D01*
X146714286Y-93035714D01*
X146000000Y-93678571D02*
X146000000Y-92678571D01*
X146000000Y-92964286D02*
X145928572Y-92821429D01*
X145857143Y-92750000D01*
X145714286Y-92678571D01*
X145571429Y-92678571D01*
X145071429Y-93678571D02*
X145071429Y-92178571D01*
X144928572Y-93107143D02*
X144500001Y-93678571D01*
X144500001Y-92678571D02*
X145071429Y-93250000D01*
X143928572Y-93607143D02*
X143785715Y-93678571D01*
X143500000Y-93678571D01*
X143357143Y-93607143D01*
X143285715Y-93464286D01*
X143285715Y-93392857D01*
X143357143Y-93250000D01*
X143500000Y-93178571D01*
X143714286Y-93178571D01*
X143857143Y-93107143D01*
X143928572Y-92964286D01*
X143928572Y-92892857D01*
X143857143Y-92750000D01*
X143714286Y-92678571D01*
X143500000Y-92678571D01*
X143357143Y-92750000D01*
X141285714Y-93678571D02*
X141428572Y-93607143D01*
X141500000Y-93535714D01*
X141571429Y-93392857D01*
X141571429Y-92964286D01*
X141500000Y-92821429D01*
X141428572Y-92750000D01*
X141285714Y-92678571D01*
X141071429Y-92678571D01*
X140928572Y-92750000D01*
X140857143Y-92821429D01*
X140785714Y-92964286D01*
X140785714Y-93392857D01*
X140857143Y-93535714D01*
X140928572Y-93607143D01*
X141071429Y-93678571D01*
X141285714Y-93678571D01*
X140142857Y-92678571D02*
X140142857Y-93678571D01*
X140142857Y-92821429D02*
X140071429Y-92750000D01*
X139928571Y-92678571D01*
X139714286Y-92678571D01*
X139571429Y-92750000D01*
X139500000Y-92892857D01*
X139500000Y-93678571D01*
X137857143Y-92678571D02*
X137285714Y-92678571D01*
X137642857Y-92178571D02*
X137642857Y-93464286D01*
X137571429Y-93607143D01*
X137428571Y-93678571D01*
X137285714Y-93678571D01*
X136785714Y-93678571D02*
X136785714Y-92178571D01*
X136142857Y-93678571D02*
X136142857Y-92892857D01*
X136214286Y-92750000D01*
X136357143Y-92678571D01*
X136571428Y-92678571D01*
X136714286Y-92750000D01*
X136785714Y-92821429D01*
X135428571Y-93678571D02*
X135428571Y-92678571D01*
X135428571Y-92178571D02*
X135500000Y-92250000D01*
X135428571Y-92321429D01*
X135357143Y-92250000D01*
X135428571Y-92178571D01*
X135428571Y-92321429D01*
X134785714Y-93607143D02*
X134642857Y-93678571D01*
X134357142Y-93678571D01*
X134214285Y-93607143D01*
X134142857Y-93464286D01*
X134142857Y-93392857D01*
X134214285Y-93250000D01*
X134357142Y-93178571D01*
X134571428Y-93178571D01*
X134714285Y-93107143D01*
X134785714Y-92964286D01*
X134785714Y-92892857D01*
X134714285Y-92750000D01*
X134571428Y-92678571D01*
X134357142Y-92678571D01*
X134214285Y-92750000D01*
X132428571Y-93607143D02*
X132285714Y-93678571D01*
X131999999Y-93678571D01*
X131857142Y-93607143D01*
X131785714Y-93464286D01*
X131785714Y-93392857D01*
X131857142Y-93250000D01*
X131999999Y-93178571D01*
X132214285Y-93178571D01*
X132357142Y-93107143D01*
X132428571Y-92964286D01*
X132428571Y-92892857D01*
X132357142Y-92750000D01*
X132214285Y-92678571D01*
X131999999Y-92678571D01*
X131857142Y-92750000D01*
X131142856Y-93678571D02*
X131142856Y-92678571D01*
X131142856Y-92178571D02*
X131214285Y-92250000D01*
X131142856Y-92321429D01*
X131071428Y-92250000D01*
X131142856Y-92178571D01*
X131142856Y-92321429D01*
X129785713Y-93678571D02*
X129785713Y-92178571D01*
X129785713Y-93607143D02*
X129928570Y-93678571D01*
X130214284Y-93678571D01*
X130357142Y-93607143D01*
X130428570Y-93535714D01*
X130499999Y-93392857D01*
X130499999Y-92964286D01*
X130428570Y-92821429D01*
X130357142Y-92750000D01*
X130214284Y-92678571D01*
X129928570Y-92678571D01*
X129785713Y-92750000D01*
X128499999Y-93607143D02*
X128642856Y-93678571D01*
X128928570Y-93678571D01*
X129071427Y-93607143D01*
X129142856Y-93464286D01*
X129142856Y-92892857D01*
X129071427Y-92750000D01*
X128928570Y-92678571D01*
X128642856Y-92678571D01*
X128499999Y-92750000D01*
X128428570Y-92892857D01*
X128428570Y-93035714D01*
X129142856Y-93178571D01*
X127714285Y-93607143D02*
X127714285Y-93678571D01*
X127785713Y-93821429D01*
X127857142Y-93892857D01*
X125928570Y-92678571D02*
X125928570Y-94178571D01*
X125928570Y-92750000D02*
X125785713Y-92678571D01*
X125499999Y-92678571D01*
X125357142Y-92750000D01*
X125285713Y-92821429D01*
X125214284Y-92964286D01*
X125214284Y-93392857D01*
X125285713Y-93535714D01*
X125357142Y-93607143D01*
X125499999Y-93678571D01*
X125785713Y-93678571D01*
X125928570Y-93607143D01*
X124357141Y-93678571D02*
X124499999Y-93607143D01*
X124571427Y-93464286D01*
X124571427Y-92178571D01*
X123214285Y-93607143D02*
X123357142Y-93678571D01*
X123642856Y-93678571D01*
X123785713Y-93607143D01*
X123857142Y-93464286D01*
X123857142Y-92892857D01*
X123785713Y-92750000D01*
X123642856Y-92678571D01*
X123357142Y-92678571D01*
X123214285Y-92750000D01*
X123142856Y-92892857D01*
X123142856Y-93035714D01*
X123857142Y-93178571D01*
X121857142Y-93678571D02*
X121857142Y-92892857D01*
X121928571Y-92750000D01*
X122071428Y-92678571D01*
X122357142Y-92678571D01*
X122499999Y-92750000D01*
X121857142Y-93607143D02*
X121999999Y-93678571D01*
X122357142Y-93678571D01*
X122499999Y-93607143D01*
X122571428Y-93464286D01*
X122571428Y-93321429D01*
X122499999Y-93178571D01*
X122357142Y-93107143D01*
X121999999Y-93107143D01*
X121857142Y-93035714D01*
X121214285Y-93607143D02*
X121071428Y-93678571D01*
X120785713Y-93678571D01*
X120642856Y-93607143D01*
X120571428Y-93464286D01*
X120571428Y-93392857D01*
X120642856Y-93250000D01*
X120785713Y-93178571D01*
X120999999Y-93178571D01*
X121142856Y-93107143D01*
X121214285Y-92964286D01*
X121214285Y-92892857D01*
X121142856Y-92750000D01*
X120999999Y-92678571D01*
X120785713Y-92678571D01*
X120642856Y-92750000D01*
X119357142Y-93607143D02*
X119499999Y-93678571D01*
X119785713Y-93678571D01*
X119928570Y-93607143D01*
X119999999Y-93464286D01*
X119999999Y-92892857D01*
X119928570Y-92750000D01*
X119785713Y-92678571D01*
X119499999Y-92678571D01*
X119357142Y-92750000D01*
X119285713Y-92892857D01*
X119285713Y-93035714D01*
X119999999Y-93178571D01*
X148392857Y-72250000D02*
X148535714Y-72178571D01*
X148750000Y-72178571D01*
X148964285Y-72250000D01*
X149107143Y-72392857D01*
X149178571Y-72535714D01*
X149250000Y-72821429D01*
X149250000Y-73035714D01*
X149178571Y-73321429D01*
X149107143Y-73464286D01*
X148964285Y-73607143D01*
X148750000Y-73678571D01*
X148607143Y-73678571D01*
X148392857Y-73607143D01*
X148321428Y-73535714D01*
X148321428Y-73035714D01*
X148607143Y-73035714D01*
X147678571Y-73678571D02*
X147678571Y-72178571D01*
X146821428Y-73678571D01*
X146821428Y-72178571D01*
X146107142Y-73678571D02*
X146107142Y-72178571D01*
X145749999Y-72178571D01*
X145535714Y-72250000D01*
X145392856Y-72392857D01*
X145321428Y-72535714D01*
X145249999Y-72821429D01*
X145249999Y-73035714D01*
X145321428Y-73321429D01*
X145392856Y-73464286D01*
X145535714Y-73607143D01*
X145749999Y-73678571D01*
X146107142Y-73678571D01*
X135785713Y-72178571D02*
X136499999Y-72178571D01*
X136571428Y-72892857D01*
X136499999Y-72821429D01*
X136357142Y-72750000D01*
X135999999Y-72750000D01*
X135857142Y-72821429D01*
X135785713Y-72892857D01*
X135714285Y-73035714D01*
X135714285Y-73392857D01*
X135785713Y-73535714D01*
X135857142Y-73607143D01*
X135999999Y-73678571D01*
X136357142Y-73678571D01*
X136499999Y-73607143D01*
X136571428Y-73535714D01*
X135285714Y-72178571D02*
X134785714Y-73678571D01*
X134285714Y-72178571D01*
D12*
X143785112Y-77225096D02*
G75*
G02X143770000Y-80250000I2484888J-1524904D01*
G01*
X143770000Y-77250000D02*
X143770000Y-80250000D01*
X148787936Y-78750000D02*
G75*
G03X148787936Y-78750000I-2517936J0D01*
G01*
X139035112Y-73225096D02*
G75*
G02X139020000Y-76250000I2484888J-1524904D01*
G01*
X139020000Y-73250000D02*
X139020000Y-76250000D01*
X144037936Y-74750000D02*
G75*
G03X144037936Y-74750000I-2517936J0D01*
G01*
X139214888Y-80274904D02*
G75*
G02X139230000Y-77250000I-2484888J1524904D01*
G01*
X139230000Y-80250000D02*
X139230000Y-77250000D01*
X139247936Y-78750000D02*
G75*
G03X139247936Y-78750000I-2517936J0D01*
G01*
X143964888Y-84274904D02*
G75*
G02X143980000Y-81250000I-2484888J1524904D01*
G01*
X143980000Y-84250000D02*
X143980000Y-81250000D01*
X143997936Y-82750000D02*
G75*
G03X143997936Y-82750000I-2517936J0D01*
G01*
X150925000Y-79500000D02*
X150925000Y-81500000D01*
X153075000Y-81500000D02*
X153075000Y-79500000D01*
X132075000Y-81500000D02*
X132075000Y-79500000D01*
X129925000Y-79500000D02*
X129925000Y-81500000D01*
X147238095Y-80952381D02*
X147238095Y-79952381D01*
X147000000Y-79952381D01*
X146857142Y-80000000D01*
X146761904Y-80095238D01*
X146714285Y-80190476D01*
X146666666Y-80380952D01*
X146666666Y-80523810D01*
X146714285Y-80714286D01*
X146761904Y-80809524D01*
X146857142Y-80904762D01*
X147000000Y-80952381D01*
X147238095Y-80952381D01*
X145714285Y-80952381D02*
X146285714Y-80952381D01*
X146000000Y-80952381D02*
X146000000Y-79952381D01*
X146095238Y-80095238D01*
X146190476Y-80190476D01*
X146285714Y-80238095D01*
X143356905Y-77297381D02*
X143356905Y-76297381D01*
X142785476Y-77297381D02*
X143214048Y-76725952D01*
X142785476Y-76297381D02*
X143356905Y-76868810D01*
X142488095Y-76952381D02*
X142488095Y-75952381D01*
X142250000Y-75952381D01*
X142107142Y-76000000D01*
X142011904Y-76095238D01*
X141964285Y-76190476D01*
X141916666Y-76380952D01*
X141916666Y-76523810D01*
X141964285Y-76714286D01*
X142011904Y-76809524D01*
X142107142Y-76904762D01*
X142250000Y-76952381D01*
X142488095Y-76952381D01*
X141535714Y-76047619D02*
X141488095Y-76000000D01*
X141392857Y-75952381D01*
X141154761Y-75952381D01*
X141059523Y-76000000D01*
X141011904Y-76047619D01*
X140964285Y-76142857D01*
X140964285Y-76238095D01*
X141011904Y-76380952D01*
X141583333Y-76952381D01*
X140964285Y-76952381D01*
X138606905Y-73297381D02*
X138606905Y-72297381D01*
X138035476Y-73297381D02*
X138464048Y-72725952D01*
X138035476Y-72297381D02*
X138606905Y-72868810D01*
X137488095Y-80952381D02*
X137488095Y-79952381D01*
X137250000Y-79952381D01*
X137107142Y-80000000D01*
X137011904Y-80095238D01*
X136964285Y-80190476D01*
X136916666Y-80380952D01*
X136916666Y-80523810D01*
X136964285Y-80714286D01*
X137011904Y-80809524D01*
X137107142Y-80904762D01*
X137250000Y-80952381D01*
X137488095Y-80952381D01*
X136583333Y-79952381D02*
X135964285Y-79952381D01*
X136297619Y-80333333D01*
X136154761Y-80333333D01*
X136059523Y-80380952D01*
X136011904Y-80428571D01*
X135964285Y-80523810D01*
X135964285Y-80761905D01*
X136011904Y-80857143D01*
X136059523Y-80904762D01*
X136154761Y-80952381D01*
X136440476Y-80952381D01*
X136535714Y-80904762D01*
X136583333Y-80857143D01*
X140166905Y-81107381D02*
X140166905Y-80107381D01*
X139595476Y-81107381D02*
X140024048Y-80535952D01*
X139595476Y-80107381D02*
X140166905Y-80678810D01*
X142238095Y-84952381D02*
X142238095Y-83952381D01*
X142000000Y-83952381D01*
X141857142Y-84000000D01*
X141761904Y-84095238D01*
X141714285Y-84190476D01*
X141666666Y-84380952D01*
X141666666Y-84523810D01*
X141714285Y-84714286D01*
X141761904Y-84809524D01*
X141857142Y-84904762D01*
X142000000Y-84952381D01*
X142238095Y-84952381D01*
X140809523Y-84285714D02*
X140809523Y-84952381D01*
X141047619Y-83904762D02*
X141285714Y-84619048D01*
X140666666Y-84619048D01*
X144916905Y-85107381D02*
X144916905Y-84107381D01*
X144345476Y-85107381D02*
X144774048Y-84535952D01*
X144345476Y-84107381D02*
X144916905Y-84678810D01*
X154452381Y-80333334D02*
X153976190Y-80000000D01*
X154452381Y-79761905D02*
X153452381Y-79761905D01*
X153452381Y-80142858D01*
X153500000Y-80238096D01*
X153547619Y-80285715D01*
X153642857Y-80333334D01*
X153785714Y-80333334D01*
X153880952Y-80285715D01*
X153928571Y-80238096D01*
X153976190Y-80142858D01*
X153976190Y-79761905D01*
X154452381Y-81285715D02*
X154452381Y-80714286D01*
X154452381Y-81000000D02*
X153452381Y-81000000D01*
X153595238Y-80904762D01*
X153690476Y-80809524D01*
X153738095Y-80714286D01*
X129452381Y-80333334D02*
X128976190Y-80000000D01*
X129452381Y-79761905D02*
X128452381Y-79761905D01*
X128452381Y-80142858D01*
X128500000Y-80238096D01*
X128547619Y-80285715D01*
X128642857Y-80333334D01*
X128785714Y-80333334D01*
X128880952Y-80285715D01*
X128928571Y-80238096D01*
X128976190Y-80142858D01*
X128976190Y-79761905D01*
X128547619Y-80714286D02*
X128500000Y-80761905D01*
X128452381Y-80857143D01*
X128452381Y-81095239D01*
X128500000Y-81190477D01*
X128547619Y-81238096D01*
X128642857Y-81285715D01*
X128738095Y-81285715D01*
X128880952Y-81238096D01*
X129452381Y-80666667D01*
X129452381Y-81285715D01*
X133083333Y-74952381D02*
X133083333Y-75666667D01*
X133130953Y-75809524D01*
X133226191Y-75904762D01*
X133369048Y-75952381D01*
X133464286Y-75952381D01*
X132083333Y-75952381D02*
X132654762Y-75952381D01*
X132369048Y-75952381D02*
X132369048Y-74952381D01*
X132464286Y-75095238D01*
X132559524Y-75190476D01*
X132654762Y-75238095D01*
X150583333Y-74952381D02*
X150583333Y-75666667D01*
X150630953Y-75809524D01*
X150726191Y-75904762D01*
X150869048Y-75952381D01*
X150964286Y-75952381D01*
X150154762Y-75047619D02*
X150107143Y-75000000D01*
X150011905Y-74952381D01*
X149773809Y-74952381D01*
X149678571Y-75000000D01*
X149630952Y-75047619D01*
X149583333Y-75142857D01*
X149583333Y-75238095D01*
X149630952Y-75380952D01*
X150202381Y-75952381D01*
X149583333Y-75952381D01*
M02*
