G04 #@! TF.FileFunction,Copper,L1,Top,Signal*
%FSLAX46Y46*%
G04 Gerber Fmt 4.6, Leading zero omitted, Abs format (unit mm)*
G04 Created by KiCad (PCBNEW 4.0.6) date Sunday, 17 September 2017 'PMt' 18:01:16*
%MOMM*%
%LPD*%
G01*
G04 APERTURE LIST*
%ADD10C,0.100000*%
%ADD11C,3.000000*%
%ADD12C,0.254000*%
G04 APERTURE END LIST*
D10*
D11*
X179400000Y-73600000D03*
X179400000Y-95400000D03*
X103600000Y-95400000D03*
X103600000Y-73600000D03*
D12*
G36*
X181488338Y-70821046D02*
X181902333Y-71097669D01*
X182178953Y-71511660D01*
X182290000Y-72069931D01*
X182290000Y-96930069D01*
X182178953Y-97488340D01*
X181902333Y-97902331D01*
X181488338Y-98178954D01*
X180930069Y-98290000D01*
X102069931Y-98290000D01*
X101511660Y-98178953D01*
X101097669Y-97902333D01*
X100821046Y-97488338D01*
X100710000Y-96930069D01*
X100710000Y-96913970D01*
X102265635Y-96913970D01*
X102425418Y-97232739D01*
X103216187Y-97542723D01*
X104065387Y-97526497D01*
X104774582Y-97232739D01*
X104934365Y-96913970D01*
X178065635Y-96913970D01*
X178225418Y-97232739D01*
X179016187Y-97542723D01*
X179865387Y-97526497D01*
X180574582Y-97232739D01*
X180734365Y-96913970D01*
X179400000Y-95579605D01*
X178065635Y-96913970D01*
X104934365Y-96913970D01*
X103600000Y-95579605D01*
X102265635Y-96913970D01*
X100710000Y-96913970D01*
X100710000Y-95016187D01*
X101457277Y-95016187D01*
X101473503Y-95865387D01*
X101767261Y-96574582D01*
X102086030Y-96734365D01*
X103420395Y-95400000D01*
X103779605Y-95400000D01*
X105113970Y-96734365D01*
X105432739Y-96574582D01*
X105742723Y-95783813D01*
X105728056Y-95016187D01*
X177257277Y-95016187D01*
X177273503Y-95865387D01*
X177567261Y-96574582D01*
X177886030Y-96734365D01*
X179220395Y-95400000D01*
X179579605Y-95400000D01*
X180913970Y-96734365D01*
X181232739Y-96574582D01*
X181542723Y-95783813D01*
X181526497Y-94934613D01*
X181232739Y-94225418D01*
X180913970Y-94065635D01*
X179579605Y-95400000D01*
X179220395Y-95400000D01*
X177886030Y-94065635D01*
X177567261Y-94225418D01*
X177257277Y-95016187D01*
X105728056Y-95016187D01*
X105726497Y-94934613D01*
X105432739Y-94225418D01*
X105113970Y-94065635D01*
X103779605Y-95400000D01*
X103420395Y-95400000D01*
X102086030Y-94065635D01*
X101767261Y-94225418D01*
X101457277Y-95016187D01*
X100710000Y-95016187D01*
X100710000Y-93886030D01*
X102265635Y-93886030D01*
X103600000Y-95220395D01*
X104934365Y-93886030D01*
X178065635Y-93886030D01*
X179400000Y-95220395D01*
X180734365Y-93886030D01*
X180574582Y-93567261D01*
X179783813Y-93257277D01*
X178934613Y-93273503D01*
X178225418Y-93567261D01*
X178065635Y-93886030D01*
X104934365Y-93886030D01*
X104774582Y-93567261D01*
X103983813Y-93257277D01*
X103134613Y-93273503D01*
X102425418Y-93567261D01*
X102265635Y-93886030D01*
X100710000Y-93886030D01*
X100710000Y-84250000D01*
X109790000Y-84250000D01*
X109790000Y-88500000D01*
X109844046Y-88771705D01*
X109997954Y-89002046D01*
X110228295Y-89155954D01*
X110500000Y-89210000D01*
X119000000Y-89210000D01*
X119271705Y-89155954D01*
X119502046Y-89002046D01*
X119655954Y-88771705D01*
X119710000Y-88500000D01*
X119710000Y-84250000D01*
X119655954Y-83978295D01*
X119502046Y-83747954D01*
X119271705Y-83594046D01*
X119000000Y-83540000D01*
X110500000Y-83540000D01*
X110228295Y-83594046D01*
X109997954Y-83747954D01*
X109844046Y-83978295D01*
X109790000Y-84250000D01*
X100710000Y-84250000D01*
X100710000Y-83266934D01*
X133364110Y-83266934D01*
X134144220Y-85154944D01*
X135587458Y-86600703D01*
X137474104Y-87384107D01*
X139516934Y-87385890D01*
X141404944Y-86605780D01*
X142850703Y-85162542D01*
X143634107Y-83275896D01*
X143634114Y-83266934D01*
X150114110Y-83266934D01*
X150894220Y-85154944D01*
X152337458Y-86600703D01*
X154224104Y-87384107D01*
X156266934Y-87385890D01*
X158154944Y-86605780D01*
X159600703Y-85162542D01*
X160384107Y-83275896D01*
X160384114Y-83266934D01*
X162364110Y-83266934D01*
X163144220Y-85154944D01*
X164587458Y-86600703D01*
X166474104Y-87384107D01*
X168516934Y-87385890D01*
X170404944Y-86605780D01*
X171850703Y-85162542D01*
X172634107Y-83275896D01*
X172635890Y-81233066D01*
X171855780Y-79345056D01*
X170412542Y-77899297D01*
X168525896Y-77115893D01*
X166483066Y-77114110D01*
X164595056Y-77894220D01*
X163149297Y-79337458D01*
X162365893Y-81224104D01*
X162364110Y-83266934D01*
X160384114Y-83266934D01*
X160385890Y-81233066D01*
X159605780Y-79345056D01*
X158162542Y-77899297D01*
X156275896Y-77115893D01*
X154233066Y-77114110D01*
X152345056Y-77894220D01*
X150899297Y-79337458D01*
X150115893Y-81224104D01*
X150114110Y-83266934D01*
X143634114Y-83266934D01*
X143635890Y-81233066D01*
X142855780Y-79345056D01*
X141412542Y-77899297D01*
X139525896Y-77115893D01*
X137483066Y-77114110D01*
X135595056Y-77894220D01*
X134149297Y-79337458D01*
X133365893Y-81224104D01*
X133364110Y-83266934D01*
X100710000Y-83266934D01*
X100710000Y-75113970D01*
X102265635Y-75113970D01*
X102425418Y-75432739D01*
X103216187Y-75742723D01*
X104065387Y-75726497D01*
X104774582Y-75432739D01*
X104934365Y-75113970D01*
X178065635Y-75113970D01*
X178225418Y-75432739D01*
X179016187Y-75742723D01*
X179865387Y-75726497D01*
X180574582Y-75432739D01*
X180734365Y-75113970D01*
X179400000Y-73779605D01*
X178065635Y-75113970D01*
X104934365Y-75113970D01*
X103600000Y-73779605D01*
X102265635Y-75113970D01*
X100710000Y-75113970D01*
X100710000Y-73216187D01*
X101457277Y-73216187D01*
X101473503Y-74065387D01*
X101767261Y-74774582D01*
X102086030Y-74934365D01*
X103420395Y-73600000D01*
X103779605Y-73600000D01*
X105113970Y-74934365D01*
X105432739Y-74774582D01*
X105742723Y-73983813D01*
X105728056Y-73216187D01*
X177257277Y-73216187D01*
X177273503Y-74065387D01*
X177567261Y-74774582D01*
X177886030Y-74934365D01*
X179220395Y-73600000D01*
X179579605Y-73600000D01*
X180913970Y-74934365D01*
X181232739Y-74774582D01*
X181542723Y-73983813D01*
X181526497Y-73134613D01*
X181232739Y-72425418D01*
X180913970Y-72265635D01*
X179579605Y-73600000D01*
X179220395Y-73600000D01*
X177886030Y-72265635D01*
X177567261Y-72425418D01*
X177257277Y-73216187D01*
X105728056Y-73216187D01*
X105726497Y-73134613D01*
X105432739Y-72425418D01*
X105113970Y-72265635D01*
X103779605Y-73600000D01*
X103420395Y-73600000D01*
X102086030Y-72265635D01*
X101767261Y-72425418D01*
X101457277Y-73216187D01*
X100710000Y-73216187D01*
X100710000Y-72086030D01*
X102265635Y-72086030D01*
X103600000Y-73420395D01*
X104934365Y-72086030D01*
X178065635Y-72086030D01*
X179400000Y-73420395D01*
X180734365Y-72086030D01*
X180574582Y-71767261D01*
X179783813Y-71457277D01*
X178934613Y-71473503D01*
X178225418Y-71767261D01*
X178065635Y-72086030D01*
X104934365Y-72086030D01*
X104774582Y-71767261D01*
X103983813Y-71457277D01*
X103134613Y-71473503D01*
X102425418Y-71767261D01*
X102265635Y-72086030D01*
X100710000Y-72086030D01*
X100710000Y-72069931D01*
X100821046Y-71511662D01*
X101097669Y-71097667D01*
X101511660Y-70821047D01*
X102069931Y-70710000D01*
X180930069Y-70710000D01*
X181488338Y-70821046D01*
X181488338Y-70821046D01*
G37*
X181488338Y-70821046D02*
X181902333Y-71097669D01*
X182178953Y-71511660D01*
X182290000Y-72069931D01*
X182290000Y-96930069D01*
X182178953Y-97488340D01*
X181902333Y-97902331D01*
X181488338Y-98178954D01*
X180930069Y-98290000D01*
X102069931Y-98290000D01*
X101511660Y-98178953D01*
X101097669Y-97902333D01*
X100821046Y-97488338D01*
X100710000Y-96930069D01*
X100710000Y-96913970D01*
X102265635Y-96913970D01*
X102425418Y-97232739D01*
X103216187Y-97542723D01*
X104065387Y-97526497D01*
X104774582Y-97232739D01*
X104934365Y-96913970D01*
X178065635Y-96913970D01*
X178225418Y-97232739D01*
X179016187Y-97542723D01*
X179865387Y-97526497D01*
X180574582Y-97232739D01*
X180734365Y-96913970D01*
X179400000Y-95579605D01*
X178065635Y-96913970D01*
X104934365Y-96913970D01*
X103600000Y-95579605D01*
X102265635Y-96913970D01*
X100710000Y-96913970D01*
X100710000Y-95016187D01*
X101457277Y-95016187D01*
X101473503Y-95865387D01*
X101767261Y-96574582D01*
X102086030Y-96734365D01*
X103420395Y-95400000D01*
X103779605Y-95400000D01*
X105113970Y-96734365D01*
X105432739Y-96574582D01*
X105742723Y-95783813D01*
X105728056Y-95016187D01*
X177257277Y-95016187D01*
X177273503Y-95865387D01*
X177567261Y-96574582D01*
X177886030Y-96734365D01*
X179220395Y-95400000D01*
X179579605Y-95400000D01*
X180913970Y-96734365D01*
X181232739Y-96574582D01*
X181542723Y-95783813D01*
X181526497Y-94934613D01*
X181232739Y-94225418D01*
X180913970Y-94065635D01*
X179579605Y-95400000D01*
X179220395Y-95400000D01*
X177886030Y-94065635D01*
X177567261Y-94225418D01*
X177257277Y-95016187D01*
X105728056Y-95016187D01*
X105726497Y-94934613D01*
X105432739Y-94225418D01*
X105113970Y-94065635D01*
X103779605Y-95400000D01*
X103420395Y-95400000D01*
X102086030Y-94065635D01*
X101767261Y-94225418D01*
X101457277Y-95016187D01*
X100710000Y-95016187D01*
X100710000Y-93886030D01*
X102265635Y-93886030D01*
X103600000Y-95220395D01*
X104934365Y-93886030D01*
X178065635Y-93886030D01*
X179400000Y-95220395D01*
X180734365Y-93886030D01*
X180574582Y-93567261D01*
X179783813Y-93257277D01*
X178934613Y-93273503D01*
X178225418Y-93567261D01*
X178065635Y-93886030D01*
X104934365Y-93886030D01*
X104774582Y-93567261D01*
X103983813Y-93257277D01*
X103134613Y-93273503D01*
X102425418Y-93567261D01*
X102265635Y-93886030D01*
X100710000Y-93886030D01*
X100710000Y-84250000D01*
X109790000Y-84250000D01*
X109790000Y-88500000D01*
X109844046Y-88771705D01*
X109997954Y-89002046D01*
X110228295Y-89155954D01*
X110500000Y-89210000D01*
X119000000Y-89210000D01*
X119271705Y-89155954D01*
X119502046Y-89002046D01*
X119655954Y-88771705D01*
X119710000Y-88500000D01*
X119710000Y-84250000D01*
X119655954Y-83978295D01*
X119502046Y-83747954D01*
X119271705Y-83594046D01*
X119000000Y-83540000D01*
X110500000Y-83540000D01*
X110228295Y-83594046D01*
X109997954Y-83747954D01*
X109844046Y-83978295D01*
X109790000Y-84250000D01*
X100710000Y-84250000D01*
X100710000Y-83266934D01*
X133364110Y-83266934D01*
X134144220Y-85154944D01*
X135587458Y-86600703D01*
X137474104Y-87384107D01*
X139516934Y-87385890D01*
X141404944Y-86605780D01*
X142850703Y-85162542D01*
X143634107Y-83275896D01*
X143634114Y-83266934D01*
X150114110Y-83266934D01*
X150894220Y-85154944D01*
X152337458Y-86600703D01*
X154224104Y-87384107D01*
X156266934Y-87385890D01*
X158154944Y-86605780D01*
X159600703Y-85162542D01*
X160384107Y-83275896D01*
X160384114Y-83266934D01*
X162364110Y-83266934D01*
X163144220Y-85154944D01*
X164587458Y-86600703D01*
X166474104Y-87384107D01*
X168516934Y-87385890D01*
X170404944Y-86605780D01*
X171850703Y-85162542D01*
X172634107Y-83275896D01*
X172635890Y-81233066D01*
X171855780Y-79345056D01*
X170412542Y-77899297D01*
X168525896Y-77115893D01*
X166483066Y-77114110D01*
X164595056Y-77894220D01*
X163149297Y-79337458D01*
X162365893Y-81224104D01*
X162364110Y-83266934D01*
X160384114Y-83266934D01*
X160385890Y-81233066D01*
X159605780Y-79345056D01*
X158162542Y-77899297D01*
X156275896Y-77115893D01*
X154233066Y-77114110D01*
X152345056Y-77894220D01*
X150899297Y-79337458D01*
X150115893Y-81224104D01*
X150114110Y-83266934D01*
X143634114Y-83266934D01*
X143635890Y-81233066D01*
X142855780Y-79345056D01*
X141412542Y-77899297D01*
X139525896Y-77115893D01*
X137483066Y-77114110D01*
X135595056Y-77894220D01*
X134149297Y-79337458D01*
X133365893Y-81224104D01*
X133364110Y-83266934D01*
X100710000Y-83266934D01*
X100710000Y-75113970D01*
X102265635Y-75113970D01*
X102425418Y-75432739D01*
X103216187Y-75742723D01*
X104065387Y-75726497D01*
X104774582Y-75432739D01*
X104934365Y-75113970D01*
X178065635Y-75113970D01*
X178225418Y-75432739D01*
X179016187Y-75742723D01*
X179865387Y-75726497D01*
X180574582Y-75432739D01*
X180734365Y-75113970D01*
X179400000Y-73779605D01*
X178065635Y-75113970D01*
X104934365Y-75113970D01*
X103600000Y-73779605D01*
X102265635Y-75113970D01*
X100710000Y-75113970D01*
X100710000Y-73216187D01*
X101457277Y-73216187D01*
X101473503Y-74065387D01*
X101767261Y-74774582D01*
X102086030Y-74934365D01*
X103420395Y-73600000D01*
X103779605Y-73600000D01*
X105113970Y-74934365D01*
X105432739Y-74774582D01*
X105742723Y-73983813D01*
X105728056Y-73216187D01*
X177257277Y-73216187D01*
X177273503Y-74065387D01*
X177567261Y-74774582D01*
X177886030Y-74934365D01*
X179220395Y-73600000D01*
X179579605Y-73600000D01*
X180913970Y-74934365D01*
X181232739Y-74774582D01*
X181542723Y-73983813D01*
X181526497Y-73134613D01*
X181232739Y-72425418D01*
X180913970Y-72265635D01*
X179579605Y-73600000D01*
X179220395Y-73600000D01*
X177886030Y-72265635D01*
X177567261Y-72425418D01*
X177257277Y-73216187D01*
X105728056Y-73216187D01*
X105726497Y-73134613D01*
X105432739Y-72425418D01*
X105113970Y-72265635D01*
X103779605Y-73600000D01*
X103420395Y-73600000D01*
X102086030Y-72265635D01*
X101767261Y-72425418D01*
X101457277Y-73216187D01*
X100710000Y-73216187D01*
X100710000Y-72086030D01*
X102265635Y-72086030D01*
X103600000Y-73420395D01*
X104934365Y-72086030D01*
X178065635Y-72086030D01*
X179400000Y-73420395D01*
X180734365Y-72086030D01*
X180574582Y-71767261D01*
X179783813Y-71457277D01*
X178934613Y-71473503D01*
X178225418Y-71767261D01*
X178065635Y-72086030D01*
X104934365Y-72086030D01*
X104774582Y-71767261D01*
X103983813Y-71457277D01*
X103134613Y-71473503D01*
X102425418Y-71767261D01*
X102265635Y-72086030D01*
X100710000Y-72086030D01*
X100710000Y-72069931D01*
X100821046Y-71511662D01*
X101097669Y-71097667D01*
X101511660Y-70821047D01*
X102069931Y-70710000D01*
X180930069Y-70710000D01*
X181488338Y-70821046D01*
M02*
