G04 #@! TF.FileFunction,Soldermask,Bot*
%FSLAX46Y46*%
G04 Gerber Fmt 4.6, Leading zero omitted, Abs format (unit mm)*
G04 Created by KiCad (PCBNEW 4.0.6) date Wednesday, 23 August 2017 'PMt' 20:48:00*
%MOMM*%
%LPD*%
G01*
G04 APERTURE LIST*
%ADD10C,0.100000*%
%ADD11C,3.200000*%
%ADD12R,2.100000X2.100000*%
%ADD13O,2.100000X2.100000*%
%ADD14R,2.300000X2.400000*%
%ADD15C,2.300000*%
%ADD16C,2.432000*%
%ADD17R,2.432000X2.432000*%
%ADD18O,2.127200X2.432000*%
%ADD19R,2.127200X2.432000*%
%ADD20O,2.432000X2.127200*%
%ADD21R,2.432000X2.127200*%
%ADD22C,1.924000*%
%ADD23R,2.000000X2.000000*%
%ADD24C,2.000000*%
%ADD25C,1.299160*%
%ADD26O,4.100000X2.400000*%
%ADD27O,2.398980X3.597860*%
%ADD28C,2.400000*%
G04 APERTURE END LIST*
D10*
D11*
X212706000Y-75313000D03*
X212706000Y-123563000D03*
X124206000Y-123563000D03*
D12*
X208280000Y-120015000D03*
D13*
X205740000Y-120015000D03*
X203200000Y-120015000D03*
X200660000Y-120015000D03*
X198120000Y-120015000D03*
X195580000Y-120015000D03*
D11*
X124206000Y-75313000D03*
D14*
X172085000Y-124460000D03*
D15*
X169545000Y-124460000D03*
D14*
X177800000Y-124460000D03*
D15*
X175260000Y-124460000D03*
D14*
X163322000Y-124460000D03*
D15*
X165862000Y-124460000D03*
D14*
X157480000Y-124460000D03*
D15*
X160020000Y-124460000D03*
D16*
X180340000Y-74295000D03*
D17*
X182880000Y-74295000D03*
D16*
X165100000Y-74295000D03*
D17*
X167640000Y-74295000D03*
D16*
X190500000Y-74295000D03*
D18*
X193040000Y-74295000D03*
X195580000Y-74295000D03*
X198120000Y-74295000D03*
X200660000Y-74295000D03*
X203200000Y-74295000D03*
X205740000Y-74295000D03*
D19*
X208280000Y-74295000D03*
D16*
X213360000Y-79375000D03*
D20*
X213360000Y-81915000D03*
X213360000Y-84455000D03*
X213360000Y-86995000D03*
X213360000Y-89535000D03*
X213360000Y-92075000D03*
X213360000Y-94615000D03*
D21*
X213360000Y-97155000D03*
D22*
X148590000Y-106045000D03*
X146050000Y-106045000D03*
X151130000Y-106045000D03*
X180340000Y-94615000D03*
X177800000Y-94615000D03*
X182880000Y-94615000D03*
X168275000Y-94615000D03*
X165735000Y-94615000D03*
X170815000Y-94615000D03*
D12*
X125095000Y-79375000D03*
D13*
X122555000Y-79375000D03*
D23*
X130429000Y-75224000D03*
D24*
X130429000Y-77724000D03*
D23*
X157480000Y-77597000D03*
D24*
X157480000Y-75097000D03*
D25*
X141569440Y-76522580D03*
X137170160Y-76522580D03*
D26*
X130208600Y-106924800D03*
D27*
X125958600Y-103174800D03*
D26*
X130208600Y-99424800D03*
D28*
X122583600Y-107424800D03*
X122583600Y-98924800D03*
D26*
X130234000Y-119066000D03*
D27*
X125984000Y-115316000D03*
D26*
X130234000Y-111566000D03*
D28*
X122609000Y-119566000D03*
X122609000Y-111066000D03*
D26*
X130234000Y-90745000D03*
D27*
X125984000Y-86995000D03*
D26*
X130234000Y-83245000D03*
D28*
X122609000Y-82745000D03*
X122609000Y-91245000D03*
M02*
