M48
;DRILL file {KiCad 4.0.6} date Wednesday, 23 August 2017 'PMt' 20:48:09
;FORMAT={-:-/ absolute / inch / decimal}
FMAT,2
INCH,TZ
T1C0.016
T2C0.031
T3C0.032
T4C0.039
T5C0.039
T6C0.039
T7C0.040
T8C0.110
%
G90
G05
M72
T1
X5.575Y-4.425
X5.575Y-4.525
X5.6Y-3.189
X5.6Y-3.85
X5.625Y-3.35
X5.65Y-3.55
X5.6969Y-4.35
X5.7Y-4.275
X5.75Y-4.45
X5.775Y-4.1
X5.7963Y-3.725
X5.8Y-3.35
X5.8Y-3.9
X5.825Y-3.
X6.025Y-3.35
X6.125Y-3.4
X6.2Y-3.3
X6.225Y-3.5
X6.3382Y-3.6515
X6.3633Y-3.55
X6.4Y-3.45
X6.425Y-4.25
X6.55Y-3.15
X6.575Y-3.675
X6.8Y-3.35
X6.825Y-3.25
X6.825Y-4.325
X6.85Y-3.15
X6.85Y-4.075
X6.8569Y-3.475
X6.9Y-3.3
X6.9249Y-3.3251
X6.95Y-3.975
X6.95Y-4.125
X6.975Y-3.2
X7.0741Y-4.1746
X7.075Y-3.2988
X7.15Y-3.675
X7.275Y-4.475
X7.3Y-3.85
X7.325Y-3.45
X7.325Y-3.55
X7.325Y-3.825
X7.35Y-3.8
X7.35Y-3.875
X7.35Y-4.525
X7.35Y-4.5565
X7.375Y-3.25
X7.4Y-2.875
X7.4Y-4.65
X7.475Y-3.35
X7.475Y-3.7
X7.525Y-4.275
X7.55Y-3.3614
X7.55Y-3.625
X7.6Y-3.2
X7.6Y-4.475
X7.6Y-4.525
X7.65Y-3.625
X7.65Y-4.475
X7.7Y-3.5
X7.7Y-4.475
X7.725Y-3.2538
X7.75Y-2.975
X7.75Y-4.475
X7.825Y-3.2538
X7.875Y-3.5
X7.9Y-4.55
X7.925Y-3.2538
X7.975Y-3.5
X7.975Y-3.75
X8.Y-4.475
X8.05Y-4.475
X8.075Y-3.425
X8.075Y-3.675
X8.1Y-4.475
X8.15Y-3.975
X8.15Y-4.1
X8.175Y-3.225
X8.225Y-3.1
T2
X5.135Y-2.9616
X5.135Y-3.06
X6.2Y-2.9566
X6.2Y-3.055
T3
X5.75Y-4.175
X5.85Y-4.175
X5.95Y-4.175
X6.525Y-3.725
X6.625Y-3.725
X6.725Y-3.725
X7.Y-3.725
X7.1Y-3.725
X7.2Y-3.725
T5
X4.825Y-3.125
X4.925Y-3.125
X7.7Y-4.725
X7.8Y-4.725
X7.9Y-4.725
X8.Y-4.725
X8.1Y-4.725
X8.2Y-4.725
T6
X6.2Y-4.9
X6.3Y-4.9
X6.43Y-4.9
X6.53Y-4.9
X6.675Y-4.9
X6.775Y-4.9
X6.9Y-4.9
X7.Y-4.9
T7
X6.5Y-2.925
X6.6Y-2.925
X7.1Y-2.925
X7.2Y-2.925
X7.5Y-2.925
X7.6Y-2.925
X7.7Y-2.925
X7.8Y-2.925
X7.9Y-2.925
X8.Y-2.925
X8.1Y-2.925
X8.2Y-2.925
X8.4Y-3.125
X8.4Y-3.225
X8.4Y-3.325
X8.4Y-3.425
X8.4Y-3.525
X8.4Y-3.625
X8.4Y-3.725
X8.4Y-3.825
T8
X4.89Y-2.9651
X4.89Y-4.8647
X8.3743Y-2.9651
X8.3743Y-4.8647
T4
X4.959Y-4.0384G85X4.959Y-4.0857
G05
X4.96Y-3.4013G85X4.96Y-3.4486
G05
X4.96Y-4.5164G85X4.96Y-4.5636
G05
T5
X5.1598Y-3.9144G85X5.0929Y-3.9144
G05
X5.1598Y-4.2096G85X5.0929Y-4.2096
G05
X5.1608Y-3.2774G85X5.0939Y-3.2774
G05
X5.1608Y-3.5726G85X5.0939Y-3.5726
G05
X5.1608Y-4.3924G85X5.0939Y-4.3924
G05
X5.1608Y-4.6876G85X5.0939Y-4.6876
G05
T0
M30
