G04 #@! TF.FileFunction,Soldermask,Bot*
%FSLAX46Y46*%
G04 Gerber Fmt 4.6, Leading zero omitted, Abs format (unit mm)*
G04 Created by KiCad (PCBNEW 4.0.6) date Sunday, 17 September 2017 'AMt' 11:44:48*
%MOMM*%
%LPD*%
G01*
G04 APERTURE LIST*
%ADD10C,0.100000*%
%ADD11R,2.100000X2.100000*%
%ADD12O,2.100000X2.100000*%
%ADD13C,1.924000*%
%ADD14R,2.000000X2.000000*%
%ADD15C,2.000000*%
%ADD16C,1.299160*%
%ADD17O,4.100000X2.400000*%
%ADD18O,2.398980X3.597860*%
%ADD19C,2.400000*%
%ADD20C,3.651200*%
%ADD21C,1.901140*%
G04 APERTURE END LIST*
D10*
D11*
X162000000Y-95380000D03*
D12*
X162000000Y-97920000D03*
X162000000Y-100460000D03*
X162000000Y-103000000D03*
X162000000Y-105540000D03*
X162000000Y-108080000D03*
D13*
X144040000Y-132500000D03*
X141500000Y-132500000D03*
X146580000Y-132500000D03*
D11*
X106000000Y-86000000D03*
D12*
X106000000Y-88540000D03*
D14*
X115000000Y-86000000D03*
D15*
X117500000Y-86000000D03*
D14*
X128000000Y-86000000D03*
D15*
X125500000Y-86000000D03*
D16*
X108500000Y-73250440D03*
X108500000Y-77649720D03*
D17*
X113208600Y-119924800D03*
D18*
X108958600Y-116174800D03*
D17*
X113208600Y-112424800D03*
D19*
X105583600Y-120424800D03*
X105583600Y-111924800D03*
D17*
X113234000Y-132066000D03*
D18*
X108984000Y-128316000D03*
D17*
X113234000Y-124566000D03*
D19*
X105609000Y-132566000D03*
X105609000Y-124066000D03*
D17*
X113250000Y-102750000D03*
D18*
X109000000Y-99000000D03*
D17*
X113250000Y-95250000D03*
D19*
X105625000Y-94750000D03*
X105625000Y-103250000D03*
D11*
X191000000Y-70000000D03*
D12*
X188460000Y-70000000D03*
D20*
X189000000Y-73150000D03*
X189000000Y-85850000D03*
D21*
X186460000Y-82040000D03*
X184682000Y-83056000D03*
X186460000Y-80008000D03*
X184682000Y-81024000D03*
X186460000Y-77976000D03*
X184682000Y-78992000D03*
X186460000Y-75944000D03*
X184682000Y-76960000D03*
X179856000Y-86358000D03*
X179856000Y-84072000D03*
X179856000Y-74928000D03*
X179856000Y-72642000D03*
D20*
X189000000Y-118650000D03*
X189000000Y-131350000D03*
D21*
X186460000Y-127540000D03*
X184682000Y-128556000D03*
X186460000Y-125508000D03*
X184682000Y-126524000D03*
X186460000Y-123476000D03*
X184682000Y-124492000D03*
X186460000Y-121444000D03*
X184682000Y-122460000D03*
X179856000Y-131858000D03*
X179856000Y-129572000D03*
X179856000Y-120428000D03*
X179856000Y-118142000D03*
M02*
