G04 #@! TF.FileFunction,Copper,L2,Bot,Signal*
%FSLAX46Y46*%
G04 Gerber Fmt 4.6, Leading zero omitted, Abs format (unit mm)*
G04 Created by KiCad (PCBNEW 4.0.6) date Sunday, 17 September 2017 'PMt' 18:01:33*
%MOMM*%
%LPD*%
G01*
G04 APERTURE LIST*
%ADD10C,0.100000*%
%ADD11R,1.700000X1.700000*%
%ADD12O,1.700000X1.700000*%
%ADD13C,1.524000*%
%ADD14R,1.600000X1.600000*%
%ADD15C,1.600000*%
%ADD16O,3.700000X2.000000*%
%ADD17O,1.998980X3.197860*%
%ADD18C,1.501140*%
%ADD19C,0.600000*%
%ADD20C,1.000000*%
%ADD21C,0.250000*%
%ADD22C,0.254000*%
G04 APERTURE END LIST*
D10*
D11*
X162000000Y-95380000D03*
D12*
X162000000Y-97920000D03*
X162000000Y-100460000D03*
X162000000Y-103000000D03*
X162000000Y-105540000D03*
X162000000Y-108080000D03*
D13*
X144040000Y-132500000D03*
X141500000Y-132500000D03*
X146580000Y-132500000D03*
D11*
X106000000Y-86000000D03*
D12*
X106000000Y-88540000D03*
D14*
X115000000Y-86000000D03*
D15*
X117500000Y-86000000D03*
D14*
X128000000Y-86000000D03*
D15*
X125500000Y-86000000D03*
D16*
X113208600Y-119924800D03*
D17*
X108958600Y-116174800D03*
D16*
X113208600Y-112424800D03*
X113234000Y-132066000D03*
D17*
X108984000Y-128316000D03*
D16*
X113234000Y-124566000D03*
X113250000Y-102750000D03*
D17*
X109000000Y-99000000D03*
D16*
X113250000Y-95250000D03*
D11*
X156540000Y-71500000D03*
D12*
X154000000Y-71500000D03*
D18*
X186460000Y-82040000D03*
X184682000Y-83056000D03*
X186460000Y-80008000D03*
X184682000Y-81024000D03*
X186460000Y-77976000D03*
X184682000Y-78992000D03*
X186460000Y-75944000D03*
X184682000Y-76960000D03*
X179856000Y-86358000D03*
X179856000Y-84072000D03*
X179856000Y-74928000D03*
X179856000Y-72642000D03*
X186460000Y-127540000D03*
X184682000Y-128556000D03*
X186460000Y-125508000D03*
X184682000Y-126524000D03*
X186460000Y-123476000D03*
X184682000Y-124492000D03*
X186460000Y-121444000D03*
X184682000Y-122460000D03*
X179856000Y-131858000D03*
X179856000Y-129572000D03*
X179856000Y-120428000D03*
X179856000Y-118142000D03*
D19*
X165000000Y-67500000D03*
X171500000Y-121000000D03*
X114500000Y-71500000D03*
X189000000Y-104500000D03*
X164500000Y-84000000D03*
X142000000Y-116500000D03*
X148500000Y-96500000D03*
X158000000Y-95000000D03*
X122500000Y-101000000D03*
X122500000Y-105650000D03*
X133000000Y-75000000D03*
X150500000Y-85880000D03*
X125500000Y-80500000D03*
X138000000Y-80500000D03*
X128500000Y-126000000D03*
X128500000Y-117500000D03*
X185500000Y-90500000D03*
X168000000Y-69000000D03*
X172000000Y-99000000D03*
X170500000Y-107500000D03*
X169000000Y-96500000D03*
X140000000Y-78000000D03*
X134500000Y-78000000D03*
X138274989Y-111075011D03*
X124500000Y-114000000D03*
X132500000Y-121500000D03*
X132500000Y-129000000D03*
X189500000Y-96000000D03*
X164500000Y-104500000D03*
X164500000Y-106000000D03*
X167500000Y-109500000D03*
X187374999Y-108874999D03*
X150000000Y-105000000D03*
X156000000Y-105000000D03*
X132850831Y-106562049D03*
X155000000Y-107000000D03*
X140500000Y-95500000D03*
X147000000Y-79000000D03*
X152000000Y-95500000D03*
X182000000Y-81000000D03*
X182000000Y-79500000D03*
X161500000Y-75000000D03*
X167500000Y-81000000D03*
X171500000Y-81000000D03*
X176000000Y-82000000D03*
X158500000Y-74190000D03*
X167500000Y-83500000D03*
X177000000Y-129500000D03*
X182500000Y-125500000D03*
X172000000Y-128500000D03*
X166000000Y-87500000D03*
X161000000Y-92500000D03*
X146000000Y-71500000D03*
X162000000Y-86000000D03*
X167500000Y-130000000D03*
X166500000Y-120000000D03*
X146000000Y-73000000D03*
X150650000Y-103850000D03*
X157000000Y-104000000D03*
X140500000Y-102000000D03*
X159000000Y-102000000D03*
X152000000Y-77000000D03*
X180500000Y-88500000D03*
X149875000Y-76000000D03*
X179500000Y-89500000D03*
X144000000Y-72000000D03*
X178000000Y-90500000D03*
X176500000Y-91500000D03*
X144000000Y-74500000D03*
X146952785Y-94500000D03*
X140000000Y-87000000D03*
X144500000Y-101000000D03*
X144500000Y-91000000D03*
X158000000Y-80500000D03*
X149953058Y-72453058D03*
X158000000Y-78500000D03*
X163000000Y-78500000D03*
X164200000Y-128200000D03*
X151000000Y-97500000D03*
X148000000Y-94500000D03*
X144500000Y-88500000D03*
X169500000Y-117000000D03*
X177000000Y-109500000D03*
X144000000Y-103000000D03*
X159500000Y-103000000D03*
X146500000Y-101000000D03*
X158000000Y-101000000D03*
D20*
X165000000Y-67500000D02*
X186791890Y-67500000D01*
X191325601Y-72033711D02*
X191325601Y-132466289D01*
X186791890Y-67500000D02*
X191325601Y-72033711D01*
X191325601Y-132466289D02*
X190116289Y-133675601D01*
X190116289Y-133675601D02*
X179526755Y-133675601D01*
X179526755Y-133675601D02*
X175000000Y-129148846D01*
X175000000Y-129148846D02*
X175000000Y-124500000D01*
X171500000Y-121000000D02*
X175000000Y-124500000D01*
X115000000Y-86000000D02*
X115000000Y-72000000D01*
X115000000Y-72000000D02*
X114500000Y-71500000D01*
X179856000Y-118142000D02*
X180606569Y-117391431D01*
X180606569Y-117391431D02*
X181588571Y-117391431D01*
X181588571Y-117391431D02*
X189000000Y-109980002D01*
X189000000Y-109980002D02*
X189000000Y-104500000D01*
X179856000Y-118142000D02*
X178405429Y-119592571D01*
X178405429Y-119592571D02*
X178405429Y-128121429D01*
X178405429Y-128121429D02*
X179105431Y-128821431D01*
X179105431Y-128821431D02*
X179856000Y-129572000D01*
X179856000Y-84072000D02*
X179105431Y-84822569D01*
X179105431Y-84822569D02*
X165322569Y-84822569D01*
X165322569Y-84822569D02*
X164500000Y-84000000D01*
X179856000Y-72642000D02*
X178405429Y-74092571D01*
X178405429Y-74092571D02*
X178405429Y-82621429D01*
X179105431Y-83321431D02*
X179856000Y-84072000D01*
X178405429Y-82621429D02*
X179105431Y-83321431D01*
X142000000Y-116500000D02*
X129500000Y-116500000D01*
X129500000Y-116500000D02*
X128500000Y-117500000D01*
X150519999Y-96499999D02*
X148500001Y-96499999D01*
X148500001Y-96499999D02*
X148500000Y-96500000D01*
X158000000Y-95000000D02*
X156499999Y-96500001D01*
X151519999Y-96500001D02*
X151519997Y-96499999D01*
X156499999Y-96500001D02*
X151519999Y-96500001D01*
X151519997Y-96499999D02*
X150519999Y-96499999D01*
X122500000Y-101000000D02*
X122500000Y-105650000D01*
X138000000Y-80500000D02*
X133000000Y-80500000D01*
X133000000Y-80500000D02*
X125500000Y-80500000D01*
X133000000Y-75000000D02*
X133000000Y-80500000D01*
X138000000Y-80500000D02*
X145120000Y-80500000D01*
X145120000Y-80500000D02*
X150500000Y-85880000D01*
X128500000Y-117500000D02*
X128500000Y-126000000D01*
X167285010Y-95174990D02*
X180500000Y-95174990D01*
X185500000Y-90500000D02*
X180825010Y-95174990D01*
X180825010Y-95174990D02*
X180500000Y-95174990D01*
X168000000Y-69000000D02*
X143500000Y-69000000D01*
X143500000Y-69000000D02*
X134500000Y-78000000D01*
X170500000Y-107500000D02*
X170500000Y-100500000D01*
X170500000Y-100500000D02*
X172000000Y-99000000D01*
X169000000Y-96500000D02*
X167674990Y-95174990D01*
X167674990Y-95174990D02*
X167285010Y-95174990D01*
X162000000Y-100460000D02*
X167285010Y-95174990D01*
X134500000Y-78000000D02*
X140000000Y-78000000D01*
X124500000Y-114000000D02*
X127424989Y-111075011D01*
X127424989Y-111075011D02*
X138274989Y-111075011D01*
X138274989Y-111075011D02*
X138350000Y-111075011D01*
X132500000Y-129000000D02*
X132500000Y-121500000D01*
D21*
X164500000Y-104500000D02*
X173000000Y-96000000D01*
X173000000Y-96000000D02*
X189500000Y-96000000D01*
X162000000Y-105540000D02*
X165334999Y-108874999D01*
X165334999Y-108874999D02*
X187374999Y-108874999D01*
X156000000Y-105000000D02*
X150000000Y-105000000D01*
X155000000Y-107000000D02*
X154562049Y-106562049D01*
X154562049Y-106562049D02*
X132850831Y-106562049D01*
X152000000Y-95500000D02*
X140500000Y-95500000D01*
X147000000Y-79000000D02*
X152000000Y-84000000D01*
X152000000Y-84000000D02*
X152000000Y-95500000D01*
X182000000Y-81000000D02*
X182000000Y-81965846D01*
X184165725Y-84131571D02*
X185960275Y-84131571D01*
X182000000Y-81965846D02*
X184165725Y-84131571D01*
X187535571Y-81083571D02*
X187210569Y-80758569D01*
X185960275Y-84131571D02*
X187535571Y-82556275D01*
X187535571Y-82556275D02*
X187535571Y-81083571D01*
X187210569Y-80758569D02*
X186460000Y-80008000D01*
X182000000Y-79500000D02*
X182000000Y-77500000D01*
X182000000Y-77500000D02*
X184631571Y-74868429D01*
X184631571Y-74868429D02*
X186976275Y-74868429D01*
X186976275Y-74868429D02*
X187535571Y-75427725D01*
X187535571Y-75427725D02*
X187535571Y-76900429D01*
X187535571Y-76900429D02*
X187210569Y-77225431D01*
X187210569Y-77225431D02*
X186460000Y-77976000D01*
X167500000Y-81000000D02*
X161500000Y-75000000D01*
X171500000Y-81000000D02*
X175000000Y-81000000D01*
X175000000Y-81000000D02*
X176000000Y-82000000D01*
X167500000Y-83500000D02*
X167500000Y-82074998D01*
X167500000Y-82074998D02*
X159615002Y-74190000D01*
X159615002Y-74190000D02*
X158500000Y-74190000D01*
X177000000Y-129500000D02*
X178147571Y-130647571D01*
X178147571Y-130647571D02*
X184944275Y-130647571D01*
X184944275Y-130647571D02*
X187535571Y-128056275D01*
X187535571Y-128056275D02*
X187535571Y-126583571D01*
X187535571Y-126583571D02*
X187210569Y-126258569D01*
X187210569Y-126258569D02*
X186460000Y-125508000D01*
X182500000Y-125500000D02*
X182500000Y-123050154D01*
X182500000Y-123050154D02*
X185963865Y-119586289D01*
X186194135Y-119586289D02*
X187535571Y-120927725D01*
X185963865Y-119586289D02*
X186194135Y-119586289D01*
X187535571Y-120927725D02*
X187535571Y-122400429D01*
X187535571Y-122400429D02*
X187210569Y-122725431D01*
X187210569Y-122725431D02*
X186460000Y-123476000D01*
X172000000Y-123500000D02*
X172000000Y-128500000D01*
X166000000Y-87500000D02*
X162699999Y-84199999D01*
X162699999Y-84199999D02*
X162625001Y-84199999D01*
X160824999Y-92824999D02*
X160824999Y-92675001D01*
X160824999Y-92675001D02*
X161000000Y-92500000D01*
X160824999Y-112324999D02*
X172000000Y-123500000D01*
X160824999Y-92824999D02*
X160824999Y-112324999D01*
X146000000Y-71500000D02*
X149925002Y-71500000D01*
X149925002Y-71500000D02*
X162625001Y-84199999D01*
X161074998Y-85000000D02*
X161074998Y-85074998D01*
X161074998Y-85074998D02*
X162000000Y-86000000D01*
X166500000Y-120000000D02*
X167500000Y-121000000D01*
X167500000Y-121000000D02*
X167500000Y-130000000D01*
X161074998Y-85000000D02*
X149074998Y-73000000D01*
X149074998Y-73000000D02*
X146000000Y-73000000D01*
X157000000Y-104000000D02*
X150800000Y-104000000D01*
X150800000Y-104000000D02*
X150650000Y-103850000D01*
X159000000Y-102000000D02*
X140500000Y-102000000D01*
X180500000Y-88500000D02*
X163500000Y-88500000D01*
X153000000Y-78000000D02*
X152000000Y-77000000D01*
X163500000Y-88500000D02*
X153000000Y-78000000D01*
X163500000Y-89500000D02*
X163375000Y-89500000D01*
X163375000Y-89500000D02*
X149875000Y-76000000D01*
X179500000Y-89500000D02*
X163500000Y-89500000D01*
X162500000Y-90500000D02*
X144000000Y-72000000D01*
X178000000Y-90500000D02*
X162500000Y-90500000D01*
X144000000Y-74500000D02*
X161000000Y-91500000D01*
X161000000Y-91500000D02*
X176500000Y-91500000D01*
X147000000Y-92500000D02*
X146952785Y-92547215D01*
X146952785Y-92547215D02*
X146952785Y-94500000D01*
X141500000Y-87000000D02*
X147000000Y-92500000D01*
X140000000Y-87000000D02*
X141500000Y-87000000D01*
X144000000Y-91000000D02*
X139500000Y-95500000D01*
X144500000Y-101000000D02*
X139500000Y-96000000D01*
X139500000Y-96000000D02*
X139500000Y-95500000D01*
X144500000Y-91000000D02*
X144000000Y-91000000D01*
X155500000Y-78000000D02*
X158000000Y-80500000D01*
X149953058Y-72453058D02*
X155500000Y-78000000D01*
X158000000Y-78500000D02*
X162500000Y-78500000D01*
X162500000Y-78500000D02*
X163000000Y-78500000D01*
X160500000Y-124500000D02*
X164200000Y-128200000D01*
X148000000Y-94500000D02*
X148000000Y-92000000D01*
X148000000Y-92000000D02*
X144500000Y-88500000D01*
X151000000Y-97500000D02*
X155425002Y-97500000D01*
X155425002Y-97500000D02*
X160125001Y-102199999D01*
X160125001Y-102199999D02*
X160125001Y-124125001D01*
X160125001Y-124125001D02*
X160500000Y-124500000D01*
X177000000Y-109500000D02*
X169500000Y-117000000D01*
X159500000Y-103000000D02*
X144000000Y-103000000D01*
X158000000Y-101000000D02*
X146500000Y-101000000D01*
D22*
G36*
X164197434Y-66697434D02*
X163951397Y-67065654D01*
X163865000Y-67500000D01*
X163937603Y-67865000D01*
X143500000Y-67865000D01*
X143065654Y-67951397D01*
X142895878Y-68064838D01*
X142697434Y-68197434D01*
X133697434Y-77197434D01*
X133451397Y-77565654D01*
X133365000Y-78000000D01*
X133451397Y-78434346D01*
X133697434Y-78802566D01*
X134065654Y-79048603D01*
X134500000Y-79135000D01*
X140000000Y-79135000D01*
X140434346Y-79048603D01*
X140802566Y-78802566D01*
X141048603Y-78434346D01*
X141135000Y-78000000D01*
X141048603Y-77565654D01*
X140802566Y-77197434D01*
X140434346Y-76951397D01*
X140000000Y-76865000D01*
X137240132Y-76865000D01*
X143970132Y-70135000D01*
X153377756Y-70135000D01*
X152949946Y-70420853D01*
X152628039Y-70902622D01*
X152515000Y-71470907D01*
X152515000Y-71529093D01*
X152628039Y-72097378D01*
X152949946Y-72579147D01*
X153431715Y-72901054D01*
X154000000Y-73014093D01*
X154568285Y-72901054D01*
X155050054Y-72579147D01*
X155079403Y-72535223D01*
X155151673Y-72709698D01*
X155330301Y-72888327D01*
X155563690Y-72985000D01*
X156254250Y-72985000D01*
X156413000Y-72826250D01*
X156413000Y-71627000D01*
X156667000Y-71627000D01*
X156667000Y-72826250D01*
X156825750Y-72985000D01*
X157516310Y-72985000D01*
X157749699Y-72888327D01*
X157928327Y-72709698D01*
X158025000Y-72476309D01*
X158025000Y-72437034D01*
X178458233Y-72437034D01*
X178486195Y-72987538D01*
X178643069Y-73366265D01*
X178884070Y-73434325D01*
X179676395Y-72642000D01*
X180035605Y-72642000D01*
X180827930Y-73434325D01*
X181068931Y-73366265D01*
X181253767Y-72846966D01*
X181225805Y-72296462D01*
X181068931Y-71917735D01*
X180827930Y-71849675D01*
X180035605Y-72642000D01*
X179676395Y-72642000D01*
X178884070Y-71849675D01*
X178643069Y-71917735D01*
X178458233Y-72437034D01*
X158025000Y-72437034D01*
X158025000Y-71785750D01*
X157909320Y-71670070D01*
X179063675Y-71670070D01*
X179856000Y-72462395D01*
X180648325Y-71670070D01*
X180580265Y-71429069D01*
X180060966Y-71244233D01*
X179510462Y-71272195D01*
X179131735Y-71429069D01*
X179063675Y-71670070D01*
X157909320Y-71670070D01*
X157866250Y-71627000D01*
X156667000Y-71627000D01*
X156413000Y-71627000D01*
X156393000Y-71627000D01*
X156393000Y-71373000D01*
X156413000Y-71373000D01*
X156413000Y-71353000D01*
X156667000Y-71353000D01*
X156667000Y-71373000D01*
X157866250Y-71373000D01*
X158025000Y-71214250D01*
X158025000Y-70523691D01*
X157928327Y-70290302D01*
X157773026Y-70135000D01*
X168000000Y-70135000D01*
X168434346Y-70048603D01*
X168802566Y-69802566D01*
X169048603Y-69434346D01*
X169135000Y-69000000D01*
X169062397Y-68635000D01*
X186321758Y-68635000D01*
X188575786Y-70889028D01*
X188552312Y-70889008D01*
X187721146Y-71232439D01*
X187084674Y-71867801D01*
X186739793Y-72698366D01*
X186739008Y-73597688D01*
X186950042Y-74108429D01*
X184631571Y-74108429D01*
X184340731Y-74166281D01*
X184094170Y-74331028D01*
X181462599Y-76962599D01*
X181297852Y-77209161D01*
X181240000Y-77500000D01*
X181240000Y-78937537D01*
X181207808Y-78969673D01*
X181065162Y-79313201D01*
X181064838Y-79685167D01*
X181206883Y-80028943D01*
X181427709Y-80250155D01*
X181207808Y-80469673D01*
X181065162Y-80813201D01*
X181064838Y-81185167D01*
X181206883Y-81528943D01*
X181240000Y-81562118D01*
X181240000Y-81965846D01*
X181297852Y-82256685D01*
X181462599Y-82503247D01*
X183628324Y-84668972D01*
X183874886Y-84833719D01*
X184165725Y-84891571D01*
X185960275Y-84891571D01*
X186251114Y-84833719D01*
X186497676Y-84668972D01*
X188072972Y-83093676D01*
X188237719Y-82847114D01*
X188295571Y-82556275D01*
X188295571Y-81083571D01*
X188291845Y-81064838D01*
X188237719Y-80792731D01*
X188072972Y-80546170D01*
X187835438Y-80308636D01*
X187845329Y-80284816D01*
X187845810Y-79733602D01*
X187635314Y-79224163D01*
X187403493Y-78991937D01*
X187633944Y-78761887D01*
X187845329Y-78252816D01*
X187845810Y-77701602D01*
X187835106Y-77675696D01*
X188072972Y-77437830D01*
X188237719Y-77191269D01*
X188295571Y-76900429D01*
X188295571Y-75427725D01*
X188269013Y-75294209D01*
X188548366Y-75410207D01*
X189447688Y-75410992D01*
X190190601Y-75104026D01*
X190190601Y-83896639D01*
X189451634Y-83589793D01*
X188552312Y-83589008D01*
X187721146Y-83932439D01*
X187084674Y-84567801D01*
X186739793Y-85398366D01*
X186739008Y-86297688D01*
X187082439Y-87128854D01*
X187717801Y-87765326D01*
X188548366Y-88110207D01*
X189447688Y-88110992D01*
X190190601Y-87804026D01*
X190190601Y-95368362D01*
X190030327Y-95207808D01*
X189686799Y-95065162D01*
X189314833Y-95064838D01*
X188971057Y-95206883D01*
X188937882Y-95240000D01*
X182365132Y-95240000D01*
X186302566Y-91302566D01*
X186548603Y-90934345D01*
X186635000Y-90500000D01*
X186548603Y-90065655D01*
X186302566Y-89697434D01*
X185934345Y-89451397D01*
X185500000Y-89365000D01*
X185065655Y-89451397D01*
X184697434Y-89697434D01*
X180354878Y-94039990D01*
X167285010Y-94039990D01*
X166850664Y-94126387D01*
X166568635Y-94314833D01*
X166482444Y-94372424D01*
X163417993Y-97436875D01*
X163401054Y-97351715D01*
X163079147Y-96869946D01*
X163035223Y-96840597D01*
X163209698Y-96768327D01*
X163388327Y-96589699D01*
X163485000Y-96356310D01*
X163485000Y-95665750D01*
X163326250Y-95507000D01*
X162127000Y-95507000D01*
X162127000Y-95527000D01*
X161873000Y-95527000D01*
X161873000Y-95507000D01*
X161853000Y-95507000D01*
X161853000Y-95253000D01*
X161873000Y-95253000D01*
X161873000Y-94053750D01*
X162127000Y-94053750D01*
X162127000Y-95253000D01*
X163326250Y-95253000D01*
X163485000Y-95094250D01*
X163485000Y-94403690D01*
X163388327Y-94170301D01*
X163209698Y-93991673D01*
X162976309Y-93895000D01*
X162285750Y-93895000D01*
X162127000Y-94053750D01*
X161873000Y-94053750D01*
X161714250Y-93895000D01*
X161584999Y-93895000D01*
X161584999Y-93237159D01*
X161792192Y-93030327D01*
X161934838Y-92686799D01*
X161935162Y-92314833D01*
X161912506Y-92260000D01*
X175937537Y-92260000D01*
X175969673Y-92292192D01*
X176313201Y-92434838D01*
X176685167Y-92435162D01*
X177028943Y-92293117D01*
X177292192Y-92030327D01*
X177434838Y-91686799D01*
X177435162Y-91314833D01*
X177412506Y-91260000D01*
X177437537Y-91260000D01*
X177469673Y-91292192D01*
X177813201Y-91434838D01*
X178185167Y-91435162D01*
X178528943Y-91293117D01*
X178792192Y-91030327D01*
X178934838Y-90686799D01*
X178935162Y-90314833D01*
X178912506Y-90260000D01*
X178937537Y-90260000D01*
X178969673Y-90292192D01*
X179313201Y-90434838D01*
X179685167Y-90435162D01*
X180028943Y-90293117D01*
X180292192Y-90030327D01*
X180434838Y-89686799D01*
X180435057Y-89434944D01*
X180685167Y-89435162D01*
X181028943Y-89293117D01*
X181292192Y-89030327D01*
X181434838Y-88686799D01*
X181435162Y-88314833D01*
X181293117Y-87971057D01*
X181030327Y-87707808D01*
X180686799Y-87565162D01*
X180563020Y-87565054D01*
X180639837Y-87533314D01*
X181029944Y-87143887D01*
X181241329Y-86634816D01*
X181241810Y-86083602D01*
X181031314Y-85574163D01*
X180641887Y-85184056D01*
X180612230Y-85171741D01*
X180648325Y-85043930D01*
X179856000Y-84251605D01*
X179063675Y-85043930D01*
X179099653Y-85171327D01*
X179072163Y-85182686D01*
X178682056Y-85572113D01*
X178470671Y-86081184D01*
X178470190Y-86632398D01*
X178680686Y-87141837D01*
X179070113Y-87531944D01*
X179571167Y-87740000D01*
X166912747Y-87740000D01*
X166934838Y-87686799D01*
X166935162Y-87314833D01*
X166793117Y-86971057D01*
X166530327Y-86707808D01*
X166186799Y-86565162D01*
X166139923Y-86565121D01*
X163237400Y-83662598D01*
X163011382Y-83511578D01*
X158759804Y-79260000D01*
X162437537Y-79260000D01*
X162469673Y-79292192D01*
X162813201Y-79434838D01*
X163185167Y-79435162D01*
X163528943Y-79293117D01*
X163586180Y-79235980D01*
X166740000Y-82389800D01*
X166740000Y-82937537D01*
X166707808Y-82969673D01*
X166565162Y-83313201D01*
X166564838Y-83685167D01*
X166706883Y-84028943D01*
X166969673Y-84292192D01*
X167313201Y-84434838D01*
X167685167Y-84435162D01*
X168028943Y-84293117D01*
X168292192Y-84030327D01*
X168359997Y-83867034D01*
X178458233Y-83867034D01*
X178486195Y-84417538D01*
X178643069Y-84796265D01*
X178884070Y-84864325D01*
X179676395Y-84072000D01*
X180035605Y-84072000D01*
X180827930Y-84864325D01*
X181068931Y-84796265D01*
X181253767Y-84276966D01*
X181225805Y-83726462D01*
X181068931Y-83347735D01*
X180827930Y-83279675D01*
X180035605Y-84072000D01*
X179676395Y-84072000D01*
X178884070Y-83279675D01*
X178643069Y-83347735D01*
X178458233Y-83867034D01*
X168359997Y-83867034D01*
X168434838Y-83686799D01*
X168435162Y-83314833D01*
X168346424Y-83100070D01*
X179063675Y-83100070D01*
X179856000Y-83892395D01*
X180648325Y-83100070D01*
X180580265Y-82859069D01*
X180060966Y-82674233D01*
X179510462Y-82702195D01*
X179131735Y-82859069D01*
X179063675Y-83100070D01*
X168346424Y-83100070D01*
X168293117Y-82971057D01*
X168260000Y-82937882D01*
X168260000Y-82074998D01*
X168202148Y-81784159D01*
X168136435Y-81685812D01*
X168292192Y-81530327D01*
X168434838Y-81186799D01*
X168434839Y-81185167D01*
X170564838Y-81185167D01*
X170706883Y-81528943D01*
X170969673Y-81792192D01*
X171313201Y-81934838D01*
X171685167Y-81935162D01*
X172028943Y-81793117D01*
X172062118Y-81760000D01*
X174685198Y-81760000D01*
X175064878Y-82139680D01*
X175064838Y-82185167D01*
X175206883Y-82528943D01*
X175469673Y-82792192D01*
X175813201Y-82934838D01*
X176185167Y-82935162D01*
X176528943Y-82793117D01*
X176792192Y-82530327D01*
X176934838Y-82186799D01*
X176935162Y-81814833D01*
X176793117Y-81471057D01*
X176530327Y-81207808D01*
X176186799Y-81065162D01*
X176139923Y-81065121D01*
X175537401Y-80462599D01*
X175290839Y-80297852D01*
X175000000Y-80240000D01*
X172062463Y-80240000D01*
X172030327Y-80207808D01*
X171686799Y-80065162D01*
X171314833Y-80064838D01*
X170971057Y-80206883D01*
X170707808Y-80469673D01*
X170565162Y-80813201D01*
X170564838Y-81185167D01*
X168434839Y-81185167D01*
X168435162Y-80814833D01*
X168293117Y-80471057D01*
X168030327Y-80207808D01*
X167686799Y-80065162D01*
X167639923Y-80065121D01*
X162777200Y-75202398D01*
X178470190Y-75202398D01*
X178680686Y-75711837D01*
X179070113Y-76101944D01*
X179579184Y-76313329D01*
X180130398Y-76313810D01*
X180639837Y-76103314D01*
X181029944Y-75713887D01*
X181241329Y-75204816D01*
X181241810Y-74653602D01*
X181031314Y-74144163D01*
X180641887Y-73754056D01*
X180612230Y-73741741D01*
X180648325Y-73613930D01*
X179856000Y-72821605D01*
X179063675Y-73613930D01*
X179099653Y-73741327D01*
X179072163Y-73752686D01*
X178682056Y-74142113D01*
X178470671Y-74651184D01*
X178470190Y-75202398D01*
X162777200Y-75202398D01*
X162435122Y-74860320D01*
X162435162Y-74814833D01*
X162293117Y-74471057D01*
X162030327Y-74207808D01*
X161686799Y-74065162D01*
X161314833Y-74064838D01*
X160971057Y-74206883D01*
X160838757Y-74338953D01*
X160152403Y-73652599D01*
X159905841Y-73487852D01*
X159615002Y-73430000D01*
X159062463Y-73430000D01*
X159030327Y-73397808D01*
X158686799Y-73255162D01*
X158314833Y-73254838D01*
X157971057Y-73396883D01*
X157707808Y-73659673D01*
X157565162Y-74003201D01*
X157564838Y-74375167D01*
X157706883Y-74718943D01*
X157969673Y-74982192D01*
X158313201Y-75124838D01*
X158685167Y-75125162D01*
X159028943Y-74983117D01*
X159062118Y-74950000D01*
X159300200Y-74950000D01*
X162090200Y-77740000D01*
X158562463Y-77740000D01*
X158530327Y-77707808D01*
X158186799Y-77565162D01*
X157814833Y-77564838D01*
X157471057Y-77706883D01*
X157338757Y-77838953D01*
X150462403Y-70962599D01*
X150215841Y-70797852D01*
X149925002Y-70740000D01*
X146562463Y-70740000D01*
X146530327Y-70707808D01*
X146186799Y-70565162D01*
X145814833Y-70564838D01*
X145471057Y-70706883D01*
X145207808Y-70969673D01*
X145065162Y-71313201D01*
X145064838Y-71685167D01*
X145206883Y-72028943D01*
X145427709Y-72250155D01*
X145376288Y-72301486D01*
X144935122Y-71860320D01*
X144935162Y-71814833D01*
X144793117Y-71471057D01*
X144530327Y-71207808D01*
X144186799Y-71065162D01*
X143814833Y-71064838D01*
X143471057Y-71206883D01*
X143207808Y-71469673D01*
X143065162Y-71813201D01*
X143064838Y-72185167D01*
X143206883Y-72528943D01*
X143469673Y-72792192D01*
X143813201Y-72934838D01*
X143860077Y-72934879D01*
X161665198Y-90740000D01*
X161314802Y-90740000D01*
X144935122Y-74360320D01*
X144935162Y-74314833D01*
X144793117Y-73971057D01*
X144530327Y-73707808D01*
X144186799Y-73565162D01*
X143814833Y-73564838D01*
X143471057Y-73706883D01*
X143207808Y-73969673D01*
X143065162Y-74313201D01*
X143064838Y-74685167D01*
X143206883Y-75028943D01*
X143469673Y-75292192D01*
X143813201Y-75434838D01*
X143860077Y-75434879D01*
X146585001Y-78159803D01*
X146471057Y-78206883D01*
X146207808Y-78469673D01*
X146065162Y-78813201D01*
X146064838Y-79185167D01*
X146206883Y-79528943D01*
X146469673Y-79792192D01*
X146813201Y-79934838D01*
X146860077Y-79934879D01*
X151240000Y-84314802D01*
X151240000Y-94740000D01*
X148912747Y-94740000D01*
X148934838Y-94686799D01*
X148935162Y-94314833D01*
X148793117Y-93971057D01*
X148760000Y-93937882D01*
X148760000Y-92000000D01*
X148702148Y-91709161D01*
X148702148Y-91709160D01*
X148537401Y-91462599D01*
X145435122Y-88360320D01*
X145435162Y-88314833D01*
X145293117Y-87971057D01*
X145030327Y-87707808D01*
X144686799Y-87565162D01*
X144314833Y-87564838D01*
X143971057Y-87706883D01*
X143707808Y-87969673D01*
X143659885Y-88085083D01*
X142037401Y-86462599D01*
X141790839Y-86297852D01*
X141500000Y-86240000D01*
X140562463Y-86240000D01*
X140530327Y-86207808D01*
X140186799Y-86065162D01*
X139814833Y-86064838D01*
X139471057Y-86206883D01*
X139207808Y-86469673D01*
X139065162Y-86813201D01*
X139064838Y-87185167D01*
X139206883Y-87528943D01*
X139469673Y-87792192D01*
X139813201Y-87934838D01*
X140185167Y-87935162D01*
X140528943Y-87793117D01*
X140562118Y-87760000D01*
X141185198Y-87760000D01*
X143720746Y-90295548D01*
X143709161Y-90297852D01*
X143462599Y-90462599D01*
X138962599Y-94962599D01*
X138797852Y-95209161D01*
X138740000Y-95500000D01*
X138740000Y-96000000D01*
X138797852Y-96290839D01*
X138962599Y-96537401D01*
X143564878Y-101139680D01*
X143564838Y-101185167D01*
X143587494Y-101240000D01*
X141062463Y-101240000D01*
X141030327Y-101207808D01*
X140686799Y-101065162D01*
X140314833Y-101064838D01*
X139971057Y-101206883D01*
X139707808Y-101469673D01*
X139565162Y-101813201D01*
X139564838Y-102185167D01*
X139706883Y-102528943D01*
X139969673Y-102792192D01*
X140313201Y-102934838D01*
X140685167Y-102935162D01*
X141028943Y-102793117D01*
X141062118Y-102760000D01*
X143087253Y-102760000D01*
X143065162Y-102813201D01*
X143064838Y-103185167D01*
X143206883Y-103528943D01*
X143469673Y-103792192D01*
X143813201Y-103934838D01*
X144185167Y-103935162D01*
X144528943Y-103793117D01*
X144562118Y-103760000D01*
X149715078Y-103760000D01*
X149714838Y-104035167D01*
X149739892Y-104095803D01*
X149471057Y-104206883D01*
X149207808Y-104469673D01*
X149065162Y-104813201D01*
X149064838Y-105185167D01*
X149206883Y-105528943D01*
X149469673Y-105792192D01*
X149493411Y-105802049D01*
X133413294Y-105802049D01*
X133381158Y-105769857D01*
X133037630Y-105627211D01*
X132665664Y-105626887D01*
X132321888Y-105768932D01*
X132058639Y-106031722D01*
X131915993Y-106375250D01*
X131915669Y-106747216D01*
X132057714Y-107090992D01*
X132320504Y-107354241D01*
X132664032Y-107496887D01*
X133035998Y-107497211D01*
X133379774Y-107355166D01*
X133412949Y-107322049D01*
X154121396Y-107322049D01*
X154206883Y-107528943D01*
X154469673Y-107792192D01*
X154813201Y-107934838D01*
X155185167Y-107935162D01*
X155528943Y-107793117D01*
X155792192Y-107530327D01*
X155934838Y-107186799D01*
X155935162Y-106814833D01*
X155793117Y-106471057D01*
X155530327Y-106207808D01*
X155186799Y-106065162D01*
X155139923Y-106065121D01*
X155099450Y-106024648D01*
X154852888Y-105859901D01*
X154562049Y-105802049D01*
X150507326Y-105802049D01*
X150528943Y-105793117D01*
X150562118Y-105760000D01*
X155437537Y-105760000D01*
X155469673Y-105792192D01*
X155813201Y-105934838D01*
X156185167Y-105935162D01*
X156528943Y-105793117D01*
X156792192Y-105530327D01*
X156934838Y-105186799D01*
X156935057Y-104934944D01*
X157185167Y-104935162D01*
X157528943Y-104793117D01*
X157792192Y-104530327D01*
X157934838Y-104186799D01*
X157935162Y-103814833D01*
X157912506Y-103760000D01*
X158937537Y-103760000D01*
X158969673Y-103792192D01*
X159313201Y-103934838D01*
X159365001Y-103934883D01*
X159365001Y-124125001D01*
X159422853Y-124415840D01*
X159587600Y-124662402D01*
X163264878Y-128339680D01*
X163264838Y-128385167D01*
X163406883Y-128728943D01*
X163669673Y-128992192D01*
X164013201Y-129134838D01*
X164385167Y-129135162D01*
X164728943Y-128993117D01*
X164992192Y-128730327D01*
X165134838Y-128386799D01*
X165135162Y-128014833D01*
X164993117Y-127671057D01*
X164730327Y-127407808D01*
X164386799Y-127265162D01*
X164339923Y-127265121D01*
X160885001Y-123810199D01*
X160885001Y-113459803D01*
X166490189Y-119064991D01*
X166314833Y-119064838D01*
X165971057Y-119206883D01*
X165707808Y-119469673D01*
X165565162Y-119813201D01*
X165564838Y-120185167D01*
X165706883Y-120528943D01*
X165969673Y-120792192D01*
X166313201Y-120934838D01*
X166360077Y-120934879D01*
X166740000Y-121314802D01*
X166740000Y-129437537D01*
X166707808Y-129469673D01*
X166565162Y-129813201D01*
X166564838Y-130185167D01*
X166706883Y-130528943D01*
X166969673Y-130792192D01*
X167313201Y-130934838D01*
X167685167Y-130935162D01*
X168028943Y-130793117D01*
X168292192Y-130530327D01*
X168434838Y-130186799D01*
X168435162Y-129814833D01*
X168293117Y-129471057D01*
X168260000Y-129437882D01*
X168260000Y-121000000D01*
X168218980Y-120793782D01*
X171240000Y-123814802D01*
X171240000Y-127937537D01*
X171207808Y-127969673D01*
X171065162Y-128313201D01*
X171064838Y-128685167D01*
X171206883Y-129028943D01*
X171469673Y-129292192D01*
X171813201Y-129434838D01*
X172185167Y-129435162D01*
X172528943Y-129293117D01*
X172792192Y-129030327D01*
X172934838Y-128686799D01*
X172935162Y-128314833D01*
X172793117Y-127971057D01*
X172760000Y-127937882D01*
X172760000Y-123865133D01*
X173865000Y-124970133D01*
X173865000Y-129148846D01*
X173951397Y-129583192D01*
X174106175Y-129814833D01*
X174197434Y-129951412D01*
X178724189Y-134478167D01*
X179092409Y-134724204D01*
X179526755Y-134810601D01*
X190116289Y-134810601D01*
X190550635Y-134724204D01*
X190918855Y-134478167D01*
X192128167Y-133268856D01*
X192290000Y-133026655D01*
X192290000Y-137873000D01*
X104710000Y-137873000D01*
X104710000Y-133963055D01*
X105282352Y-134200716D01*
X105932795Y-134201284D01*
X106533943Y-133952894D01*
X106994278Y-133493363D01*
X107243716Y-132892648D01*
X107244284Y-132242205D01*
X107171478Y-132066000D01*
X110700316Y-132066000D01*
X110824773Y-132691687D01*
X111179196Y-133222120D01*
X111709629Y-133576543D01*
X112335316Y-133701000D01*
X114132684Y-133701000D01*
X114758371Y-133576543D01*
X115288804Y-133222120D01*
X115586449Y-132776661D01*
X140102758Y-132776661D01*
X140314990Y-133290303D01*
X140707630Y-133683629D01*
X141220900Y-133896757D01*
X141776661Y-133897242D01*
X142290303Y-133685010D01*
X142683629Y-133292370D01*
X142769949Y-133084488D01*
X142854990Y-133290303D01*
X143247630Y-133683629D01*
X143760900Y-133896757D01*
X144316661Y-133897242D01*
X144830303Y-133685010D01*
X145223629Y-133292370D01*
X145309949Y-133084488D01*
X145394990Y-133290303D01*
X145787630Y-133683629D01*
X146300900Y-133896757D01*
X146856661Y-133897242D01*
X147370303Y-133685010D01*
X147763629Y-133292370D01*
X147976757Y-132779100D01*
X147977242Y-132223339D01*
X147765010Y-131709697D01*
X147372370Y-131316371D01*
X146859100Y-131103243D01*
X146303339Y-131102758D01*
X145789697Y-131314990D01*
X145396371Y-131707630D01*
X145310051Y-131915512D01*
X145225010Y-131709697D01*
X144832370Y-131316371D01*
X144319100Y-131103243D01*
X143763339Y-131102758D01*
X143249697Y-131314990D01*
X142856371Y-131707630D01*
X142770051Y-131915512D01*
X142685010Y-131709697D01*
X142292370Y-131316371D01*
X141779100Y-131103243D01*
X141223339Y-131102758D01*
X140709697Y-131314990D01*
X140316371Y-131707630D01*
X140103243Y-132220900D01*
X140102758Y-132776661D01*
X115586449Y-132776661D01*
X115643227Y-132691687D01*
X115767684Y-132066000D01*
X115643227Y-131440313D01*
X115288804Y-130909880D01*
X114758371Y-130555457D01*
X114132684Y-130431000D01*
X112335316Y-130431000D01*
X111709629Y-130555457D01*
X111179196Y-130909880D01*
X110824773Y-131440313D01*
X110700316Y-132066000D01*
X107171478Y-132066000D01*
X106995894Y-131641057D01*
X106536363Y-131180722D01*
X105935648Y-130931284D01*
X105285205Y-130930716D01*
X104710000Y-131168387D01*
X104710000Y-128443000D01*
X107349510Y-128443000D01*
X107349510Y-129042440D01*
X107522529Y-129658265D01*
X107918044Y-130161002D01*
X108475841Y-130474113D01*
X108603646Y-130505059D01*
X108857000Y-130385705D01*
X108857000Y-128443000D01*
X109111000Y-128443000D01*
X109111000Y-130385705D01*
X109364354Y-130505059D01*
X109492159Y-130474113D01*
X110049956Y-130161002D01*
X110445471Y-129658265D01*
X110618490Y-129042440D01*
X110618490Y-128443000D01*
X109111000Y-128443000D01*
X108857000Y-128443000D01*
X107349510Y-128443000D01*
X104710000Y-128443000D01*
X104710000Y-127589560D01*
X107349510Y-127589560D01*
X107349510Y-128189000D01*
X108857000Y-128189000D01*
X108857000Y-126246295D01*
X109111000Y-126246295D01*
X109111000Y-128189000D01*
X110618490Y-128189000D01*
X110618490Y-127589560D01*
X110445471Y-126973735D01*
X110049956Y-126470998D01*
X109492159Y-126157887D01*
X109364354Y-126126941D01*
X109111000Y-126246295D01*
X108857000Y-126246295D01*
X108603646Y-126126941D01*
X108475841Y-126157887D01*
X107918044Y-126470998D01*
X107522529Y-126973735D01*
X107349510Y-127589560D01*
X104710000Y-127589560D01*
X104710000Y-125463055D01*
X105282352Y-125700716D01*
X105932795Y-125701284D01*
X106533943Y-125452894D01*
X106994278Y-124993363D01*
X107171734Y-124566000D01*
X110700316Y-124566000D01*
X110824773Y-125191687D01*
X111179196Y-125722120D01*
X111709629Y-126076543D01*
X112335316Y-126201000D01*
X114132684Y-126201000D01*
X114758371Y-126076543D01*
X115288804Y-125722120D01*
X115643227Y-125191687D01*
X115767684Y-124566000D01*
X115643227Y-123940313D01*
X115288804Y-123409880D01*
X114758371Y-123055457D01*
X114132684Y-122931000D01*
X112335316Y-122931000D01*
X111709629Y-123055457D01*
X111179196Y-123409880D01*
X110824773Y-123940313D01*
X110700316Y-124566000D01*
X107171734Y-124566000D01*
X107243716Y-124392648D01*
X107244284Y-123742205D01*
X106995894Y-123141057D01*
X106536363Y-122680722D01*
X105935648Y-122431284D01*
X105285205Y-122430716D01*
X104710000Y-122668387D01*
X104710000Y-121832402D01*
X105256952Y-122059516D01*
X105907395Y-122060084D01*
X106508543Y-121811694D01*
X106968878Y-121352163D01*
X107218316Y-120751448D01*
X107218884Y-120101005D01*
X107146078Y-119924800D01*
X110674916Y-119924800D01*
X110799373Y-120550487D01*
X111153796Y-121080920D01*
X111684229Y-121435343D01*
X112309916Y-121559800D01*
X114107284Y-121559800D01*
X114407918Y-121500000D01*
X131365000Y-121500000D01*
X131365000Y-129000000D01*
X131451397Y-129434346D01*
X131697434Y-129802566D01*
X132065654Y-130048603D01*
X132500000Y-130135000D01*
X132934346Y-130048603D01*
X133302566Y-129802566D01*
X133548603Y-129434346D01*
X133635000Y-129000000D01*
X133635000Y-121500000D01*
X133548603Y-121065654D01*
X133302566Y-120697434D01*
X132934346Y-120451397D01*
X132500000Y-120365000D01*
X132065654Y-120451397D01*
X131697434Y-120697434D01*
X131451397Y-121065654D01*
X131365000Y-121500000D01*
X114407918Y-121500000D01*
X114732971Y-121435343D01*
X115263404Y-121080920D01*
X115617827Y-120550487D01*
X115742284Y-119924800D01*
X115617827Y-119299113D01*
X115263404Y-118768680D01*
X114732971Y-118414257D01*
X114107284Y-118289800D01*
X112309916Y-118289800D01*
X111684229Y-118414257D01*
X111153796Y-118768680D01*
X110799373Y-119299113D01*
X110674916Y-119924800D01*
X107146078Y-119924800D01*
X106970494Y-119499857D01*
X106510963Y-119039522D01*
X105910248Y-118790084D01*
X105259805Y-118789516D01*
X104710000Y-119016691D01*
X104710000Y-116301800D01*
X107324110Y-116301800D01*
X107324110Y-116901240D01*
X107497129Y-117517065D01*
X107892644Y-118019802D01*
X108450441Y-118332913D01*
X108578246Y-118363859D01*
X108831600Y-118244505D01*
X108831600Y-116301800D01*
X109085600Y-116301800D01*
X109085600Y-118244505D01*
X109338954Y-118363859D01*
X109466759Y-118332913D01*
X110024556Y-118019802D01*
X110420071Y-117517065D01*
X110593090Y-116901240D01*
X110593090Y-116301800D01*
X109085600Y-116301800D01*
X108831600Y-116301800D01*
X107324110Y-116301800D01*
X104710000Y-116301800D01*
X104710000Y-115448360D01*
X107324110Y-115448360D01*
X107324110Y-116047800D01*
X108831600Y-116047800D01*
X108831600Y-114105095D01*
X109085600Y-114105095D01*
X109085600Y-116047800D01*
X110593090Y-116047800D01*
X110593090Y-115448360D01*
X110420071Y-114832535D01*
X110024556Y-114329798D01*
X109466759Y-114016687D01*
X109338954Y-113985741D01*
X109085600Y-114105095D01*
X108831600Y-114105095D01*
X108578246Y-113985741D01*
X108450441Y-114016687D01*
X107892644Y-114329798D01*
X107497129Y-114832535D01*
X107324110Y-115448360D01*
X104710000Y-115448360D01*
X104710000Y-113332402D01*
X105256952Y-113559516D01*
X105907395Y-113560084D01*
X106508543Y-113311694D01*
X106968878Y-112852163D01*
X107146334Y-112424800D01*
X110674916Y-112424800D01*
X110799373Y-113050487D01*
X111153796Y-113580920D01*
X111684229Y-113935343D01*
X112309916Y-114059800D01*
X114107284Y-114059800D01*
X114407918Y-114000000D01*
X123365000Y-114000000D01*
X123451397Y-114434345D01*
X123697434Y-114802566D01*
X124065655Y-115048603D01*
X124500000Y-115135000D01*
X124934345Y-115048603D01*
X125302566Y-114802566D01*
X127895121Y-112210011D01*
X138350000Y-112210011D01*
X138784346Y-112123614D01*
X139152566Y-111877577D01*
X139398603Y-111509357D01*
X139485000Y-111075011D01*
X139398603Y-110640665D01*
X139152566Y-110272445D01*
X138784346Y-110026408D01*
X138350000Y-109940011D01*
X127424989Y-109940011D01*
X126990643Y-110026408D01*
X126820867Y-110139849D01*
X126622423Y-110272445D01*
X123697434Y-113197434D01*
X123451397Y-113565655D01*
X123365000Y-114000000D01*
X114407918Y-114000000D01*
X114732971Y-113935343D01*
X115263404Y-113580920D01*
X115617827Y-113050487D01*
X115742284Y-112424800D01*
X115617827Y-111799113D01*
X115263404Y-111268680D01*
X114732971Y-110914257D01*
X114107284Y-110789800D01*
X112309916Y-110789800D01*
X111684229Y-110914257D01*
X111153796Y-111268680D01*
X110799373Y-111799113D01*
X110674916Y-112424800D01*
X107146334Y-112424800D01*
X107218316Y-112251448D01*
X107218884Y-111601005D01*
X106970494Y-110999857D01*
X106510963Y-110539522D01*
X105910248Y-110290084D01*
X105259805Y-110289516D01*
X104710000Y-110516691D01*
X104710000Y-104640412D01*
X105298352Y-104884716D01*
X105948795Y-104885284D01*
X106549943Y-104636894D01*
X107010278Y-104177363D01*
X107259716Y-103576648D01*
X107260284Y-102926205D01*
X107187478Y-102750000D01*
X110716316Y-102750000D01*
X110840773Y-103375687D01*
X111195196Y-103906120D01*
X111725629Y-104260543D01*
X112351316Y-104385000D01*
X114148684Y-104385000D01*
X114774371Y-104260543D01*
X115304804Y-103906120D01*
X115659227Y-103375687D01*
X115783684Y-102750000D01*
X115659227Y-102124313D01*
X115304804Y-101593880D01*
X114774371Y-101239457D01*
X114148684Y-101115000D01*
X112351316Y-101115000D01*
X111725629Y-101239457D01*
X111195196Y-101593880D01*
X110840773Y-102124313D01*
X110716316Y-102750000D01*
X107187478Y-102750000D01*
X107011894Y-102325057D01*
X106552363Y-101864722D01*
X105951648Y-101615284D01*
X105301205Y-101614716D01*
X104710000Y-101858998D01*
X104710000Y-99127000D01*
X107365510Y-99127000D01*
X107365510Y-99726440D01*
X107538529Y-100342265D01*
X107934044Y-100845002D01*
X108491841Y-101158113D01*
X108619646Y-101189059D01*
X108873000Y-101069705D01*
X108873000Y-99127000D01*
X109127000Y-99127000D01*
X109127000Y-101069705D01*
X109380354Y-101189059D01*
X109508159Y-101158113D01*
X110065956Y-100845002D01*
X110461471Y-100342265D01*
X110634490Y-99726440D01*
X110634490Y-99127000D01*
X109127000Y-99127000D01*
X108873000Y-99127000D01*
X107365510Y-99127000D01*
X104710000Y-99127000D01*
X104710000Y-98273560D01*
X107365510Y-98273560D01*
X107365510Y-98873000D01*
X108873000Y-98873000D01*
X108873000Y-96930295D01*
X109127000Y-96930295D01*
X109127000Y-98873000D01*
X110634490Y-98873000D01*
X110634490Y-98273560D01*
X110461471Y-97657735D01*
X110065956Y-97154998D01*
X109508159Y-96841887D01*
X109380354Y-96810941D01*
X109127000Y-96930295D01*
X108873000Y-96930295D01*
X108619646Y-96810941D01*
X108491841Y-96841887D01*
X107934044Y-97154998D01*
X107538529Y-97657735D01*
X107365510Y-98273560D01*
X104710000Y-98273560D01*
X104710000Y-96140412D01*
X105298352Y-96384716D01*
X105948795Y-96385284D01*
X106549943Y-96136894D01*
X107010278Y-95677363D01*
X107187734Y-95250000D01*
X110716316Y-95250000D01*
X110840773Y-95875687D01*
X111195196Y-96406120D01*
X111725629Y-96760543D01*
X112351316Y-96885000D01*
X114148684Y-96885000D01*
X114774371Y-96760543D01*
X115304804Y-96406120D01*
X115659227Y-95875687D01*
X115783684Y-95250000D01*
X115659227Y-94624313D01*
X115304804Y-94093880D01*
X114774371Y-93739457D01*
X114148684Y-93615000D01*
X112351316Y-93615000D01*
X111725629Y-93739457D01*
X111195196Y-94093880D01*
X110840773Y-94624313D01*
X110716316Y-95250000D01*
X107187734Y-95250000D01*
X107259716Y-95076648D01*
X107260284Y-94426205D01*
X107011894Y-93825057D01*
X106552363Y-93364722D01*
X105951648Y-93115284D01*
X105301205Y-93114716D01*
X104710000Y-93358998D01*
X104710000Y-89262608D01*
X104728355Y-89306924D01*
X105118642Y-89735183D01*
X105643108Y-89981486D01*
X105873000Y-89860819D01*
X105873000Y-88667000D01*
X106127000Y-88667000D01*
X106127000Y-89860819D01*
X106356892Y-89981486D01*
X106881358Y-89735183D01*
X107271645Y-89306924D01*
X107441476Y-88896890D01*
X107320155Y-88667000D01*
X106127000Y-88667000D01*
X105873000Y-88667000D01*
X105853000Y-88667000D01*
X105853000Y-88413000D01*
X105873000Y-88413000D01*
X105873000Y-86127000D01*
X106127000Y-86127000D01*
X106127000Y-88413000D01*
X107320155Y-88413000D01*
X107441476Y-88183110D01*
X107271645Y-87773076D01*
X107000122Y-87475136D01*
X107209698Y-87388327D01*
X107388327Y-87209699D01*
X107485000Y-86976310D01*
X107485000Y-86285750D01*
X107326250Y-86127000D01*
X106127000Y-86127000D01*
X105873000Y-86127000D01*
X105853000Y-86127000D01*
X105853000Y-85873000D01*
X105873000Y-85873000D01*
X105873000Y-84673750D01*
X106127000Y-84673750D01*
X106127000Y-85873000D01*
X107326250Y-85873000D01*
X107485000Y-85714250D01*
X107485000Y-85023690D01*
X107388327Y-84790301D01*
X107209698Y-84611673D01*
X106976309Y-84515000D01*
X106285750Y-84515000D01*
X106127000Y-84673750D01*
X105873000Y-84673750D01*
X105714250Y-84515000D01*
X105023691Y-84515000D01*
X104790302Y-84611673D01*
X104710000Y-84691975D01*
X104710000Y-77864510D01*
X107415232Y-77864510D01*
X107580002Y-78263283D01*
X107884833Y-78568646D01*
X108283317Y-78734111D01*
X108714790Y-78734488D01*
X109113563Y-78569718D01*
X109418926Y-78264887D01*
X109584391Y-77866403D01*
X109584768Y-77434930D01*
X109419998Y-77036157D01*
X109115167Y-76730794D01*
X108716683Y-76565329D01*
X108285210Y-76564952D01*
X107886437Y-76729722D01*
X107581074Y-77034553D01*
X107415609Y-77433037D01*
X107415232Y-77864510D01*
X104710000Y-77864510D01*
X104710000Y-73465230D01*
X107415232Y-73465230D01*
X107580002Y-73864003D01*
X107884833Y-74169366D01*
X108283317Y-74334831D01*
X108714790Y-74335208D01*
X109113563Y-74170438D01*
X109418926Y-73865607D01*
X109584391Y-73467123D01*
X109584768Y-73035650D01*
X109419998Y-72636877D01*
X109115167Y-72331514D01*
X108716683Y-72166049D01*
X108285210Y-72165672D01*
X107886437Y-72330442D01*
X107581074Y-72635273D01*
X107415609Y-73033757D01*
X107415232Y-73465230D01*
X104710000Y-73465230D01*
X104710000Y-71500000D01*
X113365000Y-71500000D01*
X113451397Y-71934345D01*
X113697434Y-72302566D01*
X113865000Y-72470132D01*
X113865000Y-84660982D01*
X113748559Y-84735910D01*
X113603569Y-84948110D01*
X113552560Y-85200000D01*
X113552560Y-86800000D01*
X113596838Y-87035317D01*
X113735910Y-87251441D01*
X113948110Y-87396431D01*
X114200000Y-87447440D01*
X115800000Y-87447440D01*
X116035317Y-87403162D01*
X116251441Y-87264090D01*
X116396431Y-87051890D01*
X116405370Y-87007745D01*
X116671861Y-87007745D01*
X116745995Y-87253864D01*
X117283223Y-87446965D01*
X117853454Y-87419778D01*
X118254005Y-87253864D01*
X118328139Y-87007745D01*
X124671861Y-87007745D01*
X124745995Y-87253864D01*
X125283223Y-87446965D01*
X125853454Y-87419778D01*
X126254005Y-87253864D01*
X126328139Y-87007745D01*
X125500000Y-86179605D01*
X124671861Y-87007745D01*
X118328139Y-87007745D01*
X117500000Y-86179605D01*
X116671861Y-87007745D01*
X116405370Y-87007745D01*
X116444646Y-86813799D01*
X116492255Y-86828139D01*
X117320395Y-86000000D01*
X117679605Y-86000000D01*
X118507745Y-86828139D01*
X118753864Y-86754005D01*
X118946965Y-86216777D01*
X118926295Y-85783223D01*
X124053035Y-85783223D01*
X124080222Y-86353454D01*
X124246136Y-86754005D01*
X124492255Y-86828139D01*
X125320395Y-86000000D01*
X125679605Y-86000000D01*
X126507745Y-86828139D01*
X126555167Y-86813855D01*
X126596838Y-87035317D01*
X126735910Y-87251441D01*
X126948110Y-87396431D01*
X127200000Y-87447440D01*
X128800000Y-87447440D01*
X129035317Y-87403162D01*
X129251441Y-87264090D01*
X129396431Y-87051890D01*
X129447440Y-86800000D01*
X129447440Y-85200000D01*
X129403162Y-84964683D01*
X129264090Y-84748559D01*
X129051890Y-84603569D01*
X128800000Y-84552560D01*
X127200000Y-84552560D01*
X126964683Y-84596838D01*
X126748559Y-84735910D01*
X126603569Y-84948110D01*
X126555354Y-85186201D01*
X126507745Y-85171861D01*
X125679605Y-86000000D01*
X125320395Y-86000000D01*
X124492255Y-85171861D01*
X124246136Y-85245995D01*
X124053035Y-85783223D01*
X118926295Y-85783223D01*
X118919778Y-85646546D01*
X118753864Y-85245995D01*
X118507745Y-85171861D01*
X117679605Y-86000000D01*
X117320395Y-86000000D01*
X116492255Y-85171861D01*
X116444833Y-85186145D01*
X116408351Y-84992255D01*
X116671861Y-84992255D01*
X117500000Y-85820395D01*
X118328139Y-84992255D01*
X124671861Y-84992255D01*
X125500000Y-85820395D01*
X126328139Y-84992255D01*
X126254005Y-84746136D01*
X125716777Y-84553035D01*
X125146546Y-84580222D01*
X124745995Y-84746136D01*
X124671861Y-84992255D01*
X118328139Y-84992255D01*
X118254005Y-84746136D01*
X117716777Y-84553035D01*
X117146546Y-84580222D01*
X116745995Y-84746136D01*
X116671861Y-84992255D01*
X116408351Y-84992255D01*
X116403162Y-84964683D01*
X116264090Y-84748559D01*
X116135000Y-84660356D01*
X116135000Y-72000000D01*
X116048603Y-71565654D01*
X115802566Y-71197434D01*
X115302566Y-70697434D01*
X114934345Y-70451397D01*
X114500000Y-70365000D01*
X114065655Y-70451397D01*
X113697434Y-70697434D01*
X113451397Y-71065655D01*
X113365000Y-71500000D01*
X104710000Y-71500000D01*
X104710000Y-66627000D01*
X164302846Y-66627000D01*
X164197434Y-66697434D01*
X164197434Y-66697434D01*
G37*
X164197434Y-66697434D02*
X163951397Y-67065654D01*
X163865000Y-67500000D01*
X163937603Y-67865000D01*
X143500000Y-67865000D01*
X143065654Y-67951397D01*
X142895878Y-68064838D01*
X142697434Y-68197434D01*
X133697434Y-77197434D01*
X133451397Y-77565654D01*
X133365000Y-78000000D01*
X133451397Y-78434346D01*
X133697434Y-78802566D01*
X134065654Y-79048603D01*
X134500000Y-79135000D01*
X140000000Y-79135000D01*
X140434346Y-79048603D01*
X140802566Y-78802566D01*
X141048603Y-78434346D01*
X141135000Y-78000000D01*
X141048603Y-77565654D01*
X140802566Y-77197434D01*
X140434346Y-76951397D01*
X140000000Y-76865000D01*
X137240132Y-76865000D01*
X143970132Y-70135000D01*
X153377756Y-70135000D01*
X152949946Y-70420853D01*
X152628039Y-70902622D01*
X152515000Y-71470907D01*
X152515000Y-71529093D01*
X152628039Y-72097378D01*
X152949946Y-72579147D01*
X153431715Y-72901054D01*
X154000000Y-73014093D01*
X154568285Y-72901054D01*
X155050054Y-72579147D01*
X155079403Y-72535223D01*
X155151673Y-72709698D01*
X155330301Y-72888327D01*
X155563690Y-72985000D01*
X156254250Y-72985000D01*
X156413000Y-72826250D01*
X156413000Y-71627000D01*
X156667000Y-71627000D01*
X156667000Y-72826250D01*
X156825750Y-72985000D01*
X157516310Y-72985000D01*
X157749699Y-72888327D01*
X157928327Y-72709698D01*
X158025000Y-72476309D01*
X158025000Y-72437034D01*
X178458233Y-72437034D01*
X178486195Y-72987538D01*
X178643069Y-73366265D01*
X178884070Y-73434325D01*
X179676395Y-72642000D01*
X180035605Y-72642000D01*
X180827930Y-73434325D01*
X181068931Y-73366265D01*
X181253767Y-72846966D01*
X181225805Y-72296462D01*
X181068931Y-71917735D01*
X180827930Y-71849675D01*
X180035605Y-72642000D01*
X179676395Y-72642000D01*
X178884070Y-71849675D01*
X178643069Y-71917735D01*
X178458233Y-72437034D01*
X158025000Y-72437034D01*
X158025000Y-71785750D01*
X157909320Y-71670070D01*
X179063675Y-71670070D01*
X179856000Y-72462395D01*
X180648325Y-71670070D01*
X180580265Y-71429069D01*
X180060966Y-71244233D01*
X179510462Y-71272195D01*
X179131735Y-71429069D01*
X179063675Y-71670070D01*
X157909320Y-71670070D01*
X157866250Y-71627000D01*
X156667000Y-71627000D01*
X156413000Y-71627000D01*
X156393000Y-71627000D01*
X156393000Y-71373000D01*
X156413000Y-71373000D01*
X156413000Y-71353000D01*
X156667000Y-71353000D01*
X156667000Y-71373000D01*
X157866250Y-71373000D01*
X158025000Y-71214250D01*
X158025000Y-70523691D01*
X157928327Y-70290302D01*
X157773026Y-70135000D01*
X168000000Y-70135000D01*
X168434346Y-70048603D01*
X168802566Y-69802566D01*
X169048603Y-69434346D01*
X169135000Y-69000000D01*
X169062397Y-68635000D01*
X186321758Y-68635000D01*
X188575786Y-70889028D01*
X188552312Y-70889008D01*
X187721146Y-71232439D01*
X187084674Y-71867801D01*
X186739793Y-72698366D01*
X186739008Y-73597688D01*
X186950042Y-74108429D01*
X184631571Y-74108429D01*
X184340731Y-74166281D01*
X184094170Y-74331028D01*
X181462599Y-76962599D01*
X181297852Y-77209161D01*
X181240000Y-77500000D01*
X181240000Y-78937537D01*
X181207808Y-78969673D01*
X181065162Y-79313201D01*
X181064838Y-79685167D01*
X181206883Y-80028943D01*
X181427709Y-80250155D01*
X181207808Y-80469673D01*
X181065162Y-80813201D01*
X181064838Y-81185167D01*
X181206883Y-81528943D01*
X181240000Y-81562118D01*
X181240000Y-81965846D01*
X181297852Y-82256685D01*
X181462599Y-82503247D01*
X183628324Y-84668972D01*
X183874886Y-84833719D01*
X184165725Y-84891571D01*
X185960275Y-84891571D01*
X186251114Y-84833719D01*
X186497676Y-84668972D01*
X188072972Y-83093676D01*
X188237719Y-82847114D01*
X188295571Y-82556275D01*
X188295571Y-81083571D01*
X188291845Y-81064838D01*
X188237719Y-80792731D01*
X188072972Y-80546170D01*
X187835438Y-80308636D01*
X187845329Y-80284816D01*
X187845810Y-79733602D01*
X187635314Y-79224163D01*
X187403493Y-78991937D01*
X187633944Y-78761887D01*
X187845329Y-78252816D01*
X187845810Y-77701602D01*
X187835106Y-77675696D01*
X188072972Y-77437830D01*
X188237719Y-77191269D01*
X188295571Y-76900429D01*
X188295571Y-75427725D01*
X188269013Y-75294209D01*
X188548366Y-75410207D01*
X189447688Y-75410992D01*
X190190601Y-75104026D01*
X190190601Y-83896639D01*
X189451634Y-83589793D01*
X188552312Y-83589008D01*
X187721146Y-83932439D01*
X187084674Y-84567801D01*
X186739793Y-85398366D01*
X186739008Y-86297688D01*
X187082439Y-87128854D01*
X187717801Y-87765326D01*
X188548366Y-88110207D01*
X189447688Y-88110992D01*
X190190601Y-87804026D01*
X190190601Y-95368362D01*
X190030327Y-95207808D01*
X189686799Y-95065162D01*
X189314833Y-95064838D01*
X188971057Y-95206883D01*
X188937882Y-95240000D01*
X182365132Y-95240000D01*
X186302566Y-91302566D01*
X186548603Y-90934345D01*
X186635000Y-90500000D01*
X186548603Y-90065655D01*
X186302566Y-89697434D01*
X185934345Y-89451397D01*
X185500000Y-89365000D01*
X185065655Y-89451397D01*
X184697434Y-89697434D01*
X180354878Y-94039990D01*
X167285010Y-94039990D01*
X166850664Y-94126387D01*
X166568635Y-94314833D01*
X166482444Y-94372424D01*
X163417993Y-97436875D01*
X163401054Y-97351715D01*
X163079147Y-96869946D01*
X163035223Y-96840597D01*
X163209698Y-96768327D01*
X163388327Y-96589699D01*
X163485000Y-96356310D01*
X163485000Y-95665750D01*
X163326250Y-95507000D01*
X162127000Y-95507000D01*
X162127000Y-95527000D01*
X161873000Y-95527000D01*
X161873000Y-95507000D01*
X161853000Y-95507000D01*
X161853000Y-95253000D01*
X161873000Y-95253000D01*
X161873000Y-94053750D01*
X162127000Y-94053750D01*
X162127000Y-95253000D01*
X163326250Y-95253000D01*
X163485000Y-95094250D01*
X163485000Y-94403690D01*
X163388327Y-94170301D01*
X163209698Y-93991673D01*
X162976309Y-93895000D01*
X162285750Y-93895000D01*
X162127000Y-94053750D01*
X161873000Y-94053750D01*
X161714250Y-93895000D01*
X161584999Y-93895000D01*
X161584999Y-93237159D01*
X161792192Y-93030327D01*
X161934838Y-92686799D01*
X161935162Y-92314833D01*
X161912506Y-92260000D01*
X175937537Y-92260000D01*
X175969673Y-92292192D01*
X176313201Y-92434838D01*
X176685167Y-92435162D01*
X177028943Y-92293117D01*
X177292192Y-92030327D01*
X177434838Y-91686799D01*
X177435162Y-91314833D01*
X177412506Y-91260000D01*
X177437537Y-91260000D01*
X177469673Y-91292192D01*
X177813201Y-91434838D01*
X178185167Y-91435162D01*
X178528943Y-91293117D01*
X178792192Y-91030327D01*
X178934838Y-90686799D01*
X178935162Y-90314833D01*
X178912506Y-90260000D01*
X178937537Y-90260000D01*
X178969673Y-90292192D01*
X179313201Y-90434838D01*
X179685167Y-90435162D01*
X180028943Y-90293117D01*
X180292192Y-90030327D01*
X180434838Y-89686799D01*
X180435057Y-89434944D01*
X180685167Y-89435162D01*
X181028943Y-89293117D01*
X181292192Y-89030327D01*
X181434838Y-88686799D01*
X181435162Y-88314833D01*
X181293117Y-87971057D01*
X181030327Y-87707808D01*
X180686799Y-87565162D01*
X180563020Y-87565054D01*
X180639837Y-87533314D01*
X181029944Y-87143887D01*
X181241329Y-86634816D01*
X181241810Y-86083602D01*
X181031314Y-85574163D01*
X180641887Y-85184056D01*
X180612230Y-85171741D01*
X180648325Y-85043930D01*
X179856000Y-84251605D01*
X179063675Y-85043930D01*
X179099653Y-85171327D01*
X179072163Y-85182686D01*
X178682056Y-85572113D01*
X178470671Y-86081184D01*
X178470190Y-86632398D01*
X178680686Y-87141837D01*
X179070113Y-87531944D01*
X179571167Y-87740000D01*
X166912747Y-87740000D01*
X166934838Y-87686799D01*
X166935162Y-87314833D01*
X166793117Y-86971057D01*
X166530327Y-86707808D01*
X166186799Y-86565162D01*
X166139923Y-86565121D01*
X163237400Y-83662598D01*
X163011382Y-83511578D01*
X158759804Y-79260000D01*
X162437537Y-79260000D01*
X162469673Y-79292192D01*
X162813201Y-79434838D01*
X163185167Y-79435162D01*
X163528943Y-79293117D01*
X163586180Y-79235980D01*
X166740000Y-82389800D01*
X166740000Y-82937537D01*
X166707808Y-82969673D01*
X166565162Y-83313201D01*
X166564838Y-83685167D01*
X166706883Y-84028943D01*
X166969673Y-84292192D01*
X167313201Y-84434838D01*
X167685167Y-84435162D01*
X168028943Y-84293117D01*
X168292192Y-84030327D01*
X168359997Y-83867034D01*
X178458233Y-83867034D01*
X178486195Y-84417538D01*
X178643069Y-84796265D01*
X178884070Y-84864325D01*
X179676395Y-84072000D01*
X180035605Y-84072000D01*
X180827930Y-84864325D01*
X181068931Y-84796265D01*
X181253767Y-84276966D01*
X181225805Y-83726462D01*
X181068931Y-83347735D01*
X180827930Y-83279675D01*
X180035605Y-84072000D01*
X179676395Y-84072000D01*
X178884070Y-83279675D01*
X178643069Y-83347735D01*
X178458233Y-83867034D01*
X168359997Y-83867034D01*
X168434838Y-83686799D01*
X168435162Y-83314833D01*
X168346424Y-83100070D01*
X179063675Y-83100070D01*
X179856000Y-83892395D01*
X180648325Y-83100070D01*
X180580265Y-82859069D01*
X180060966Y-82674233D01*
X179510462Y-82702195D01*
X179131735Y-82859069D01*
X179063675Y-83100070D01*
X168346424Y-83100070D01*
X168293117Y-82971057D01*
X168260000Y-82937882D01*
X168260000Y-82074998D01*
X168202148Y-81784159D01*
X168136435Y-81685812D01*
X168292192Y-81530327D01*
X168434838Y-81186799D01*
X168434839Y-81185167D01*
X170564838Y-81185167D01*
X170706883Y-81528943D01*
X170969673Y-81792192D01*
X171313201Y-81934838D01*
X171685167Y-81935162D01*
X172028943Y-81793117D01*
X172062118Y-81760000D01*
X174685198Y-81760000D01*
X175064878Y-82139680D01*
X175064838Y-82185167D01*
X175206883Y-82528943D01*
X175469673Y-82792192D01*
X175813201Y-82934838D01*
X176185167Y-82935162D01*
X176528943Y-82793117D01*
X176792192Y-82530327D01*
X176934838Y-82186799D01*
X176935162Y-81814833D01*
X176793117Y-81471057D01*
X176530327Y-81207808D01*
X176186799Y-81065162D01*
X176139923Y-81065121D01*
X175537401Y-80462599D01*
X175290839Y-80297852D01*
X175000000Y-80240000D01*
X172062463Y-80240000D01*
X172030327Y-80207808D01*
X171686799Y-80065162D01*
X171314833Y-80064838D01*
X170971057Y-80206883D01*
X170707808Y-80469673D01*
X170565162Y-80813201D01*
X170564838Y-81185167D01*
X168434839Y-81185167D01*
X168435162Y-80814833D01*
X168293117Y-80471057D01*
X168030327Y-80207808D01*
X167686799Y-80065162D01*
X167639923Y-80065121D01*
X162777200Y-75202398D01*
X178470190Y-75202398D01*
X178680686Y-75711837D01*
X179070113Y-76101944D01*
X179579184Y-76313329D01*
X180130398Y-76313810D01*
X180639837Y-76103314D01*
X181029944Y-75713887D01*
X181241329Y-75204816D01*
X181241810Y-74653602D01*
X181031314Y-74144163D01*
X180641887Y-73754056D01*
X180612230Y-73741741D01*
X180648325Y-73613930D01*
X179856000Y-72821605D01*
X179063675Y-73613930D01*
X179099653Y-73741327D01*
X179072163Y-73752686D01*
X178682056Y-74142113D01*
X178470671Y-74651184D01*
X178470190Y-75202398D01*
X162777200Y-75202398D01*
X162435122Y-74860320D01*
X162435162Y-74814833D01*
X162293117Y-74471057D01*
X162030327Y-74207808D01*
X161686799Y-74065162D01*
X161314833Y-74064838D01*
X160971057Y-74206883D01*
X160838757Y-74338953D01*
X160152403Y-73652599D01*
X159905841Y-73487852D01*
X159615002Y-73430000D01*
X159062463Y-73430000D01*
X159030327Y-73397808D01*
X158686799Y-73255162D01*
X158314833Y-73254838D01*
X157971057Y-73396883D01*
X157707808Y-73659673D01*
X157565162Y-74003201D01*
X157564838Y-74375167D01*
X157706883Y-74718943D01*
X157969673Y-74982192D01*
X158313201Y-75124838D01*
X158685167Y-75125162D01*
X159028943Y-74983117D01*
X159062118Y-74950000D01*
X159300200Y-74950000D01*
X162090200Y-77740000D01*
X158562463Y-77740000D01*
X158530327Y-77707808D01*
X158186799Y-77565162D01*
X157814833Y-77564838D01*
X157471057Y-77706883D01*
X157338757Y-77838953D01*
X150462403Y-70962599D01*
X150215841Y-70797852D01*
X149925002Y-70740000D01*
X146562463Y-70740000D01*
X146530327Y-70707808D01*
X146186799Y-70565162D01*
X145814833Y-70564838D01*
X145471057Y-70706883D01*
X145207808Y-70969673D01*
X145065162Y-71313201D01*
X145064838Y-71685167D01*
X145206883Y-72028943D01*
X145427709Y-72250155D01*
X145376288Y-72301486D01*
X144935122Y-71860320D01*
X144935162Y-71814833D01*
X144793117Y-71471057D01*
X144530327Y-71207808D01*
X144186799Y-71065162D01*
X143814833Y-71064838D01*
X143471057Y-71206883D01*
X143207808Y-71469673D01*
X143065162Y-71813201D01*
X143064838Y-72185167D01*
X143206883Y-72528943D01*
X143469673Y-72792192D01*
X143813201Y-72934838D01*
X143860077Y-72934879D01*
X161665198Y-90740000D01*
X161314802Y-90740000D01*
X144935122Y-74360320D01*
X144935162Y-74314833D01*
X144793117Y-73971057D01*
X144530327Y-73707808D01*
X144186799Y-73565162D01*
X143814833Y-73564838D01*
X143471057Y-73706883D01*
X143207808Y-73969673D01*
X143065162Y-74313201D01*
X143064838Y-74685167D01*
X143206883Y-75028943D01*
X143469673Y-75292192D01*
X143813201Y-75434838D01*
X143860077Y-75434879D01*
X146585001Y-78159803D01*
X146471057Y-78206883D01*
X146207808Y-78469673D01*
X146065162Y-78813201D01*
X146064838Y-79185167D01*
X146206883Y-79528943D01*
X146469673Y-79792192D01*
X146813201Y-79934838D01*
X146860077Y-79934879D01*
X151240000Y-84314802D01*
X151240000Y-94740000D01*
X148912747Y-94740000D01*
X148934838Y-94686799D01*
X148935162Y-94314833D01*
X148793117Y-93971057D01*
X148760000Y-93937882D01*
X148760000Y-92000000D01*
X148702148Y-91709161D01*
X148702148Y-91709160D01*
X148537401Y-91462599D01*
X145435122Y-88360320D01*
X145435162Y-88314833D01*
X145293117Y-87971057D01*
X145030327Y-87707808D01*
X144686799Y-87565162D01*
X144314833Y-87564838D01*
X143971057Y-87706883D01*
X143707808Y-87969673D01*
X143659885Y-88085083D01*
X142037401Y-86462599D01*
X141790839Y-86297852D01*
X141500000Y-86240000D01*
X140562463Y-86240000D01*
X140530327Y-86207808D01*
X140186799Y-86065162D01*
X139814833Y-86064838D01*
X139471057Y-86206883D01*
X139207808Y-86469673D01*
X139065162Y-86813201D01*
X139064838Y-87185167D01*
X139206883Y-87528943D01*
X139469673Y-87792192D01*
X139813201Y-87934838D01*
X140185167Y-87935162D01*
X140528943Y-87793117D01*
X140562118Y-87760000D01*
X141185198Y-87760000D01*
X143720746Y-90295548D01*
X143709161Y-90297852D01*
X143462599Y-90462599D01*
X138962599Y-94962599D01*
X138797852Y-95209161D01*
X138740000Y-95500000D01*
X138740000Y-96000000D01*
X138797852Y-96290839D01*
X138962599Y-96537401D01*
X143564878Y-101139680D01*
X143564838Y-101185167D01*
X143587494Y-101240000D01*
X141062463Y-101240000D01*
X141030327Y-101207808D01*
X140686799Y-101065162D01*
X140314833Y-101064838D01*
X139971057Y-101206883D01*
X139707808Y-101469673D01*
X139565162Y-101813201D01*
X139564838Y-102185167D01*
X139706883Y-102528943D01*
X139969673Y-102792192D01*
X140313201Y-102934838D01*
X140685167Y-102935162D01*
X141028943Y-102793117D01*
X141062118Y-102760000D01*
X143087253Y-102760000D01*
X143065162Y-102813201D01*
X143064838Y-103185167D01*
X143206883Y-103528943D01*
X143469673Y-103792192D01*
X143813201Y-103934838D01*
X144185167Y-103935162D01*
X144528943Y-103793117D01*
X144562118Y-103760000D01*
X149715078Y-103760000D01*
X149714838Y-104035167D01*
X149739892Y-104095803D01*
X149471057Y-104206883D01*
X149207808Y-104469673D01*
X149065162Y-104813201D01*
X149064838Y-105185167D01*
X149206883Y-105528943D01*
X149469673Y-105792192D01*
X149493411Y-105802049D01*
X133413294Y-105802049D01*
X133381158Y-105769857D01*
X133037630Y-105627211D01*
X132665664Y-105626887D01*
X132321888Y-105768932D01*
X132058639Y-106031722D01*
X131915993Y-106375250D01*
X131915669Y-106747216D01*
X132057714Y-107090992D01*
X132320504Y-107354241D01*
X132664032Y-107496887D01*
X133035998Y-107497211D01*
X133379774Y-107355166D01*
X133412949Y-107322049D01*
X154121396Y-107322049D01*
X154206883Y-107528943D01*
X154469673Y-107792192D01*
X154813201Y-107934838D01*
X155185167Y-107935162D01*
X155528943Y-107793117D01*
X155792192Y-107530327D01*
X155934838Y-107186799D01*
X155935162Y-106814833D01*
X155793117Y-106471057D01*
X155530327Y-106207808D01*
X155186799Y-106065162D01*
X155139923Y-106065121D01*
X155099450Y-106024648D01*
X154852888Y-105859901D01*
X154562049Y-105802049D01*
X150507326Y-105802049D01*
X150528943Y-105793117D01*
X150562118Y-105760000D01*
X155437537Y-105760000D01*
X155469673Y-105792192D01*
X155813201Y-105934838D01*
X156185167Y-105935162D01*
X156528943Y-105793117D01*
X156792192Y-105530327D01*
X156934838Y-105186799D01*
X156935057Y-104934944D01*
X157185167Y-104935162D01*
X157528943Y-104793117D01*
X157792192Y-104530327D01*
X157934838Y-104186799D01*
X157935162Y-103814833D01*
X157912506Y-103760000D01*
X158937537Y-103760000D01*
X158969673Y-103792192D01*
X159313201Y-103934838D01*
X159365001Y-103934883D01*
X159365001Y-124125001D01*
X159422853Y-124415840D01*
X159587600Y-124662402D01*
X163264878Y-128339680D01*
X163264838Y-128385167D01*
X163406883Y-128728943D01*
X163669673Y-128992192D01*
X164013201Y-129134838D01*
X164385167Y-129135162D01*
X164728943Y-128993117D01*
X164992192Y-128730327D01*
X165134838Y-128386799D01*
X165135162Y-128014833D01*
X164993117Y-127671057D01*
X164730327Y-127407808D01*
X164386799Y-127265162D01*
X164339923Y-127265121D01*
X160885001Y-123810199D01*
X160885001Y-113459803D01*
X166490189Y-119064991D01*
X166314833Y-119064838D01*
X165971057Y-119206883D01*
X165707808Y-119469673D01*
X165565162Y-119813201D01*
X165564838Y-120185167D01*
X165706883Y-120528943D01*
X165969673Y-120792192D01*
X166313201Y-120934838D01*
X166360077Y-120934879D01*
X166740000Y-121314802D01*
X166740000Y-129437537D01*
X166707808Y-129469673D01*
X166565162Y-129813201D01*
X166564838Y-130185167D01*
X166706883Y-130528943D01*
X166969673Y-130792192D01*
X167313201Y-130934838D01*
X167685167Y-130935162D01*
X168028943Y-130793117D01*
X168292192Y-130530327D01*
X168434838Y-130186799D01*
X168435162Y-129814833D01*
X168293117Y-129471057D01*
X168260000Y-129437882D01*
X168260000Y-121000000D01*
X168218980Y-120793782D01*
X171240000Y-123814802D01*
X171240000Y-127937537D01*
X171207808Y-127969673D01*
X171065162Y-128313201D01*
X171064838Y-128685167D01*
X171206883Y-129028943D01*
X171469673Y-129292192D01*
X171813201Y-129434838D01*
X172185167Y-129435162D01*
X172528943Y-129293117D01*
X172792192Y-129030327D01*
X172934838Y-128686799D01*
X172935162Y-128314833D01*
X172793117Y-127971057D01*
X172760000Y-127937882D01*
X172760000Y-123865133D01*
X173865000Y-124970133D01*
X173865000Y-129148846D01*
X173951397Y-129583192D01*
X174106175Y-129814833D01*
X174197434Y-129951412D01*
X178724189Y-134478167D01*
X179092409Y-134724204D01*
X179526755Y-134810601D01*
X190116289Y-134810601D01*
X190550635Y-134724204D01*
X190918855Y-134478167D01*
X192128167Y-133268856D01*
X192290000Y-133026655D01*
X192290000Y-137873000D01*
X104710000Y-137873000D01*
X104710000Y-133963055D01*
X105282352Y-134200716D01*
X105932795Y-134201284D01*
X106533943Y-133952894D01*
X106994278Y-133493363D01*
X107243716Y-132892648D01*
X107244284Y-132242205D01*
X107171478Y-132066000D01*
X110700316Y-132066000D01*
X110824773Y-132691687D01*
X111179196Y-133222120D01*
X111709629Y-133576543D01*
X112335316Y-133701000D01*
X114132684Y-133701000D01*
X114758371Y-133576543D01*
X115288804Y-133222120D01*
X115586449Y-132776661D01*
X140102758Y-132776661D01*
X140314990Y-133290303D01*
X140707630Y-133683629D01*
X141220900Y-133896757D01*
X141776661Y-133897242D01*
X142290303Y-133685010D01*
X142683629Y-133292370D01*
X142769949Y-133084488D01*
X142854990Y-133290303D01*
X143247630Y-133683629D01*
X143760900Y-133896757D01*
X144316661Y-133897242D01*
X144830303Y-133685010D01*
X145223629Y-133292370D01*
X145309949Y-133084488D01*
X145394990Y-133290303D01*
X145787630Y-133683629D01*
X146300900Y-133896757D01*
X146856661Y-133897242D01*
X147370303Y-133685010D01*
X147763629Y-133292370D01*
X147976757Y-132779100D01*
X147977242Y-132223339D01*
X147765010Y-131709697D01*
X147372370Y-131316371D01*
X146859100Y-131103243D01*
X146303339Y-131102758D01*
X145789697Y-131314990D01*
X145396371Y-131707630D01*
X145310051Y-131915512D01*
X145225010Y-131709697D01*
X144832370Y-131316371D01*
X144319100Y-131103243D01*
X143763339Y-131102758D01*
X143249697Y-131314990D01*
X142856371Y-131707630D01*
X142770051Y-131915512D01*
X142685010Y-131709697D01*
X142292370Y-131316371D01*
X141779100Y-131103243D01*
X141223339Y-131102758D01*
X140709697Y-131314990D01*
X140316371Y-131707630D01*
X140103243Y-132220900D01*
X140102758Y-132776661D01*
X115586449Y-132776661D01*
X115643227Y-132691687D01*
X115767684Y-132066000D01*
X115643227Y-131440313D01*
X115288804Y-130909880D01*
X114758371Y-130555457D01*
X114132684Y-130431000D01*
X112335316Y-130431000D01*
X111709629Y-130555457D01*
X111179196Y-130909880D01*
X110824773Y-131440313D01*
X110700316Y-132066000D01*
X107171478Y-132066000D01*
X106995894Y-131641057D01*
X106536363Y-131180722D01*
X105935648Y-130931284D01*
X105285205Y-130930716D01*
X104710000Y-131168387D01*
X104710000Y-128443000D01*
X107349510Y-128443000D01*
X107349510Y-129042440D01*
X107522529Y-129658265D01*
X107918044Y-130161002D01*
X108475841Y-130474113D01*
X108603646Y-130505059D01*
X108857000Y-130385705D01*
X108857000Y-128443000D01*
X109111000Y-128443000D01*
X109111000Y-130385705D01*
X109364354Y-130505059D01*
X109492159Y-130474113D01*
X110049956Y-130161002D01*
X110445471Y-129658265D01*
X110618490Y-129042440D01*
X110618490Y-128443000D01*
X109111000Y-128443000D01*
X108857000Y-128443000D01*
X107349510Y-128443000D01*
X104710000Y-128443000D01*
X104710000Y-127589560D01*
X107349510Y-127589560D01*
X107349510Y-128189000D01*
X108857000Y-128189000D01*
X108857000Y-126246295D01*
X109111000Y-126246295D01*
X109111000Y-128189000D01*
X110618490Y-128189000D01*
X110618490Y-127589560D01*
X110445471Y-126973735D01*
X110049956Y-126470998D01*
X109492159Y-126157887D01*
X109364354Y-126126941D01*
X109111000Y-126246295D01*
X108857000Y-126246295D01*
X108603646Y-126126941D01*
X108475841Y-126157887D01*
X107918044Y-126470998D01*
X107522529Y-126973735D01*
X107349510Y-127589560D01*
X104710000Y-127589560D01*
X104710000Y-125463055D01*
X105282352Y-125700716D01*
X105932795Y-125701284D01*
X106533943Y-125452894D01*
X106994278Y-124993363D01*
X107171734Y-124566000D01*
X110700316Y-124566000D01*
X110824773Y-125191687D01*
X111179196Y-125722120D01*
X111709629Y-126076543D01*
X112335316Y-126201000D01*
X114132684Y-126201000D01*
X114758371Y-126076543D01*
X115288804Y-125722120D01*
X115643227Y-125191687D01*
X115767684Y-124566000D01*
X115643227Y-123940313D01*
X115288804Y-123409880D01*
X114758371Y-123055457D01*
X114132684Y-122931000D01*
X112335316Y-122931000D01*
X111709629Y-123055457D01*
X111179196Y-123409880D01*
X110824773Y-123940313D01*
X110700316Y-124566000D01*
X107171734Y-124566000D01*
X107243716Y-124392648D01*
X107244284Y-123742205D01*
X106995894Y-123141057D01*
X106536363Y-122680722D01*
X105935648Y-122431284D01*
X105285205Y-122430716D01*
X104710000Y-122668387D01*
X104710000Y-121832402D01*
X105256952Y-122059516D01*
X105907395Y-122060084D01*
X106508543Y-121811694D01*
X106968878Y-121352163D01*
X107218316Y-120751448D01*
X107218884Y-120101005D01*
X107146078Y-119924800D01*
X110674916Y-119924800D01*
X110799373Y-120550487D01*
X111153796Y-121080920D01*
X111684229Y-121435343D01*
X112309916Y-121559800D01*
X114107284Y-121559800D01*
X114407918Y-121500000D01*
X131365000Y-121500000D01*
X131365000Y-129000000D01*
X131451397Y-129434346D01*
X131697434Y-129802566D01*
X132065654Y-130048603D01*
X132500000Y-130135000D01*
X132934346Y-130048603D01*
X133302566Y-129802566D01*
X133548603Y-129434346D01*
X133635000Y-129000000D01*
X133635000Y-121500000D01*
X133548603Y-121065654D01*
X133302566Y-120697434D01*
X132934346Y-120451397D01*
X132500000Y-120365000D01*
X132065654Y-120451397D01*
X131697434Y-120697434D01*
X131451397Y-121065654D01*
X131365000Y-121500000D01*
X114407918Y-121500000D01*
X114732971Y-121435343D01*
X115263404Y-121080920D01*
X115617827Y-120550487D01*
X115742284Y-119924800D01*
X115617827Y-119299113D01*
X115263404Y-118768680D01*
X114732971Y-118414257D01*
X114107284Y-118289800D01*
X112309916Y-118289800D01*
X111684229Y-118414257D01*
X111153796Y-118768680D01*
X110799373Y-119299113D01*
X110674916Y-119924800D01*
X107146078Y-119924800D01*
X106970494Y-119499857D01*
X106510963Y-119039522D01*
X105910248Y-118790084D01*
X105259805Y-118789516D01*
X104710000Y-119016691D01*
X104710000Y-116301800D01*
X107324110Y-116301800D01*
X107324110Y-116901240D01*
X107497129Y-117517065D01*
X107892644Y-118019802D01*
X108450441Y-118332913D01*
X108578246Y-118363859D01*
X108831600Y-118244505D01*
X108831600Y-116301800D01*
X109085600Y-116301800D01*
X109085600Y-118244505D01*
X109338954Y-118363859D01*
X109466759Y-118332913D01*
X110024556Y-118019802D01*
X110420071Y-117517065D01*
X110593090Y-116901240D01*
X110593090Y-116301800D01*
X109085600Y-116301800D01*
X108831600Y-116301800D01*
X107324110Y-116301800D01*
X104710000Y-116301800D01*
X104710000Y-115448360D01*
X107324110Y-115448360D01*
X107324110Y-116047800D01*
X108831600Y-116047800D01*
X108831600Y-114105095D01*
X109085600Y-114105095D01*
X109085600Y-116047800D01*
X110593090Y-116047800D01*
X110593090Y-115448360D01*
X110420071Y-114832535D01*
X110024556Y-114329798D01*
X109466759Y-114016687D01*
X109338954Y-113985741D01*
X109085600Y-114105095D01*
X108831600Y-114105095D01*
X108578246Y-113985741D01*
X108450441Y-114016687D01*
X107892644Y-114329798D01*
X107497129Y-114832535D01*
X107324110Y-115448360D01*
X104710000Y-115448360D01*
X104710000Y-113332402D01*
X105256952Y-113559516D01*
X105907395Y-113560084D01*
X106508543Y-113311694D01*
X106968878Y-112852163D01*
X107146334Y-112424800D01*
X110674916Y-112424800D01*
X110799373Y-113050487D01*
X111153796Y-113580920D01*
X111684229Y-113935343D01*
X112309916Y-114059800D01*
X114107284Y-114059800D01*
X114407918Y-114000000D01*
X123365000Y-114000000D01*
X123451397Y-114434345D01*
X123697434Y-114802566D01*
X124065655Y-115048603D01*
X124500000Y-115135000D01*
X124934345Y-115048603D01*
X125302566Y-114802566D01*
X127895121Y-112210011D01*
X138350000Y-112210011D01*
X138784346Y-112123614D01*
X139152566Y-111877577D01*
X139398603Y-111509357D01*
X139485000Y-111075011D01*
X139398603Y-110640665D01*
X139152566Y-110272445D01*
X138784346Y-110026408D01*
X138350000Y-109940011D01*
X127424989Y-109940011D01*
X126990643Y-110026408D01*
X126820867Y-110139849D01*
X126622423Y-110272445D01*
X123697434Y-113197434D01*
X123451397Y-113565655D01*
X123365000Y-114000000D01*
X114407918Y-114000000D01*
X114732971Y-113935343D01*
X115263404Y-113580920D01*
X115617827Y-113050487D01*
X115742284Y-112424800D01*
X115617827Y-111799113D01*
X115263404Y-111268680D01*
X114732971Y-110914257D01*
X114107284Y-110789800D01*
X112309916Y-110789800D01*
X111684229Y-110914257D01*
X111153796Y-111268680D01*
X110799373Y-111799113D01*
X110674916Y-112424800D01*
X107146334Y-112424800D01*
X107218316Y-112251448D01*
X107218884Y-111601005D01*
X106970494Y-110999857D01*
X106510963Y-110539522D01*
X105910248Y-110290084D01*
X105259805Y-110289516D01*
X104710000Y-110516691D01*
X104710000Y-104640412D01*
X105298352Y-104884716D01*
X105948795Y-104885284D01*
X106549943Y-104636894D01*
X107010278Y-104177363D01*
X107259716Y-103576648D01*
X107260284Y-102926205D01*
X107187478Y-102750000D01*
X110716316Y-102750000D01*
X110840773Y-103375687D01*
X111195196Y-103906120D01*
X111725629Y-104260543D01*
X112351316Y-104385000D01*
X114148684Y-104385000D01*
X114774371Y-104260543D01*
X115304804Y-103906120D01*
X115659227Y-103375687D01*
X115783684Y-102750000D01*
X115659227Y-102124313D01*
X115304804Y-101593880D01*
X114774371Y-101239457D01*
X114148684Y-101115000D01*
X112351316Y-101115000D01*
X111725629Y-101239457D01*
X111195196Y-101593880D01*
X110840773Y-102124313D01*
X110716316Y-102750000D01*
X107187478Y-102750000D01*
X107011894Y-102325057D01*
X106552363Y-101864722D01*
X105951648Y-101615284D01*
X105301205Y-101614716D01*
X104710000Y-101858998D01*
X104710000Y-99127000D01*
X107365510Y-99127000D01*
X107365510Y-99726440D01*
X107538529Y-100342265D01*
X107934044Y-100845002D01*
X108491841Y-101158113D01*
X108619646Y-101189059D01*
X108873000Y-101069705D01*
X108873000Y-99127000D01*
X109127000Y-99127000D01*
X109127000Y-101069705D01*
X109380354Y-101189059D01*
X109508159Y-101158113D01*
X110065956Y-100845002D01*
X110461471Y-100342265D01*
X110634490Y-99726440D01*
X110634490Y-99127000D01*
X109127000Y-99127000D01*
X108873000Y-99127000D01*
X107365510Y-99127000D01*
X104710000Y-99127000D01*
X104710000Y-98273560D01*
X107365510Y-98273560D01*
X107365510Y-98873000D01*
X108873000Y-98873000D01*
X108873000Y-96930295D01*
X109127000Y-96930295D01*
X109127000Y-98873000D01*
X110634490Y-98873000D01*
X110634490Y-98273560D01*
X110461471Y-97657735D01*
X110065956Y-97154998D01*
X109508159Y-96841887D01*
X109380354Y-96810941D01*
X109127000Y-96930295D01*
X108873000Y-96930295D01*
X108619646Y-96810941D01*
X108491841Y-96841887D01*
X107934044Y-97154998D01*
X107538529Y-97657735D01*
X107365510Y-98273560D01*
X104710000Y-98273560D01*
X104710000Y-96140412D01*
X105298352Y-96384716D01*
X105948795Y-96385284D01*
X106549943Y-96136894D01*
X107010278Y-95677363D01*
X107187734Y-95250000D01*
X110716316Y-95250000D01*
X110840773Y-95875687D01*
X111195196Y-96406120D01*
X111725629Y-96760543D01*
X112351316Y-96885000D01*
X114148684Y-96885000D01*
X114774371Y-96760543D01*
X115304804Y-96406120D01*
X115659227Y-95875687D01*
X115783684Y-95250000D01*
X115659227Y-94624313D01*
X115304804Y-94093880D01*
X114774371Y-93739457D01*
X114148684Y-93615000D01*
X112351316Y-93615000D01*
X111725629Y-93739457D01*
X111195196Y-94093880D01*
X110840773Y-94624313D01*
X110716316Y-95250000D01*
X107187734Y-95250000D01*
X107259716Y-95076648D01*
X107260284Y-94426205D01*
X107011894Y-93825057D01*
X106552363Y-93364722D01*
X105951648Y-93115284D01*
X105301205Y-93114716D01*
X104710000Y-93358998D01*
X104710000Y-89262608D01*
X104728355Y-89306924D01*
X105118642Y-89735183D01*
X105643108Y-89981486D01*
X105873000Y-89860819D01*
X105873000Y-88667000D01*
X106127000Y-88667000D01*
X106127000Y-89860819D01*
X106356892Y-89981486D01*
X106881358Y-89735183D01*
X107271645Y-89306924D01*
X107441476Y-88896890D01*
X107320155Y-88667000D01*
X106127000Y-88667000D01*
X105873000Y-88667000D01*
X105853000Y-88667000D01*
X105853000Y-88413000D01*
X105873000Y-88413000D01*
X105873000Y-86127000D01*
X106127000Y-86127000D01*
X106127000Y-88413000D01*
X107320155Y-88413000D01*
X107441476Y-88183110D01*
X107271645Y-87773076D01*
X107000122Y-87475136D01*
X107209698Y-87388327D01*
X107388327Y-87209699D01*
X107485000Y-86976310D01*
X107485000Y-86285750D01*
X107326250Y-86127000D01*
X106127000Y-86127000D01*
X105873000Y-86127000D01*
X105853000Y-86127000D01*
X105853000Y-85873000D01*
X105873000Y-85873000D01*
X105873000Y-84673750D01*
X106127000Y-84673750D01*
X106127000Y-85873000D01*
X107326250Y-85873000D01*
X107485000Y-85714250D01*
X107485000Y-85023690D01*
X107388327Y-84790301D01*
X107209698Y-84611673D01*
X106976309Y-84515000D01*
X106285750Y-84515000D01*
X106127000Y-84673750D01*
X105873000Y-84673750D01*
X105714250Y-84515000D01*
X105023691Y-84515000D01*
X104790302Y-84611673D01*
X104710000Y-84691975D01*
X104710000Y-77864510D01*
X107415232Y-77864510D01*
X107580002Y-78263283D01*
X107884833Y-78568646D01*
X108283317Y-78734111D01*
X108714790Y-78734488D01*
X109113563Y-78569718D01*
X109418926Y-78264887D01*
X109584391Y-77866403D01*
X109584768Y-77434930D01*
X109419998Y-77036157D01*
X109115167Y-76730794D01*
X108716683Y-76565329D01*
X108285210Y-76564952D01*
X107886437Y-76729722D01*
X107581074Y-77034553D01*
X107415609Y-77433037D01*
X107415232Y-77864510D01*
X104710000Y-77864510D01*
X104710000Y-73465230D01*
X107415232Y-73465230D01*
X107580002Y-73864003D01*
X107884833Y-74169366D01*
X108283317Y-74334831D01*
X108714790Y-74335208D01*
X109113563Y-74170438D01*
X109418926Y-73865607D01*
X109584391Y-73467123D01*
X109584768Y-73035650D01*
X109419998Y-72636877D01*
X109115167Y-72331514D01*
X108716683Y-72166049D01*
X108285210Y-72165672D01*
X107886437Y-72330442D01*
X107581074Y-72635273D01*
X107415609Y-73033757D01*
X107415232Y-73465230D01*
X104710000Y-73465230D01*
X104710000Y-71500000D01*
X113365000Y-71500000D01*
X113451397Y-71934345D01*
X113697434Y-72302566D01*
X113865000Y-72470132D01*
X113865000Y-84660982D01*
X113748559Y-84735910D01*
X113603569Y-84948110D01*
X113552560Y-85200000D01*
X113552560Y-86800000D01*
X113596838Y-87035317D01*
X113735910Y-87251441D01*
X113948110Y-87396431D01*
X114200000Y-87447440D01*
X115800000Y-87447440D01*
X116035317Y-87403162D01*
X116251441Y-87264090D01*
X116396431Y-87051890D01*
X116405370Y-87007745D01*
X116671861Y-87007745D01*
X116745995Y-87253864D01*
X117283223Y-87446965D01*
X117853454Y-87419778D01*
X118254005Y-87253864D01*
X118328139Y-87007745D01*
X124671861Y-87007745D01*
X124745995Y-87253864D01*
X125283223Y-87446965D01*
X125853454Y-87419778D01*
X126254005Y-87253864D01*
X126328139Y-87007745D01*
X125500000Y-86179605D01*
X124671861Y-87007745D01*
X118328139Y-87007745D01*
X117500000Y-86179605D01*
X116671861Y-87007745D01*
X116405370Y-87007745D01*
X116444646Y-86813799D01*
X116492255Y-86828139D01*
X117320395Y-86000000D01*
X117679605Y-86000000D01*
X118507745Y-86828139D01*
X118753864Y-86754005D01*
X118946965Y-86216777D01*
X118926295Y-85783223D01*
X124053035Y-85783223D01*
X124080222Y-86353454D01*
X124246136Y-86754005D01*
X124492255Y-86828139D01*
X125320395Y-86000000D01*
X125679605Y-86000000D01*
X126507745Y-86828139D01*
X126555167Y-86813855D01*
X126596838Y-87035317D01*
X126735910Y-87251441D01*
X126948110Y-87396431D01*
X127200000Y-87447440D01*
X128800000Y-87447440D01*
X129035317Y-87403162D01*
X129251441Y-87264090D01*
X129396431Y-87051890D01*
X129447440Y-86800000D01*
X129447440Y-85200000D01*
X129403162Y-84964683D01*
X129264090Y-84748559D01*
X129051890Y-84603569D01*
X128800000Y-84552560D01*
X127200000Y-84552560D01*
X126964683Y-84596838D01*
X126748559Y-84735910D01*
X126603569Y-84948110D01*
X126555354Y-85186201D01*
X126507745Y-85171861D01*
X125679605Y-86000000D01*
X125320395Y-86000000D01*
X124492255Y-85171861D01*
X124246136Y-85245995D01*
X124053035Y-85783223D01*
X118926295Y-85783223D01*
X118919778Y-85646546D01*
X118753864Y-85245995D01*
X118507745Y-85171861D01*
X117679605Y-86000000D01*
X117320395Y-86000000D01*
X116492255Y-85171861D01*
X116444833Y-85186145D01*
X116408351Y-84992255D01*
X116671861Y-84992255D01*
X117500000Y-85820395D01*
X118328139Y-84992255D01*
X124671861Y-84992255D01*
X125500000Y-85820395D01*
X126328139Y-84992255D01*
X126254005Y-84746136D01*
X125716777Y-84553035D01*
X125146546Y-84580222D01*
X124745995Y-84746136D01*
X124671861Y-84992255D01*
X118328139Y-84992255D01*
X118254005Y-84746136D01*
X117716777Y-84553035D01*
X117146546Y-84580222D01*
X116745995Y-84746136D01*
X116671861Y-84992255D01*
X116408351Y-84992255D01*
X116403162Y-84964683D01*
X116264090Y-84748559D01*
X116135000Y-84660356D01*
X116135000Y-72000000D01*
X116048603Y-71565654D01*
X115802566Y-71197434D01*
X115302566Y-70697434D01*
X114934345Y-70451397D01*
X114500000Y-70365000D01*
X114065655Y-70451397D01*
X113697434Y-70697434D01*
X113451397Y-71065655D01*
X113365000Y-71500000D01*
X104710000Y-71500000D01*
X104710000Y-66627000D01*
X164302846Y-66627000D01*
X164197434Y-66697434D01*
G36*
X190190601Y-116696639D02*
X189451634Y-116389793D01*
X188552312Y-116389008D01*
X187721146Y-116732439D01*
X187084674Y-117367801D01*
X186739793Y-118198366D01*
X186739044Y-119056396D01*
X186731536Y-119048888D01*
X186484974Y-118884141D01*
X186194135Y-118826289D01*
X185963865Y-118826289D01*
X185673026Y-118884141D01*
X185426464Y-119048888D01*
X181962599Y-122512753D01*
X181797852Y-122759315D01*
X181740000Y-123050154D01*
X181740000Y-124937537D01*
X181707808Y-124969673D01*
X181565162Y-125313201D01*
X181564838Y-125685167D01*
X181706883Y-126028943D01*
X181969673Y-126292192D01*
X182313201Y-126434838D01*
X182685167Y-126435162D01*
X183028943Y-126293117D01*
X183292192Y-126030327D01*
X183434838Y-125686799D01*
X183435162Y-125314833D01*
X183293117Y-124971057D01*
X183260000Y-124937882D01*
X183260000Y-123364956D01*
X183469972Y-123154984D01*
X183506686Y-123243837D01*
X183738507Y-123476063D01*
X183508056Y-123706113D01*
X183296671Y-124215184D01*
X183296190Y-124766398D01*
X183506686Y-125275837D01*
X183738507Y-125508063D01*
X183508056Y-125738113D01*
X183296671Y-126247184D01*
X183296190Y-126798398D01*
X183506686Y-127307837D01*
X183896113Y-127697944D01*
X184079839Y-127774234D01*
X184682000Y-128376395D01*
X184696143Y-128362253D01*
X184875748Y-128541858D01*
X184861605Y-128556000D01*
X184875748Y-128570143D01*
X184696143Y-128749748D01*
X184682000Y-128735605D01*
X183889675Y-129527930D01*
X183957735Y-129768931D01*
X184291056Y-129887571D01*
X181214399Y-129887571D01*
X181253767Y-129776966D01*
X181225805Y-129226462D01*
X181068931Y-128847735D01*
X180827930Y-128779675D01*
X180035605Y-129572000D01*
X180049748Y-129586143D01*
X179870143Y-129765748D01*
X179856000Y-129751605D01*
X179841858Y-129765748D01*
X179662253Y-129586143D01*
X179676395Y-129572000D01*
X178884070Y-128779675D01*
X178643069Y-128847735D01*
X178458233Y-129367034D01*
X178484673Y-129887571D01*
X178462373Y-129887571D01*
X177935122Y-129360320D01*
X177935162Y-129314833D01*
X177793117Y-128971057D01*
X177530327Y-128707808D01*
X177270867Y-128600070D01*
X179063675Y-128600070D01*
X179856000Y-129392395D01*
X180648325Y-128600070D01*
X180580265Y-128359069D01*
X180557691Y-128351034D01*
X183284233Y-128351034D01*
X183312195Y-128901538D01*
X183469069Y-129280265D01*
X183710070Y-129348325D01*
X184502395Y-128556000D01*
X183710070Y-127763675D01*
X183469069Y-127831735D01*
X183284233Y-128351034D01*
X180557691Y-128351034D01*
X180060966Y-128174233D01*
X179510462Y-128202195D01*
X179131735Y-128359069D01*
X179063675Y-128600070D01*
X177270867Y-128600070D01*
X177186799Y-128565162D01*
X176814833Y-128564838D01*
X176471057Y-128706883D01*
X176316979Y-128860693D01*
X176135000Y-128678714D01*
X176135000Y-124500000D01*
X176048603Y-124065654D01*
X175901708Y-123845810D01*
X175802566Y-123697433D01*
X172807531Y-120702398D01*
X178470190Y-120702398D01*
X178680686Y-121211837D01*
X179070113Y-121601944D01*
X179579184Y-121813329D01*
X180130398Y-121813810D01*
X180639837Y-121603314D01*
X181029944Y-121213887D01*
X181241329Y-120704816D01*
X181241810Y-120153602D01*
X181031314Y-119644163D01*
X180641887Y-119254056D01*
X180612230Y-119241741D01*
X180648325Y-119113930D01*
X179856000Y-118321605D01*
X179063675Y-119113930D01*
X179099653Y-119241327D01*
X179072163Y-119252686D01*
X178682056Y-119642113D01*
X178470671Y-120151184D01*
X178470190Y-120702398D01*
X172807531Y-120702398D01*
X172302566Y-120197434D01*
X171934345Y-119951397D01*
X171500000Y-119865000D01*
X171065655Y-119951397D01*
X170697434Y-120197434D01*
X170451397Y-120565655D01*
X170399809Y-120825007D01*
X167511836Y-117937034D01*
X178458233Y-117937034D01*
X178486195Y-118487538D01*
X178643069Y-118866265D01*
X178884070Y-118934325D01*
X179676395Y-118142000D01*
X180035605Y-118142000D01*
X180827930Y-118934325D01*
X181068931Y-118866265D01*
X181253767Y-118346966D01*
X181225805Y-117796462D01*
X181068931Y-117417735D01*
X180827930Y-117349675D01*
X180035605Y-118142000D01*
X179676395Y-118142000D01*
X178884070Y-117349675D01*
X178643069Y-117417735D01*
X178458233Y-117937034D01*
X167511836Y-117937034D01*
X161584999Y-112010197D01*
X161584999Y-109488238D01*
X161970907Y-109565000D01*
X162029093Y-109565000D01*
X162597378Y-109451961D01*
X163079147Y-109130054D01*
X163401054Y-108648285D01*
X163505981Y-108120783D01*
X164797598Y-109412400D01*
X165044160Y-109577147D01*
X165334999Y-109634999D01*
X166564882Y-109634999D01*
X166564838Y-109685167D01*
X166706883Y-110028943D01*
X166969673Y-110292192D01*
X167313201Y-110434838D01*
X167685167Y-110435162D01*
X168028943Y-110293117D01*
X168292192Y-110030327D01*
X168434838Y-109686799D01*
X168434883Y-109634999D01*
X175790199Y-109634999D01*
X169360320Y-116064878D01*
X169314833Y-116064838D01*
X168971057Y-116206883D01*
X168707808Y-116469673D01*
X168565162Y-116813201D01*
X168564838Y-117185167D01*
X168706883Y-117528943D01*
X168969673Y-117792192D01*
X169313201Y-117934838D01*
X169685167Y-117935162D01*
X170028943Y-117793117D01*
X170292192Y-117530327D01*
X170434838Y-117186799D01*
X170434852Y-117170070D01*
X179063675Y-117170070D01*
X179856000Y-117962395D01*
X180648325Y-117170070D01*
X180580265Y-116929069D01*
X180060966Y-116744233D01*
X179510462Y-116772195D01*
X179131735Y-116929069D01*
X179063675Y-117170070D01*
X170434852Y-117170070D01*
X170434879Y-117139923D01*
X177139680Y-110435122D01*
X177185167Y-110435162D01*
X177528943Y-110293117D01*
X177792192Y-110030327D01*
X177934838Y-109686799D01*
X177934883Y-109634999D01*
X186812536Y-109634999D01*
X186844672Y-109667191D01*
X187188200Y-109809837D01*
X187560166Y-109810161D01*
X187903942Y-109668116D01*
X188167191Y-109405326D01*
X188309837Y-109061798D01*
X188310161Y-108689832D01*
X188168116Y-108346056D01*
X187905326Y-108082807D01*
X187561798Y-107940161D01*
X187189832Y-107939837D01*
X186846056Y-108081882D01*
X186812881Y-108114999D01*
X171427894Y-108114999D01*
X171548603Y-107934346D01*
X171635000Y-107500000D01*
X171635000Y-100970132D01*
X172802566Y-99802566D01*
X173048603Y-99434346D01*
X173134999Y-99000000D01*
X173048603Y-98565655D01*
X172802566Y-98197434D01*
X172434345Y-97951397D01*
X172174993Y-97899809D01*
X173314802Y-96760000D01*
X188937537Y-96760000D01*
X188969673Y-96792192D01*
X189313201Y-96934838D01*
X189685167Y-96935162D01*
X190028943Y-96793117D01*
X190190601Y-96631741D01*
X190190601Y-116696639D01*
X190190601Y-116696639D01*
G37*
X190190601Y-116696639D02*
X189451634Y-116389793D01*
X188552312Y-116389008D01*
X187721146Y-116732439D01*
X187084674Y-117367801D01*
X186739793Y-118198366D01*
X186739044Y-119056396D01*
X186731536Y-119048888D01*
X186484974Y-118884141D01*
X186194135Y-118826289D01*
X185963865Y-118826289D01*
X185673026Y-118884141D01*
X185426464Y-119048888D01*
X181962599Y-122512753D01*
X181797852Y-122759315D01*
X181740000Y-123050154D01*
X181740000Y-124937537D01*
X181707808Y-124969673D01*
X181565162Y-125313201D01*
X181564838Y-125685167D01*
X181706883Y-126028943D01*
X181969673Y-126292192D01*
X182313201Y-126434838D01*
X182685167Y-126435162D01*
X183028943Y-126293117D01*
X183292192Y-126030327D01*
X183434838Y-125686799D01*
X183435162Y-125314833D01*
X183293117Y-124971057D01*
X183260000Y-124937882D01*
X183260000Y-123364956D01*
X183469972Y-123154984D01*
X183506686Y-123243837D01*
X183738507Y-123476063D01*
X183508056Y-123706113D01*
X183296671Y-124215184D01*
X183296190Y-124766398D01*
X183506686Y-125275837D01*
X183738507Y-125508063D01*
X183508056Y-125738113D01*
X183296671Y-126247184D01*
X183296190Y-126798398D01*
X183506686Y-127307837D01*
X183896113Y-127697944D01*
X184079839Y-127774234D01*
X184682000Y-128376395D01*
X184696143Y-128362253D01*
X184875748Y-128541858D01*
X184861605Y-128556000D01*
X184875748Y-128570143D01*
X184696143Y-128749748D01*
X184682000Y-128735605D01*
X183889675Y-129527930D01*
X183957735Y-129768931D01*
X184291056Y-129887571D01*
X181214399Y-129887571D01*
X181253767Y-129776966D01*
X181225805Y-129226462D01*
X181068931Y-128847735D01*
X180827930Y-128779675D01*
X180035605Y-129572000D01*
X180049748Y-129586143D01*
X179870143Y-129765748D01*
X179856000Y-129751605D01*
X179841858Y-129765748D01*
X179662253Y-129586143D01*
X179676395Y-129572000D01*
X178884070Y-128779675D01*
X178643069Y-128847735D01*
X178458233Y-129367034D01*
X178484673Y-129887571D01*
X178462373Y-129887571D01*
X177935122Y-129360320D01*
X177935162Y-129314833D01*
X177793117Y-128971057D01*
X177530327Y-128707808D01*
X177270867Y-128600070D01*
X179063675Y-128600070D01*
X179856000Y-129392395D01*
X180648325Y-128600070D01*
X180580265Y-128359069D01*
X180557691Y-128351034D01*
X183284233Y-128351034D01*
X183312195Y-128901538D01*
X183469069Y-129280265D01*
X183710070Y-129348325D01*
X184502395Y-128556000D01*
X183710070Y-127763675D01*
X183469069Y-127831735D01*
X183284233Y-128351034D01*
X180557691Y-128351034D01*
X180060966Y-128174233D01*
X179510462Y-128202195D01*
X179131735Y-128359069D01*
X179063675Y-128600070D01*
X177270867Y-128600070D01*
X177186799Y-128565162D01*
X176814833Y-128564838D01*
X176471057Y-128706883D01*
X176316979Y-128860693D01*
X176135000Y-128678714D01*
X176135000Y-124500000D01*
X176048603Y-124065654D01*
X175901708Y-123845810D01*
X175802566Y-123697433D01*
X172807531Y-120702398D01*
X178470190Y-120702398D01*
X178680686Y-121211837D01*
X179070113Y-121601944D01*
X179579184Y-121813329D01*
X180130398Y-121813810D01*
X180639837Y-121603314D01*
X181029944Y-121213887D01*
X181241329Y-120704816D01*
X181241810Y-120153602D01*
X181031314Y-119644163D01*
X180641887Y-119254056D01*
X180612230Y-119241741D01*
X180648325Y-119113930D01*
X179856000Y-118321605D01*
X179063675Y-119113930D01*
X179099653Y-119241327D01*
X179072163Y-119252686D01*
X178682056Y-119642113D01*
X178470671Y-120151184D01*
X178470190Y-120702398D01*
X172807531Y-120702398D01*
X172302566Y-120197434D01*
X171934345Y-119951397D01*
X171500000Y-119865000D01*
X171065655Y-119951397D01*
X170697434Y-120197434D01*
X170451397Y-120565655D01*
X170399809Y-120825007D01*
X167511836Y-117937034D01*
X178458233Y-117937034D01*
X178486195Y-118487538D01*
X178643069Y-118866265D01*
X178884070Y-118934325D01*
X179676395Y-118142000D01*
X180035605Y-118142000D01*
X180827930Y-118934325D01*
X181068931Y-118866265D01*
X181253767Y-118346966D01*
X181225805Y-117796462D01*
X181068931Y-117417735D01*
X180827930Y-117349675D01*
X180035605Y-118142000D01*
X179676395Y-118142000D01*
X178884070Y-117349675D01*
X178643069Y-117417735D01*
X178458233Y-117937034D01*
X167511836Y-117937034D01*
X161584999Y-112010197D01*
X161584999Y-109488238D01*
X161970907Y-109565000D01*
X162029093Y-109565000D01*
X162597378Y-109451961D01*
X163079147Y-109130054D01*
X163401054Y-108648285D01*
X163505981Y-108120783D01*
X164797598Y-109412400D01*
X165044160Y-109577147D01*
X165334999Y-109634999D01*
X166564882Y-109634999D01*
X166564838Y-109685167D01*
X166706883Y-110028943D01*
X166969673Y-110292192D01*
X167313201Y-110434838D01*
X167685167Y-110435162D01*
X168028943Y-110293117D01*
X168292192Y-110030327D01*
X168434838Y-109686799D01*
X168434883Y-109634999D01*
X175790199Y-109634999D01*
X169360320Y-116064878D01*
X169314833Y-116064838D01*
X168971057Y-116206883D01*
X168707808Y-116469673D01*
X168565162Y-116813201D01*
X168564838Y-117185167D01*
X168706883Y-117528943D01*
X168969673Y-117792192D01*
X169313201Y-117934838D01*
X169685167Y-117935162D01*
X170028943Y-117793117D01*
X170292192Y-117530327D01*
X170434838Y-117186799D01*
X170434852Y-117170070D01*
X179063675Y-117170070D01*
X179856000Y-117962395D01*
X180648325Y-117170070D01*
X180580265Y-116929069D01*
X180060966Y-116744233D01*
X179510462Y-116772195D01*
X179131735Y-116929069D01*
X179063675Y-117170070D01*
X170434852Y-117170070D01*
X170434879Y-117139923D01*
X177139680Y-110435122D01*
X177185167Y-110435162D01*
X177528943Y-110293117D01*
X177792192Y-110030327D01*
X177934838Y-109686799D01*
X177934883Y-109634999D01*
X186812536Y-109634999D01*
X186844672Y-109667191D01*
X187188200Y-109809837D01*
X187560166Y-109810161D01*
X187903942Y-109668116D01*
X188167191Y-109405326D01*
X188309837Y-109061798D01*
X188310161Y-108689832D01*
X188168116Y-108346056D01*
X187905326Y-108082807D01*
X187561798Y-107940161D01*
X187189832Y-107939837D01*
X186846056Y-108081882D01*
X186812881Y-108114999D01*
X171427894Y-108114999D01*
X171548603Y-107934346D01*
X171635000Y-107500000D01*
X171635000Y-100970132D01*
X172802566Y-99802566D01*
X173048603Y-99434346D01*
X173134999Y-99000000D01*
X173048603Y-98565655D01*
X172802566Y-98197434D01*
X172434345Y-97951397D01*
X172174993Y-97899809D01*
X173314802Y-96760000D01*
X188937537Y-96760000D01*
X188969673Y-96792192D01*
X189313201Y-96934838D01*
X189685167Y-96935162D01*
X190028943Y-96793117D01*
X190190601Y-96631741D01*
X190190601Y-116696639D01*
G36*
X160301421Y-91876223D02*
X160207808Y-91969673D01*
X160065162Y-92313201D01*
X160064838Y-92685167D01*
X160064999Y-92685557D01*
X160064999Y-101065195D01*
X155962403Y-96962599D01*
X155715841Y-96797852D01*
X155425002Y-96740000D01*
X151562463Y-96740000D01*
X151530327Y-96707808D01*
X151186799Y-96565162D01*
X150814833Y-96564838D01*
X150471057Y-96706883D01*
X150207808Y-96969673D01*
X150065162Y-97313201D01*
X150064838Y-97685167D01*
X150206883Y-98028943D01*
X150469673Y-98292192D01*
X150813201Y-98434838D01*
X151185167Y-98435162D01*
X151528943Y-98293117D01*
X151562118Y-98260000D01*
X155110200Y-98260000D01*
X157090200Y-100240000D01*
X147062463Y-100240000D01*
X147030327Y-100207808D01*
X146686799Y-100065162D01*
X146314833Y-100064838D01*
X145971057Y-100206883D01*
X145707808Y-100469673D01*
X145565162Y-100813201D01*
X145564838Y-101185167D01*
X145587494Y-101240000D01*
X145412747Y-101240000D01*
X145434838Y-101186799D01*
X145435162Y-100814833D01*
X145293117Y-100471057D01*
X145030327Y-100207808D01*
X144686799Y-100065162D01*
X144639923Y-100065121D01*
X140914999Y-96340197D01*
X141028943Y-96293117D01*
X141062118Y-96260000D01*
X151437537Y-96260000D01*
X151469673Y-96292192D01*
X151813201Y-96434838D01*
X152185167Y-96435162D01*
X152528943Y-96293117D01*
X152792192Y-96030327D01*
X152934838Y-95686799D01*
X152935162Y-95314833D01*
X152793117Y-94971057D01*
X152760000Y-94937882D01*
X152760000Y-84334802D01*
X160301421Y-91876223D01*
X160301421Y-91876223D01*
G37*
X160301421Y-91876223D02*
X160207808Y-91969673D01*
X160065162Y-92313201D01*
X160064838Y-92685167D01*
X160064999Y-92685557D01*
X160064999Y-101065195D01*
X155962403Y-96962599D01*
X155715841Y-96797852D01*
X155425002Y-96740000D01*
X151562463Y-96740000D01*
X151530327Y-96707808D01*
X151186799Y-96565162D01*
X150814833Y-96564838D01*
X150471057Y-96706883D01*
X150207808Y-96969673D01*
X150065162Y-97313201D01*
X150064838Y-97685167D01*
X150206883Y-98028943D01*
X150469673Y-98292192D01*
X150813201Y-98434838D01*
X151185167Y-98435162D01*
X151528943Y-98293117D01*
X151562118Y-98260000D01*
X155110200Y-98260000D01*
X157090200Y-100240000D01*
X147062463Y-100240000D01*
X147030327Y-100207808D01*
X146686799Y-100065162D01*
X146314833Y-100064838D01*
X145971057Y-100206883D01*
X145707808Y-100469673D01*
X145565162Y-100813201D01*
X145564838Y-101185167D01*
X145587494Y-101240000D01*
X145412747Y-101240000D01*
X145434838Y-101186799D01*
X145435162Y-100814833D01*
X145293117Y-100471057D01*
X145030327Y-100207808D01*
X144686799Y-100065162D01*
X144639923Y-100065121D01*
X140914999Y-96340197D01*
X141028943Y-96293117D01*
X141062118Y-96260000D01*
X151437537Y-96260000D01*
X151469673Y-96292192D01*
X151813201Y-96434838D01*
X152185167Y-96435162D01*
X152528943Y-96293117D01*
X152792192Y-96030327D01*
X152934838Y-95686799D01*
X152935162Y-95314833D01*
X152793117Y-94971057D01*
X152760000Y-94937882D01*
X152760000Y-84334802D01*
X160301421Y-91876223D01*
G36*
X183506686Y-77743837D02*
X183738507Y-77976063D01*
X183508056Y-78206113D01*
X183296671Y-78715184D01*
X183296190Y-79266398D01*
X183506686Y-79775837D01*
X183738507Y-80008063D01*
X183508056Y-80238113D01*
X183296671Y-80747184D01*
X183296190Y-81298398D01*
X183506686Y-81807837D01*
X183896113Y-82197944D01*
X184079839Y-82274234D01*
X184682000Y-82876395D01*
X184696143Y-82862253D01*
X184875748Y-83041858D01*
X184861605Y-83056000D01*
X184875748Y-83070143D01*
X184696143Y-83249748D01*
X184682000Y-83235605D01*
X184667858Y-83249748D01*
X184488253Y-83070143D01*
X184502395Y-83056000D01*
X183710070Y-82263675D01*
X183469069Y-82331735D01*
X183461620Y-82352664D01*
X182760000Y-81651044D01*
X182760000Y-81562463D01*
X182792192Y-81530327D01*
X182934838Y-81186799D01*
X182935162Y-80814833D01*
X182793117Y-80471057D01*
X182572291Y-80249845D01*
X182792192Y-80030327D01*
X182934838Y-79686799D01*
X182935162Y-79314833D01*
X182793117Y-78971057D01*
X182760000Y-78937882D01*
X182760000Y-77814802D01*
X183309117Y-77265685D01*
X183506686Y-77743837D01*
X183506686Y-77743837D01*
G37*
X183506686Y-77743837D02*
X183738507Y-77976063D01*
X183508056Y-78206113D01*
X183296671Y-78715184D01*
X183296190Y-79266398D01*
X183506686Y-79775837D01*
X183738507Y-80008063D01*
X183508056Y-80238113D01*
X183296671Y-80747184D01*
X183296190Y-81298398D01*
X183506686Y-81807837D01*
X183896113Y-82197944D01*
X184079839Y-82274234D01*
X184682000Y-82876395D01*
X184696143Y-82862253D01*
X184875748Y-83041858D01*
X184861605Y-83056000D01*
X184875748Y-83070143D01*
X184696143Y-83249748D01*
X184682000Y-83235605D01*
X184667858Y-83249748D01*
X184488253Y-83070143D01*
X184502395Y-83056000D01*
X183710070Y-82263675D01*
X183469069Y-82331735D01*
X183461620Y-82352664D01*
X182760000Y-81651044D01*
X182760000Y-81562463D01*
X182792192Y-81530327D01*
X182934838Y-81186799D01*
X182935162Y-80814833D01*
X182793117Y-80471057D01*
X182572291Y-80249845D01*
X182792192Y-80030327D01*
X182934838Y-79686799D01*
X182935162Y-79314833D01*
X182793117Y-78971057D01*
X182760000Y-78937882D01*
X182760000Y-77814802D01*
X183309117Y-77265685D01*
X183506686Y-77743837D01*
M02*
