G04 #@! TF.FileFunction,Copper,L2,Bot,Signal*
%FSLAX46Y46*%
G04 Gerber Fmt 4.6, Leading zero omitted, Abs format (unit mm)*
G04 Created by KiCad (PCBNEW 4.0.6) date Wednesday, 23 August 2017 'PMt' 20:48:00*
%MOMM*%
%LPD*%
G01*
G04 APERTURE LIST*
%ADD10C,0.100000*%
%ADD11C,2.800000*%
%ADD12R,1.700000X1.700000*%
%ADD13O,1.700000X1.700000*%
%ADD14R,1.900000X2.000000*%
%ADD15C,1.900000*%
%ADD16C,2.032000*%
%ADD17R,2.032000X2.032000*%
%ADD18O,1.727200X2.032000*%
%ADD19R,1.727200X2.032000*%
%ADD20O,2.032000X1.727200*%
%ADD21R,2.032000X1.727200*%
%ADD22C,1.524000*%
%ADD23R,1.600000X1.600000*%
%ADD24C,1.600000*%
%ADD25O,3.700000X2.000000*%
%ADD26O,1.998980X3.197860*%
%ADD27C,0.600000*%
%ADD28C,1.000000*%
%ADD29C,0.250000*%
%ADD30C,0.254000*%
G04 APERTURE END LIST*
D10*
D11*
X212706000Y-75313000D03*
X212706000Y-123563000D03*
X124206000Y-123563000D03*
D12*
X208280000Y-120015000D03*
D13*
X205740000Y-120015000D03*
X203200000Y-120015000D03*
X200660000Y-120015000D03*
X198120000Y-120015000D03*
X195580000Y-120015000D03*
D11*
X124206000Y-75313000D03*
D14*
X172085000Y-124460000D03*
D15*
X169545000Y-124460000D03*
D14*
X177800000Y-124460000D03*
D15*
X175260000Y-124460000D03*
D14*
X163322000Y-124460000D03*
D15*
X165862000Y-124460000D03*
D14*
X157480000Y-124460000D03*
D15*
X160020000Y-124460000D03*
D16*
X180340000Y-74295000D03*
D17*
X182880000Y-74295000D03*
D16*
X165100000Y-74295000D03*
D17*
X167640000Y-74295000D03*
D16*
X190500000Y-74295000D03*
D18*
X193040000Y-74295000D03*
X195580000Y-74295000D03*
X198120000Y-74295000D03*
X200660000Y-74295000D03*
X203200000Y-74295000D03*
X205740000Y-74295000D03*
D19*
X208280000Y-74295000D03*
D16*
X213360000Y-79375000D03*
D20*
X213360000Y-81915000D03*
X213360000Y-84455000D03*
X213360000Y-86995000D03*
X213360000Y-89535000D03*
X213360000Y-92075000D03*
X213360000Y-94615000D03*
D21*
X213360000Y-97155000D03*
D22*
X148590000Y-106045000D03*
X146050000Y-106045000D03*
X151130000Y-106045000D03*
X180340000Y-94615000D03*
X177800000Y-94615000D03*
X182880000Y-94615000D03*
X168275000Y-94615000D03*
X165735000Y-94615000D03*
X170815000Y-94615000D03*
D12*
X125095000Y-79375000D03*
D13*
X122555000Y-79375000D03*
D23*
X130429000Y-75224000D03*
D24*
X130429000Y-77724000D03*
D23*
X157480000Y-77597000D03*
D24*
X157480000Y-75097000D03*
D25*
X130208600Y-106924800D03*
D26*
X125958600Y-103174800D03*
D25*
X130208600Y-99424800D03*
X130234000Y-119066000D03*
D26*
X125984000Y-115316000D03*
D25*
X130234000Y-111566000D03*
X130234000Y-90745000D03*
D26*
X125984000Y-86995000D03*
D25*
X130234000Y-83245000D03*
D27*
X162560000Y-87630000D03*
X173355000Y-109855000D03*
X172720000Y-85090000D03*
X147955000Y-76200000D03*
X174165228Y-88265000D03*
X186055000Y-87630000D03*
X189865000Y-93980000D03*
X193040000Y-81280000D03*
X173990000Y-80010000D03*
X166370000Y-80010000D03*
X142240000Y-97790000D03*
X142240000Y-80999999D03*
X186055000Y-90170000D03*
X207010000Y-100965000D03*
X207010000Y-104140000D03*
X143510000Y-90170000D03*
X141605000Y-112395000D03*
X187960000Y-118110000D03*
X184785000Y-113665000D03*
X202565000Y-88900000D03*
X202565000Y-95250000D03*
X147225000Y-94615000D03*
X147320000Y-99060000D03*
X146685000Y-104140000D03*
X141605000Y-114935000D03*
X142875000Y-85090000D03*
X147320000Y-85090000D03*
X203200000Y-113665000D03*
X161628762Y-90170000D03*
X186690000Y-96520000D03*
X193040000Y-114935000D03*
X186690000Y-114935000D03*
X163195000Y-107950000D03*
X191135000Y-108585000D03*
X176530000Y-100965000D03*
X176530000Y-104775000D03*
X179705000Y-83789998D03*
X175893345Y-84456506D03*
X196850000Y-75565000D03*
X179682571Y-106034373D03*
X189865000Y-85090000D03*
X187960000Y-73025000D03*
X191770000Y-92075000D03*
X191770000Y-85380002D03*
X207645000Y-81915000D03*
X185420000Y-97790000D03*
X205105000Y-93345000D03*
X205105000Y-86995000D03*
X173990000Y-103505000D03*
X187325000Y-82550000D03*
X167005000Y-93345000D03*
X181610000Y-93345000D03*
X208915000Y-78740000D03*
X144699998Y-110490000D03*
X144780000Y-108585000D03*
X146050000Y-113030000D03*
X200660000Y-115570000D03*
X186690000Y-115735003D03*
X153035000Y-85090000D03*
X186690000Y-98425000D03*
X160990001Y-92748763D03*
X158115000Y-88900000D03*
X186055000Y-97155000D03*
X177165000Y-81280000D03*
X155575000Y-86360000D03*
X175260000Y-83820000D03*
X157480000Y-83820000D03*
X173355000Y-82550000D03*
X201294999Y-82646295D03*
X205740000Y-113665000D03*
X204470000Y-113665000D03*
X198754999Y-82646295D03*
X196850000Y-113665000D03*
X196215001Y-82646295D03*
X195580000Y-88900000D03*
X195580000Y-113665000D03*
X194310000Y-113665000D03*
X194310000Y-92075000D03*
X193040000Y-113665000D03*
X200025000Y-88900000D03*
D28*
X186055000Y-87630000D02*
X174800228Y-87630000D01*
X174800228Y-87630000D02*
X174165228Y-88265000D01*
X162560000Y-87630000D02*
X173530228Y-87630000D01*
X173530228Y-87630000D02*
X174165228Y-88265000D01*
X171096497Y-121565001D02*
X172860001Y-121565001D01*
X172860001Y-121565001D02*
X173355000Y-121070002D01*
X173355000Y-121070002D02*
X173355000Y-109855000D01*
X169545000Y-124460000D02*
X169545000Y-123116498D01*
X169545000Y-123116498D02*
X171096497Y-121565001D01*
X171096497Y-121565001D02*
X201649999Y-121565001D01*
X201649999Y-121565001D02*
X202350001Y-120864999D01*
X202350001Y-120864999D02*
X203200000Y-120015000D01*
X147955000Y-76200000D02*
X156845000Y-85090000D01*
X156845000Y-85090000D02*
X172720000Y-85090000D01*
X189230000Y-93980000D02*
X186690000Y-91440000D01*
X186055000Y-90170000D02*
X186055000Y-90805000D01*
X186055000Y-90805000D02*
X186690000Y-91440000D01*
X166370000Y-80010000D02*
X167005000Y-80010000D01*
X189865000Y-93980000D02*
X189230000Y-93980000D01*
X193040000Y-81280000D02*
X189230000Y-77470000D01*
X189230000Y-77470000D02*
X186055000Y-74295000D01*
X208280000Y-74295000D02*
X208280000Y-74447400D01*
X208280000Y-74447400D02*
X205257400Y-77470000D01*
X205257400Y-77470000D02*
X189230000Y-77470000D01*
X186055000Y-74295000D02*
X183515000Y-74295000D01*
X167005000Y-80010000D02*
X173990000Y-80010000D01*
X143510000Y-90170000D02*
X142240000Y-88900000D01*
X142240000Y-88900000D02*
X141674990Y-88334990D01*
X142240000Y-97790000D02*
X142240000Y-88900000D01*
X141674990Y-81565009D02*
X142240000Y-80999999D01*
X207010000Y-104140000D02*
X207010000Y-100965000D01*
X141674990Y-88334990D02*
X141674990Y-81565009D01*
X161798000Y-76200000D02*
X178435000Y-76200000D01*
X157480000Y-77597000D02*
X159280000Y-77597000D01*
X159280000Y-77597000D02*
X160677000Y-76200000D01*
X160677000Y-76200000D02*
X161798000Y-76200000D01*
X141605000Y-114935000D02*
X141605000Y-112395000D01*
X141605000Y-112395000D02*
X141605000Y-107315000D01*
X189230000Y-86995000D02*
X200660000Y-86995000D01*
X200660000Y-86995000D02*
X202565000Y-88900000D01*
X178435000Y-76200000D02*
X189230000Y-86995000D01*
X184785000Y-113665000D02*
X184785000Y-115310005D01*
X187584995Y-118110000D02*
X187960000Y-118110000D01*
X184785000Y-115310005D02*
X187584995Y-118110000D01*
X202565000Y-90170000D02*
X202565000Y-88900000D01*
X202565000Y-95250000D02*
X202565000Y-90170000D01*
X147320000Y-99060000D02*
X147320000Y-94710000D01*
X147320000Y-94710000D02*
X147225000Y-94615000D01*
X141605000Y-107315000D02*
X144780000Y-104140000D01*
X144780000Y-104140000D02*
X146685000Y-104140000D01*
X147320000Y-85090000D02*
X142875000Y-85090000D01*
D29*
X130508600Y-99424800D02*
X130508600Y-98915310D01*
X130508600Y-98915310D02*
X129768600Y-98175310D01*
X129981960Y-83189890D02*
X128716850Y-84455000D01*
X128716850Y-84455000D02*
X127635000Y-85536850D01*
X130534000Y-83245000D02*
X129926850Y-83245000D01*
X129926850Y-83245000D02*
X128716850Y-84455000D01*
X127635000Y-85536850D02*
X127635000Y-96041710D01*
X127635000Y-96041710D02*
X129768600Y-98175310D01*
X203200000Y-118745000D02*
X199390000Y-118745000D01*
X199390000Y-118745000D02*
X198120000Y-120015000D01*
X203200000Y-113665000D02*
X203200000Y-118745000D01*
X186690000Y-96520000D02*
X166031238Y-96520000D01*
X161628762Y-92117524D02*
X161628762Y-90594264D01*
X166031238Y-96520000D02*
X161628762Y-92117524D01*
X161628762Y-90594264D02*
X161628762Y-90170000D01*
X186690000Y-114935000D02*
X193040000Y-114935000D01*
X191135000Y-108585000D02*
X163830000Y-108585000D01*
X163830000Y-108585000D02*
X163195000Y-107950000D01*
X176530000Y-104775000D02*
X176530000Y-100965000D01*
X179070000Y-83789998D02*
X179705000Y-83789998D01*
X175893345Y-84456506D02*
X176559853Y-83789998D01*
X176559853Y-83789998D02*
X179070000Y-83789998D01*
X190500000Y-74295000D02*
X191841010Y-75636010D01*
X191841010Y-75636010D02*
X196778990Y-75636010D01*
X196778990Y-75636010D02*
X196850000Y-75565000D01*
X190500000Y-74447400D02*
X190500000Y-74295000D01*
X184785000Y-106045000D02*
X184774373Y-106034373D01*
X191770000Y-92075000D02*
X191770000Y-99060000D01*
X191770000Y-99060000D02*
X184785000Y-106045000D01*
X184774373Y-106034373D02*
X179682571Y-106034373D01*
X196296390Y-72953990D02*
X196215000Y-72953990D01*
X196215000Y-72953990D02*
X188031010Y-72953990D01*
X198120000Y-74295000D02*
X198120000Y-74142600D01*
X198120000Y-74142600D02*
X196931390Y-72953990D01*
X196931390Y-72953990D02*
X196215000Y-72953990D01*
X189865000Y-85090000D02*
X191479998Y-85090000D01*
X191479998Y-85090000D02*
X191770000Y-85380002D01*
X197485000Y-74295000D02*
X197485000Y-74142600D01*
X188031010Y-72953990D02*
X187960000Y-73025000D01*
X197485000Y-74447400D02*
X197485000Y-74295000D01*
X213360000Y-81915000D02*
X213207600Y-81915000D01*
X213360000Y-84455000D02*
X210185000Y-84455000D01*
X210185000Y-84455000D02*
X207645000Y-81915000D01*
X184785000Y-98333179D02*
X174716821Y-98333179D01*
X184785000Y-98333179D02*
X184876821Y-98333179D01*
X184876821Y-98333179D02*
X185420000Y-97790000D01*
X205105000Y-92710000D02*
X205105000Y-93345000D01*
X205105000Y-92710000D02*
X205105000Y-86995000D01*
X174716821Y-98333179D02*
X173990000Y-99060000D01*
X173990000Y-99060000D02*
X173990000Y-103505000D01*
X188150009Y-82105009D02*
X187769991Y-82105009D01*
X187769991Y-82105009D02*
X187325000Y-82550000D01*
X181610000Y-93345000D02*
X167005000Y-93345000D01*
X208915000Y-78740000D02*
X199196294Y-78740000D01*
X199196294Y-78740000D02*
X195831285Y-82105009D01*
X195831285Y-82105009D02*
X188150009Y-82105009D01*
X144780000Y-108585000D02*
X144780000Y-110409998D01*
X144780000Y-110409998D02*
X144699998Y-110490000D01*
X146050000Y-108585000D02*
X146050000Y-113030000D01*
X148590000Y-106045000D02*
X146050000Y-108585000D01*
X186690000Y-115735003D02*
X200494997Y-115735003D01*
X200494997Y-115735003D02*
X200660000Y-115570000D01*
X175260000Y-104130001D02*
X170805001Y-104130001D01*
X175260000Y-100330000D02*
X175260000Y-104130001D01*
X175895000Y-99695000D02*
X175260000Y-100330000D01*
X185420000Y-99695000D02*
X175895000Y-99695000D01*
X186690000Y-98425000D02*
X185420000Y-99695000D01*
X170805001Y-104130001D02*
X153035000Y-86360000D01*
X153035000Y-86360000D02*
X153035000Y-85090000D01*
X160990001Y-92748763D02*
X160990001Y-91775001D01*
X160990001Y-91775001D02*
X158115000Y-88900000D01*
X165396238Y-97155000D02*
X161586238Y-93345000D01*
X186055000Y-97155000D02*
X165396238Y-97155000D01*
X160990001Y-92748763D02*
X161586238Y-93345000D01*
X175260000Y-83820000D02*
X175260000Y-83185000D01*
X175260000Y-83185000D02*
X177165000Y-81280000D01*
X155575000Y-86360000D02*
X172720000Y-86360000D01*
X172720000Y-86360000D02*
X175260000Y-83820000D01*
X173355000Y-82550000D02*
X158750000Y-82550000D01*
X158750000Y-82550000D02*
X157480000Y-83820000D01*
X205740000Y-84455000D02*
X203931295Y-82646295D01*
X203931295Y-82646295D02*
X201294999Y-82646295D01*
X205740000Y-85090000D02*
X205740000Y-84455000D01*
X205740000Y-113665000D02*
X205740000Y-85090000D01*
X204470000Y-85090000D02*
X204375001Y-84995001D01*
X204470000Y-113665000D02*
X204470000Y-85090000D01*
X204375001Y-84995001D02*
X203200000Y-83820000D01*
X199928704Y-83820000D02*
X198754999Y-82646295D01*
X203200000Y-83820000D02*
X199928704Y-83820000D01*
X196215001Y-82646295D02*
X197478035Y-82646295D01*
X197478035Y-82646295D02*
X203390010Y-88558270D01*
X203390010Y-88558270D02*
X203390010Y-107124990D01*
X203390010Y-107124990D02*
X196850000Y-113665000D01*
X195580000Y-113665000D02*
X195580000Y-88900000D01*
X194310000Y-113665000D02*
X194310000Y-92075000D01*
X193675000Y-88274999D02*
X199399999Y-88274999D01*
X193040000Y-88900000D02*
X193049999Y-88900000D01*
X193049999Y-88900000D02*
X193675000Y-88274999D01*
X199399999Y-88274999D02*
X200025000Y-88900000D01*
X193040000Y-113665000D02*
X193040000Y-88900000D01*
D30*
G36*
X164166005Y-72894534D02*
X163701166Y-73358563D01*
X163449287Y-73965155D01*
X163448714Y-74621963D01*
X163631773Y-75065000D01*
X160677000Y-75065000D01*
X160251950Y-75149548D01*
X160242654Y-75151397D01*
X159874434Y-75397434D01*
X158815435Y-76456433D01*
X158744090Y-76345559D01*
X158531890Y-76200569D01*
X158293799Y-76152354D01*
X158308139Y-76104745D01*
X157480000Y-75276605D01*
X156651861Y-76104745D01*
X156666145Y-76152167D01*
X156444683Y-76193838D01*
X156228559Y-76332910D01*
X156083569Y-76545110D01*
X156032560Y-76797000D01*
X156032560Y-78397000D01*
X156076838Y-78632317D01*
X156215910Y-78848441D01*
X156428110Y-78993431D01*
X156680000Y-79044440D01*
X158280000Y-79044440D01*
X158515317Y-79000162D01*
X158731441Y-78861090D01*
X158819644Y-78732000D01*
X159280000Y-78732000D01*
X159714346Y-78645603D01*
X160082566Y-78399566D01*
X161147132Y-77335000D01*
X177964868Y-77335000D01*
X188427434Y-87797566D01*
X188795654Y-88043603D01*
X189230000Y-88130000D01*
X192745197Y-88130000D01*
X192532733Y-88342464D01*
X192502599Y-88362599D01*
X192337852Y-88609161D01*
X192280000Y-88900000D01*
X192280000Y-91274367D01*
X191956799Y-91140162D01*
X191584833Y-91139838D01*
X191241057Y-91281883D01*
X190977808Y-91544673D01*
X190835162Y-91888201D01*
X190834838Y-92260167D01*
X190976883Y-92603943D01*
X191010000Y-92637118D01*
X191010000Y-98745198D01*
X184480825Y-105274373D01*
X180245034Y-105274373D01*
X180212898Y-105242181D01*
X179869370Y-105099535D01*
X179497404Y-105099211D01*
X179153628Y-105241256D01*
X178890379Y-105504046D01*
X178747733Y-105847574D01*
X178747409Y-106219540D01*
X178889454Y-106563316D01*
X179152244Y-106826565D01*
X179495772Y-106969211D01*
X179867738Y-106969535D01*
X180211514Y-106827490D01*
X180244689Y-106794373D01*
X184731575Y-106794373D01*
X184785000Y-106805000D01*
X185075839Y-106747148D01*
X185322401Y-106582401D01*
X192280000Y-99624802D01*
X192280000Y-113102537D01*
X192247808Y-113134673D01*
X192105162Y-113478201D01*
X192104838Y-113850167D01*
X192239056Y-114175000D01*
X187252463Y-114175000D01*
X187220327Y-114142808D01*
X186876799Y-114000162D01*
X186504833Y-113999838D01*
X186161057Y-114141883D01*
X185920000Y-114382520D01*
X185920000Y-113665000D01*
X185833603Y-113230654D01*
X185587566Y-112862434D01*
X185219346Y-112616397D01*
X184785000Y-112530000D01*
X184350654Y-112616397D01*
X183982434Y-112862434D01*
X183736397Y-113230654D01*
X183650000Y-113665000D01*
X183650000Y-115310005D01*
X183736397Y-115744351D01*
X183935574Y-116042440D01*
X183982434Y-116112571D01*
X186782429Y-118912566D01*
X187150649Y-119158603D01*
X187584995Y-119245000D01*
X187960000Y-119245000D01*
X188394346Y-119158603D01*
X188762566Y-118912566D01*
X189008603Y-118544346D01*
X189095000Y-118110000D01*
X189008603Y-117675654D01*
X188762566Y-117307434D01*
X188394346Y-117061397D01*
X188078747Y-116998620D01*
X187575130Y-116495003D01*
X200449516Y-116495003D01*
X200473201Y-116504838D01*
X200845167Y-116505162D01*
X201188943Y-116363117D01*
X201452192Y-116100327D01*
X201594838Y-115756799D01*
X201595162Y-115384833D01*
X201453117Y-115041057D01*
X201190327Y-114777808D01*
X200846799Y-114635162D01*
X200474833Y-114634838D01*
X200131057Y-114776883D01*
X199932591Y-114975003D01*
X193974966Y-114975003D01*
X193975162Y-114749833D01*
X193869690Y-114494570D01*
X194123201Y-114599838D01*
X194495167Y-114600162D01*
X194838943Y-114458117D01*
X194944954Y-114352290D01*
X195049673Y-114457192D01*
X195393201Y-114599838D01*
X195765167Y-114600162D01*
X196108943Y-114458117D01*
X196214954Y-114352290D01*
X196319673Y-114457192D01*
X196663201Y-114599838D01*
X197035167Y-114600162D01*
X197378943Y-114458117D01*
X197642192Y-114195327D01*
X197784838Y-113851799D01*
X197784879Y-113804923D01*
X203710000Y-107879802D01*
X203710000Y-112864367D01*
X203386799Y-112730162D01*
X203014833Y-112729838D01*
X202671057Y-112871883D01*
X202407808Y-113134673D01*
X202265162Y-113478201D01*
X202264838Y-113850167D01*
X202406883Y-114193943D01*
X202440000Y-114227118D01*
X202440000Y-117985000D01*
X199390000Y-117985000D01*
X199099160Y-118042852D01*
X198852599Y-118207599D01*
X198486408Y-118573790D01*
X198120000Y-118500907D01*
X197551715Y-118613946D01*
X197069946Y-118935853D01*
X196850000Y-119265026D01*
X196630054Y-118935853D01*
X196148285Y-118613946D01*
X195580000Y-118500907D01*
X195011715Y-118613946D01*
X194529946Y-118935853D01*
X194208039Y-119417622D01*
X194095000Y-119985907D01*
X194095000Y-120044093D01*
X194171762Y-120430001D01*
X174490000Y-120430001D01*
X174490000Y-109855000D01*
X174403603Y-109420654D01*
X174353053Y-109345000D01*
X190572537Y-109345000D01*
X190604673Y-109377192D01*
X190948201Y-109519838D01*
X191320167Y-109520162D01*
X191663943Y-109378117D01*
X191927192Y-109115327D01*
X192069838Y-108771799D01*
X192070162Y-108399833D01*
X191928117Y-108056057D01*
X191665327Y-107792808D01*
X191321799Y-107650162D01*
X190949833Y-107649838D01*
X190606057Y-107791883D01*
X190572882Y-107825000D01*
X164144802Y-107825000D01*
X164130122Y-107810320D01*
X164130162Y-107764833D01*
X163988117Y-107421057D01*
X163725327Y-107157808D01*
X163381799Y-107015162D01*
X163009833Y-107014838D01*
X162666057Y-107156883D01*
X162402808Y-107419673D01*
X162260162Y-107763201D01*
X162259838Y-108135167D01*
X162401883Y-108478943D01*
X162664673Y-108742192D01*
X163008201Y-108884838D01*
X163055077Y-108884879D01*
X163292599Y-109122401D01*
X163539161Y-109287148D01*
X163830000Y-109345000D01*
X172356947Y-109345000D01*
X172306397Y-109420654D01*
X172220000Y-109855000D01*
X172220000Y-120430001D01*
X171096497Y-120430001D01*
X170662151Y-120516398D01*
X170385875Y-120701000D01*
X170293931Y-120762435D01*
X168742434Y-122313932D01*
X168496397Y-122682152D01*
X168410000Y-123116498D01*
X168410000Y-123353446D01*
X168202086Y-123560997D01*
X167960276Y-124143341D01*
X167959725Y-124773893D01*
X168200519Y-125356657D01*
X168645997Y-125802914D01*
X169228341Y-126044724D01*
X169858893Y-126045275D01*
X170441657Y-125804481D01*
X170539337Y-125706971D01*
X170670910Y-125911441D01*
X170883110Y-126056431D01*
X171135000Y-126107440D01*
X173035000Y-126107440D01*
X173270317Y-126063162D01*
X173486441Y-125924090D01*
X173631431Y-125711890D01*
X173682440Y-125460000D01*
X173682440Y-124792565D01*
X173915519Y-125356657D01*
X174360997Y-125802914D01*
X174943341Y-126044724D01*
X175573893Y-126045275D01*
X176156657Y-125804481D01*
X176254337Y-125706971D01*
X176385910Y-125911441D01*
X176598110Y-126056431D01*
X176850000Y-126107440D01*
X178750000Y-126107440D01*
X178985317Y-126063162D01*
X179201441Y-125924090D01*
X179346431Y-125711890D01*
X179397440Y-125460000D01*
X179397440Y-123966011D01*
X210670648Y-123966011D01*
X210979805Y-124714229D01*
X211551760Y-125287183D01*
X212299438Y-125597646D01*
X213109011Y-125598352D01*
X213857229Y-125289195D01*
X214430183Y-124717240D01*
X214740646Y-123969562D01*
X214741352Y-123159989D01*
X214432195Y-122411771D01*
X213860240Y-121838817D01*
X213112562Y-121528354D01*
X212302989Y-121527648D01*
X211554771Y-121836805D01*
X210981817Y-122408760D01*
X210671354Y-123156438D01*
X210670648Y-123966011D01*
X179397440Y-123966011D01*
X179397440Y-123460000D01*
X179353162Y-123224683D01*
X179214090Y-123008559D01*
X179001890Y-122863569D01*
X178750000Y-122812560D01*
X176850000Y-122812560D01*
X176614683Y-122856838D01*
X176398559Y-122995910D01*
X176253569Y-123208110D01*
X176252945Y-123211192D01*
X176159003Y-123117086D01*
X175576659Y-122875276D01*
X174946107Y-122874725D01*
X174363343Y-123115519D01*
X173917086Y-123560997D01*
X173682440Y-124126088D01*
X173682440Y-123460000D01*
X173638162Y-123224683D01*
X173499090Y-123008559D01*
X173286890Y-122863569D01*
X173035000Y-122812560D01*
X171454070Y-122812560D01*
X171566629Y-122700001D01*
X201649999Y-122700001D01*
X202084345Y-122613604D01*
X202452565Y-122367567D01*
X203313644Y-121506488D01*
X203768285Y-121416054D01*
X204250054Y-121094147D01*
X204470000Y-120764974D01*
X204689946Y-121094147D01*
X205171715Y-121416054D01*
X205740000Y-121529093D01*
X206308285Y-121416054D01*
X206790054Y-121094147D01*
X206819403Y-121050223D01*
X206891673Y-121224698D01*
X207070301Y-121403327D01*
X207303690Y-121500000D01*
X207994250Y-121500000D01*
X208153000Y-121341250D01*
X208153000Y-120142000D01*
X208407000Y-120142000D01*
X208407000Y-121341250D01*
X208565750Y-121500000D01*
X209256310Y-121500000D01*
X209489699Y-121403327D01*
X209668327Y-121224698D01*
X209765000Y-120991309D01*
X209765000Y-120300750D01*
X209606250Y-120142000D01*
X208407000Y-120142000D01*
X208153000Y-120142000D01*
X208133000Y-120142000D01*
X208133000Y-119888000D01*
X208153000Y-119888000D01*
X208153000Y-118688750D01*
X208407000Y-118688750D01*
X208407000Y-119888000D01*
X209606250Y-119888000D01*
X209765000Y-119729250D01*
X209765000Y-119038691D01*
X209668327Y-118805302D01*
X209489699Y-118626673D01*
X209256310Y-118530000D01*
X208565750Y-118530000D01*
X208407000Y-118688750D01*
X208153000Y-118688750D01*
X207994250Y-118530000D01*
X207303690Y-118530000D01*
X207070301Y-118626673D01*
X206891673Y-118805302D01*
X206819403Y-118979777D01*
X206790054Y-118935853D01*
X206308285Y-118613946D01*
X205740000Y-118500907D01*
X205171715Y-118613946D01*
X204689946Y-118935853D01*
X204470000Y-119265026D01*
X204250054Y-118935853D01*
X203960000Y-118742046D01*
X203960000Y-114465633D01*
X204283201Y-114599838D01*
X204655167Y-114600162D01*
X204998943Y-114458117D01*
X205104954Y-114352290D01*
X205209673Y-114457192D01*
X205553201Y-114599838D01*
X205925167Y-114600162D01*
X206268943Y-114458117D01*
X206532192Y-114195327D01*
X206674838Y-113851799D01*
X206675162Y-113479833D01*
X206533117Y-113136057D01*
X206500000Y-113102882D01*
X206500000Y-99048478D01*
X208534000Y-99048478D01*
X208534000Y-117082478D01*
X208542685Y-117128637D01*
X208569965Y-117171031D01*
X208611590Y-117199472D01*
X208661000Y-117209478D01*
X214630000Y-117209478D01*
X214676159Y-117200793D01*
X214718553Y-117173513D01*
X214746994Y-117131888D01*
X214757000Y-117082478D01*
X214757000Y-99048478D01*
X214748315Y-99002319D01*
X214721035Y-98959925D01*
X214679410Y-98931484D01*
X214630000Y-98921478D01*
X208661000Y-98921478D01*
X208614841Y-98930163D01*
X208572447Y-98957443D01*
X208544006Y-98999068D01*
X208534000Y-99048478D01*
X206500000Y-99048478D01*
X206500000Y-97440750D01*
X211709000Y-97440750D01*
X211709000Y-98144910D01*
X211805673Y-98378299D01*
X211984302Y-98556927D01*
X212217691Y-98653600D01*
X213074250Y-98653600D01*
X213233000Y-98494850D01*
X213233000Y-97282000D01*
X211867750Y-97282000D01*
X211709000Y-97440750D01*
X206500000Y-97440750D01*
X206500000Y-84455000D01*
X206442148Y-84164161D01*
X206277401Y-83917599D01*
X204468696Y-82108894D01*
X204222134Y-81944147D01*
X203931295Y-81886295D01*
X201857462Y-81886295D01*
X201825326Y-81854103D01*
X201481798Y-81711457D01*
X201109832Y-81711133D01*
X200766056Y-81853178D01*
X200502807Y-82115968D01*
X200360161Y-82459496D01*
X200359837Y-82831462D01*
X200454267Y-83060000D01*
X200243506Y-83060000D01*
X199690121Y-82506615D01*
X199690161Y-82461128D01*
X199548116Y-82117352D01*
X199285326Y-81854103D01*
X198941798Y-81711457D01*
X198569832Y-81711133D01*
X198226056Y-81853178D01*
X197988154Y-82090665D01*
X197768874Y-81944147D01*
X197478035Y-81886295D01*
X197124801Y-81886295D01*
X199511096Y-79500000D01*
X208352537Y-79500000D01*
X208384673Y-79532192D01*
X208728201Y-79674838D01*
X209100167Y-79675162D01*
X209443943Y-79533117D01*
X209707192Y-79270327D01*
X209849838Y-78926799D01*
X209850162Y-78554833D01*
X209708117Y-78211057D01*
X209445327Y-77947808D01*
X209101799Y-77805162D01*
X208729833Y-77804838D01*
X208386057Y-77946883D01*
X208352882Y-77980000D01*
X199196294Y-77980000D01*
X198905454Y-78037852D01*
X198658893Y-78202599D01*
X195516483Y-81345009D01*
X187769991Y-81345009D01*
X187479151Y-81402861D01*
X187232590Y-81567608D01*
X187185320Y-81614878D01*
X187139833Y-81614838D01*
X186796057Y-81756883D01*
X186532808Y-82019673D01*
X186390162Y-82363201D01*
X186389999Y-82549867D01*
X179626564Y-75786432D01*
X180010155Y-75945713D01*
X180666963Y-75946286D01*
X181273995Y-75695466D01*
X181317814Y-75651724D01*
X181325673Y-75670698D01*
X181504301Y-75849327D01*
X181737690Y-75946000D01*
X182594250Y-75946000D01*
X182753000Y-75787250D01*
X182753000Y-74422000D01*
X183007000Y-74422000D01*
X183007000Y-75787250D01*
X183165750Y-75946000D01*
X184022310Y-75946000D01*
X184255699Y-75849327D01*
X184434327Y-75670698D01*
X184531000Y-75437309D01*
X184531000Y-74580750D01*
X184372250Y-74422000D01*
X183007000Y-74422000D01*
X182753000Y-74422000D01*
X182733000Y-74422000D01*
X182733000Y-74168000D01*
X182753000Y-74168000D01*
X182753000Y-74148000D01*
X183007000Y-74148000D01*
X183007000Y-74168000D01*
X184372250Y-74168000D01*
X184531000Y-74009250D01*
X184531000Y-73152691D01*
X184434327Y-72919302D01*
X184361025Y-72846000D01*
X187025155Y-72846000D01*
X187024838Y-73210167D01*
X187166883Y-73553943D01*
X187429673Y-73817192D01*
X187773201Y-73959838D01*
X188145167Y-73960162D01*
X188488943Y-73818117D01*
X188593252Y-73713990D01*
X188953580Y-73713990D01*
X188849287Y-73965155D01*
X188848714Y-74621963D01*
X189099534Y-75228995D01*
X189563563Y-75693834D01*
X190170155Y-75945713D01*
X190826963Y-75946286D01*
X191003529Y-75873331D01*
X191303609Y-76173411D01*
X191550171Y-76338158D01*
X191841010Y-76396010D01*
X196413157Y-76396010D01*
X196663201Y-76499838D01*
X197035167Y-76500162D01*
X197378943Y-76358117D01*
X197642192Y-76095327D01*
X197723515Y-75899479D01*
X198120000Y-75978345D01*
X198693489Y-75864271D01*
X199179670Y-75539415D01*
X199390000Y-75224634D01*
X199600330Y-75539415D01*
X200086511Y-75864271D01*
X200660000Y-75978345D01*
X201233489Y-75864271D01*
X201719670Y-75539415D01*
X201930000Y-75224634D01*
X202140330Y-75539415D01*
X202626511Y-75864271D01*
X203200000Y-75978345D01*
X203773489Y-75864271D01*
X204259670Y-75539415D01*
X204470000Y-75224634D01*
X204680330Y-75539415D01*
X205166511Y-75864271D01*
X205740000Y-75978345D01*
X206313489Y-75864271D01*
X206799670Y-75539415D01*
X206814500Y-75517220D01*
X206878073Y-75670698D01*
X207056701Y-75849327D01*
X207290090Y-75946000D01*
X207994250Y-75946000D01*
X208153000Y-75787250D01*
X208153000Y-74422000D01*
X208407000Y-74422000D01*
X208407000Y-75787250D01*
X208565750Y-75946000D01*
X209269910Y-75946000D01*
X209503299Y-75849327D01*
X209636614Y-75716011D01*
X210670648Y-75716011D01*
X210979805Y-76464229D01*
X211551760Y-77037183D01*
X212299438Y-77347646D01*
X213109011Y-77348352D01*
X213857229Y-77039195D01*
X214430183Y-76467240D01*
X214740646Y-75719562D01*
X214741352Y-74909989D01*
X214432195Y-74161771D01*
X213860240Y-73588817D01*
X213112562Y-73278354D01*
X212302989Y-73277648D01*
X211554771Y-73586805D01*
X210981817Y-74158760D01*
X210671354Y-74906438D01*
X210670648Y-75716011D01*
X209636614Y-75716011D01*
X209681927Y-75670698D01*
X209778600Y-75437309D01*
X209778600Y-74580750D01*
X209619850Y-74422000D01*
X208407000Y-74422000D01*
X208153000Y-74422000D01*
X208133000Y-74422000D01*
X208133000Y-74168000D01*
X208153000Y-74168000D01*
X208153000Y-74148000D01*
X208407000Y-74148000D01*
X208407000Y-74168000D01*
X209619850Y-74168000D01*
X209778600Y-74009250D01*
X209778600Y-73152691D01*
X209681927Y-72919302D01*
X209608625Y-72846000D01*
X214936000Y-72846000D01*
X214936000Y-78865831D01*
X214760466Y-78441005D01*
X214296437Y-77976166D01*
X213689845Y-77724287D01*
X213033037Y-77723714D01*
X212426005Y-77974534D01*
X211961166Y-78438563D01*
X211709287Y-79045155D01*
X211708714Y-79701963D01*
X211959534Y-80308995D01*
X212349135Y-80699276D01*
X212115585Y-80855330D01*
X211790729Y-81341511D01*
X211676655Y-81915000D01*
X211790729Y-82488489D01*
X212115585Y-82974670D01*
X212430366Y-83185000D01*
X212115585Y-83395330D01*
X211915352Y-83695000D01*
X210499802Y-83695000D01*
X208580122Y-81775320D01*
X208580162Y-81729833D01*
X208438117Y-81386057D01*
X208175327Y-81122808D01*
X207831799Y-80980162D01*
X207459833Y-80979838D01*
X207116057Y-81121883D01*
X206852808Y-81384673D01*
X206710162Y-81728201D01*
X206709838Y-82100167D01*
X206851883Y-82443943D01*
X207114673Y-82707192D01*
X207458201Y-82849838D01*
X207505077Y-82849879D01*
X209647599Y-84992401D01*
X209894160Y-85157148D01*
X209942414Y-85166746D01*
X210185000Y-85215000D01*
X211915352Y-85215000D01*
X212115585Y-85514670D01*
X212430366Y-85725000D01*
X212115585Y-85935330D01*
X211790729Y-86421511D01*
X211676655Y-86995000D01*
X211790729Y-87568489D01*
X212115585Y-88054670D01*
X212430366Y-88265000D01*
X212115585Y-88475330D01*
X211790729Y-88961511D01*
X211676655Y-89535000D01*
X211790729Y-90108489D01*
X212115585Y-90594670D01*
X212430366Y-90805000D01*
X212115585Y-91015330D01*
X211790729Y-91501511D01*
X211676655Y-92075000D01*
X211790729Y-92648489D01*
X212115585Y-93134670D01*
X212430366Y-93345000D01*
X212115585Y-93555330D01*
X211790729Y-94041511D01*
X211676655Y-94615000D01*
X211790729Y-95188489D01*
X212115585Y-95674670D01*
X212137780Y-95689500D01*
X211984302Y-95753073D01*
X211805673Y-95931701D01*
X211709000Y-96165090D01*
X211709000Y-96869250D01*
X211867750Y-97028000D01*
X213233000Y-97028000D01*
X213233000Y-97008000D01*
X213487000Y-97008000D01*
X213487000Y-97028000D01*
X213507000Y-97028000D01*
X213507000Y-97282000D01*
X213487000Y-97282000D01*
X213487000Y-98494850D01*
X213645750Y-98653600D01*
X214502309Y-98653600D01*
X214735698Y-98556927D01*
X214914327Y-98378299D01*
X214936000Y-98325976D01*
X214936000Y-126163000D01*
X121868000Y-126163000D01*
X121868000Y-123966011D01*
X122170648Y-123966011D01*
X122479805Y-124714229D01*
X123051760Y-125287183D01*
X123799438Y-125597646D01*
X124609011Y-125598352D01*
X125357229Y-125289195D01*
X125930183Y-124717240D01*
X126240646Y-123969562D01*
X126241090Y-123460000D01*
X155882560Y-123460000D01*
X155882560Y-125460000D01*
X155926838Y-125695317D01*
X156065910Y-125911441D01*
X156278110Y-126056431D01*
X156530000Y-126107440D01*
X158430000Y-126107440D01*
X158665317Y-126063162D01*
X158881441Y-125924090D01*
X159026431Y-125711890D01*
X159027055Y-125708808D01*
X159120997Y-125802914D01*
X159703341Y-126044724D01*
X160333893Y-126045275D01*
X160916657Y-125804481D01*
X161362914Y-125359003D01*
X161604724Y-124776659D01*
X161605275Y-124146107D01*
X161364481Y-123563343D01*
X161261319Y-123460000D01*
X161724560Y-123460000D01*
X161724560Y-125460000D01*
X161768838Y-125695317D01*
X161907910Y-125911441D01*
X162120110Y-126056431D01*
X162372000Y-126107440D01*
X164272000Y-126107440D01*
X164507317Y-126063162D01*
X164723441Y-125924090D01*
X164868431Y-125711890D01*
X164869055Y-125708808D01*
X164962997Y-125802914D01*
X165545341Y-126044724D01*
X166175893Y-126045275D01*
X166758657Y-125804481D01*
X167204914Y-125359003D01*
X167446724Y-124776659D01*
X167447275Y-124146107D01*
X167206481Y-123563343D01*
X166761003Y-123117086D01*
X166178659Y-122875276D01*
X165548107Y-122874725D01*
X164965343Y-123115519D01*
X164867663Y-123213029D01*
X164736090Y-123008559D01*
X164523890Y-122863569D01*
X164272000Y-122812560D01*
X162372000Y-122812560D01*
X162136683Y-122856838D01*
X161920559Y-122995910D01*
X161775569Y-123208110D01*
X161724560Y-123460000D01*
X161261319Y-123460000D01*
X160919003Y-123117086D01*
X160336659Y-122875276D01*
X159706107Y-122874725D01*
X159123343Y-123115519D01*
X159025663Y-123213029D01*
X158894090Y-123008559D01*
X158681890Y-122863569D01*
X158430000Y-122812560D01*
X156530000Y-122812560D01*
X156294683Y-122856838D01*
X156078559Y-122995910D01*
X155933569Y-123208110D01*
X155882560Y-123460000D01*
X126241090Y-123460000D01*
X126241352Y-123159989D01*
X125932195Y-122411771D01*
X125360240Y-121838817D01*
X124612562Y-121528354D01*
X123802989Y-121527648D01*
X123054771Y-121836805D01*
X122481817Y-122408760D01*
X122171354Y-123156438D01*
X122170648Y-123966011D01*
X121868000Y-123966011D01*
X121868000Y-121028662D01*
X122282352Y-121200716D01*
X122932795Y-121201284D01*
X123533943Y-120952894D01*
X123994278Y-120493363D01*
X124243716Y-119892648D01*
X124244284Y-119242205D01*
X124171478Y-119066000D01*
X127700316Y-119066000D01*
X127824773Y-119691687D01*
X128179196Y-120222120D01*
X128709629Y-120576543D01*
X129335316Y-120701000D01*
X131132684Y-120701000D01*
X131758371Y-120576543D01*
X132288804Y-120222120D01*
X132643227Y-119691687D01*
X132767684Y-119066000D01*
X132643227Y-118440313D01*
X132288804Y-117909880D01*
X131758371Y-117555457D01*
X131132684Y-117431000D01*
X129335316Y-117431000D01*
X128709629Y-117555457D01*
X128179196Y-117909880D01*
X127824773Y-118440313D01*
X127700316Y-119066000D01*
X124171478Y-119066000D01*
X123995894Y-118641057D01*
X123536363Y-118180722D01*
X122935648Y-117931284D01*
X122285205Y-117930716D01*
X121868000Y-118103102D01*
X121868000Y-115443000D01*
X124349510Y-115443000D01*
X124349510Y-116042440D01*
X124522529Y-116658265D01*
X124918044Y-117161002D01*
X125475841Y-117474113D01*
X125603646Y-117505059D01*
X125857000Y-117385705D01*
X125857000Y-115443000D01*
X126111000Y-115443000D01*
X126111000Y-117385705D01*
X126364354Y-117505059D01*
X126492159Y-117474113D01*
X127049956Y-117161002D01*
X127445471Y-116658265D01*
X127618490Y-116042440D01*
X127618490Y-115443000D01*
X126111000Y-115443000D01*
X125857000Y-115443000D01*
X124349510Y-115443000D01*
X121868000Y-115443000D01*
X121868000Y-114589560D01*
X124349510Y-114589560D01*
X124349510Y-115189000D01*
X125857000Y-115189000D01*
X125857000Y-113246295D01*
X126111000Y-113246295D01*
X126111000Y-115189000D01*
X127618490Y-115189000D01*
X127618490Y-114589560D01*
X127445471Y-113973735D01*
X127049956Y-113470998D01*
X126492159Y-113157887D01*
X126364354Y-113126941D01*
X126111000Y-113246295D01*
X125857000Y-113246295D01*
X125603646Y-113126941D01*
X125475841Y-113157887D01*
X124918044Y-113470998D01*
X124522529Y-113973735D01*
X124349510Y-114589560D01*
X121868000Y-114589560D01*
X121868000Y-112528662D01*
X122282352Y-112700716D01*
X122932795Y-112701284D01*
X123533943Y-112452894D01*
X123994278Y-111993363D01*
X124171734Y-111566000D01*
X127700316Y-111566000D01*
X127824773Y-112191687D01*
X128179196Y-112722120D01*
X128709629Y-113076543D01*
X129335316Y-113201000D01*
X131132684Y-113201000D01*
X131758371Y-113076543D01*
X132288804Y-112722120D01*
X132643227Y-112191687D01*
X132767684Y-111566000D01*
X132643227Y-110940313D01*
X132288804Y-110409880D01*
X131758371Y-110055457D01*
X131132684Y-109931000D01*
X129335316Y-109931000D01*
X128709629Y-110055457D01*
X128179196Y-110409880D01*
X127824773Y-110940313D01*
X127700316Y-111566000D01*
X124171734Y-111566000D01*
X124243716Y-111392648D01*
X124244284Y-110742205D01*
X123995894Y-110141057D01*
X123536363Y-109680722D01*
X122935648Y-109431284D01*
X122285205Y-109430716D01*
X121868000Y-109603102D01*
X121868000Y-108898009D01*
X122256952Y-109059516D01*
X122907395Y-109060084D01*
X123508543Y-108811694D01*
X123968878Y-108352163D01*
X124218316Y-107751448D01*
X124218884Y-107101005D01*
X124146078Y-106924800D01*
X127674916Y-106924800D01*
X127799373Y-107550487D01*
X128153796Y-108080920D01*
X128684229Y-108435343D01*
X129309916Y-108559800D01*
X131107284Y-108559800D01*
X131732971Y-108435343D01*
X132263404Y-108080920D01*
X132617827Y-107550487D01*
X132664668Y-107315000D01*
X140470000Y-107315000D01*
X140470000Y-114935000D01*
X140556397Y-115369346D01*
X140802434Y-115737566D01*
X141170654Y-115983603D01*
X141605000Y-116070000D01*
X142039346Y-115983603D01*
X142407566Y-115737566D01*
X142653603Y-115369346D01*
X142740000Y-114935000D01*
X142740000Y-107785132D01*
X144653150Y-105871982D01*
X144652758Y-106321661D01*
X144864990Y-106835303D01*
X145257630Y-107228629D01*
X145770900Y-107441757D01*
X146118138Y-107442060D01*
X145538659Y-108021539D01*
X145310327Y-107792808D01*
X144966799Y-107650162D01*
X144594833Y-107649838D01*
X144251057Y-107791883D01*
X143987808Y-108054673D01*
X143845162Y-108398201D01*
X143844838Y-108770167D01*
X143986883Y-109113943D01*
X144020000Y-109147118D01*
X144020000Y-109847675D01*
X143907806Y-109959673D01*
X143765160Y-110303201D01*
X143764836Y-110675167D01*
X143906881Y-111018943D01*
X144169671Y-111282192D01*
X144513199Y-111424838D01*
X144885165Y-111425162D01*
X145228941Y-111283117D01*
X145290000Y-111222164D01*
X145290000Y-112467537D01*
X145257808Y-112499673D01*
X145115162Y-112843201D01*
X145114838Y-113215167D01*
X145256883Y-113558943D01*
X145519673Y-113822192D01*
X145863201Y-113964838D01*
X146235167Y-113965162D01*
X146578943Y-113823117D01*
X146842192Y-113560327D01*
X146984838Y-113216799D01*
X146985162Y-112844833D01*
X146843117Y-112501057D01*
X146810000Y-112467882D01*
X146810000Y-108899802D01*
X148280619Y-107429183D01*
X148310900Y-107441757D01*
X148866661Y-107442242D01*
X149380303Y-107230010D01*
X149773629Y-106837370D01*
X149859949Y-106629488D01*
X149944990Y-106835303D01*
X150337630Y-107228629D01*
X150850900Y-107441757D01*
X151406661Y-107442242D01*
X151920303Y-107230010D01*
X152313629Y-106837370D01*
X152526757Y-106324100D01*
X152527242Y-105768339D01*
X152315010Y-105254697D01*
X151922370Y-104861371D01*
X151409100Y-104648243D01*
X150853339Y-104647758D01*
X150339697Y-104859990D01*
X149946371Y-105252630D01*
X149860051Y-105460512D01*
X149775010Y-105254697D01*
X149382370Y-104861371D01*
X148869100Y-104648243D01*
X148313339Y-104647758D01*
X147799697Y-104859990D01*
X147406371Y-105252630D01*
X147320051Y-105460512D01*
X147235010Y-105254697D01*
X147149151Y-105168688D01*
X147487566Y-104942566D01*
X147733603Y-104574346D01*
X147820000Y-104140000D01*
X147733603Y-103705654D01*
X147487566Y-103337434D01*
X147119346Y-103091397D01*
X146685000Y-103005000D01*
X144780000Y-103005000D01*
X144345654Y-103091397D01*
X144175878Y-103204838D01*
X143977434Y-103337434D01*
X140802434Y-106512434D01*
X140556397Y-106880654D01*
X140470000Y-107315000D01*
X132664668Y-107315000D01*
X132742284Y-106924800D01*
X132617827Y-106299113D01*
X132263404Y-105768680D01*
X131732971Y-105414257D01*
X131107284Y-105289800D01*
X129309916Y-105289800D01*
X128684229Y-105414257D01*
X128153796Y-105768680D01*
X127799373Y-106299113D01*
X127674916Y-106924800D01*
X124146078Y-106924800D01*
X123970494Y-106499857D01*
X123510963Y-106039522D01*
X122910248Y-105790084D01*
X122259805Y-105789516D01*
X121868000Y-105951407D01*
X121868000Y-103301800D01*
X124324110Y-103301800D01*
X124324110Y-103901240D01*
X124497129Y-104517065D01*
X124892644Y-105019802D01*
X125450441Y-105332913D01*
X125578246Y-105363859D01*
X125831600Y-105244505D01*
X125831600Y-103301800D01*
X126085600Y-103301800D01*
X126085600Y-105244505D01*
X126338954Y-105363859D01*
X126466759Y-105332913D01*
X127024556Y-105019802D01*
X127420071Y-104517065D01*
X127593090Y-103901240D01*
X127593090Y-103301800D01*
X126085600Y-103301800D01*
X125831600Y-103301800D01*
X124324110Y-103301800D01*
X121868000Y-103301800D01*
X121868000Y-102448360D01*
X124324110Y-102448360D01*
X124324110Y-103047800D01*
X125831600Y-103047800D01*
X125831600Y-101105095D01*
X126085600Y-101105095D01*
X126085600Y-103047800D01*
X127593090Y-103047800D01*
X127593090Y-102448360D01*
X127420071Y-101832535D01*
X127024556Y-101329798D01*
X126466759Y-101016687D01*
X126338954Y-100985741D01*
X126085600Y-101105095D01*
X125831600Y-101105095D01*
X125578246Y-100985741D01*
X125450441Y-101016687D01*
X124892644Y-101329798D01*
X124497129Y-101832535D01*
X124324110Y-102448360D01*
X121868000Y-102448360D01*
X121868000Y-100398009D01*
X122256952Y-100559516D01*
X122907395Y-100560084D01*
X123508543Y-100311694D01*
X123968878Y-99852163D01*
X124218316Y-99251448D01*
X124218884Y-98601005D01*
X123970494Y-97999857D01*
X123510963Y-97539522D01*
X122910248Y-97290084D01*
X122259805Y-97289516D01*
X121868000Y-97451407D01*
X121868000Y-92707662D01*
X122282352Y-92879716D01*
X122932795Y-92880284D01*
X123533943Y-92631894D01*
X123994278Y-92172363D01*
X124243716Y-91571648D01*
X124244284Y-90921205D01*
X123995894Y-90320057D01*
X123536363Y-89859722D01*
X122935648Y-89610284D01*
X122285205Y-89609716D01*
X121868000Y-89782102D01*
X121868000Y-87122000D01*
X124349510Y-87122000D01*
X124349510Y-87721440D01*
X124522529Y-88337265D01*
X124918044Y-88840002D01*
X125475841Y-89153113D01*
X125603646Y-89184059D01*
X125857000Y-89064705D01*
X125857000Y-87122000D01*
X124349510Y-87122000D01*
X121868000Y-87122000D01*
X121868000Y-86268560D01*
X124349510Y-86268560D01*
X124349510Y-86868000D01*
X125857000Y-86868000D01*
X125857000Y-84925295D01*
X126111000Y-84925295D01*
X126111000Y-86868000D01*
X126131000Y-86868000D01*
X126131000Y-87122000D01*
X126111000Y-87122000D01*
X126111000Y-89064705D01*
X126364354Y-89184059D01*
X126492159Y-89153113D01*
X126875000Y-88938211D01*
X126875000Y-96041710D01*
X126932852Y-96332549D01*
X127097599Y-96579111D01*
X128533475Y-98014987D01*
X128153796Y-98268680D01*
X127799373Y-98799113D01*
X127674916Y-99424800D01*
X127799373Y-100050487D01*
X128153796Y-100580920D01*
X128684229Y-100935343D01*
X129309916Y-101059800D01*
X131107284Y-101059800D01*
X131732971Y-100935343D01*
X132263404Y-100580920D01*
X132617827Y-100050487D01*
X132742284Y-99424800D01*
X132617827Y-98799113D01*
X132263404Y-98268680D01*
X131732971Y-97914257D01*
X131107284Y-97789800D01*
X130457892Y-97789800D01*
X128395000Y-95726908D01*
X128395000Y-94615000D01*
X146090000Y-94615000D01*
X146176397Y-95049345D01*
X146185000Y-95062220D01*
X146185000Y-99060000D01*
X146271397Y-99494346D01*
X146517434Y-99862566D01*
X146885654Y-100108603D01*
X147320000Y-100195000D01*
X147754346Y-100108603D01*
X148122566Y-99862566D01*
X148368603Y-99494346D01*
X148455000Y-99060000D01*
X148455000Y-94710000D01*
X148368603Y-94275654D01*
X148122566Y-93907434D01*
X148027566Y-93812434D01*
X147659345Y-93566397D01*
X147225000Y-93480000D01*
X146790655Y-93566397D01*
X146422434Y-93812434D01*
X146176397Y-94180655D01*
X146090000Y-94615000D01*
X128395000Y-94615000D01*
X128395000Y-92045315D01*
X128709629Y-92255543D01*
X129335316Y-92380000D01*
X131132684Y-92380000D01*
X131758371Y-92255543D01*
X132288804Y-91901120D01*
X132643227Y-91370687D01*
X132767684Y-90745000D01*
X132643227Y-90119313D01*
X132288804Y-89588880D01*
X131758371Y-89234457D01*
X131132684Y-89110000D01*
X129335316Y-89110000D01*
X128709629Y-89234457D01*
X128395000Y-89444685D01*
X128395000Y-85851652D01*
X129156652Y-85090000D01*
X141740000Y-85090000D01*
X141826397Y-85524346D01*
X142072434Y-85892566D01*
X142440654Y-86138603D01*
X142875000Y-86225000D01*
X147320000Y-86225000D01*
X147754346Y-86138603D01*
X148122566Y-85892566D01*
X148368603Y-85524346D01*
X148418167Y-85275167D01*
X152099838Y-85275167D01*
X152241883Y-85618943D01*
X152275000Y-85652118D01*
X152275000Y-86360000D01*
X152332852Y-86650839D01*
X152497599Y-86897401D01*
X170267600Y-104667402D01*
X170514161Y-104832149D01*
X170562415Y-104841747D01*
X170805001Y-104890001D01*
X175260000Y-104890001D01*
X175550839Y-104832149D01*
X175594975Y-104802658D01*
X175594838Y-104960167D01*
X175736883Y-105303943D01*
X175999673Y-105567192D01*
X176343201Y-105709838D01*
X176715167Y-105710162D01*
X177058943Y-105568117D01*
X177322192Y-105305327D01*
X177464838Y-104961799D01*
X177465162Y-104589833D01*
X177323117Y-104246057D01*
X177290000Y-104212882D01*
X177290000Y-101527463D01*
X177322192Y-101495327D01*
X177464838Y-101151799D01*
X177465162Y-100779833D01*
X177330944Y-100455000D01*
X185420000Y-100455000D01*
X185710839Y-100397148D01*
X185957401Y-100232401D01*
X186829680Y-99360122D01*
X186875167Y-99360162D01*
X187218943Y-99218117D01*
X187482192Y-98955327D01*
X187624838Y-98611799D01*
X187625162Y-98239833D01*
X187483117Y-97896057D01*
X187220327Y-97632808D01*
X186920668Y-97508378D01*
X186956765Y-97421446D01*
X187218943Y-97313117D01*
X187482192Y-97050327D01*
X187624838Y-96706799D01*
X187625162Y-96334833D01*
X187483117Y-95991057D01*
X187220327Y-95727808D01*
X186876799Y-95585162D01*
X186504833Y-95584838D01*
X186161057Y-95726883D01*
X186127882Y-95760000D01*
X183710383Y-95760000D01*
X184063629Y-95407370D01*
X184276757Y-94894100D01*
X184277242Y-94338339D01*
X184065010Y-93824697D01*
X183672370Y-93431371D01*
X183159100Y-93218243D01*
X182603339Y-93217758D01*
X182545091Y-93241826D01*
X182545162Y-93159833D01*
X182403117Y-92816057D01*
X182140327Y-92552808D01*
X181796799Y-92410162D01*
X181424833Y-92409838D01*
X181081057Y-92551883D01*
X181047882Y-92585000D01*
X167567463Y-92585000D01*
X167535327Y-92552808D01*
X167191799Y-92410162D01*
X166819833Y-92409838D01*
X166476057Y-92551883D01*
X166212808Y-92814673D01*
X166070162Y-93158201D01*
X166070089Y-93241492D01*
X166014100Y-93218243D01*
X165458339Y-93217758D01*
X164944697Y-93429990D01*
X164551371Y-93822630D01*
X164509502Y-93923462D01*
X162388762Y-91802722D01*
X162388762Y-90732463D01*
X162420954Y-90700327D01*
X162563600Y-90356799D01*
X162563924Y-89984833D01*
X162421879Y-89641057D01*
X162159089Y-89377808D01*
X161815561Y-89235162D01*
X161443595Y-89234838D01*
X161099819Y-89376883D01*
X160836570Y-89639673D01*
X160693924Y-89983201D01*
X160693600Y-90355167D01*
X160727843Y-90438041D01*
X159050122Y-88760320D01*
X159050162Y-88714833D01*
X158908117Y-88371057D01*
X158645327Y-88107808D01*
X158301799Y-87965162D01*
X157929833Y-87964838D01*
X157586057Y-88106883D01*
X157322808Y-88369673D01*
X157180162Y-88713201D01*
X157179838Y-89085167D01*
X157321883Y-89428943D01*
X157584673Y-89692192D01*
X157928201Y-89834838D01*
X157975077Y-89834879D01*
X160230001Y-92089803D01*
X160230001Y-92186300D01*
X160197809Y-92218436D01*
X160130452Y-92380650D01*
X153795000Y-86045198D01*
X153795000Y-85652463D01*
X153827192Y-85620327D01*
X153969838Y-85276799D01*
X153970162Y-84904833D01*
X153828117Y-84561057D01*
X153565327Y-84297808D01*
X153221799Y-84155162D01*
X152849833Y-84154838D01*
X152506057Y-84296883D01*
X152242808Y-84559673D01*
X152100162Y-84903201D01*
X152099838Y-85275167D01*
X148418167Y-85275167D01*
X148455000Y-85090000D01*
X148368603Y-84655654D01*
X148122566Y-84287434D01*
X147754346Y-84041397D01*
X147320000Y-83955000D01*
X142875000Y-83955000D01*
X142440654Y-84041397D01*
X142072434Y-84287434D01*
X141826397Y-84655654D01*
X141740000Y-85090000D01*
X129156652Y-85090000D01*
X129366652Y-84880000D01*
X131132684Y-84880000D01*
X131758371Y-84755543D01*
X132288804Y-84401120D01*
X132643227Y-83870687D01*
X132767684Y-83245000D01*
X132643227Y-82619313D01*
X132288804Y-82088880D01*
X131758371Y-81734457D01*
X131132684Y-81610000D01*
X129335316Y-81610000D01*
X128709629Y-81734457D01*
X128179196Y-82088880D01*
X127824773Y-82619313D01*
X127700316Y-83245000D01*
X127824773Y-83870687D01*
X127985626Y-84111422D01*
X127097599Y-84999449D01*
X127011449Y-85128382D01*
X126492159Y-84836887D01*
X126364354Y-84805941D01*
X126111000Y-84925295D01*
X125857000Y-84925295D01*
X125603646Y-84805941D01*
X125475841Y-84836887D01*
X124918044Y-85149998D01*
X124522529Y-85652735D01*
X124349510Y-86268560D01*
X121868000Y-86268560D01*
X121868000Y-84207662D01*
X122282352Y-84379716D01*
X122932795Y-84380284D01*
X123533943Y-84131894D01*
X123994278Y-83672363D01*
X124243716Y-83071648D01*
X124244284Y-82421205D01*
X123995894Y-81820057D01*
X123536363Y-81359722D01*
X122935648Y-81110284D01*
X122285205Y-81109716D01*
X121868000Y-81282102D01*
X121868000Y-80679749D01*
X122198110Y-80816476D01*
X122428000Y-80695155D01*
X122428000Y-79502000D01*
X122682000Y-79502000D01*
X122682000Y-80695155D01*
X122911890Y-80816476D01*
X123321924Y-80646645D01*
X123619864Y-80375122D01*
X123706673Y-80584698D01*
X123885301Y-80763327D01*
X124118690Y-80860000D01*
X124809250Y-80860000D01*
X124968000Y-80701250D01*
X124968000Y-79502000D01*
X125222000Y-79502000D01*
X125222000Y-80701250D01*
X125380750Y-80860000D01*
X126071310Y-80860000D01*
X126304699Y-80763327D01*
X126483327Y-80584698D01*
X126580000Y-80351309D01*
X126580000Y-79660750D01*
X126421250Y-79502000D01*
X125222000Y-79502000D01*
X124968000Y-79502000D01*
X122682000Y-79502000D01*
X122428000Y-79502000D01*
X122408000Y-79502000D01*
X122408000Y-79248000D01*
X122428000Y-79248000D01*
X122428000Y-78054845D01*
X122682000Y-78054845D01*
X122682000Y-79248000D01*
X124968000Y-79248000D01*
X124968000Y-78048750D01*
X125222000Y-78048750D01*
X125222000Y-79248000D01*
X126421250Y-79248000D01*
X126580000Y-79089250D01*
X126580000Y-78731745D01*
X129600861Y-78731745D01*
X129674995Y-78977864D01*
X130212223Y-79170965D01*
X130782454Y-79143778D01*
X131183005Y-78977864D01*
X131257139Y-78731745D01*
X130429000Y-77903605D01*
X129600861Y-78731745D01*
X126580000Y-78731745D01*
X126580000Y-78398691D01*
X126483327Y-78165302D01*
X126304699Y-77986673D01*
X126071310Y-77890000D01*
X125380750Y-77890000D01*
X125222000Y-78048750D01*
X124968000Y-78048750D01*
X124809250Y-77890000D01*
X124118690Y-77890000D01*
X123885301Y-77986673D01*
X123706673Y-78165302D01*
X123619864Y-78374878D01*
X123321924Y-78103355D01*
X122911890Y-77933524D01*
X122682000Y-78054845D01*
X122428000Y-78054845D01*
X122198110Y-77933524D01*
X121868000Y-78070251D01*
X121868000Y-77507223D01*
X128982035Y-77507223D01*
X129009222Y-78077454D01*
X129175136Y-78478005D01*
X129421255Y-78552139D01*
X130249395Y-77724000D01*
X130608605Y-77724000D01*
X131436745Y-78552139D01*
X131682864Y-78478005D01*
X131875965Y-77940777D01*
X131848778Y-77370546D01*
X131682864Y-76969995D01*
X131436745Y-76895861D01*
X130608605Y-77724000D01*
X130249395Y-77724000D01*
X129421255Y-76895861D01*
X129175136Y-76969995D01*
X128982035Y-77507223D01*
X121868000Y-77507223D01*
X121868000Y-75716011D01*
X122170648Y-75716011D01*
X122479805Y-76464229D01*
X123051760Y-77037183D01*
X123799438Y-77347646D01*
X124609011Y-77348352D01*
X125357229Y-77039195D01*
X125930183Y-76467240D01*
X126240646Y-75719562D01*
X126241352Y-74909989D01*
X126040546Y-74424000D01*
X128981560Y-74424000D01*
X128981560Y-76024000D01*
X129025838Y-76259317D01*
X129164910Y-76475441D01*
X129377110Y-76620431D01*
X129615201Y-76668646D01*
X129600861Y-76716255D01*
X130429000Y-77544395D01*
X131236024Y-76737370D01*
X136085392Y-76737370D01*
X136250162Y-77136143D01*
X136554993Y-77441506D01*
X136953477Y-77606971D01*
X137384950Y-77607348D01*
X137783723Y-77442578D01*
X138089086Y-77137747D01*
X138254551Y-76739263D01*
X138254552Y-76737370D01*
X140484672Y-76737370D01*
X140649442Y-77136143D01*
X140954273Y-77441506D01*
X141352757Y-77606971D01*
X141784230Y-77607348D01*
X142183003Y-77442578D01*
X142488366Y-77137747D01*
X142653831Y-76739263D01*
X142654208Y-76307790D01*
X142609670Y-76200000D01*
X146820000Y-76200000D01*
X146906397Y-76634345D01*
X147152434Y-77002566D01*
X155574866Y-85424999D01*
X155389833Y-85424838D01*
X155046057Y-85566883D01*
X154782808Y-85829673D01*
X154640162Y-86173201D01*
X154639838Y-86545167D01*
X154781883Y-86888943D01*
X155044673Y-87152192D01*
X155388201Y-87294838D01*
X155760167Y-87295162D01*
X156103943Y-87153117D01*
X156137118Y-87120000D01*
X161561947Y-87120000D01*
X161511397Y-87195654D01*
X161425000Y-87630000D01*
X161511397Y-88064346D01*
X161757434Y-88432566D01*
X162125654Y-88678603D01*
X162560000Y-88765000D01*
X173060096Y-88765000D01*
X173362662Y-89067566D01*
X173730883Y-89313604D01*
X174165228Y-89400000D01*
X174599574Y-89313604D01*
X174967794Y-89067566D01*
X175270360Y-88765000D01*
X186055000Y-88765000D01*
X186489346Y-88678603D01*
X186857566Y-88432566D01*
X187103603Y-88064346D01*
X187190000Y-87630000D01*
X187103603Y-87195654D01*
X186857566Y-86827434D01*
X186489346Y-86581397D01*
X186055000Y-86495000D01*
X174800228Y-86495000D01*
X174365883Y-86581396D01*
X174165228Y-86715470D01*
X174134350Y-86694838D01*
X173964574Y-86581397D01*
X173638304Y-86516498D01*
X175134760Y-85020042D01*
X175363018Y-85248698D01*
X175706546Y-85391344D01*
X176078512Y-85391668D01*
X176422288Y-85249623D01*
X176685537Y-84986833D01*
X176828183Y-84643305D01*
X176828224Y-84596429D01*
X176874655Y-84549998D01*
X179142537Y-84549998D01*
X179174673Y-84582190D01*
X179518201Y-84724836D01*
X179890167Y-84725160D01*
X180233943Y-84583115D01*
X180497192Y-84320325D01*
X180639838Y-83976797D01*
X180640162Y-83604831D01*
X180498117Y-83261055D01*
X180235327Y-82997806D01*
X179891799Y-82855160D01*
X179519833Y-82854836D01*
X179176057Y-82996881D01*
X179142882Y-83029998D01*
X176559853Y-83029998D01*
X176472410Y-83047392D01*
X177304680Y-82215122D01*
X177350167Y-82215162D01*
X177693943Y-82073117D01*
X177957192Y-81810327D01*
X178099838Y-81466799D01*
X178100162Y-81094833D01*
X177958117Y-80751057D01*
X177695327Y-80487808D01*
X177351799Y-80345162D01*
X176979833Y-80344838D01*
X176636057Y-80486883D01*
X176372808Y-80749673D01*
X176230162Y-81093201D01*
X176230121Y-81140077D01*
X174722599Y-82647599D01*
X174557852Y-82894161D01*
X174500000Y-83185000D01*
X174500000Y-83257537D01*
X174467808Y-83289673D01*
X174325162Y-83633201D01*
X174325121Y-83680077D01*
X173600751Y-84404447D01*
X173522566Y-84287434D01*
X173154346Y-84041397D01*
X172720000Y-83955000D01*
X158419802Y-83955000D01*
X159064802Y-83310000D01*
X172792537Y-83310000D01*
X172824673Y-83342192D01*
X173168201Y-83484838D01*
X173540167Y-83485162D01*
X173883943Y-83343117D01*
X174147192Y-83080327D01*
X174289838Y-82736799D01*
X174290162Y-82364833D01*
X174148117Y-82021057D01*
X173885327Y-81757808D01*
X173541799Y-81615162D01*
X173169833Y-81614838D01*
X172826057Y-81756883D01*
X172792882Y-81790000D01*
X158750000Y-81790000D01*
X158459160Y-81847852D01*
X158212599Y-82012599D01*
X157340320Y-82884878D01*
X157294833Y-82884838D01*
X156951057Y-83026883D01*
X156687808Y-83289673D01*
X156676658Y-83316525D01*
X148757566Y-75397434D01*
X148389345Y-75151397D01*
X147955000Y-75065000D01*
X147520655Y-75151397D01*
X147152434Y-75397434D01*
X146906397Y-75765655D01*
X146820000Y-76200000D01*
X142609670Y-76200000D01*
X142489438Y-75909017D01*
X142184607Y-75603654D01*
X141786123Y-75438189D01*
X141354650Y-75437812D01*
X140955877Y-75602582D01*
X140650514Y-75907413D01*
X140485049Y-76305897D01*
X140484672Y-76737370D01*
X138254552Y-76737370D01*
X138254928Y-76307790D01*
X138090158Y-75909017D01*
X137785327Y-75603654D01*
X137386843Y-75438189D01*
X136955370Y-75437812D01*
X136556597Y-75602582D01*
X136251234Y-75907413D01*
X136085769Y-76305897D01*
X136085392Y-76737370D01*
X131236024Y-76737370D01*
X131257139Y-76716255D01*
X131242855Y-76668833D01*
X131464317Y-76627162D01*
X131680441Y-76488090D01*
X131825431Y-76275890D01*
X131876440Y-76024000D01*
X131876440Y-74880223D01*
X156033035Y-74880223D01*
X156060222Y-75450454D01*
X156226136Y-75851005D01*
X156472255Y-75925139D01*
X157300395Y-75097000D01*
X157659605Y-75097000D01*
X158487745Y-75925139D01*
X158733864Y-75851005D01*
X158926965Y-75313777D01*
X158899778Y-74743546D01*
X158733864Y-74342995D01*
X158487745Y-74268861D01*
X157659605Y-75097000D01*
X157300395Y-75097000D01*
X156472255Y-74268861D01*
X156226136Y-74342995D01*
X156033035Y-74880223D01*
X131876440Y-74880223D01*
X131876440Y-74424000D01*
X131832162Y-74188683D01*
X131768182Y-74089255D01*
X156651861Y-74089255D01*
X157480000Y-74917395D01*
X158308139Y-74089255D01*
X158234005Y-73843136D01*
X157696777Y-73650035D01*
X157126546Y-73677222D01*
X156725995Y-73843136D01*
X156651861Y-74089255D01*
X131768182Y-74089255D01*
X131693090Y-73972559D01*
X131480890Y-73827569D01*
X131229000Y-73776560D01*
X129629000Y-73776560D01*
X129393683Y-73820838D01*
X129177559Y-73959910D01*
X129032569Y-74172110D01*
X128981560Y-74424000D01*
X126040546Y-74424000D01*
X125932195Y-74161771D01*
X125360240Y-73588817D01*
X124612562Y-73278354D01*
X123802989Y-73277648D01*
X123054771Y-73586805D01*
X122481817Y-74158760D01*
X122171354Y-74906438D01*
X122170648Y-75716011D01*
X121868000Y-75716011D01*
X121868000Y-72846000D01*
X164283466Y-72846000D01*
X164166005Y-72894534D01*
X164166005Y-72894534D01*
G37*
X164166005Y-72894534D02*
X163701166Y-73358563D01*
X163449287Y-73965155D01*
X163448714Y-74621963D01*
X163631773Y-75065000D01*
X160677000Y-75065000D01*
X160251950Y-75149548D01*
X160242654Y-75151397D01*
X159874434Y-75397434D01*
X158815435Y-76456433D01*
X158744090Y-76345559D01*
X158531890Y-76200569D01*
X158293799Y-76152354D01*
X158308139Y-76104745D01*
X157480000Y-75276605D01*
X156651861Y-76104745D01*
X156666145Y-76152167D01*
X156444683Y-76193838D01*
X156228559Y-76332910D01*
X156083569Y-76545110D01*
X156032560Y-76797000D01*
X156032560Y-78397000D01*
X156076838Y-78632317D01*
X156215910Y-78848441D01*
X156428110Y-78993431D01*
X156680000Y-79044440D01*
X158280000Y-79044440D01*
X158515317Y-79000162D01*
X158731441Y-78861090D01*
X158819644Y-78732000D01*
X159280000Y-78732000D01*
X159714346Y-78645603D01*
X160082566Y-78399566D01*
X161147132Y-77335000D01*
X177964868Y-77335000D01*
X188427434Y-87797566D01*
X188795654Y-88043603D01*
X189230000Y-88130000D01*
X192745197Y-88130000D01*
X192532733Y-88342464D01*
X192502599Y-88362599D01*
X192337852Y-88609161D01*
X192280000Y-88900000D01*
X192280000Y-91274367D01*
X191956799Y-91140162D01*
X191584833Y-91139838D01*
X191241057Y-91281883D01*
X190977808Y-91544673D01*
X190835162Y-91888201D01*
X190834838Y-92260167D01*
X190976883Y-92603943D01*
X191010000Y-92637118D01*
X191010000Y-98745198D01*
X184480825Y-105274373D01*
X180245034Y-105274373D01*
X180212898Y-105242181D01*
X179869370Y-105099535D01*
X179497404Y-105099211D01*
X179153628Y-105241256D01*
X178890379Y-105504046D01*
X178747733Y-105847574D01*
X178747409Y-106219540D01*
X178889454Y-106563316D01*
X179152244Y-106826565D01*
X179495772Y-106969211D01*
X179867738Y-106969535D01*
X180211514Y-106827490D01*
X180244689Y-106794373D01*
X184731575Y-106794373D01*
X184785000Y-106805000D01*
X185075839Y-106747148D01*
X185322401Y-106582401D01*
X192280000Y-99624802D01*
X192280000Y-113102537D01*
X192247808Y-113134673D01*
X192105162Y-113478201D01*
X192104838Y-113850167D01*
X192239056Y-114175000D01*
X187252463Y-114175000D01*
X187220327Y-114142808D01*
X186876799Y-114000162D01*
X186504833Y-113999838D01*
X186161057Y-114141883D01*
X185920000Y-114382520D01*
X185920000Y-113665000D01*
X185833603Y-113230654D01*
X185587566Y-112862434D01*
X185219346Y-112616397D01*
X184785000Y-112530000D01*
X184350654Y-112616397D01*
X183982434Y-112862434D01*
X183736397Y-113230654D01*
X183650000Y-113665000D01*
X183650000Y-115310005D01*
X183736397Y-115744351D01*
X183935574Y-116042440D01*
X183982434Y-116112571D01*
X186782429Y-118912566D01*
X187150649Y-119158603D01*
X187584995Y-119245000D01*
X187960000Y-119245000D01*
X188394346Y-119158603D01*
X188762566Y-118912566D01*
X189008603Y-118544346D01*
X189095000Y-118110000D01*
X189008603Y-117675654D01*
X188762566Y-117307434D01*
X188394346Y-117061397D01*
X188078747Y-116998620D01*
X187575130Y-116495003D01*
X200449516Y-116495003D01*
X200473201Y-116504838D01*
X200845167Y-116505162D01*
X201188943Y-116363117D01*
X201452192Y-116100327D01*
X201594838Y-115756799D01*
X201595162Y-115384833D01*
X201453117Y-115041057D01*
X201190327Y-114777808D01*
X200846799Y-114635162D01*
X200474833Y-114634838D01*
X200131057Y-114776883D01*
X199932591Y-114975003D01*
X193974966Y-114975003D01*
X193975162Y-114749833D01*
X193869690Y-114494570D01*
X194123201Y-114599838D01*
X194495167Y-114600162D01*
X194838943Y-114458117D01*
X194944954Y-114352290D01*
X195049673Y-114457192D01*
X195393201Y-114599838D01*
X195765167Y-114600162D01*
X196108943Y-114458117D01*
X196214954Y-114352290D01*
X196319673Y-114457192D01*
X196663201Y-114599838D01*
X197035167Y-114600162D01*
X197378943Y-114458117D01*
X197642192Y-114195327D01*
X197784838Y-113851799D01*
X197784879Y-113804923D01*
X203710000Y-107879802D01*
X203710000Y-112864367D01*
X203386799Y-112730162D01*
X203014833Y-112729838D01*
X202671057Y-112871883D01*
X202407808Y-113134673D01*
X202265162Y-113478201D01*
X202264838Y-113850167D01*
X202406883Y-114193943D01*
X202440000Y-114227118D01*
X202440000Y-117985000D01*
X199390000Y-117985000D01*
X199099160Y-118042852D01*
X198852599Y-118207599D01*
X198486408Y-118573790D01*
X198120000Y-118500907D01*
X197551715Y-118613946D01*
X197069946Y-118935853D01*
X196850000Y-119265026D01*
X196630054Y-118935853D01*
X196148285Y-118613946D01*
X195580000Y-118500907D01*
X195011715Y-118613946D01*
X194529946Y-118935853D01*
X194208039Y-119417622D01*
X194095000Y-119985907D01*
X194095000Y-120044093D01*
X194171762Y-120430001D01*
X174490000Y-120430001D01*
X174490000Y-109855000D01*
X174403603Y-109420654D01*
X174353053Y-109345000D01*
X190572537Y-109345000D01*
X190604673Y-109377192D01*
X190948201Y-109519838D01*
X191320167Y-109520162D01*
X191663943Y-109378117D01*
X191927192Y-109115327D01*
X192069838Y-108771799D01*
X192070162Y-108399833D01*
X191928117Y-108056057D01*
X191665327Y-107792808D01*
X191321799Y-107650162D01*
X190949833Y-107649838D01*
X190606057Y-107791883D01*
X190572882Y-107825000D01*
X164144802Y-107825000D01*
X164130122Y-107810320D01*
X164130162Y-107764833D01*
X163988117Y-107421057D01*
X163725327Y-107157808D01*
X163381799Y-107015162D01*
X163009833Y-107014838D01*
X162666057Y-107156883D01*
X162402808Y-107419673D01*
X162260162Y-107763201D01*
X162259838Y-108135167D01*
X162401883Y-108478943D01*
X162664673Y-108742192D01*
X163008201Y-108884838D01*
X163055077Y-108884879D01*
X163292599Y-109122401D01*
X163539161Y-109287148D01*
X163830000Y-109345000D01*
X172356947Y-109345000D01*
X172306397Y-109420654D01*
X172220000Y-109855000D01*
X172220000Y-120430001D01*
X171096497Y-120430001D01*
X170662151Y-120516398D01*
X170385875Y-120701000D01*
X170293931Y-120762435D01*
X168742434Y-122313932D01*
X168496397Y-122682152D01*
X168410000Y-123116498D01*
X168410000Y-123353446D01*
X168202086Y-123560997D01*
X167960276Y-124143341D01*
X167959725Y-124773893D01*
X168200519Y-125356657D01*
X168645997Y-125802914D01*
X169228341Y-126044724D01*
X169858893Y-126045275D01*
X170441657Y-125804481D01*
X170539337Y-125706971D01*
X170670910Y-125911441D01*
X170883110Y-126056431D01*
X171135000Y-126107440D01*
X173035000Y-126107440D01*
X173270317Y-126063162D01*
X173486441Y-125924090D01*
X173631431Y-125711890D01*
X173682440Y-125460000D01*
X173682440Y-124792565D01*
X173915519Y-125356657D01*
X174360997Y-125802914D01*
X174943341Y-126044724D01*
X175573893Y-126045275D01*
X176156657Y-125804481D01*
X176254337Y-125706971D01*
X176385910Y-125911441D01*
X176598110Y-126056431D01*
X176850000Y-126107440D01*
X178750000Y-126107440D01*
X178985317Y-126063162D01*
X179201441Y-125924090D01*
X179346431Y-125711890D01*
X179397440Y-125460000D01*
X179397440Y-123966011D01*
X210670648Y-123966011D01*
X210979805Y-124714229D01*
X211551760Y-125287183D01*
X212299438Y-125597646D01*
X213109011Y-125598352D01*
X213857229Y-125289195D01*
X214430183Y-124717240D01*
X214740646Y-123969562D01*
X214741352Y-123159989D01*
X214432195Y-122411771D01*
X213860240Y-121838817D01*
X213112562Y-121528354D01*
X212302989Y-121527648D01*
X211554771Y-121836805D01*
X210981817Y-122408760D01*
X210671354Y-123156438D01*
X210670648Y-123966011D01*
X179397440Y-123966011D01*
X179397440Y-123460000D01*
X179353162Y-123224683D01*
X179214090Y-123008559D01*
X179001890Y-122863569D01*
X178750000Y-122812560D01*
X176850000Y-122812560D01*
X176614683Y-122856838D01*
X176398559Y-122995910D01*
X176253569Y-123208110D01*
X176252945Y-123211192D01*
X176159003Y-123117086D01*
X175576659Y-122875276D01*
X174946107Y-122874725D01*
X174363343Y-123115519D01*
X173917086Y-123560997D01*
X173682440Y-124126088D01*
X173682440Y-123460000D01*
X173638162Y-123224683D01*
X173499090Y-123008559D01*
X173286890Y-122863569D01*
X173035000Y-122812560D01*
X171454070Y-122812560D01*
X171566629Y-122700001D01*
X201649999Y-122700001D01*
X202084345Y-122613604D01*
X202452565Y-122367567D01*
X203313644Y-121506488D01*
X203768285Y-121416054D01*
X204250054Y-121094147D01*
X204470000Y-120764974D01*
X204689946Y-121094147D01*
X205171715Y-121416054D01*
X205740000Y-121529093D01*
X206308285Y-121416054D01*
X206790054Y-121094147D01*
X206819403Y-121050223D01*
X206891673Y-121224698D01*
X207070301Y-121403327D01*
X207303690Y-121500000D01*
X207994250Y-121500000D01*
X208153000Y-121341250D01*
X208153000Y-120142000D01*
X208407000Y-120142000D01*
X208407000Y-121341250D01*
X208565750Y-121500000D01*
X209256310Y-121500000D01*
X209489699Y-121403327D01*
X209668327Y-121224698D01*
X209765000Y-120991309D01*
X209765000Y-120300750D01*
X209606250Y-120142000D01*
X208407000Y-120142000D01*
X208153000Y-120142000D01*
X208133000Y-120142000D01*
X208133000Y-119888000D01*
X208153000Y-119888000D01*
X208153000Y-118688750D01*
X208407000Y-118688750D01*
X208407000Y-119888000D01*
X209606250Y-119888000D01*
X209765000Y-119729250D01*
X209765000Y-119038691D01*
X209668327Y-118805302D01*
X209489699Y-118626673D01*
X209256310Y-118530000D01*
X208565750Y-118530000D01*
X208407000Y-118688750D01*
X208153000Y-118688750D01*
X207994250Y-118530000D01*
X207303690Y-118530000D01*
X207070301Y-118626673D01*
X206891673Y-118805302D01*
X206819403Y-118979777D01*
X206790054Y-118935853D01*
X206308285Y-118613946D01*
X205740000Y-118500907D01*
X205171715Y-118613946D01*
X204689946Y-118935853D01*
X204470000Y-119265026D01*
X204250054Y-118935853D01*
X203960000Y-118742046D01*
X203960000Y-114465633D01*
X204283201Y-114599838D01*
X204655167Y-114600162D01*
X204998943Y-114458117D01*
X205104954Y-114352290D01*
X205209673Y-114457192D01*
X205553201Y-114599838D01*
X205925167Y-114600162D01*
X206268943Y-114458117D01*
X206532192Y-114195327D01*
X206674838Y-113851799D01*
X206675162Y-113479833D01*
X206533117Y-113136057D01*
X206500000Y-113102882D01*
X206500000Y-99048478D01*
X208534000Y-99048478D01*
X208534000Y-117082478D01*
X208542685Y-117128637D01*
X208569965Y-117171031D01*
X208611590Y-117199472D01*
X208661000Y-117209478D01*
X214630000Y-117209478D01*
X214676159Y-117200793D01*
X214718553Y-117173513D01*
X214746994Y-117131888D01*
X214757000Y-117082478D01*
X214757000Y-99048478D01*
X214748315Y-99002319D01*
X214721035Y-98959925D01*
X214679410Y-98931484D01*
X214630000Y-98921478D01*
X208661000Y-98921478D01*
X208614841Y-98930163D01*
X208572447Y-98957443D01*
X208544006Y-98999068D01*
X208534000Y-99048478D01*
X206500000Y-99048478D01*
X206500000Y-97440750D01*
X211709000Y-97440750D01*
X211709000Y-98144910D01*
X211805673Y-98378299D01*
X211984302Y-98556927D01*
X212217691Y-98653600D01*
X213074250Y-98653600D01*
X213233000Y-98494850D01*
X213233000Y-97282000D01*
X211867750Y-97282000D01*
X211709000Y-97440750D01*
X206500000Y-97440750D01*
X206500000Y-84455000D01*
X206442148Y-84164161D01*
X206277401Y-83917599D01*
X204468696Y-82108894D01*
X204222134Y-81944147D01*
X203931295Y-81886295D01*
X201857462Y-81886295D01*
X201825326Y-81854103D01*
X201481798Y-81711457D01*
X201109832Y-81711133D01*
X200766056Y-81853178D01*
X200502807Y-82115968D01*
X200360161Y-82459496D01*
X200359837Y-82831462D01*
X200454267Y-83060000D01*
X200243506Y-83060000D01*
X199690121Y-82506615D01*
X199690161Y-82461128D01*
X199548116Y-82117352D01*
X199285326Y-81854103D01*
X198941798Y-81711457D01*
X198569832Y-81711133D01*
X198226056Y-81853178D01*
X197988154Y-82090665D01*
X197768874Y-81944147D01*
X197478035Y-81886295D01*
X197124801Y-81886295D01*
X199511096Y-79500000D01*
X208352537Y-79500000D01*
X208384673Y-79532192D01*
X208728201Y-79674838D01*
X209100167Y-79675162D01*
X209443943Y-79533117D01*
X209707192Y-79270327D01*
X209849838Y-78926799D01*
X209850162Y-78554833D01*
X209708117Y-78211057D01*
X209445327Y-77947808D01*
X209101799Y-77805162D01*
X208729833Y-77804838D01*
X208386057Y-77946883D01*
X208352882Y-77980000D01*
X199196294Y-77980000D01*
X198905454Y-78037852D01*
X198658893Y-78202599D01*
X195516483Y-81345009D01*
X187769991Y-81345009D01*
X187479151Y-81402861D01*
X187232590Y-81567608D01*
X187185320Y-81614878D01*
X187139833Y-81614838D01*
X186796057Y-81756883D01*
X186532808Y-82019673D01*
X186390162Y-82363201D01*
X186389999Y-82549867D01*
X179626564Y-75786432D01*
X180010155Y-75945713D01*
X180666963Y-75946286D01*
X181273995Y-75695466D01*
X181317814Y-75651724D01*
X181325673Y-75670698D01*
X181504301Y-75849327D01*
X181737690Y-75946000D01*
X182594250Y-75946000D01*
X182753000Y-75787250D01*
X182753000Y-74422000D01*
X183007000Y-74422000D01*
X183007000Y-75787250D01*
X183165750Y-75946000D01*
X184022310Y-75946000D01*
X184255699Y-75849327D01*
X184434327Y-75670698D01*
X184531000Y-75437309D01*
X184531000Y-74580750D01*
X184372250Y-74422000D01*
X183007000Y-74422000D01*
X182753000Y-74422000D01*
X182733000Y-74422000D01*
X182733000Y-74168000D01*
X182753000Y-74168000D01*
X182753000Y-74148000D01*
X183007000Y-74148000D01*
X183007000Y-74168000D01*
X184372250Y-74168000D01*
X184531000Y-74009250D01*
X184531000Y-73152691D01*
X184434327Y-72919302D01*
X184361025Y-72846000D01*
X187025155Y-72846000D01*
X187024838Y-73210167D01*
X187166883Y-73553943D01*
X187429673Y-73817192D01*
X187773201Y-73959838D01*
X188145167Y-73960162D01*
X188488943Y-73818117D01*
X188593252Y-73713990D01*
X188953580Y-73713990D01*
X188849287Y-73965155D01*
X188848714Y-74621963D01*
X189099534Y-75228995D01*
X189563563Y-75693834D01*
X190170155Y-75945713D01*
X190826963Y-75946286D01*
X191003529Y-75873331D01*
X191303609Y-76173411D01*
X191550171Y-76338158D01*
X191841010Y-76396010D01*
X196413157Y-76396010D01*
X196663201Y-76499838D01*
X197035167Y-76500162D01*
X197378943Y-76358117D01*
X197642192Y-76095327D01*
X197723515Y-75899479D01*
X198120000Y-75978345D01*
X198693489Y-75864271D01*
X199179670Y-75539415D01*
X199390000Y-75224634D01*
X199600330Y-75539415D01*
X200086511Y-75864271D01*
X200660000Y-75978345D01*
X201233489Y-75864271D01*
X201719670Y-75539415D01*
X201930000Y-75224634D01*
X202140330Y-75539415D01*
X202626511Y-75864271D01*
X203200000Y-75978345D01*
X203773489Y-75864271D01*
X204259670Y-75539415D01*
X204470000Y-75224634D01*
X204680330Y-75539415D01*
X205166511Y-75864271D01*
X205740000Y-75978345D01*
X206313489Y-75864271D01*
X206799670Y-75539415D01*
X206814500Y-75517220D01*
X206878073Y-75670698D01*
X207056701Y-75849327D01*
X207290090Y-75946000D01*
X207994250Y-75946000D01*
X208153000Y-75787250D01*
X208153000Y-74422000D01*
X208407000Y-74422000D01*
X208407000Y-75787250D01*
X208565750Y-75946000D01*
X209269910Y-75946000D01*
X209503299Y-75849327D01*
X209636614Y-75716011D01*
X210670648Y-75716011D01*
X210979805Y-76464229D01*
X211551760Y-77037183D01*
X212299438Y-77347646D01*
X213109011Y-77348352D01*
X213857229Y-77039195D01*
X214430183Y-76467240D01*
X214740646Y-75719562D01*
X214741352Y-74909989D01*
X214432195Y-74161771D01*
X213860240Y-73588817D01*
X213112562Y-73278354D01*
X212302989Y-73277648D01*
X211554771Y-73586805D01*
X210981817Y-74158760D01*
X210671354Y-74906438D01*
X210670648Y-75716011D01*
X209636614Y-75716011D01*
X209681927Y-75670698D01*
X209778600Y-75437309D01*
X209778600Y-74580750D01*
X209619850Y-74422000D01*
X208407000Y-74422000D01*
X208153000Y-74422000D01*
X208133000Y-74422000D01*
X208133000Y-74168000D01*
X208153000Y-74168000D01*
X208153000Y-74148000D01*
X208407000Y-74148000D01*
X208407000Y-74168000D01*
X209619850Y-74168000D01*
X209778600Y-74009250D01*
X209778600Y-73152691D01*
X209681927Y-72919302D01*
X209608625Y-72846000D01*
X214936000Y-72846000D01*
X214936000Y-78865831D01*
X214760466Y-78441005D01*
X214296437Y-77976166D01*
X213689845Y-77724287D01*
X213033037Y-77723714D01*
X212426005Y-77974534D01*
X211961166Y-78438563D01*
X211709287Y-79045155D01*
X211708714Y-79701963D01*
X211959534Y-80308995D01*
X212349135Y-80699276D01*
X212115585Y-80855330D01*
X211790729Y-81341511D01*
X211676655Y-81915000D01*
X211790729Y-82488489D01*
X212115585Y-82974670D01*
X212430366Y-83185000D01*
X212115585Y-83395330D01*
X211915352Y-83695000D01*
X210499802Y-83695000D01*
X208580122Y-81775320D01*
X208580162Y-81729833D01*
X208438117Y-81386057D01*
X208175327Y-81122808D01*
X207831799Y-80980162D01*
X207459833Y-80979838D01*
X207116057Y-81121883D01*
X206852808Y-81384673D01*
X206710162Y-81728201D01*
X206709838Y-82100167D01*
X206851883Y-82443943D01*
X207114673Y-82707192D01*
X207458201Y-82849838D01*
X207505077Y-82849879D01*
X209647599Y-84992401D01*
X209894160Y-85157148D01*
X209942414Y-85166746D01*
X210185000Y-85215000D01*
X211915352Y-85215000D01*
X212115585Y-85514670D01*
X212430366Y-85725000D01*
X212115585Y-85935330D01*
X211790729Y-86421511D01*
X211676655Y-86995000D01*
X211790729Y-87568489D01*
X212115585Y-88054670D01*
X212430366Y-88265000D01*
X212115585Y-88475330D01*
X211790729Y-88961511D01*
X211676655Y-89535000D01*
X211790729Y-90108489D01*
X212115585Y-90594670D01*
X212430366Y-90805000D01*
X212115585Y-91015330D01*
X211790729Y-91501511D01*
X211676655Y-92075000D01*
X211790729Y-92648489D01*
X212115585Y-93134670D01*
X212430366Y-93345000D01*
X212115585Y-93555330D01*
X211790729Y-94041511D01*
X211676655Y-94615000D01*
X211790729Y-95188489D01*
X212115585Y-95674670D01*
X212137780Y-95689500D01*
X211984302Y-95753073D01*
X211805673Y-95931701D01*
X211709000Y-96165090D01*
X211709000Y-96869250D01*
X211867750Y-97028000D01*
X213233000Y-97028000D01*
X213233000Y-97008000D01*
X213487000Y-97008000D01*
X213487000Y-97028000D01*
X213507000Y-97028000D01*
X213507000Y-97282000D01*
X213487000Y-97282000D01*
X213487000Y-98494850D01*
X213645750Y-98653600D01*
X214502309Y-98653600D01*
X214735698Y-98556927D01*
X214914327Y-98378299D01*
X214936000Y-98325976D01*
X214936000Y-126163000D01*
X121868000Y-126163000D01*
X121868000Y-123966011D01*
X122170648Y-123966011D01*
X122479805Y-124714229D01*
X123051760Y-125287183D01*
X123799438Y-125597646D01*
X124609011Y-125598352D01*
X125357229Y-125289195D01*
X125930183Y-124717240D01*
X126240646Y-123969562D01*
X126241090Y-123460000D01*
X155882560Y-123460000D01*
X155882560Y-125460000D01*
X155926838Y-125695317D01*
X156065910Y-125911441D01*
X156278110Y-126056431D01*
X156530000Y-126107440D01*
X158430000Y-126107440D01*
X158665317Y-126063162D01*
X158881441Y-125924090D01*
X159026431Y-125711890D01*
X159027055Y-125708808D01*
X159120997Y-125802914D01*
X159703341Y-126044724D01*
X160333893Y-126045275D01*
X160916657Y-125804481D01*
X161362914Y-125359003D01*
X161604724Y-124776659D01*
X161605275Y-124146107D01*
X161364481Y-123563343D01*
X161261319Y-123460000D01*
X161724560Y-123460000D01*
X161724560Y-125460000D01*
X161768838Y-125695317D01*
X161907910Y-125911441D01*
X162120110Y-126056431D01*
X162372000Y-126107440D01*
X164272000Y-126107440D01*
X164507317Y-126063162D01*
X164723441Y-125924090D01*
X164868431Y-125711890D01*
X164869055Y-125708808D01*
X164962997Y-125802914D01*
X165545341Y-126044724D01*
X166175893Y-126045275D01*
X166758657Y-125804481D01*
X167204914Y-125359003D01*
X167446724Y-124776659D01*
X167447275Y-124146107D01*
X167206481Y-123563343D01*
X166761003Y-123117086D01*
X166178659Y-122875276D01*
X165548107Y-122874725D01*
X164965343Y-123115519D01*
X164867663Y-123213029D01*
X164736090Y-123008559D01*
X164523890Y-122863569D01*
X164272000Y-122812560D01*
X162372000Y-122812560D01*
X162136683Y-122856838D01*
X161920559Y-122995910D01*
X161775569Y-123208110D01*
X161724560Y-123460000D01*
X161261319Y-123460000D01*
X160919003Y-123117086D01*
X160336659Y-122875276D01*
X159706107Y-122874725D01*
X159123343Y-123115519D01*
X159025663Y-123213029D01*
X158894090Y-123008559D01*
X158681890Y-122863569D01*
X158430000Y-122812560D01*
X156530000Y-122812560D01*
X156294683Y-122856838D01*
X156078559Y-122995910D01*
X155933569Y-123208110D01*
X155882560Y-123460000D01*
X126241090Y-123460000D01*
X126241352Y-123159989D01*
X125932195Y-122411771D01*
X125360240Y-121838817D01*
X124612562Y-121528354D01*
X123802989Y-121527648D01*
X123054771Y-121836805D01*
X122481817Y-122408760D01*
X122171354Y-123156438D01*
X122170648Y-123966011D01*
X121868000Y-123966011D01*
X121868000Y-121028662D01*
X122282352Y-121200716D01*
X122932795Y-121201284D01*
X123533943Y-120952894D01*
X123994278Y-120493363D01*
X124243716Y-119892648D01*
X124244284Y-119242205D01*
X124171478Y-119066000D01*
X127700316Y-119066000D01*
X127824773Y-119691687D01*
X128179196Y-120222120D01*
X128709629Y-120576543D01*
X129335316Y-120701000D01*
X131132684Y-120701000D01*
X131758371Y-120576543D01*
X132288804Y-120222120D01*
X132643227Y-119691687D01*
X132767684Y-119066000D01*
X132643227Y-118440313D01*
X132288804Y-117909880D01*
X131758371Y-117555457D01*
X131132684Y-117431000D01*
X129335316Y-117431000D01*
X128709629Y-117555457D01*
X128179196Y-117909880D01*
X127824773Y-118440313D01*
X127700316Y-119066000D01*
X124171478Y-119066000D01*
X123995894Y-118641057D01*
X123536363Y-118180722D01*
X122935648Y-117931284D01*
X122285205Y-117930716D01*
X121868000Y-118103102D01*
X121868000Y-115443000D01*
X124349510Y-115443000D01*
X124349510Y-116042440D01*
X124522529Y-116658265D01*
X124918044Y-117161002D01*
X125475841Y-117474113D01*
X125603646Y-117505059D01*
X125857000Y-117385705D01*
X125857000Y-115443000D01*
X126111000Y-115443000D01*
X126111000Y-117385705D01*
X126364354Y-117505059D01*
X126492159Y-117474113D01*
X127049956Y-117161002D01*
X127445471Y-116658265D01*
X127618490Y-116042440D01*
X127618490Y-115443000D01*
X126111000Y-115443000D01*
X125857000Y-115443000D01*
X124349510Y-115443000D01*
X121868000Y-115443000D01*
X121868000Y-114589560D01*
X124349510Y-114589560D01*
X124349510Y-115189000D01*
X125857000Y-115189000D01*
X125857000Y-113246295D01*
X126111000Y-113246295D01*
X126111000Y-115189000D01*
X127618490Y-115189000D01*
X127618490Y-114589560D01*
X127445471Y-113973735D01*
X127049956Y-113470998D01*
X126492159Y-113157887D01*
X126364354Y-113126941D01*
X126111000Y-113246295D01*
X125857000Y-113246295D01*
X125603646Y-113126941D01*
X125475841Y-113157887D01*
X124918044Y-113470998D01*
X124522529Y-113973735D01*
X124349510Y-114589560D01*
X121868000Y-114589560D01*
X121868000Y-112528662D01*
X122282352Y-112700716D01*
X122932795Y-112701284D01*
X123533943Y-112452894D01*
X123994278Y-111993363D01*
X124171734Y-111566000D01*
X127700316Y-111566000D01*
X127824773Y-112191687D01*
X128179196Y-112722120D01*
X128709629Y-113076543D01*
X129335316Y-113201000D01*
X131132684Y-113201000D01*
X131758371Y-113076543D01*
X132288804Y-112722120D01*
X132643227Y-112191687D01*
X132767684Y-111566000D01*
X132643227Y-110940313D01*
X132288804Y-110409880D01*
X131758371Y-110055457D01*
X131132684Y-109931000D01*
X129335316Y-109931000D01*
X128709629Y-110055457D01*
X128179196Y-110409880D01*
X127824773Y-110940313D01*
X127700316Y-111566000D01*
X124171734Y-111566000D01*
X124243716Y-111392648D01*
X124244284Y-110742205D01*
X123995894Y-110141057D01*
X123536363Y-109680722D01*
X122935648Y-109431284D01*
X122285205Y-109430716D01*
X121868000Y-109603102D01*
X121868000Y-108898009D01*
X122256952Y-109059516D01*
X122907395Y-109060084D01*
X123508543Y-108811694D01*
X123968878Y-108352163D01*
X124218316Y-107751448D01*
X124218884Y-107101005D01*
X124146078Y-106924800D01*
X127674916Y-106924800D01*
X127799373Y-107550487D01*
X128153796Y-108080920D01*
X128684229Y-108435343D01*
X129309916Y-108559800D01*
X131107284Y-108559800D01*
X131732971Y-108435343D01*
X132263404Y-108080920D01*
X132617827Y-107550487D01*
X132664668Y-107315000D01*
X140470000Y-107315000D01*
X140470000Y-114935000D01*
X140556397Y-115369346D01*
X140802434Y-115737566D01*
X141170654Y-115983603D01*
X141605000Y-116070000D01*
X142039346Y-115983603D01*
X142407566Y-115737566D01*
X142653603Y-115369346D01*
X142740000Y-114935000D01*
X142740000Y-107785132D01*
X144653150Y-105871982D01*
X144652758Y-106321661D01*
X144864990Y-106835303D01*
X145257630Y-107228629D01*
X145770900Y-107441757D01*
X146118138Y-107442060D01*
X145538659Y-108021539D01*
X145310327Y-107792808D01*
X144966799Y-107650162D01*
X144594833Y-107649838D01*
X144251057Y-107791883D01*
X143987808Y-108054673D01*
X143845162Y-108398201D01*
X143844838Y-108770167D01*
X143986883Y-109113943D01*
X144020000Y-109147118D01*
X144020000Y-109847675D01*
X143907806Y-109959673D01*
X143765160Y-110303201D01*
X143764836Y-110675167D01*
X143906881Y-111018943D01*
X144169671Y-111282192D01*
X144513199Y-111424838D01*
X144885165Y-111425162D01*
X145228941Y-111283117D01*
X145290000Y-111222164D01*
X145290000Y-112467537D01*
X145257808Y-112499673D01*
X145115162Y-112843201D01*
X145114838Y-113215167D01*
X145256883Y-113558943D01*
X145519673Y-113822192D01*
X145863201Y-113964838D01*
X146235167Y-113965162D01*
X146578943Y-113823117D01*
X146842192Y-113560327D01*
X146984838Y-113216799D01*
X146985162Y-112844833D01*
X146843117Y-112501057D01*
X146810000Y-112467882D01*
X146810000Y-108899802D01*
X148280619Y-107429183D01*
X148310900Y-107441757D01*
X148866661Y-107442242D01*
X149380303Y-107230010D01*
X149773629Y-106837370D01*
X149859949Y-106629488D01*
X149944990Y-106835303D01*
X150337630Y-107228629D01*
X150850900Y-107441757D01*
X151406661Y-107442242D01*
X151920303Y-107230010D01*
X152313629Y-106837370D01*
X152526757Y-106324100D01*
X152527242Y-105768339D01*
X152315010Y-105254697D01*
X151922370Y-104861371D01*
X151409100Y-104648243D01*
X150853339Y-104647758D01*
X150339697Y-104859990D01*
X149946371Y-105252630D01*
X149860051Y-105460512D01*
X149775010Y-105254697D01*
X149382370Y-104861371D01*
X148869100Y-104648243D01*
X148313339Y-104647758D01*
X147799697Y-104859990D01*
X147406371Y-105252630D01*
X147320051Y-105460512D01*
X147235010Y-105254697D01*
X147149151Y-105168688D01*
X147487566Y-104942566D01*
X147733603Y-104574346D01*
X147820000Y-104140000D01*
X147733603Y-103705654D01*
X147487566Y-103337434D01*
X147119346Y-103091397D01*
X146685000Y-103005000D01*
X144780000Y-103005000D01*
X144345654Y-103091397D01*
X144175878Y-103204838D01*
X143977434Y-103337434D01*
X140802434Y-106512434D01*
X140556397Y-106880654D01*
X140470000Y-107315000D01*
X132664668Y-107315000D01*
X132742284Y-106924800D01*
X132617827Y-106299113D01*
X132263404Y-105768680D01*
X131732971Y-105414257D01*
X131107284Y-105289800D01*
X129309916Y-105289800D01*
X128684229Y-105414257D01*
X128153796Y-105768680D01*
X127799373Y-106299113D01*
X127674916Y-106924800D01*
X124146078Y-106924800D01*
X123970494Y-106499857D01*
X123510963Y-106039522D01*
X122910248Y-105790084D01*
X122259805Y-105789516D01*
X121868000Y-105951407D01*
X121868000Y-103301800D01*
X124324110Y-103301800D01*
X124324110Y-103901240D01*
X124497129Y-104517065D01*
X124892644Y-105019802D01*
X125450441Y-105332913D01*
X125578246Y-105363859D01*
X125831600Y-105244505D01*
X125831600Y-103301800D01*
X126085600Y-103301800D01*
X126085600Y-105244505D01*
X126338954Y-105363859D01*
X126466759Y-105332913D01*
X127024556Y-105019802D01*
X127420071Y-104517065D01*
X127593090Y-103901240D01*
X127593090Y-103301800D01*
X126085600Y-103301800D01*
X125831600Y-103301800D01*
X124324110Y-103301800D01*
X121868000Y-103301800D01*
X121868000Y-102448360D01*
X124324110Y-102448360D01*
X124324110Y-103047800D01*
X125831600Y-103047800D01*
X125831600Y-101105095D01*
X126085600Y-101105095D01*
X126085600Y-103047800D01*
X127593090Y-103047800D01*
X127593090Y-102448360D01*
X127420071Y-101832535D01*
X127024556Y-101329798D01*
X126466759Y-101016687D01*
X126338954Y-100985741D01*
X126085600Y-101105095D01*
X125831600Y-101105095D01*
X125578246Y-100985741D01*
X125450441Y-101016687D01*
X124892644Y-101329798D01*
X124497129Y-101832535D01*
X124324110Y-102448360D01*
X121868000Y-102448360D01*
X121868000Y-100398009D01*
X122256952Y-100559516D01*
X122907395Y-100560084D01*
X123508543Y-100311694D01*
X123968878Y-99852163D01*
X124218316Y-99251448D01*
X124218884Y-98601005D01*
X123970494Y-97999857D01*
X123510963Y-97539522D01*
X122910248Y-97290084D01*
X122259805Y-97289516D01*
X121868000Y-97451407D01*
X121868000Y-92707662D01*
X122282352Y-92879716D01*
X122932795Y-92880284D01*
X123533943Y-92631894D01*
X123994278Y-92172363D01*
X124243716Y-91571648D01*
X124244284Y-90921205D01*
X123995894Y-90320057D01*
X123536363Y-89859722D01*
X122935648Y-89610284D01*
X122285205Y-89609716D01*
X121868000Y-89782102D01*
X121868000Y-87122000D01*
X124349510Y-87122000D01*
X124349510Y-87721440D01*
X124522529Y-88337265D01*
X124918044Y-88840002D01*
X125475841Y-89153113D01*
X125603646Y-89184059D01*
X125857000Y-89064705D01*
X125857000Y-87122000D01*
X124349510Y-87122000D01*
X121868000Y-87122000D01*
X121868000Y-86268560D01*
X124349510Y-86268560D01*
X124349510Y-86868000D01*
X125857000Y-86868000D01*
X125857000Y-84925295D01*
X126111000Y-84925295D01*
X126111000Y-86868000D01*
X126131000Y-86868000D01*
X126131000Y-87122000D01*
X126111000Y-87122000D01*
X126111000Y-89064705D01*
X126364354Y-89184059D01*
X126492159Y-89153113D01*
X126875000Y-88938211D01*
X126875000Y-96041710D01*
X126932852Y-96332549D01*
X127097599Y-96579111D01*
X128533475Y-98014987D01*
X128153796Y-98268680D01*
X127799373Y-98799113D01*
X127674916Y-99424800D01*
X127799373Y-100050487D01*
X128153796Y-100580920D01*
X128684229Y-100935343D01*
X129309916Y-101059800D01*
X131107284Y-101059800D01*
X131732971Y-100935343D01*
X132263404Y-100580920D01*
X132617827Y-100050487D01*
X132742284Y-99424800D01*
X132617827Y-98799113D01*
X132263404Y-98268680D01*
X131732971Y-97914257D01*
X131107284Y-97789800D01*
X130457892Y-97789800D01*
X128395000Y-95726908D01*
X128395000Y-94615000D01*
X146090000Y-94615000D01*
X146176397Y-95049345D01*
X146185000Y-95062220D01*
X146185000Y-99060000D01*
X146271397Y-99494346D01*
X146517434Y-99862566D01*
X146885654Y-100108603D01*
X147320000Y-100195000D01*
X147754346Y-100108603D01*
X148122566Y-99862566D01*
X148368603Y-99494346D01*
X148455000Y-99060000D01*
X148455000Y-94710000D01*
X148368603Y-94275654D01*
X148122566Y-93907434D01*
X148027566Y-93812434D01*
X147659345Y-93566397D01*
X147225000Y-93480000D01*
X146790655Y-93566397D01*
X146422434Y-93812434D01*
X146176397Y-94180655D01*
X146090000Y-94615000D01*
X128395000Y-94615000D01*
X128395000Y-92045315D01*
X128709629Y-92255543D01*
X129335316Y-92380000D01*
X131132684Y-92380000D01*
X131758371Y-92255543D01*
X132288804Y-91901120D01*
X132643227Y-91370687D01*
X132767684Y-90745000D01*
X132643227Y-90119313D01*
X132288804Y-89588880D01*
X131758371Y-89234457D01*
X131132684Y-89110000D01*
X129335316Y-89110000D01*
X128709629Y-89234457D01*
X128395000Y-89444685D01*
X128395000Y-85851652D01*
X129156652Y-85090000D01*
X141740000Y-85090000D01*
X141826397Y-85524346D01*
X142072434Y-85892566D01*
X142440654Y-86138603D01*
X142875000Y-86225000D01*
X147320000Y-86225000D01*
X147754346Y-86138603D01*
X148122566Y-85892566D01*
X148368603Y-85524346D01*
X148418167Y-85275167D01*
X152099838Y-85275167D01*
X152241883Y-85618943D01*
X152275000Y-85652118D01*
X152275000Y-86360000D01*
X152332852Y-86650839D01*
X152497599Y-86897401D01*
X170267600Y-104667402D01*
X170514161Y-104832149D01*
X170562415Y-104841747D01*
X170805001Y-104890001D01*
X175260000Y-104890001D01*
X175550839Y-104832149D01*
X175594975Y-104802658D01*
X175594838Y-104960167D01*
X175736883Y-105303943D01*
X175999673Y-105567192D01*
X176343201Y-105709838D01*
X176715167Y-105710162D01*
X177058943Y-105568117D01*
X177322192Y-105305327D01*
X177464838Y-104961799D01*
X177465162Y-104589833D01*
X177323117Y-104246057D01*
X177290000Y-104212882D01*
X177290000Y-101527463D01*
X177322192Y-101495327D01*
X177464838Y-101151799D01*
X177465162Y-100779833D01*
X177330944Y-100455000D01*
X185420000Y-100455000D01*
X185710839Y-100397148D01*
X185957401Y-100232401D01*
X186829680Y-99360122D01*
X186875167Y-99360162D01*
X187218943Y-99218117D01*
X187482192Y-98955327D01*
X187624838Y-98611799D01*
X187625162Y-98239833D01*
X187483117Y-97896057D01*
X187220327Y-97632808D01*
X186920668Y-97508378D01*
X186956765Y-97421446D01*
X187218943Y-97313117D01*
X187482192Y-97050327D01*
X187624838Y-96706799D01*
X187625162Y-96334833D01*
X187483117Y-95991057D01*
X187220327Y-95727808D01*
X186876799Y-95585162D01*
X186504833Y-95584838D01*
X186161057Y-95726883D01*
X186127882Y-95760000D01*
X183710383Y-95760000D01*
X184063629Y-95407370D01*
X184276757Y-94894100D01*
X184277242Y-94338339D01*
X184065010Y-93824697D01*
X183672370Y-93431371D01*
X183159100Y-93218243D01*
X182603339Y-93217758D01*
X182545091Y-93241826D01*
X182545162Y-93159833D01*
X182403117Y-92816057D01*
X182140327Y-92552808D01*
X181796799Y-92410162D01*
X181424833Y-92409838D01*
X181081057Y-92551883D01*
X181047882Y-92585000D01*
X167567463Y-92585000D01*
X167535327Y-92552808D01*
X167191799Y-92410162D01*
X166819833Y-92409838D01*
X166476057Y-92551883D01*
X166212808Y-92814673D01*
X166070162Y-93158201D01*
X166070089Y-93241492D01*
X166014100Y-93218243D01*
X165458339Y-93217758D01*
X164944697Y-93429990D01*
X164551371Y-93822630D01*
X164509502Y-93923462D01*
X162388762Y-91802722D01*
X162388762Y-90732463D01*
X162420954Y-90700327D01*
X162563600Y-90356799D01*
X162563924Y-89984833D01*
X162421879Y-89641057D01*
X162159089Y-89377808D01*
X161815561Y-89235162D01*
X161443595Y-89234838D01*
X161099819Y-89376883D01*
X160836570Y-89639673D01*
X160693924Y-89983201D01*
X160693600Y-90355167D01*
X160727843Y-90438041D01*
X159050122Y-88760320D01*
X159050162Y-88714833D01*
X158908117Y-88371057D01*
X158645327Y-88107808D01*
X158301799Y-87965162D01*
X157929833Y-87964838D01*
X157586057Y-88106883D01*
X157322808Y-88369673D01*
X157180162Y-88713201D01*
X157179838Y-89085167D01*
X157321883Y-89428943D01*
X157584673Y-89692192D01*
X157928201Y-89834838D01*
X157975077Y-89834879D01*
X160230001Y-92089803D01*
X160230001Y-92186300D01*
X160197809Y-92218436D01*
X160130452Y-92380650D01*
X153795000Y-86045198D01*
X153795000Y-85652463D01*
X153827192Y-85620327D01*
X153969838Y-85276799D01*
X153970162Y-84904833D01*
X153828117Y-84561057D01*
X153565327Y-84297808D01*
X153221799Y-84155162D01*
X152849833Y-84154838D01*
X152506057Y-84296883D01*
X152242808Y-84559673D01*
X152100162Y-84903201D01*
X152099838Y-85275167D01*
X148418167Y-85275167D01*
X148455000Y-85090000D01*
X148368603Y-84655654D01*
X148122566Y-84287434D01*
X147754346Y-84041397D01*
X147320000Y-83955000D01*
X142875000Y-83955000D01*
X142440654Y-84041397D01*
X142072434Y-84287434D01*
X141826397Y-84655654D01*
X141740000Y-85090000D01*
X129156652Y-85090000D01*
X129366652Y-84880000D01*
X131132684Y-84880000D01*
X131758371Y-84755543D01*
X132288804Y-84401120D01*
X132643227Y-83870687D01*
X132767684Y-83245000D01*
X132643227Y-82619313D01*
X132288804Y-82088880D01*
X131758371Y-81734457D01*
X131132684Y-81610000D01*
X129335316Y-81610000D01*
X128709629Y-81734457D01*
X128179196Y-82088880D01*
X127824773Y-82619313D01*
X127700316Y-83245000D01*
X127824773Y-83870687D01*
X127985626Y-84111422D01*
X127097599Y-84999449D01*
X127011449Y-85128382D01*
X126492159Y-84836887D01*
X126364354Y-84805941D01*
X126111000Y-84925295D01*
X125857000Y-84925295D01*
X125603646Y-84805941D01*
X125475841Y-84836887D01*
X124918044Y-85149998D01*
X124522529Y-85652735D01*
X124349510Y-86268560D01*
X121868000Y-86268560D01*
X121868000Y-84207662D01*
X122282352Y-84379716D01*
X122932795Y-84380284D01*
X123533943Y-84131894D01*
X123994278Y-83672363D01*
X124243716Y-83071648D01*
X124244284Y-82421205D01*
X123995894Y-81820057D01*
X123536363Y-81359722D01*
X122935648Y-81110284D01*
X122285205Y-81109716D01*
X121868000Y-81282102D01*
X121868000Y-80679749D01*
X122198110Y-80816476D01*
X122428000Y-80695155D01*
X122428000Y-79502000D01*
X122682000Y-79502000D01*
X122682000Y-80695155D01*
X122911890Y-80816476D01*
X123321924Y-80646645D01*
X123619864Y-80375122D01*
X123706673Y-80584698D01*
X123885301Y-80763327D01*
X124118690Y-80860000D01*
X124809250Y-80860000D01*
X124968000Y-80701250D01*
X124968000Y-79502000D01*
X125222000Y-79502000D01*
X125222000Y-80701250D01*
X125380750Y-80860000D01*
X126071310Y-80860000D01*
X126304699Y-80763327D01*
X126483327Y-80584698D01*
X126580000Y-80351309D01*
X126580000Y-79660750D01*
X126421250Y-79502000D01*
X125222000Y-79502000D01*
X124968000Y-79502000D01*
X122682000Y-79502000D01*
X122428000Y-79502000D01*
X122408000Y-79502000D01*
X122408000Y-79248000D01*
X122428000Y-79248000D01*
X122428000Y-78054845D01*
X122682000Y-78054845D01*
X122682000Y-79248000D01*
X124968000Y-79248000D01*
X124968000Y-78048750D01*
X125222000Y-78048750D01*
X125222000Y-79248000D01*
X126421250Y-79248000D01*
X126580000Y-79089250D01*
X126580000Y-78731745D01*
X129600861Y-78731745D01*
X129674995Y-78977864D01*
X130212223Y-79170965D01*
X130782454Y-79143778D01*
X131183005Y-78977864D01*
X131257139Y-78731745D01*
X130429000Y-77903605D01*
X129600861Y-78731745D01*
X126580000Y-78731745D01*
X126580000Y-78398691D01*
X126483327Y-78165302D01*
X126304699Y-77986673D01*
X126071310Y-77890000D01*
X125380750Y-77890000D01*
X125222000Y-78048750D01*
X124968000Y-78048750D01*
X124809250Y-77890000D01*
X124118690Y-77890000D01*
X123885301Y-77986673D01*
X123706673Y-78165302D01*
X123619864Y-78374878D01*
X123321924Y-78103355D01*
X122911890Y-77933524D01*
X122682000Y-78054845D01*
X122428000Y-78054845D01*
X122198110Y-77933524D01*
X121868000Y-78070251D01*
X121868000Y-77507223D01*
X128982035Y-77507223D01*
X129009222Y-78077454D01*
X129175136Y-78478005D01*
X129421255Y-78552139D01*
X130249395Y-77724000D01*
X130608605Y-77724000D01*
X131436745Y-78552139D01*
X131682864Y-78478005D01*
X131875965Y-77940777D01*
X131848778Y-77370546D01*
X131682864Y-76969995D01*
X131436745Y-76895861D01*
X130608605Y-77724000D01*
X130249395Y-77724000D01*
X129421255Y-76895861D01*
X129175136Y-76969995D01*
X128982035Y-77507223D01*
X121868000Y-77507223D01*
X121868000Y-75716011D01*
X122170648Y-75716011D01*
X122479805Y-76464229D01*
X123051760Y-77037183D01*
X123799438Y-77347646D01*
X124609011Y-77348352D01*
X125357229Y-77039195D01*
X125930183Y-76467240D01*
X126240646Y-75719562D01*
X126241352Y-74909989D01*
X126040546Y-74424000D01*
X128981560Y-74424000D01*
X128981560Y-76024000D01*
X129025838Y-76259317D01*
X129164910Y-76475441D01*
X129377110Y-76620431D01*
X129615201Y-76668646D01*
X129600861Y-76716255D01*
X130429000Y-77544395D01*
X131236024Y-76737370D01*
X136085392Y-76737370D01*
X136250162Y-77136143D01*
X136554993Y-77441506D01*
X136953477Y-77606971D01*
X137384950Y-77607348D01*
X137783723Y-77442578D01*
X138089086Y-77137747D01*
X138254551Y-76739263D01*
X138254552Y-76737370D01*
X140484672Y-76737370D01*
X140649442Y-77136143D01*
X140954273Y-77441506D01*
X141352757Y-77606971D01*
X141784230Y-77607348D01*
X142183003Y-77442578D01*
X142488366Y-77137747D01*
X142653831Y-76739263D01*
X142654208Y-76307790D01*
X142609670Y-76200000D01*
X146820000Y-76200000D01*
X146906397Y-76634345D01*
X147152434Y-77002566D01*
X155574866Y-85424999D01*
X155389833Y-85424838D01*
X155046057Y-85566883D01*
X154782808Y-85829673D01*
X154640162Y-86173201D01*
X154639838Y-86545167D01*
X154781883Y-86888943D01*
X155044673Y-87152192D01*
X155388201Y-87294838D01*
X155760167Y-87295162D01*
X156103943Y-87153117D01*
X156137118Y-87120000D01*
X161561947Y-87120000D01*
X161511397Y-87195654D01*
X161425000Y-87630000D01*
X161511397Y-88064346D01*
X161757434Y-88432566D01*
X162125654Y-88678603D01*
X162560000Y-88765000D01*
X173060096Y-88765000D01*
X173362662Y-89067566D01*
X173730883Y-89313604D01*
X174165228Y-89400000D01*
X174599574Y-89313604D01*
X174967794Y-89067566D01*
X175270360Y-88765000D01*
X186055000Y-88765000D01*
X186489346Y-88678603D01*
X186857566Y-88432566D01*
X187103603Y-88064346D01*
X187190000Y-87630000D01*
X187103603Y-87195654D01*
X186857566Y-86827434D01*
X186489346Y-86581397D01*
X186055000Y-86495000D01*
X174800228Y-86495000D01*
X174365883Y-86581396D01*
X174165228Y-86715470D01*
X174134350Y-86694838D01*
X173964574Y-86581397D01*
X173638304Y-86516498D01*
X175134760Y-85020042D01*
X175363018Y-85248698D01*
X175706546Y-85391344D01*
X176078512Y-85391668D01*
X176422288Y-85249623D01*
X176685537Y-84986833D01*
X176828183Y-84643305D01*
X176828224Y-84596429D01*
X176874655Y-84549998D01*
X179142537Y-84549998D01*
X179174673Y-84582190D01*
X179518201Y-84724836D01*
X179890167Y-84725160D01*
X180233943Y-84583115D01*
X180497192Y-84320325D01*
X180639838Y-83976797D01*
X180640162Y-83604831D01*
X180498117Y-83261055D01*
X180235327Y-82997806D01*
X179891799Y-82855160D01*
X179519833Y-82854836D01*
X179176057Y-82996881D01*
X179142882Y-83029998D01*
X176559853Y-83029998D01*
X176472410Y-83047392D01*
X177304680Y-82215122D01*
X177350167Y-82215162D01*
X177693943Y-82073117D01*
X177957192Y-81810327D01*
X178099838Y-81466799D01*
X178100162Y-81094833D01*
X177958117Y-80751057D01*
X177695327Y-80487808D01*
X177351799Y-80345162D01*
X176979833Y-80344838D01*
X176636057Y-80486883D01*
X176372808Y-80749673D01*
X176230162Y-81093201D01*
X176230121Y-81140077D01*
X174722599Y-82647599D01*
X174557852Y-82894161D01*
X174500000Y-83185000D01*
X174500000Y-83257537D01*
X174467808Y-83289673D01*
X174325162Y-83633201D01*
X174325121Y-83680077D01*
X173600751Y-84404447D01*
X173522566Y-84287434D01*
X173154346Y-84041397D01*
X172720000Y-83955000D01*
X158419802Y-83955000D01*
X159064802Y-83310000D01*
X172792537Y-83310000D01*
X172824673Y-83342192D01*
X173168201Y-83484838D01*
X173540167Y-83485162D01*
X173883943Y-83343117D01*
X174147192Y-83080327D01*
X174289838Y-82736799D01*
X174290162Y-82364833D01*
X174148117Y-82021057D01*
X173885327Y-81757808D01*
X173541799Y-81615162D01*
X173169833Y-81614838D01*
X172826057Y-81756883D01*
X172792882Y-81790000D01*
X158750000Y-81790000D01*
X158459160Y-81847852D01*
X158212599Y-82012599D01*
X157340320Y-82884878D01*
X157294833Y-82884838D01*
X156951057Y-83026883D01*
X156687808Y-83289673D01*
X156676658Y-83316525D01*
X148757566Y-75397434D01*
X148389345Y-75151397D01*
X147955000Y-75065000D01*
X147520655Y-75151397D01*
X147152434Y-75397434D01*
X146906397Y-75765655D01*
X146820000Y-76200000D01*
X142609670Y-76200000D01*
X142489438Y-75909017D01*
X142184607Y-75603654D01*
X141786123Y-75438189D01*
X141354650Y-75437812D01*
X140955877Y-75602582D01*
X140650514Y-75907413D01*
X140485049Y-76305897D01*
X140484672Y-76737370D01*
X138254552Y-76737370D01*
X138254928Y-76307790D01*
X138090158Y-75909017D01*
X137785327Y-75603654D01*
X137386843Y-75438189D01*
X136955370Y-75437812D01*
X136556597Y-75602582D01*
X136251234Y-75907413D01*
X136085769Y-76305897D01*
X136085392Y-76737370D01*
X131236024Y-76737370D01*
X131257139Y-76716255D01*
X131242855Y-76668833D01*
X131464317Y-76627162D01*
X131680441Y-76488090D01*
X131825431Y-76275890D01*
X131876440Y-76024000D01*
X131876440Y-74880223D01*
X156033035Y-74880223D01*
X156060222Y-75450454D01*
X156226136Y-75851005D01*
X156472255Y-75925139D01*
X157300395Y-75097000D01*
X157659605Y-75097000D01*
X158487745Y-75925139D01*
X158733864Y-75851005D01*
X158926965Y-75313777D01*
X158899778Y-74743546D01*
X158733864Y-74342995D01*
X158487745Y-74268861D01*
X157659605Y-75097000D01*
X157300395Y-75097000D01*
X156472255Y-74268861D01*
X156226136Y-74342995D01*
X156033035Y-74880223D01*
X131876440Y-74880223D01*
X131876440Y-74424000D01*
X131832162Y-74188683D01*
X131768182Y-74089255D01*
X156651861Y-74089255D01*
X157480000Y-74917395D01*
X158308139Y-74089255D01*
X158234005Y-73843136D01*
X157696777Y-73650035D01*
X157126546Y-73677222D01*
X156725995Y-73843136D01*
X156651861Y-74089255D01*
X131768182Y-74089255D01*
X131693090Y-73972559D01*
X131480890Y-73827569D01*
X131229000Y-73776560D01*
X129629000Y-73776560D01*
X129393683Y-73820838D01*
X129177559Y-73959910D01*
X129032569Y-74172110D01*
X128981560Y-74424000D01*
X126040546Y-74424000D01*
X125932195Y-74161771D01*
X125360240Y-73588817D01*
X124612562Y-73278354D01*
X123802989Y-73277648D01*
X123054771Y-73586805D01*
X122481817Y-74158760D01*
X122171354Y-74906438D01*
X122170648Y-75716011D01*
X121868000Y-75716011D01*
X121868000Y-72846000D01*
X164283466Y-72846000D01*
X164166005Y-72894534D01*
G36*
X179406005Y-72894534D02*
X178941166Y-73358563D01*
X178689287Y-73965155D01*
X178688714Y-74621963D01*
X178922011Y-75186587D01*
X178869346Y-75151397D01*
X178435000Y-75065000D01*
X169291000Y-75065000D01*
X169291000Y-74580750D01*
X169132250Y-74422000D01*
X167767000Y-74422000D01*
X167767000Y-74442000D01*
X167513000Y-74442000D01*
X167513000Y-74422000D01*
X167493000Y-74422000D01*
X167493000Y-74168000D01*
X167513000Y-74168000D01*
X167513000Y-74148000D01*
X167767000Y-74148000D01*
X167767000Y-74168000D01*
X169132250Y-74168000D01*
X169291000Y-74009250D01*
X169291000Y-73152691D01*
X169194327Y-72919302D01*
X169121025Y-72846000D01*
X179523466Y-72846000D01*
X179406005Y-72894534D01*
X179406005Y-72894534D01*
G37*
X179406005Y-72894534D02*
X178941166Y-73358563D01*
X178689287Y-73965155D01*
X178688714Y-74621963D01*
X178922011Y-75186587D01*
X178869346Y-75151397D01*
X178435000Y-75065000D01*
X169291000Y-75065000D01*
X169291000Y-74580750D01*
X169132250Y-74422000D01*
X167767000Y-74422000D01*
X167767000Y-74442000D01*
X167513000Y-74442000D01*
X167513000Y-74422000D01*
X167493000Y-74422000D01*
X167493000Y-74168000D01*
X167513000Y-74168000D01*
X167513000Y-74148000D01*
X167767000Y-74148000D01*
X167767000Y-74168000D01*
X169132250Y-74168000D01*
X169291000Y-74009250D01*
X169291000Y-73152691D01*
X169194327Y-72919302D01*
X169121025Y-72846000D01*
X179523466Y-72846000D01*
X179406005Y-72894534D01*
M02*
