G04 #@! TF.FileFunction,Legend,Bot*
%FSLAX46Y46*%
G04 Gerber Fmt 4.6, Leading zero omitted, Abs format (unit mm)*
G04 Created by KiCad (PCBNEW 4.0.6) date Wednesday, 23 August 2017 'PMt' 20:48:00*
%MOMM*%
%LPD*%
G01*
G04 APERTURE LIST*
%ADD10C,0.100000*%
%ADD11C,0.200000*%
%ADD12C,0.125000*%
%ADD13C,0.625000*%
%ADD14C,0.250000*%
%ADD15C,0.010000*%
G04 APERTURE END LIST*
D10*
D11*
X134620000Y-118110000D02*
X134620000Y-124460000D01*
D12*
X136101310Y-123110892D02*
X136601310Y-123048392D01*
X136601310Y-122929345D01*
X136577500Y-122860892D01*
X136529881Y-122819225D01*
X136482262Y-122801369D01*
X136387024Y-122789463D01*
X136315595Y-122798392D01*
X136220357Y-122834107D01*
X136172738Y-122863868D01*
X136125119Y-122917440D01*
X136101310Y-122991845D01*
X136101310Y-123110892D01*
X136148929Y-122319225D02*
X136125119Y-122346012D01*
X136101310Y-122420416D01*
X136101310Y-122468035D01*
X136125119Y-122536488D01*
X136172738Y-122578154D01*
X136220357Y-122596011D01*
X136315595Y-122607916D01*
X136387024Y-122598987D01*
X136482262Y-122563273D01*
X136529881Y-122533511D01*
X136577500Y-122479940D01*
X136601310Y-122405535D01*
X136601310Y-122357916D01*
X136577500Y-122289464D01*
X136553690Y-122268630D01*
X136601310Y-121572202D02*
X136601310Y-121476964D01*
X136577500Y-121432321D01*
X136529881Y-121390654D01*
X136434643Y-121378750D01*
X136267976Y-121399583D01*
X136172738Y-121435297D01*
X136125119Y-121488869D01*
X136101310Y-121539464D01*
X136101310Y-121634702D01*
X136125119Y-121679345D01*
X136172738Y-121721011D01*
X136267976Y-121732916D01*
X136434643Y-121712083D01*
X136529881Y-121676368D01*
X136577500Y-121622797D01*
X136601310Y-121572202D01*
X136434643Y-120950178D02*
X136101310Y-120991845D01*
X136434643Y-121164463D02*
X136172738Y-121197201D01*
X136125119Y-121179345D01*
X136101310Y-121134702D01*
X136101310Y-121063273D01*
X136125119Y-121012678D01*
X136148929Y-120985892D01*
X136434643Y-120783511D02*
X136434643Y-120593035D01*
X136601310Y-120691249D02*
X136172738Y-120744820D01*
X136125119Y-120726964D01*
X136101310Y-120682321D01*
X136101310Y-120634702D01*
X136434643Y-120426368D02*
X135934643Y-120488868D01*
X136410833Y-120429344D02*
X136434643Y-120378749D01*
X136434643Y-120283511D01*
X136410833Y-120238868D01*
X136387024Y-120218035D01*
X136339405Y-120200178D01*
X136196548Y-120218035D01*
X136148929Y-120247797D01*
X136125119Y-120274583D01*
X136101310Y-120325178D01*
X136101310Y-120420416D01*
X136125119Y-120465059D01*
X136434643Y-119759702D02*
X136101310Y-119801369D01*
X136434643Y-119973987D02*
X136172738Y-120006725D01*
X136125119Y-119988869D01*
X136101310Y-119944226D01*
X136101310Y-119872797D01*
X136125119Y-119822202D01*
X136148929Y-119795416D01*
X136434643Y-119593035D02*
X136434643Y-119402559D01*
X136601310Y-119500773D02*
X136172738Y-119554344D01*
X136125119Y-119536488D01*
X136101310Y-119491845D01*
X136101310Y-119444226D01*
X135273929Y-122533511D02*
X135250119Y-122560298D01*
X135226310Y-122634702D01*
X135226310Y-122682321D01*
X135250119Y-122750774D01*
X135297738Y-122792440D01*
X135345357Y-122810297D01*
X135440595Y-122822202D01*
X135512024Y-122813273D01*
X135607262Y-122777559D01*
X135654881Y-122747797D01*
X135702500Y-122694226D01*
X135726310Y-122619821D01*
X135726310Y-122572202D01*
X135702500Y-122503750D01*
X135678690Y-122482916D01*
X135226310Y-122253750D02*
X135250119Y-122298393D01*
X135273929Y-122319225D01*
X135321548Y-122337083D01*
X135464405Y-122319226D01*
X135512024Y-122289463D01*
X135535833Y-122262678D01*
X135559643Y-122212083D01*
X135559643Y-122140654D01*
X135535833Y-122096011D01*
X135512024Y-122075178D01*
X135464405Y-122057321D01*
X135321548Y-122075178D01*
X135273929Y-122104940D01*
X135250119Y-122131726D01*
X135226310Y-122182321D01*
X135226310Y-122253750D01*
X135559643Y-121616845D02*
X135226310Y-121658512D01*
X135559643Y-121831130D02*
X135297738Y-121863868D01*
X135250119Y-121846012D01*
X135226310Y-121801369D01*
X135226310Y-121729940D01*
X135250119Y-121679345D01*
X135273929Y-121652559D01*
X135559643Y-121378749D02*
X135059643Y-121441249D01*
X135535833Y-121381725D02*
X135559643Y-121331130D01*
X135559643Y-121235892D01*
X135535833Y-121191249D01*
X135512024Y-121170416D01*
X135464405Y-121152559D01*
X135321548Y-121170416D01*
X135273929Y-121200178D01*
X135250119Y-121226964D01*
X135226310Y-121277559D01*
X135226310Y-121372797D01*
X135250119Y-121417440D01*
X135226310Y-120896607D02*
X135250119Y-120941250D01*
X135297738Y-120959106D01*
X135726310Y-120905535D01*
X135226310Y-120706130D02*
X135559643Y-120664463D01*
X135726310Y-120643630D02*
X135702500Y-120670416D01*
X135678690Y-120649582D01*
X135702500Y-120622797D01*
X135726310Y-120643630D01*
X135678690Y-120649582D01*
X135559643Y-120426368D02*
X135226310Y-120468035D01*
X135512024Y-120432320D02*
X135535833Y-120405535D01*
X135559643Y-120354940D01*
X135559643Y-120283511D01*
X135535833Y-120238868D01*
X135488214Y-120221012D01*
X135226310Y-120253750D01*
X135559643Y-119759702D02*
X135154881Y-119810297D01*
X135107262Y-119840059D01*
X135083452Y-119866845D01*
X135059643Y-119917440D01*
X135059643Y-119988868D01*
X135083452Y-120033511D01*
X135250119Y-119798393D02*
X135226310Y-119848988D01*
X135226310Y-119944226D01*
X135250119Y-119988869D01*
X135273929Y-120009701D01*
X135321548Y-120027559D01*
X135464405Y-120009702D01*
X135512024Y-119979939D01*
X135535833Y-119953154D01*
X135559643Y-119902559D01*
X135559643Y-119807321D01*
X135535833Y-119762678D01*
D11*
X137160000Y-118110000D02*
X134620000Y-118110000D01*
X137160000Y-124460000D02*
X137160000Y-118110000D01*
X134620000Y-124460000D02*
X137160000Y-124460000D01*
D12*
X124358394Y-94873929D02*
X124331607Y-94850119D01*
X124257203Y-94826310D01*
X124209584Y-94826310D01*
X124141131Y-94850119D01*
X124099465Y-94897738D01*
X124081608Y-94945357D01*
X124069703Y-95040595D01*
X124078632Y-95112024D01*
X124114346Y-95207262D01*
X124144108Y-95254881D01*
X124197679Y-95302500D01*
X124272084Y-95326310D01*
X124319703Y-95326310D01*
X124388155Y-95302500D01*
X124408989Y-95278690D01*
X124545893Y-94850119D02*
X124614346Y-94826310D01*
X124733393Y-94826310D01*
X124783988Y-94850119D01*
X124810775Y-94873929D01*
X124840536Y-94921548D01*
X124846488Y-94969167D01*
X124828632Y-95016786D01*
X124807798Y-95040595D01*
X124763155Y-95064405D01*
X124670893Y-95088214D01*
X124626251Y-95112024D01*
X124605418Y-95135833D01*
X124587560Y-95183452D01*
X124593512Y-95231071D01*
X124623275Y-95278690D01*
X124650060Y-95302500D01*
X124700655Y-95326310D01*
X124819703Y-95326310D01*
X124888155Y-95302500D01*
X125036965Y-95159643D02*
X125114345Y-94826310D01*
X125275060Y-95159643D02*
X125114345Y-94826310D01*
X125051845Y-94707262D01*
X125025060Y-94683452D01*
X124974465Y-94659643D01*
X125465536Y-95159643D02*
X125423869Y-94826310D01*
X125459584Y-95112024D02*
X125486369Y-95135833D01*
X125536964Y-95159643D01*
X125608393Y-95159643D01*
X125653036Y-95135833D01*
X125670892Y-95088214D01*
X125638154Y-94826310D01*
X126093511Y-94850119D02*
X126042916Y-94826310D01*
X125947678Y-94826310D01*
X125903035Y-94850119D01*
X125882203Y-94873929D01*
X125864345Y-94921548D01*
X125882202Y-95064405D01*
X125911965Y-95112024D01*
X125938750Y-95135833D01*
X125989345Y-95159643D01*
X126084583Y-95159643D01*
X126129226Y-95135833D01*
X122998274Y-94451310D02*
X123283988Y-94451310D01*
X123078631Y-93951310D02*
X123141131Y-94451310D01*
X123581607Y-93975119D02*
X123531012Y-93951310D01*
X123435774Y-93951310D01*
X123391131Y-93975119D01*
X123373274Y-94022738D01*
X123397083Y-94213214D01*
X123426846Y-94260833D01*
X123477441Y-94284643D01*
X123572679Y-94284643D01*
X123617322Y-94260833D01*
X123635178Y-94213214D01*
X123629226Y-94165595D01*
X123385179Y-94117976D01*
X123816726Y-93951310D02*
X123858393Y-94284643D01*
X123846488Y-94189405D02*
X123876250Y-94237024D01*
X123903036Y-94260833D01*
X123953631Y-94284643D01*
X124001250Y-94284643D01*
X124126250Y-93951310D02*
X124167917Y-94284643D01*
X124161965Y-94237024D02*
X124188750Y-94260833D01*
X124239345Y-94284643D01*
X124310774Y-94284643D01*
X124355417Y-94260833D01*
X124373273Y-94213214D01*
X124340535Y-93951310D01*
X124373273Y-94213214D02*
X124403036Y-94260833D01*
X124453631Y-94284643D01*
X124525059Y-94284643D01*
X124569703Y-94260833D01*
X124587559Y-94213214D01*
X124554821Y-93951310D01*
X124792917Y-93951310D02*
X124834584Y-94284643D01*
X124855417Y-94451310D02*
X124828631Y-94427500D01*
X124849465Y-94403690D01*
X124876250Y-94427500D01*
X124855417Y-94451310D01*
X124849465Y-94403690D01*
X125072679Y-94284643D02*
X125031012Y-93951310D01*
X125066727Y-94237024D02*
X125093512Y-94260833D01*
X125144107Y-94284643D01*
X125215536Y-94284643D01*
X125260179Y-94260833D01*
X125278035Y-94213214D01*
X125245297Y-93951310D01*
X125697678Y-93951310D02*
X125730416Y-94213214D01*
X125712560Y-94260833D01*
X125667917Y-94284643D01*
X125572679Y-94284643D01*
X125522084Y-94260833D01*
X125700654Y-93975119D02*
X125650059Y-93951310D01*
X125531012Y-93951310D01*
X125486369Y-93975119D01*
X125468512Y-94022738D01*
X125474464Y-94070357D01*
X125504227Y-94117976D01*
X125554822Y-94141786D01*
X125673869Y-94141786D01*
X125724464Y-94165595D01*
X125906012Y-94284643D02*
X126096488Y-94284643D01*
X125998274Y-94451310D02*
X125944703Y-94022738D01*
X125962559Y-93975119D01*
X126007202Y-93951310D01*
X126054821Y-93951310D01*
X126221488Y-93951310D02*
X126263155Y-94284643D01*
X126283988Y-94451310D02*
X126257202Y-94427500D01*
X126278036Y-94403690D01*
X126304821Y-94427500D01*
X126283988Y-94451310D01*
X126278036Y-94403690D01*
X126531011Y-93951310D02*
X126486368Y-93975119D01*
X126465536Y-93998929D01*
X126447678Y-94046548D01*
X126465535Y-94189405D01*
X126495298Y-94237024D01*
X126522083Y-94260833D01*
X126572678Y-94284643D01*
X126644107Y-94284643D01*
X126688750Y-94260833D01*
X126709583Y-94237024D01*
X126727440Y-94189405D01*
X126709583Y-94046548D01*
X126679821Y-93998929D01*
X126653035Y-93975119D01*
X126602440Y-93951310D01*
X126531011Y-93951310D01*
X126953631Y-94284643D02*
X126911964Y-93951310D01*
X126947679Y-94237024D02*
X126974464Y-94260833D01*
X127025059Y-94284643D01*
X127096488Y-94284643D01*
X127141131Y-94260833D01*
X127158987Y-94213214D01*
X127126249Y-93951310D01*
D11*
X121920000Y-93345000D02*
X128270000Y-93345000D01*
X121920000Y-95885000D02*
X121920000Y-93345000D01*
X128270000Y-95885000D02*
X121920000Y-95885000D01*
X128270000Y-93345000D02*
X128270000Y-95885000D01*
D13*
X139750773Y-88448214D02*
X139497797Y-86424405D01*
X139348987Y-86186310D01*
X139215058Y-86067262D01*
X138962082Y-85948214D01*
X138604939Y-85948214D01*
X138381725Y-86067262D01*
X139557321Y-86900595D02*
X139304344Y-86781548D01*
X138828154Y-86781548D01*
X138604940Y-86900595D01*
X138500773Y-87019643D01*
X138411487Y-87257738D01*
X138500773Y-87972024D01*
X138649582Y-88210119D01*
X138783511Y-88329167D01*
X139036487Y-88448214D01*
X139512677Y-88448214D01*
X139735892Y-88329167D01*
X140732916Y-86781548D02*
X140941249Y-88448214D01*
X141045416Y-89281548D02*
X140911487Y-89162500D01*
X141015654Y-89043452D01*
X141149583Y-89162500D01*
X141045416Y-89281548D01*
X141015654Y-89043452D01*
X141774582Y-88448214D02*
X142726963Y-88448214D01*
X142235892Y-89281548D02*
X141968035Y-87138690D01*
X142057321Y-86900595D01*
X142280535Y-86781548D01*
X142518630Y-86781548D01*
X143351963Y-86781548D02*
X143664463Y-89281548D01*
X144423392Y-86781548D02*
X144587082Y-88091071D01*
X144497796Y-88329167D01*
X144274582Y-88448214D01*
X143917439Y-88448214D01*
X143664463Y-88329167D01*
X143530534Y-88210119D01*
X146893630Y-88448214D02*
X146685297Y-86781548D01*
X145822201Y-88448214D02*
X145658511Y-87138690D01*
X145747797Y-86900595D01*
X145971011Y-86781548D01*
X146328154Y-86781548D01*
X146581130Y-86900595D01*
X146715059Y-87019643D01*
X147875773Y-86781548D02*
X148188273Y-89281548D01*
X148069225Y-88329167D02*
X148322201Y-88448214D01*
X148798392Y-88448214D01*
X149021606Y-88329167D01*
X149125773Y-88210119D01*
X149215059Y-87972024D01*
X149125773Y-87257738D01*
X148976964Y-87019643D01*
X148843035Y-86900595D01*
X148590059Y-86781548D01*
X148113868Y-86781548D01*
X147890654Y-86900595D01*
X150167440Y-87019643D02*
X150271607Y-86900595D01*
X150137678Y-86781548D01*
X150033511Y-86900595D01*
X150167440Y-87019643D01*
X150137678Y-86781548D01*
X152414464Y-86900595D02*
X152161487Y-86781548D01*
X151685297Y-86781548D01*
X151462083Y-86900595D01*
X151357916Y-87019643D01*
X151268630Y-87257738D01*
X151357916Y-87972024D01*
X151506725Y-88210119D01*
X151640654Y-88329167D01*
X151893630Y-88448214D01*
X152369820Y-88448214D01*
X152593035Y-88329167D01*
X153828154Y-86781548D02*
X153604940Y-86900595D01*
X153500773Y-87019643D01*
X153411487Y-87257738D01*
X153500773Y-87972024D01*
X153649582Y-88210119D01*
X153783511Y-88329167D01*
X154036487Y-88448214D01*
X154393630Y-88448214D01*
X154616844Y-88329167D01*
X154721011Y-88210119D01*
X154810297Y-87972024D01*
X154721011Y-87257738D01*
X154572202Y-87019643D01*
X154438273Y-86900595D01*
X154185297Y-86781548D01*
X153828154Y-86781548D01*
X155732916Y-86781548D02*
X155941249Y-88448214D01*
X155911487Y-88210119D02*
X156045416Y-88329167D01*
X156298392Y-88448214D01*
X156655535Y-88448214D01*
X156878749Y-88329167D01*
X156968035Y-88091071D01*
X156804345Y-86781548D01*
X156968035Y-88091071D02*
X157116844Y-88329167D01*
X157369821Y-88448214D01*
X157726963Y-88448214D01*
X157950178Y-88329167D01*
X158039463Y-88091071D01*
X157875773Y-86781548D01*
X161179344Y-89400595D02*
X158634701Y-86186310D01*
X162771607Y-86900595D02*
X162518630Y-86781548D01*
X162042440Y-86781548D01*
X161819226Y-86900595D01*
X161715059Y-87019643D01*
X161625773Y-87257738D01*
X161715059Y-87972024D01*
X161863868Y-88210119D01*
X161997797Y-88329167D01*
X162250773Y-88448214D01*
X162726963Y-88448214D01*
X162950178Y-88329167D01*
X163828154Y-86781548D02*
X164140654Y-89281548D01*
X164899583Y-86781548D02*
X165063273Y-88091071D01*
X164973987Y-88329167D01*
X164750773Y-88448214D01*
X164393630Y-88448214D01*
X164140654Y-88329167D01*
X164006725Y-88210119D01*
X167161488Y-86781548D02*
X167325178Y-88091071D01*
X167235892Y-88329167D01*
X167012678Y-88448214D01*
X166536487Y-88448214D01*
X166283511Y-88329167D01*
X167176369Y-86900595D02*
X166923392Y-86781548D01*
X166328154Y-86781548D01*
X166104940Y-86900595D01*
X166015654Y-87138690D01*
X166045416Y-87376786D01*
X166194226Y-87614881D01*
X166447202Y-87733929D01*
X167042440Y-87733929D01*
X167295417Y-87852976D01*
X168351964Y-86781548D02*
X168560297Y-88448214D01*
X168500774Y-87972024D02*
X168649583Y-88210119D01*
X168783511Y-88329167D01*
X169036488Y-88448214D01*
X169274583Y-88448214D01*
X170985893Y-86900595D02*
X170732916Y-86781548D01*
X170256726Y-86781548D01*
X170033512Y-86900595D01*
X169929345Y-87019643D01*
X169840059Y-87257738D01*
X169929345Y-87972024D01*
X170078154Y-88210119D01*
X170212083Y-88329167D01*
X170465059Y-88448214D01*
X170941249Y-88448214D01*
X171164464Y-88329167D01*
X172399583Y-86781548D02*
X172176369Y-86900595D01*
X172072202Y-87019643D01*
X171982916Y-87257738D01*
X172072202Y-87972024D01*
X172221011Y-88210119D01*
X172354940Y-88329167D01*
X172607916Y-88448214D01*
X172965059Y-88448214D01*
X173188273Y-88329167D01*
X173292440Y-88210119D01*
X173381726Y-87972024D01*
X173292440Y-87257738D01*
X173143631Y-87019643D01*
X173009702Y-86900595D01*
X172756726Y-86781548D01*
X172399583Y-86781548D01*
X174661488Y-86781548D02*
X174438274Y-86900595D01*
X174348988Y-87138690D01*
X174616845Y-89281548D01*
X176581131Y-86900595D02*
X176328155Y-86781548D01*
X175851964Y-86781548D01*
X175628750Y-86900595D01*
X175539464Y-87138690D01*
X175658511Y-88091071D01*
X175807321Y-88329167D01*
X176060297Y-88448214D01*
X176536488Y-88448214D01*
X176759702Y-88329167D01*
X176848988Y-88091071D01*
X176819227Y-87852976D01*
X175598988Y-87614881D01*
X179869821Y-89400595D02*
X177325178Y-86186310D01*
X181566250Y-86781548D02*
X180375774Y-86781548D01*
X180688274Y-89281548D01*
X183857918Y-87019643D02*
X183723989Y-86900595D01*
X183351965Y-86781548D01*
X183113870Y-86781548D01*
X182771608Y-86900595D01*
X182563275Y-87138690D01*
X182473989Y-87376786D01*
X182414465Y-87852976D01*
X182459107Y-88210119D01*
X182637679Y-88686310D01*
X182786489Y-88924405D01*
X183054346Y-89162500D01*
X183426370Y-89281548D01*
X183664465Y-89281548D01*
X184006727Y-89162500D01*
X184110894Y-89043452D01*
X184899584Y-86781548D02*
X185212084Y-89281548D01*
X185807322Y-89281548D01*
X186149584Y-89162500D01*
X186357917Y-88924405D01*
X186447203Y-88686310D01*
X186506727Y-88210119D01*
X186462085Y-87852976D01*
X186283513Y-87376786D01*
X186134703Y-87138690D01*
X185866846Y-86900595D01*
X185494822Y-86781548D01*
X184899584Y-86781548D01*
X187473989Y-89281548D02*
X189140656Y-89281548D01*
X187161489Y-86781548D01*
X188828156Y-86781548D01*
X190851965Y-86781548D02*
X191015655Y-88091071D01*
X190926369Y-88329167D01*
X190703155Y-88448214D01*
X190226964Y-88448214D01*
X189973988Y-88329167D01*
X190866846Y-86900595D02*
X190613869Y-86781548D01*
X190018631Y-86781548D01*
X189795417Y-86900595D01*
X189706131Y-87138690D01*
X189735893Y-87376786D01*
X189884703Y-87614881D01*
X190137679Y-87733929D01*
X190732917Y-87733929D01*
X190985894Y-87852976D01*
X192250774Y-88448214D02*
X191938274Y-85948214D01*
X192235893Y-88329167D02*
X192488869Y-88448214D01*
X192965060Y-88448214D01*
X193188274Y-88329167D01*
X193292441Y-88210119D01*
X193381727Y-87972024D01*
X193292441Y-87257738D01*
X193143632Y-87019643D01*
X193009703Y-86900595D01*
X192756727Y-86781548D01*
X192280536Y-86781548D01*
X192057322Y-86900595D01*
X194512679Y-88448214D02*
X194200179Y-85948214D01*
X194497798Y-88329167D02*
X194750774Y-88448214D01*
X195226965Y-88448214D01*
X195450179Y-88329167D01*
X195554346Y-88210119D01*
X195643632Y-87972024D01*
X195554346Y-87257738D01*
X195405537Y-87019643D01*
X195271608Y-86900595D01*
X195018632Y-86781548D01*
X194542441Y-86781548D01*
X194319227Y-86900595D01*
X197533513Y-86900595D02*
X197280537Y-86781548D01*
X196804346Y-86781548D01*
X196581132Y-86900595D01*
X196491846Y-87138690D01*
X196610893Y-88091071D01*
X196759703Y-88329167D01*
X197012679Y-88448214D01*
X197488870Y-88448214D01*
X197712084Y-88329167D01*
X197801370Y-88091071D01*
X197771609Y-87852976D01*
X196551370Y-87614881D01*
X198709108Y-86781548D02*
X198917441Y-88448214D01*
X198857918Y-87972024D02*
X199006727Y-88210119D01*
X199140655Y-88329167D01*
X199393632Y-88448214D01*
X199631727Y-88448214D01*
X146283512Y-84906548D02*
X146804346Y-82406548D01*
X147950179Y-84906548D01*
X149438274Y-82525595D02*
X149185298Y-82406548D01*
X148709107Y-82406548D01*
X148485893Y-82525595D01*
X148396607Y-82763690D01*
X148515654Y-83716071D01*
X148664464Y-83954167D01*
X148917440Y-84073214D01*
X149393631Y-84073214D01*
X149616845Y-83954167D01*
X149706131Y-83716071D01*
X149676370Y-83477976D01*
X148456131Y-83239881D01*
X150613869Y-82406548D02*
X150822202Y-84073214D01*
X150762679Y-83597024D02*
X150911488Y-83835119D01*
X151045416Y-83954167D01*
X151298393Y-84073214D01*
X151536488Y-84073214D01*
X152057321Y-82525595D02*
X152280536Y-82406548D01*
X152756726Y-82406548D01*
X153009702Y-82525595D01*
X153158512Y-82763690D01*
X153173393Y-82882738D01*
X153084107Y-83120833D01*
X152860893Y-83239881D01*
X152503750Y-83239881D01*
X152280536Y-83358929D01*
X152191250Y-83597024D01*
X152206130Y-83716071D01*
X152354940Y-83954167D01*
X152607916Y-84073214D01*
X152965059Y-84073214D01*
X153188273Y-83954167D01*
X154185298Y-82406548D02*
X154393631Y-84073214D01*
X154497798Y-84906548D02*
X154363869Y-84787500D01*
X154468036Y-84668452D01*
X154601965Y-84787500D01*
X154497798Y-84906548D01*
X154468036Y-84668452D01*
X155732917Y-82406548D02*
X155509703Y-82525595D01*
X155405536Y-82644643D01*
X155316250Y-82882738D01*
X155405536Y-83597024D01*
X155554345Y-83835119D01*
X155688274Y-83954167D01*
X155941250Y-84073214D01*
X156298393Y-84073214D01*
X156521607Y-83954167D01*
X156625774Y-83835119D01*
X156715060Y-83597024D01*
X156625774Y-82882738D01*
X156476965Y-82644643D01*
X156343036Y-82525595D01*
X156090060Y-82406548D01*
X155732917Y-82406548D01*
X157846012Y-84073214D02*
X157637679Y-82406548D01*
X157816250Y-83835119D02*
X157950179Y-83954167D01*
X158203155Y-84073214D01*
X158560298Y-84073214D01*
X158783512Y-83954167D01*
X158872798Y-83716071D01*
X158709108Y-82406548D01*
X161878751Y-84906548D02*
X163426370Y-84906548D01*
X162473989Y-83954167D01*
X162831131Y-83954167D01*
X163054346Y-83835119D01*
X163158512Y-83716071D01*
X163247799Y-83477976D01*
X163173394Y-82882738D01*
X163024584Y-82644643D01*
X162890656Y-82525595D01*
X162637679Y-82406548D01*
X161923394Y-82406548D01*
X161700179Y-82525595D01*
X161596013Y-82644643D01*
X164215060Y-82644643D02*
X164319227Y-82525595D01*
X164185298Y-82406548D01*
X164081131Y-82525595D01*
X164215060Y-82644643D01*
X164185298Y-82406548D01*
X166164465Y-84906548D02*
X166402560Y-84906548D01*
X166625774Y-84787500D01*
X166729941Y-84668452D01*
X166819226Y-84430357D01*
X166878750Y-83954167D01*
X166804346Y-83358929D01*
X166625774Y-82882738D01*
X166476965Y-82644643D01*
X166343036Y-82525595D01*
X166090060Y-82406548D01*
X165851965Y-82406548D01*
X165628750Y-82525595D01*
X165524584Y-82644643D01*
X165435298Y-82882738D01*
X165375774Y-83358929D01*
X165450178Y-83954167D01*
X165628750Y-84430357D01*
X165777560Y-84668452D01*
X165911488Y-84787500D01*
X166164465Y-84906548D01*
X169780536Y-83358929D02*
X171685298Y-83358929D01*
X174661488Y-82406548D02*
X174973988Y-84906548D01*
X175926369Y-84906548D01*
X176149583Y-84787500D01*
X176253750Y-84668452D01*
X176343036Y-84430357D01*
X176298393Y-84073214D01*
X176149583Y-83835119D01*
X176015654Y-83716071D01*
X175762679Y-83597024D01*
X174810298Y-83597024D01*
X177161488Y-82406548D02*
X177369821Y-84073214D01*
X177310298Y-83597024D02*
X177459107Y-83835119D01*
X177593035Y-83954167D01*
X177846012Y-84073214D01*
X178084107Y-84073214D01*
X179066250Y-82406548D02*
X178843036Y-82525595D01*
X178738869Y-82644643D01*
X178649583Y-82882738D01*
X178738869Y-83597024D01*
X178887678Y-83835119D01*
X179021607Y-83954167D01*
X179274583Y-84073214D01*
X179631726Y-84073214D01*
X179854940Y-83954167D01*
X179959107Y-83835119D01*
X180048393Y-83597024D01*
X179959107Y-82882738D01*
X179810298Y-82644643D01*
X179676369Y-82525595D01*
X179423393Y-82406548D01*
X179066250Y-82406548D01*
X180822202Y-84073214D02*
X181774583Y-84073214D01*
X181283512Y-84906548D02*
X181015655Y-82763690D01*
X181104941Y-82525595D01*
X181328155Y-82406548D01*
X181566250Y-82406548D01*
X182756726Y-82406548D02*
X182533512Y-82525595D01*
X182429345Y-82644643D01*
X182340059Y-82882738D01*
X182429345Y-83597024D01*
X182578154Y-83835119D01*
X182712083Y-83954167D01*
X182965059Y-84073214D01*
X183322202Y-84073214D01*
X183545416Y-83954167D01*
X183649583Y-83835119D01*
X183738869Y-83597024D01*
X183649583Y-82882738D01*
X183500774Y-82644643D01*
X183366845Y-82525595D01*
X183113869Y-82406548D01*
X182756726Y-82406548D01*
X184512678Y-84073214D02*
X185465059Y-84073214D01*
X184973988Y-84906548D02*
X184706131Y-82763690D01*
X184795417Y-82525595D01*
X185018631Y-82406548D01*
X185256726Y-82406548D01*
X186060297Y-84073214D02*
X186447202Y-82406548D01*
X187250773Y-84073214D02*
X186447202Y-82406548D01*
X186134702Y-81811310D01*
X186000773Y-81692262D01*
X185747797Y-81573214D01*
X188203154Y-84073214D02*
X187890654Y-81573214D01*
X188188273Y-83954167D02*
X188441249Y-84073214D01*
X188917440Y-84073214D01*
X189140654Y-83954167D01*
X189244821Y-83835119D01*
X189334107Y-83597024D01*
X189244821Y-82882738D01*
X189096012Y-82644643D01*
X188962083Y-82525595D01*
X188709107Y-82406548D01*
X188232916Y-82406548D01*
X188009702Y-82525595D01*
X191223988Y-82525595D02*
X190971012Y-82406548D01*
X190494821Y-82406548D01*
X190271607Y-82525595D01*
X190182321Y-82763690D01*
X190301368Y-83716071D01*
X190450178Y-83954167D01*
X190703154Y-84073214D01*
X191179345Y-84073214D01*
X191402559Y-83954167D01*
X191491845Y-83716071D01*
X191462084Y-83477976D01*
X190241845Y-83239881D01*
D14*
X165322618Y-97577619D02*
X165322618Y-98577619D01*
X165703571Y-98577619D01*
X165798809Y-98530000D01*
X165846428Y-98482381D01*
X165894047Y-98387143D01*
X165894047Y-98244286D01*
X165846428Y-98149048D01*
X165798809Y-98101429D01*
X165703571Y-98053810D01*
X165322618Y-98053810D01*
X166465475Y-97577619D02*
X166370237Y-97625238D01*
X166322618Y-97720476D01*
X166322618Y-98577619D01*
X167275000Y-97577619D02*
X167275000Y-98101429D01*
X167227381Y-98196667D01*
X167132143Y-98244286D01*
X166941666Y-98244286D01*
X166846428Y-98196667D01*
X167275000Y-97625238D02*
X167179762Y-97577619D01*
X166941666Y-97577619D01*
X166846428Y-97625238D01*
X166798809Y-97720476D01*
X166798809Y-97815714D01*
X166846428Y-97910952D01*
X166941666Y-97958571D01*
X167179762Y-97958571D01*
X167275000Y-98006190D01*
X167655952Y-98244286D02*
X167894047Y-97577619D01*
X168132143Y-98244286D02*
X167894047Y-97577619D01*
X167798809Y-97339524D01*
X167751190Y-97291905D01*
X167655952Y-97244286D01*
X168894048Y-97625238D02*
X168798810Y-97577619D01*
X168608333Y-97577619D01*
X168513095Y-97625238D01*
X168465476Y-97720476D01*
X168465476Y-98101429D01*
X168513095Y-98196667D01*
X168608333Y-98244286D01*
X168798810Y-98244286D01*
X168894048Y-98196667D01*
X168941667Y-98101429D01*
X168941667Y-98006190D01*
X168465476Y-97910952D01*
X169370238Y-97577619D02*
X169370238Y-98244286D01*
X169370238Y-98053810D02*
X169417857Y-98149048D01*
X169465476Y-98196667D01*
X169560714Y-98244286D01*
X169655953Y-98244286D01*
X170703572Y-98482381D02*
X170751191Y-98530000D01*
X170846429Y-98577619D01*
X171084525Y-98577619D01*
X171179763Y-98530000D01*
X171227382Y-98482381D01*
X171275001Y-98387143D01*
X171275001Y-98291905D01*
X171227382Y-98149048D01*
X170655953Y-97577619D01*
X171275001Y-97577619D01*
X164870238Y-96780000D02*
X164775000Y-96827619D01*
X164632143Y-96827619D01*
X164489285Y-96780000D01*
X164394047Y-96684762D01*
X164346428Y-96589524D01*
X164298809Y-96399048D01*
X164298809Y-96256190D01*
X164346428Y-96065714D01*
X164394047Y-95970476D01*
X164489285Y-95875238D01*
X164632143Y-95827619D01*
X164727381Y-95827619D01*
X164870238Y-95875238D01*
X164917857Y-95922857D01*
X164917857Y-96256190D01*
X164727381Y-96256190D01*
X165346428Y-95827619D02*
X165346428Y-96827619D01*
X165727381Y-96827619D01*
X165822619Y-96780000D01*
X165870238Y-96732381D01*
X165917857Y-96637143D01*
X165917857Y-96494286D01*
X165870238Y-96399048D01*
X165822619Y-96351429D01*
X165727381Y-96303810D01*
X165346428Y-96303810D01*
X166346428Y-95827619D02*
X166346428Y-96827619D01*
X167013094Y-96827619D02*
X167203571Y-96827619D01*
X167298809Y-96780000D01*
X167394047Y-96684762D01*
X167441666Y-96494286D01*
X167441666Y-96160952D01*
X167394047Y-95970476D01*
X167298809Y-95875238D01*
X167203571Y-95827619D01*
X167013094Y-95827619D01*
X166917856Y-95875238D01*
X166822618Y-95970476D01*
X166774999Y-96160952D01*
X166774999Y-96494286D01*
X166822618Y-96684762D01*
X166917856Y-96780000D01*
X167013094Y-96827619D01*
X168632142Y-95827619D02*
X168632142Y-96827619D01*
X168870237Y-96827619D01*
X169013095Y-96780000D01*
X169108333Y-96684762D01*
X169155952Y-96589524D01*
X169203571Y-96399048D01*
X169203571Y-96256190D01*
X169155952Y-96065714D01*
X169108333Y-95970476D01*
X169013095Y-95875238D01*
X168870237Y-95827619D01*
X168632142Y-95827619D01*
X170013095Y-95875238D02*
X169917857Y-95827619D01*
X169727380Y-95827619D01*
X169632142Y-95875238D01*
X169584523Y-95970476D01*
X169584523Y-96351429D01*
X169632142Y-96446667D01*
X169727380Y-96494286D01*
X169917857Y-96494286D01*
X170013095Y-96446667D01*
X170060714Y-96351429D01*
X170060714Y-96256190D01*
X169584523Y-96160952D01*
X170632142Y-95827619D02*
X170536904Y-95875238D01*
X170489285Y-95970476D01*
X170489285Y-96827619D01*
X171441667Y-95827619D02*
X171441667Y-96351429D01*
X171394048Y-96446667D01*
X171298810Y-96494286D01*
X171108333Y-96494286D01*
X171013095Y-96446667D01*
X171441667Y-95875238D02*
X171346429Y-95827619D01*
X171108333Y-95827619D01*
X171013095Y-95875238D01*
X170965476Y-95970476D01*
X170965476Y-96065714D01*
X171013095Y-96160952D01*
X171108333Y-96208571D01*
X171346429Y-96208571D01*
X171441667Y-96256190D01*
X171822619Y-96494286D02*
X172060714Y-95827619D01*
X172298810Y-96494286D02*
X172060714Y-95827619D01*
X171965476Y-95589524D01*
X171917857Y-95541905D01*
X171822619Y-95494286D01*
X177387618Y-97577619D02*
X177387618Y-98577619D01*
X177768571Y-98577619D01*
X177863809Y-98530000D01*
X177911428Y-98482381D01*
X177959047Y-98387143D01*
X177959047Y-98244286D01*
X177911428Y-98149048D01*
X177863809Y-98101429D01*
X177768571Y-98053810D01*
X177387618Y-98053810D01*
X178530475Y-97577619D02*
X178435237Y-97625238D01*
X178387618Y-97720476D01*
X178387618Y-98577619D01*
X179340000Y-97577619D02*
X179340000Y-98101429D01*
X179292381Y-98196667D01*
X179197143Y-98244286D01*
X179006666Y-98244286D01*
X178911428Y-98196667D01*
X179340000Y-97625238D02*
X179244762Y-97577619D01*
X179006666Y-97577619D01*
X178911428Y-97625238D01*
X178863809Y-97720476D01*
X178863809Y-97815714D01*
X178911428Y-97910952D01*
X179006666Y-97958571D01*
X179244762Y-97958571D01*
X179340000Y-98006190D01*
X179720952Y-98244286D02*
X179959047Y-97577619D01*
X180197143Y-98244286D02*
X179959047Y-97577619D01*
X179863809Y-97339524D01*
X179816190Y-97291905D01*
X179720952Y-97244286D01*
X180959048Y-97625238D02*
X180863810Y-97577619D01*
X180673333Y-97577619D01*
X180578095Y-97625238D01*
X180530476Y-97720476D01*
X180530476Y-98101429D01*
X180578095Y-98196667D01*
X180673333Y-98244286D01*
X180863810Y-98244286D01*
X180959048Y-98196667D01*
X181006667Y-98101429D01*
X181006667Y-98006190D01*
X180530476Y-97910952D01*
X181435238Y-97577619D02*
X181435238Y-98244286D01*
X181435238Y-98053810D02*
X181482857Y-98149048D01*
X181530476Y-98196667D01*
X181625714Y-98244286D01*
X181720953Y-98244286D01*
X183340001Y-97577619D02*
X182768572Y-97577619D01*
X183054286Y-97577619D02*
X183054286Y-98577619D01*
X182959048Y-98434762D01*
X182863810Y-98339524D01*
X182768572Y-98291905D01*
X176935238Y-96780000D02*
X176840000Y-96827619D01*
X176697143Y-96827619D01*
X176554285Y-96780000D01*
X176459047Y-96684762D01*
X176411428Y-96589524D01*
X176363809Y-96399048D01*
X176363809Y-96256190D01*
X176411428Y-96065714D01*
X176459047Y-95970476D01*
X176554285Y-95875238D01*
X176697143Y-95827619D01*
X176792381Y-95827619D01*
X176935238Y-95875238D01*
X176982857Y-95922857D01*
X176982857Y-96256190D01*
X176792381Y-96256190D01*
X177411428Y-95827619D02*
X177411428Y-96827619D01*
X177792381Y-96827619D01*
X177887619Y-96780000D01*
X177935238Y-96732381D01*
X177982857Y-96637143D01*
X177982857Y-96494286D01*
X177935238Y-96399048D01*
X177887619Y-96351429D01*
X177792381Y-96303810D01*
X177411428Y-96303810D01*
X178411428Y-95827619D02*
X178411428Y-96827619D01*
X179078094Y-96827619D02*
X179268571Y-96827619D01*
X179363809Y-96780000D01*
X179459047Y-96684762D01*
X179506666Y-96494286D01*
X179506666Y-96160952D01*
X179459047Y-95970476D01*
X179363809Y-95875238D01*
X179268571Y-95827619D01*
X179078094Y-95827619D01*
X178982856Y-95875238D01*
X178887618Y-95970476D01*
X178839999Y-96160952D01*
X178839999Y-96494286D01*
X178887618Y-96684762D01*
X178982856Y-96780000D01*
X179078094Y-96827619D01*
X180697142Y-95827619D02*
X180697142Y-96827619D01*
X180935237Y-96827619D01*
X181078095Y-96780000D01*
X181173333Y-96684762D01*
X181220952Y-96589524D01*
X181268571Y-96399048D01*
X181268571Y-96256190D01*
X181220952Y-96065714D01*
X181173333Y-95970476D01*
X181078095Y-95875238D01*
X180935237Y-95827619D01*
X180697142Y-95827619D01*
X182078095Y-95875238D02*
X181982857Y-95827619D01*
X181792380Y-95827619D01*
X181697142Y-95875238D01*
X181649523Y-95970476D01*
X181649523Y-96351429D01*
X181697142Y-96446667D01*
X181792380Y-96494286D01*
X181982857Y-96494286D01*
X182078095Y-96446667D01*
X182125714Y-96351429D01*
X182125714Y-96256190D01*
X181649523Y-96160952D01*
X182697142Y-95827619D02*
X182601904Y-95875238D01*
X182554285Y-95970476D01*
X182554285Y-96827619D01*
X183506667Y-95827619D02*
X183506667Y-96351429D01*
X183459048Y-96446667D01*
X183363810Y-96494286D01*
X183173333Y-96494286D01*
X183078095Y-96446667D01*
X183506667Y-95875238D02*
X183411429Y-95827619D01*
X183173333Y-95827619D01*
X183078095Y-95875238D01*
X183030476Y-95970476D01*
X183030476Y-96065714D01*
X183078095Y-96160952D01*
X183173333Y-96208571D01*
X183411429Y-96208571D01*
X183506667Y-96256190D01*
X183887619Y-96494286D02*
X184125714Y-95827619D01*
X184363810Y-96494286D02*
X184125714Y-95827619D01*
X184030476Y-95589524D01*
X183982857Y-95541905D01*
X183887619Y-95494286D01*
X195127857Y-124372619D02*
X195127857Y-123563095D01*
X195175476Y-123467857D01*
X195223095Y-123420238D01*
X195318333Y-123372619D01*
X195508810Y-123372619D01*
X195604048Y-123420238D01*
X195651667Y-123467857D01*
X195699286Y-123563095D01*
X195699286Y-124372619D01*
X196175476Y-124039286D02*
X196175476Y-123039286D01*
X196175476Y-123991667D02*
X196270714Y-124039286D01*
X196461191Y-124039286D01*
X196556429Y-123991667D01*
X196604048Y-123944048D01*
X196651667Y-123848810D01*
X196651667Y-123563095D01*
X196604048Y-123467857D01*
X196556429Y-123420238D01*
X196461191Y-123372619D01*
X196270714Y-123372619D01*
X196175476Y-123420238D01*
X197223095Y-123372619D02*
X197127857Y-123420238D01*
X197080238Y-123515476D01*
X197080238Y-124372619D01*
X197746905Y-123372619D02*
X197651667Y-123420238D01*
X197604048Y-123467857D01*
X197556429Y-123563095D01*
X197556429Y-123848810D01*
X197604048Y-123944048D01*
X197651667Y-123991667D01*
X197746905Y-124039286D01*
X197889763Y-124039286D01*
X197985001Y-123991667D01*
X198032620Y-123944048D01*
X198080239Y-123848810D01*
X198080239Y-123563095D01*
X198032620Y-123467857D01*
X197985001Y-123420238D01*
X197889763Y-123372619D01*
X197746905Y-123372619D01*
X198937382Y-123372619D02*
X198937382Y-123896429D01*
X198889763Y-123991667D01*
X198794525Y-124039286D01*
X198604048Y-124039286D01*
X198508810Y-123991667D01*
X198937382Y-123420238D02*
X198842144Y-123372619D01*
X198604048Y-123372619D01*
X198508810Y-123420238D01*
X198461191Y-123515476D01*
X198461191Y-123610714D01*
X198508810Y-123705952D01*
X198604048Y-123753571D01*
X198842144Y-123753571D01*
X198937382Y-123801190D01*
X199842144Y-123372619D02*
X199842144Y-124372619D01*
X199842144Y-123420238D02*
X199746906Y-123372619D01*
X199556429Y-123372619D01*
X199461191Y-123420238D01*
X199413572Y-123467857D01*
X199365953Y-123563095D01*
X199365953Y-123848810D01*
X199413572Y-123944048D01*
X199461191Y-123991667D01*
X199556429Y-124039286D01*
X199746906Y-124039286D01*
X199842144Y-123991667D01*
X204501905Y-123372619D02*
X204168571Y-123848810D01*
X203930476Y-123372619D02*
X203930476Y-124372619D01*
X204311429Y-124372619D01*
X204406667Y-124325000D01*
X204454286Y-124277381D01*
X204501905Y-124182143D01*
X204501905Y-124039286D01*
X204454286Y-123944048D01*
X204406667Y-123896429D01*
X204311429Y-123848810D01*
X203930476Y-123848810D01*
X205311429Y-123420238D02*
X205216191Y-123372619D01*
X205025714Y-123372619D01*
X204930476Y-123420238D01*
X204882857Y-123515476D01*
X204882857Y-123896429D01*
X204930476Y-123991667D01*
X205025714Y-124039286D01*
X205216191Y-124039286D01*
X205311429Y-123991667D01*
X205359048Y-123896429D01*
X205359048Y-123801190D01*
X204882857Y-123705952D01*
X205740000Y-123420238D02*
X205835238Y-123372619D01*
X206025714Y-123372619D01*
X206120953Y-123420238D01*
X206168572Y-123515476D01*
X206168572Y-123563095D01*
X206120953Y-123658333D01*
X206025714Y-123705952D01*
X205882857Y-123705952D01*
X205787619Y-123753571D01*
X205740000Y-123848810D01*
X205740000Y-123896429D01*
X205787619Y-123991667D01*
X205882857Y-124039286D01*
X206025714Y-124039286D01*
X206120953Y-123991667D01*
X206978096Y-123420238D02*
X206882858Y-123372619D01*
X206692381Y-123372619D01*
X206597143Y-123420238D01*
X206549524Y-123515476D01*
X206549524Y-123896429D01*
X206597143Y-123991667D01*
X206692381Y-124039286D01*
X206882858Y-124039286D01*
X206978096Y-123991667D01*
X207025715Y-123896429D01*
X207025715Y-123801190D01*
X206549524Y-123705952D01*
X207311429Y-124039286D02*
X207692381Y-124039286D01*
X207454286Y-124372619D02*
X207454286Y-123515476D01*
X207501905Y-123420238D01*
X207597143Y-123372619D01*
X207692381Y-123372619D01*
X195287142Y-117022619D02*
X195287142Y-118022619D01*
X195668095Y-118022619D01*
X195763333Y-117975000D01*
X195810952Y-117927381D01*
X195858571Y-117832143D01*
X195858571Y-117689286D01*
X195810952Y-117594048D01*
X195763333Y-117546429D01*
X195668095Y-117498810D01*
X195287142Y-117498810D01*
X196287142Y-117022619D02*
X196287142Y-117689286D01*
X196287142Y-117498810D02*
X196334761Y-117594048D01*
X196382380Y-117641667D01*
X196477618Y-117689286D01*
X196572857Y-117689286D01*
X197049047Y-117022619D02*
X196953809Y-117070238D01*
X196906190Y-117117857D01*
X196858571Y-117213095D01*
X196858571Y-117498810D01*
X196906190Y-117594048D01*
X196953809Y-117641667D01*
X197049047Y-117689286D01*
X197191905Y-117689286D01*
X197287143Y-117641667D01*
X197334762Y-117594048D01*
X197382381Y-117498810D01*
X197382381Y-117213095D01*
X197334762Y-117117857D01*
X197287143Y-117070238D01*
X197191905Y-117022619D01*
X197049047Y-117022619D01*
X198239524Y-117689286D02*
X198239524Y-116879762D01*
X198191905Y-116784524D01*
X198144286Y-116736905D01*
X198049047Y-116689286D01*
X197906190Y-116689286D01*
X197810952Y-116736905D01*
X198239524Y-117070238D02*
X198144286Y-117022619D01*
X197953809Y-117022619D01*
X197858571Y-117070238D01*
X197810952Y-117117857D01*
X197763333Y-117213095D01*
X197763333Y-117498810D01*
X197810952Y-117594048D01*
X197858571Y-117641667D01*
X197953809Y-117689286D01*
X198144286Y-117689286D01*
X198239524Y-117641667D01*
X198715714Y-117022619D02*
X198715714Y-117689286D01*
X198715714Y-117498810D02*
X198763333Y-117594048D01*
X198810952Y-117641667D01*
X198906190Y-117689286D01*
X199001429Y-117689286D01*
X199763334Y-117022619D02*
X199763334Y-117546429D01*
X199715715Y-117641667D01*
X199620477Y-117689286D01*
X199430000Y-117689286D01*
X199334762Y-117641667D01*
X199763334Y-117070238D02*
X199668096Y-117022619D01*
X199430000Y-117022619D01*
X199334762Y-117070238D01*
X199287143Y-117165476D01*
X199287143Y-117260714D01*
X199334762Y-117355952D01*
X199430000Y-117403571D01*
X199668096Y-117403571D01*
X199763334Y-117451190D01*
X200239524Y-117022619D02*
X200239524Y-117689286D01*
X200239524Y-117594048D02*
X200287143Y-117641667D01*
X200382381Y-117689286D01*
X200525239Y-117689286D01*
X200620477Y-117641667D01*
X200668096Y-117546429D01*
X200668096Y-117022619D01*
X200668096Y-117546429D02*
X200715715Y-117641667D01*
X200810953Y-117689286D01*
X200953810Y-117689286D01*
X201049048Y-117641667D01*
X201096667Y-117546429D01*
X201096667Y-117022619D01*
X201572857Y-117022619D02*
X201572857Y-117689286D01*
X201572857Y-117594048D02*
X201620476Y-117641667D01*
X201715714Y-117689286D01*
X201858572Y-117689286D01*
X201953810Y-117641667D01*
X202001429Y-117546429D01*
X202001429Y-117022619D01*
X202001429Y-117546429D02*
X202049048Y-117641667D01*
X202144286Y-117689286D01*
X202287143Y-117689286D01*
X202382381Y-117641667D01*
X202430000Y-117546429D01*
X202430000Y-117022619D01*
X202906190Y-117022619D02*
X202906190Y-117689286D01*
X202906190Y-118022619D02*
X202858571Y-117975000D01*
X202906190Y-117927381D01*
X202953809Y-117975000D01*
X202906190Y-118022619D01*
X202906190Y-117927381D01*
X203382380Y-117689286D02*
X203382380Y-117022619D01*
X203382380Y-117594048D02*
X203429999Y-117641667D01*
X203525237Y-117689286D01*
X203668095Y-117689286D01*
X203763333Y-117641667D01*
X203810952Y-117546429D01*
X203810952Y-117022619D01*
X204715714Y-117689286D02*
X204715714Y-116879762D01*
X204668095Y-116784524D01*
X204620476Y-116736905D01*
X204525237Y-116689286D01*
X204382380Y-116689286D01*
X204287142Y-116736905D01*
X204715714Y-117070238D02*
X204620476Y-117022619D01*
X204429999Y-117022619D01*
X204334761Y-117070238D01*
X204287142Y-117117857D01*
X204239523Y-117213095D01*
X204239523Y-117498810D01*
X204287142Y-117594048D01*
X204334761Y-117641667D01*
X204429999Y-117689286D01*
X204620476Y-117689286D01*
X204715714Y-117641667D01*
X205953809Y-117022619D02*
X205953809Y-118022619D01*
X206334762Y-118022619D01*
X206430000Y-117975000D01*
X206477619Y-117927381D01*
X206525238Y-117832143D01*
X206525238Y-117689286D01*
X206477619Y-117594048D01*
X206430000Y-117546429D01*
X206334762Y-117498810D01*
X205953809Y-117498810D01*
X207096666Y-117022619D02*
X207001428Y-117070238D01*
X206953809Y-117117857D01*
X206906190Y-117213095D01*
X206906190Y-117498810D01*
X206953809Y-117594048D01*
X207001428Y-117641667D01*
X207096666Y-117689286D01*
X207239524Y-117689286D01*
X207334762Y-117641667D01*
X207382381Y-117594048D01*
X207430000Y-117498810D01*
X207430000Y-117213095D01*
X207382381Y-117117857D01*
X207334762Y-117070238D01*
X207239524Y-117022619D01*
X207096666Y-117022619D01*
X207858571Y-117022619D02*
X207858571Y-117689286D01*
X207858571Y-117498810D02*
X207906190Y-117594048D01*
X207953809Y-117641667D01*
X208049047Y-117689286D01*
X208144286Y-117689286D01*
X208334762Y-117689286D02*
X208715714Y-117689286D01*
X208477619Y-118022619D02*
X208477619Y-117165476D01*
X208525238Y-117070238D01*
X208620476Y-117022619D01*
X208715714Y-117022619D01*
X141335951Y-108497619D02*
X141526428Y-108497619D01*
X141621666Y-108450000D01*
X141716904Y-108354762D01*
X141764523Y-108164286D01*
X141764523Y-107830952D01*
X141716904Y-107640476D01*
X141621666Y-107545238D01*
X141526428Y-107497619D01*
X141335951Y-107497619D01*
X141240713Y-107545238D01*
X141145475Y-107640476D01*
X141097856Y-107830952D01*
X141097856Y-108164286D01*
X141145475Y-108354762D01*
X141240713Y-108450000D01*
X141335951Y-108497619D01*
X142097856Y-108164286D02*
X142335951Y-107497619D01*
X142574047Y-108164286D01*
X143335952Y-107545238D02*
X143240714Y-107497619D01*
X143050237Y-107497619D01*
X142954999Y-107545238D01*
X142907380Y-107640476D01*
X142907380Y-108021429D01*
X142954999Y-108116667D01*
X143050237Y-108164286D01*
X143240714Y-108164286D01*
X143335952Y-108116667D01*
X143383571Y-108021429D01*
X143383571Y-107926190D01*
X142907380Y-107830952D01*
X143812142Y-107497619D02*
X143812142Y-108164286D01*
X143812142Y-107973810D02*
X143859761Y-108069048D01*
X143907380Y-108116667D01*
X144002618Y-108164286D01*
X144097857Y-108164286D01*
X144574047Y-107497619D02*
X144478809Y-107545238D01*
X144431190Y-107640476D01*
X144431190Y-108497619D01*
X145383572Y-107497619D02*
X145383572Y-108021429D01*
X145335953Y-108116667D01*
X145240715Y-108164286D01*
X145050238Y-108164286D01*
X144955000Y-108116667D01*
X145383572Y-107545238D02*
X145288334Y-107497619D01*
X145050238Y-107497619D01*
X144955000Y-107545238D01*
X144907381Y-107640476D01*
X144907381Y-107735714D01*
X144955000Y-107830952D01*
X145050238Y-107878571D01*
X145288334Y-107878571D01*
X145383572Y-107926190D01*
X145764524Y-108164286D02*
X146002619Y-107497619D01*
X146240715Y-108164286D02*
X146002619Y-107497619D01*
X145907381Y-107259524D01*
X145859762Y-107211905D01*
X145764524Y-107164286D01*
X147716906Y-108021429D02*
X147859763Y-107973810D01*
X147907382Y-107926190D01*
X147955001Y-107830952D01*
X147955001Y-107688095D01*
X147907382Y-107592857D01*
X147859763Y-107545238D01*
X147764525Y-107497619D01*
X147383572Y-107497619D01*
X147383572Y-108497619D01*
X147716906Y-108497619D01*
X147812144Y-108450000D01*
X147859763Y-108402381D01*
X147907382Y-108307143D01*
X147907382Y-108211905D01*
X147859763Y-108116667D01*
X147812144Y-108069048D01*
X147716906Y-108021429D01*
X147383572Y-108021429D01*
X148383572Y-107497619D02*
X148383572Y-108164286D01*
X148383572Y-107973810D02*
X148431191Y-108069048D01*
X148478810Y-108116667D01*
X148574048Y-108164286D01*
X148669287Y-108164286D01*
X149002620Y-107497619D02*
X149002620Y-108164286D01*
X149002620Y-108497619D02*
X148955001Y-108450000D01*
X149002620Y-108402381D01*
X149050239Y-108450000D01*
X149002620Y-108497619D01*
X149002620Y-108402381D01*
X149907382Y-108164286D02*
X149907382Y-107354762D01*
X149859763Y-107259524D01*
X149812144Y-107211905D01*
X149716905Y-107164286D01*
X149574048Y-107164286D01*
X149478810Y-107211905D01*
X149907382Y-107545238D02*
X149812144Y-107497619D01*
X149621667Y-107497619D01*
X149526429Y-107545238D01*
X149478810Y-107592857D01*
X149431191Y-107688095D01*
X149431191Y-107973810D01*
X149478810Y-108069048D01*
X149526429Y-108116667D01*
X149621667Y-108164286D01*
X149812144Y-108164286D01*
X149907382Y-108116667D01*
X150383572Y-107497619D02*
X150383572Y-108497619D01*
X150812144Y-107497619D02*
X150812144Y-108021429D01*
X150764525Y-108116667D01*
X150669287Y-108164286D01*
X150526429Y-108164286D01*
X150431191Y-108116667D01*
X150383572Y-108069048D01*
X151145477Y-108164286D02*
X151526429Y-108164286D01*
X151288334Y-108497619D02*
X151288334Y-107640476D01*
X151335953Y-107545238D01*
X151431191Y-107497619D01*
X151526429Y-107497619D01*
X151859763Y-108164286D02*
X151859763Y-107497619D01*
X151859763Y-108069048D02*
X151907382Y-108116667D01*
X152002620Y-108164286D01*
X152145478Y-108164286D01*
X152240716Y-108116667D01*
X152288335Y-108021429D01*
X152288335Y-107497619D01*
X153145478Y-107545238D02*
X153050240Y-107497619D01*
X152859763Y-107497619D01*
X152764525Y-107545238D01*
X152716906Y-107640476D01*
X152716906Y-108021429D01*
X152764525Y-108116667D01*
X152859763Y-108164286D01*
X153050240Y-108164286D01*
X153145478Y-108116667D01*
X153193097Y-108021429D01*
X153193097Y-107926190D01*
X152716906Y-107830952D01*
X153574049Y-107545238D02*
X153669287Y-107497619D01*
X153859763Y-107497619D01*
X153955002Y-107545238D01*
X154002621Y-107640476D01*
X154002621Y-107688095D01*
X153955002Y-107783333D01*
X153859763Y-107830952D01*
X153716906Y-107830952D01*
X153621668Y-107878571D01*
X153574049Y-107973810D01*
X153574049Y-108021429D01*
X153621668Y-108116667D01*
X153716906Y-108164286D01*
X153859763Y-108164286D01*
X153955002Y-108116667D01*
X154383573Y-107545238D02*
X154478811Y-107497619D01*
X154669287Y-107497619D01*
X154764526Y-107545238D01*
X154812145Y-107640476D01*
X154812145Y-107688095D01*
X154764526Y-107783333D01*
X154669287Y-107830952D01*
X154526430Y-107830952D01*
X154431192Y-107878571D01*
X154383573Y-107973810D01*
X154383573Y-108021429D01*
X154431192Y-108116667D01*
X154526430Y-108164286D01*
X154669287Y-108164286D01*
X154764526Y-108116667D01*
X163028809Y-121515238D02*
X163171666Y-121467619D01*
X163409762Y-121467619D01*
X163505000Y-121515238D01*
X163552619Y-121562857D01*
X163600238Y-121658095D01*
X163600238Y-121753333D01*
X163552619Y-121848571D01*
X163505000Y-121896190D01*
X163409762Y-121943810D01*
X163219285Y-121991429D01*
X163124047Y-122039048D01*
X163076428Y-122086667D01*
X163028809Y-122181905D01*
X163028809Y-122277143D01*
X163076428Y-122372381D01*
X163124047Y-122420000D01*
X163219285Y-122467619D01*
X163457381Y-122467619D01*
X163600238Y-122420000D01*
X164409762Y-121515238D02*
X164314524Y-121467619D01*
X164124047Y-121467619D01*
X164028809Y-121515238D01*
X163981190Y-121610476D01*
X163981190Y-121991429D01*
X164028809Y-122086667D01*
X164124047Y-122134286D01*
X164314524Y-122134286D01*
X164409762Y-122086667D01*
X164457381Y-121991429D01*
X164457381Y-121896190D01*
X163981190Y-121800952D01*
X164885952Y-122134286D02*
X164885952Y-121467619D01*
X164885952Y-122039048D02*
X164933571Y-122086667D01*
X165028809Y-122134286D01*
X165171667Y-122134286D01*
X165266905Y-122086667D01*
X165314524Y-121991429D01*
X165314524Y-121467619D01*
X165743095Y-121515238D02*
X165838333Y-121467619D01*
X166028809Y-121467619D01*
X166124048Y-121515238D01*
X166171667Y-121610476D01*
X166171667Y-121658095D01*
X166124048Y-121753333D01*
X166028809Y-121800952D01*
X165885952Y-121800952D01*
X165790714Y-121848571D01*
X165743095Y-121943810D01*
X165743095Y-121991429D01*
X165790714Y-122086667D01*
X165885952Y-122134286D01*
X166028809Y-122134286D01*
X166124048Y-122086667D01*
X166743095Y-121467619D02*
X166647857Y-121515238D01*
X166600238Y-121562857D01*
X166552619Y-121658095D01*
X166552619Y-121943810D01*
X166600238Y-122039048D01*
X166647857Y-122086667D01*
X166743095Y-122134286D01*
X166885953Y-122134286D01*
X166981191Y-122086667D01*
X167028810Y-122039048D01*
X167076429Y-121943810D01*
X167076429Y-121658095D01*
X167028810Y-121562857D01*
X166981191Y-121515238D01*
X166885953Y-121467619D01*
X166743095Y-121467619D01*
X167505000Y-121467619D02*
X167505000Y-122134286D01*
X167505000Y-121943810D02*
X167552619Y-122039048D01*
X167600238Y-122086667D01*
X167695476Y-122134286D01*
X167790715Y-122134286D01*
X169219287Y-121991429D02*
X169362144Y-121943810D01*
X169409763Y-121896190D01*
X169457382Y-121800952D01*
X169457382Y-121658095D01*
X169409763Y-121562857D01*
X169362144Y-121515238D01*
X169266906Y-121467619D01*
X168885953Y-121467619D01*
X168885953Y-122467619D01*
X169219287Y-122467619D01*
X169314525Y-122420000D01*
X169362144Y-122372381D01*
X169409763Y-122277143D01*
X169409763Y-122181905D01*
X169362144Y-122086667D01*
X169314525Y-122039048D01*
X169219287Y-121991429D01*
X168885953Y-121991429D01*
X170314525Y-121467619D02*
X170314525Y-121991429D01*
X170266906Y-122086667D01*
X170171668Y-122134286D01*
X169981191Y-122134286D01*
X169885953Y-122086667D01*
X170314525Y-121515238D02*
X170219287Y-121467619D01*
X169981191Y-121467619D01*
X169885953Y-121515238D01*
X169838334Y-121610476D01*
X169838334Y-121705714D01*
X169885953Y-121800952D01*
X169981191Y-121848571D01*
X170219287Y-121848571D01*
X170314525Y-121896190D01*
X170790715Y-121467619D02*
X170790715Y-122134286D01*
X170790715Y-121943810D02*
X170838334Y-122039048D01*
X170885953Y-122086667D01*
X170981191Y-122134286D01*
X171076430Y-122134286D01*
X133262619Y-119117619D02*
X132262619Y-118784286D01*
X133262619Y-118450952D01*
X132262619Y-118117619D02*
X132929286Y-118117619D01*
X133262619Y-118117619D02*
X133215000Y-118165238D01*
X133167381Y-118117619D01*
X133215000Y-118070000D01*
X133262619Y-118117619D01*
X133167381Y-118117619D01*
X132262619Y-117212857D02*
X133262619Y-117212857D01*
X132310238Y-117212857D02*
X132262619Y-117308095D01*
X132262619Y-117498572D01*
X132310238Y-117593810D01*
X132357857Y-117641429D01*
X132453095Y-117689048D01*
X132738810Y-117689048D01*
X132834048Y-117641429D01*
X132881667Y-117593810D01*
X132929286Y-117498572D01*
X132929286Y-117308095D01*
X132881667Y-117212857D01*
X132310238Y-116355714D02*
X132262619Y-116450952D01*
X132262619Y-116641429D01*
X132310238Y-116736667D01*
X132405476Y-116784286D01*
X132786429Y-116784286D01*
X132881667Y-116736667D01*
X132929286Y-116641429D01*
X132929286Y-116450952D01*
X132881667Y-116355714D01*
X132786429Y-116308095D01*
X132691190Y-116308095D01*
X132595952Y-116784286D01*
X132262619Y-115736667D02*
X132310238Y-115831905D01*
X132357857Y-115879524D01*
X132453095Y-115927143D01*
X132738810Y-115927143D01*
X132834048Y-115879524D01*
X132881667Y-115831905D01*
X132929286Y-115736667D01*
X132929286Y-115593809D01*
X132881667Y-115498571D01*
X132834048Y-115450952D01*
X132738810Y-115403333D01*
X132453095Y-115403333D01*
X132357857Y-115450952D01*
X132310238Y-115498571D01*
X132262619Y-115593809D01*
X132262619Y-115736667D01*
X133262619Y-114022381D02*
X133262619Y-113831904D01*
X133215000Y-113736666D01*
X133119762Y-113641428D01*
X132929286Y-113593809D01*
X132595952Y-113593809D01*
X132405476Y-113641428D01*
X132310238Y-113736666D01*
X132262619Y-113831904D01*
X132262619Y-114022381D01*
X132310238Y-114117619D01*
X132405476Y-114212857D01*
X132595952Y-114260476D01*
X132929286Y-114260476D01*
X133119762Y-114212857D01*
X133215000Y-114117619D01*
X133262619Y-114022381D01*
X132929286Y-112736666D02*
X132262619Y-112736666D01*
X132929286Y-113165238D02*
X132405476Y-113165238D01*
X132310238Y-113117619D01*
X132262619Y-113022381D01*
X132262619Y-112879523D01*
X132310238Y-112784285D01*
X132357857Y-112736666D01*
X132929286Y-112403333D02*
X132929286Y-112022381D01*
X133262619Y-112260476D02*
X132405476Y-112260476D01*
X132310238Y-112212857D01*
X132262619Y-112117619D01*
X132262619Y-112022381D01*
X133262619Y-105846190D02*
X132262619Y-105512857D01*
X133262619Y-105179523D01*
X132262619Y-104846190D02*
X132929286Y-104846190D01*
X133262619Y-104846190D02*
X133215000Y-104893809D01*
X133167381Y-104846190D01*
X133215000Y-104798571D01*
X133262619Y-104846190D01*
X133167381Y-104846190D01*
X132262619Y-103941428D02*
X133262619Y-103941428D01*
X132310238Y-103941428D02*
X132262619Y-104036666D01*
X132262619Y-104227143D01*
X132310238Y-104322381D01*
X132357857Y-104370000D01*
X132453095Y-104417619D01*
X132738810Y-104417619D01*
X132834048Y-104370000D01*
X132881667Y-104322381D01*
X132929286Y-104227143D01*
X132929286Y-104036666D01*
X132881667Y-103941428D01*
X132310238Y-103084285D02*
X132262619Y-103179523D01*
X132262619Y-103370000D01*
X132310238Y-103465238D01*
X132405476Y-103512857D01*
X132786429Y-103512857D01*
X132881667Y-103465238D01*
X132929286Y-103370000D01*
X132929286Y-103179523D01*
X132881667Y-103084285D01*
X132786429Y-103036666D01*
X132691190Y-103036666D01*
X132595952Y-103512857D01*
X132262619Y-102465238D02*
X132310238Y-102560476D01*
X132357857Y-102608095D01*
X132453095Y-102655714D01*
X132738810Y-102655714D01*
X132834048Y-102608095D01*
X132881667Y-102560476D01*
X132929286Y-102465238D01*
X132929286Y-102322380D01*
X132881667Y-102227142D01*
X132834048Y-102179523D01*
X132738810Y-102131904D01*
X132453095Y-102131904D01*
X132357857Y-102179523D01*
X132310238Y-102227142D01*
X132262619Y-102322380D01*
X132262619Y-102465238D01*
X132262619Y-100941428D02*
X133262619Y-100941428D01*
X132929286Y-100465238D02*
X132262619Y-100465238D01*
X132834048Y-100465238D02*
X132881667Y-100417619D01*
X132929286Y-100322381D01*
X132929286Y-100179523D01*
X132881667Y-100084285D01*
X132786429Y-100036666D01*
X132262619Y-100036666D01*
X134502857Y-90114047D02*
X134455238Y-90161666D01*
X134407619Y-90304523D01*
X134407619Y-90399761D01*
X134455238Y-90542619D01*
X134550476Y-90637857D01*
X134645714Y-90685476D01*
X134836190Y-90733095D01*
X134979048Y-90733095D01*
X135169524Y-90685476D01*
X135264762Y-90637857D01*
X135360000Y-90542619D01*
X135407619Y-90399761D01*
X135407619Y-90304523D01*
X135360000Y-90161666D01*
X135312381Y-90114047D01*
X134788571Y-89685476D02*
X134788571Y-88923571D01*
X134455238Y-88495000D02*
X134407619Y-88352143D01*
X134407619Y-88114047D01*
X134455238Y-88018809D01*
X134502857Y-87971190D01*
X134598095Y-87923571D01*
X134693333Y-87923571D01*
X134788571Y-87971190D01*
X134836190Y-88018809D01*
X134883810Y-88114047D01*
X134931429Y-88304524D01*
X134979048Y-88399762D01*
X135026667Y-88447381D01*
X135121905Y-88495000D01*
X135217143Y-88495000D01*
X135312381Y-88447381D01*
X135360000Y-88399762D01*
X135407619Y-88304524D01*
X135407619Y-88066428D01*
X135360000Y-87923571D01*
X135074286Y-87590238D02*
X134407619Y-87352143D01*
X135074286Y-87114047D02*
X134407619Y-87352143D01*
X134169524Y-87447381D01*
X134121905Y-87495000D01*
X134074286Y-87590238D01*
X135074286Y-86733095D02*
X134407619Y-86733095D01*
X134979048Y-86733095D02*
X135026667Y-86685476D01*
X135074286Y-86590238D01*
X135074286Y-86447380D01*
X135026667Y-86352142D01*
X134931429Y-86304523D01*
X134407619Y-86304523D01*
X134455238Y-85399761D02*
X134407619Y-85494999D01*
X134407619Y-85685476D01*
X134455238Y-85780714D01*
X134502857Y-85828333D01*
X134598095Y-85875952D01*
X134883810Y-85875952D01*
X134979048Y-85828333D01*
X135026667Y-85780714D01*
X135074286Y-85685476D01*
X135074286Y-85494999D01*
X135026667Y-85399761D01*
X134407619Y-84209285D02*
X135407619Y-84209285D01*
X135074286Y-83733095D02*
X134407619Y-83733095D01*
X134979048Y-83733095D02*
X135026667Y-83685476D01*
X135074286Y-83590238D01*
X135074286Y-83447380D01*
X135026667Y-83352142D01*
X134931429Y-83304523D01*
X134407619Y-83304523D01*
X132276667Y-90256905D02*
X132324286Y-90304525D01*
X132467143Y-90399763D01*
X132562381Y-90447382D01*
X132705238Y-90495001D01*
X132943333Y-90542620D01*
X133133810Y-90542620D01*
X133371905Y-90495001D01*
X133514762Y-90447382D01*
X133610000Y-90399763D01*
X133752857Y-90304525D01*
X133800476Y-90256905D01*
X133657619Y-89685477D02*
X133657619Y-89495000D01*
X133610000Y-89399762D01*
X133514762Y-89304524D01*
X133324286Y-89256905D01*
X132990952Y-89256905D01*
X132800476Y-89304524D01*
X132705238Y-89399762D01*
X132657619Y-89495000D01*
X132657619Y-89685477D01*
X132705238Y-89780715D01*
X132800476Y-89875953D01*
X132990952Y-89923572D01*
X133324286Y-89923572D01*
X133514762Y-89875953D01*
X133610000Y-89780715D01*
X133657619Y-89685477D01*
X133324286Y-88828334D02*
X132324286Y-88828334D01*
X133276667Y-88828334D02*
X133324286Y-88733096D01*
X133324286Y-88542619D01*
X133276667Y-88447381D01*
X133229048Y-88399762D01*
X133133810Y-88352143D01*
X132848095Y-88352143D01*
X132752857Y-88399762D01*
X132705238Y-88447381D01*
X132657619Y-88542619D01*
X132657619Y-88733096D01*
X132705238Y-88828334D01*
X133324286Y-88066429D02*
X133324286Y-87685477D01*
X133657619Y-87923572D02*
X132800476Y-87923572D01*
X132705238Y-87875953D01*
X132657619Y-87780715D01*
X132657619Y-87685477D01*
X132657619Y-87352143D02*
X133324286Y-87352143D01*
X133657619Y-87352143D02*
X133610000Y-87399762D01*
X133562381Y-87352143D01*
X133610000Y-87304524D01*
X133657619Y-87352143D01*
X133562381Y-87352143D01*
X132657619Y-86733096D02*
X132705238Y-86828334D01*
X132752857Y-86875953D01*
X132848095Y-86923572D01*
X133133810Y-86923572D01*
X133229048Y-86875953D01*
X133276667Y-86828334D01*
X133324286Y-86733096D01*
X133324286Y-86590238D01*
X133276667Y-86495000D01*
X133229048Y-86447381D01*
X133133810Y-86399762D01*
X132848095Y-86399762D01*
X132752857Y-86447381D01*
X132705238Y-86495000D01*
X132657619Y-86590238D01*
X132657619Y-86733096D01*
X133324286Y-85971191D02*
X132657619Y-85971191D01*
X133229048Y-85971191D02*
X133276667Y-85923572D01*
X133324286Y-85828334D01*
X133324286Y-85685476D01*
X133276667Y-85590238D01*
X133181429Y-85542619D01*
X132657619Y-85542619D01*
X132657619Y-84637857D02*
X133181429Y-84637857D01*
X133276667Y-84685476D01*
X133324286Y-84780714D01*
X133324286Y-84971191D01*
X133276667Y-85066429D01*
X132705238Y-84637857D02*
X132657619Y-84733095D01*
X132657619Y-84971191D01*
X132705238Y-85066429D01*
X132800476Y-85114048D01*
X132895714Y-85114048D01*
X132990952Y-85066429D01*
X133038571Y-84971191D01*
X133038571Y-84733095D01*
X133086190Y-84637857D01*
X132657619Y-84018810D02*
X132705238Y-84114048D01*
X132800476Y-84161667D01*
X133657619Y-84161667D01*
X132276667Y-83733095D02*
X132324286Y-83685476D01*
X132467143Y-83590238D01*
X132562381Y-83542619D01*
X132705238Y-83495000D01*
X132943333Y-83447381D01*
X133133810Y-83447381D01*
X133371905Y-83495000D01*
X133514762Y-83542619D01*
X133610000Y-83590238D01*
X133752857Y-83685476D01*
X133800476Y-83733095D01*
X135842857Y-74842619D02*
X135842857Y-74033095D01*
X135890476Y-73937857D01*
X135938095Y-73890238D01*
X136033333Y-73842619D01*
X136223810Y-73842619D01*
X136319048Y-73890238D01*
X136366667Y-73937857D01*
X136414286Y-74033095D01*
X136414286Y-74842619D01*
X136842857Y-73890238D02*
X136985714Y-73842619D01*
X137223810Y-73842619D01*
X137319048Y-73890238D01*
X137366667Y-73937857D01*
X137414286Y-74033095D01*
X137414286Y-74128333D01*
X137366667Y-74223571D01*
X137319048Y-74271190D01*
X137223810Y-74318810D01*
X137033333Y-74366429D01*
X136938095Y-74414048D01*
X136890476Y-74461667D01*
X136842857Y-74556905D01*
X136842857Y-74652143D01*
X136890476Y-74747381D01*
X136938095Y-74795000D01*
X137033333Y-74842619D01*
X137271429Y-74842619D01*
X137414286Y-74795000D01*
X138176191Y-74366429D02*
X138319048Y-74318810D01*
X138366667Y-74271190D01*
X138414286Y-74175952D01*
X138414286Y-74033095D01*
X138366667Y-73937857D01*
X138319048Y-73890238D01*
X138223810Y-73842619D01*
X137842857Y-73842619D01*
X137842857Y-74842619D01*
X138176191Y-74842619D01*
X138271429Y-74795000D01*
X138319048Y-74747381D01*
X138366667Y-74652143D01*
X138366667Y-74556905D01*
X138319048Y-74461667D01*
X138271429Y-74414048D01*
X138176191Y-74366429D01*
X137842857Y-74366429D01*
X139604762Y-73842619D02*
X139604762Y-74842619D01*
X139985715Y-74842619D01*
X140080953Y-74795000D01*
X140128572Y-74747381D01*
X140176191Y-74652143D01*
X140176191Y-74509286D01*
X140128572Y-74414048D01*
X140080953Y-74366429D01*
X139985715Y-74318810D01*
X139604762Y-74318810D01*
X140747619Y-73842619D02*
X140652381Y-73890238D01*
X140604762Y-73937857D01*
X140557143Y-74033095D01*
X140557143Y-74318810D01*
X140604762Y-74414048D01*
X140652381Y-74461667D01*
X140747619Y-74509286D01*
X140890477Y-74509286D01*
X140985715Y-74461667D01*
X141033334Y-74414048D01*
X141080953Y-74318810D01*
X141080953Y-74033095D01*
X141033334Y-73937857D01*
X140985715Y-73890238D01*
X140890477Y-73842619D01*
X140747619Y-73842619D01*
X141414286Y-74509286D02*
X141604762Y-73842619D01*
X141795239Y-74318810D01*
X141985715Y-73842619D01*
X142176191Y-74509286D01*
X142938096Y-73890238D02*
X142842858Y-73842619D01*
X142652381Y-73842619D01*
X142557143Y-73890238D01*
X142509524Y-73985476D01*
X142509524Y-74366429D01*
X142557143Y-74461667D01*
X142652381Y-74509286D01*
X142842858Y-74509286D01*
X142938096Y-74461667D01*
X142985715Y-74366429D01*
X142985715Y-74271190D01*
X142509524Y-74175952D01*
X143414286Y-73842619D02*
X143414286Y-74509286D01*
X143414286Y-74318810D02*
X143461905Y-74414048D01*
X143509524Y-74461667D01*
X143604762Y-74509286D01*
X143700001Y-74509286D01*
X161679523Y-76382619D02*
X161679523Y-77382619D01*
X162060476Y-77382619D01*
X162155714Y-77335000D01*
X162203333Y-77287381D01*
X162250952Y-77192143D01*
X162250952Y-77049286D01*
X162203333Y-76954048D01*
X162155714Y-76906429D01*
X162060476Y-76858810D01*
X161679523Y-76858810D01*
X162822380Y-76382619D02*
X162727142Y-76430238D01*
X162679523Y-76525476D01*
X162679523Y-77382619D01*
X163631905Y-76382619D02*
X163631905Y-76906429D01*
X163584286Y-77001667D01*
X163489048Y-77049286D01*
X163298571Y-77049286D01*
X163203333Y-77001667D01*
X163631905Y-76430238D02*
X163536667Y-76382619D01*
X163298571Y-76382619D01*
X163203333Y-76430238D01*
X163155714Y-76525476D01*
X163155714Y-76620714D01*
X163203333Y-76715952D01*
X163298571Y-76763571D01*
X163536667Y-76763571D01*
X163631905Y-76811190D01*
X164012857Y-77049286D02*
X164250952Y-76382619D01*
X164489048Y-77049286D02*
X164250952Y-76382619D01*
X164155714Y-76144524D01*
X164108095Y-76096905D01*
X164012857Y-76049286D01*
X165250953Y-76430238D02*
X165155715Y-76382619D01*
X164965238Y-76382619D01*
X164870000Y-76430238D01*
X164822381Y-76525476D01*
X164822381Y-76906429D01*
X164870000Y-77001667D01*
X164965238Y-77049286D01*
X165155715Y-77049286D01*
X165250953Y-77001667D01*
X165298572Y-76906429D01*
X165298572Y-76811190D01*
X164822381Y-76715952D01*
X165727143Y-76382619D02*
X165727143Y-77049286D01*
X165727143Y-76858810D02*
X165774762Y-76954048D01*
X165822381Y-77001667D01*
X165917619Y-77049286D01*
X166012858Y-77049286D01*
X167060477Y-77287381D02*
X167108096Y-77335000D01*
X167203334Y-77382619D01*
X167441430Y-77382619D01*
X167536668Y-77335000D01*
X167584287Y-77287381D01*
X167631906Y-77192143D01*
X167631906Y-77096905D01*
X167584287Y-76954048D01*
X167012858Y-76382619D01*
X167631906Y-76382619D01*
X169298573Y-76382619D02*
X168822382Y-76382619D01*
X168822382Y-77382619D01*
X169631906Y-76906429D02*
X169965240Y-76906429D01*
X170108097Y-76382619D02*
X169631906Y-76382619D01*
X169631906Y-77382619D01*
X170108097Y-77382619D01*
X170536668Y-76382619D02*
X170536668Y-77382619D01*
X170774763Y-77382619D01*
X170917621Y-77335000D01*
X171012859Y-77239762D01*
X171060478Y-77144524D01*
X171108097Y-76954048D01*
X171108097Y-76811190D01*
X171060478Y-76620714D01*
X171012859Y-76525476D01*
X170917621Y-76430238D01*
X170774763Y-76382619D01*
X170536668Y-76382619D01*
X176919523Y-76382619D02*
X176919523Y-77382619D01*
X177300476Y-77382619D01*
X177395714Y-77335000D01*
X177443333Y-77287381D01*
X177490952Y-77192143D01*
X177490952Y-77049286D01*
X177443333Y-76954048D01*
X177395714Y-76906429D01*
X177300476Y-76858810D01*
X176919523Y-76858810D01*
X178062380Y-76382619D02*
X177967142Y-76430238D01*
X177919523Y-76525476D01*
X177919523Y-77382619D01*
X178871905Y-76382619D02*
X178871905Y-76906429D01*
X178824286Y-77001667D01*
X178729048Y-77049286D01*
X178538571Y-77049286D01*
X178443333Y-77001667D01*
X178871905Y-76430238D02*
X178776667Y-76382619D01*
X178538571Y-76382619D01*
X178443333Y-76430238D01*
X178395714Y-76525476D01*
X178395714Y-76620714D01*
X178443333Y-76715952D01*
X178538571Y-76763571D01*
X178776667Y-76763571D01*
X178871905Y-76811190D01*
X179252857Y-77049286D02*
X179490952Y-76382619D01*
X179729048Y-77049286D02*
X179490952Y-76382619D01*
X179395714Y-76144524D01*
X179348095Y-76096905D01*
X179252857Y-76049286D01*
X180490953Y-76430238D02*
X180395715Y-76382619D01*
X180205238Y-76382619D01*
X180110000Y-76430238D01*
X180062381Y-76525476D01*
X180062381Y-76906429D01*
X180110000Y-77001667D01*
X180205238Y-77049286D01*
X180395715Y-77049286D01*
X180490953Y-77001667D01*
X180538572Y-76906429D01*
X180538572Y-76811190D01*
X180062381Y-76715952D01*
X180967143Y-76382619D02*
X180967143Y-77049286D01*
X180967143Y-76858810D02*
X181014762Y-76954048D01*
X181062381Y-77001667D01*
X181157619Y-77049286D01*
X181252858Y-77049286D01*
X182871906Y-76382619D02*
X182300477Y-76382619D01*
X182586191Y-76382619D02*
X182586191Y-77382619D01*
X182490953Y-77239762D01*
X182395715Y-77144524D01*
X182300477Y-77096905D01*
X184538573Y-76382619D02*
X184062382Y-76382619D01*
X184062382Y-77382619D01*
X184871906Y-76906429D02*
X185205240Y-76906429D01*
X185348097Y-76382619D02*
X184871906Y-76382619D01*
X184871906Y-77382619D01*
X185348097Y-77382619D01*
X185776668Y-76382619D02*
X185776668Y-77382619D01*
X186014763Y-77382619D01*
X186157621Y-77335000D01*
X186252859Y-77239762D01*
X186300478Y-77144524D01*
X186348097Y-76954048D01*
X186348097Y-76811190D01*
X186300478Y-76620714D01*
X186252859Y-76525476D01*
X186157621Y-76430238D01*
X186014763Y-76382619D01*
X185776668Y-76382619D01*
X211272381Y-83169761D02*
X210272381Y-83169761D01*
X210272381Y-83550714D01*
X210320000Y-83645952D01*
X210367619Y-83693571D01*
X210462857Y-83741190D01*
X210605714Y-83741190D01*
X210700952Y-83693571D01*
X210748571Y-83645952D01*
X210796190Y-83550714D01*
X210796190Y-83169761D01*
X211272381Y-84312618D02*
X211224762Y-84217380D01*
X211129524Y-84169761D01*
X210272381Y-84169761D01*
X211272381Y-85122143D02*
X210748571Y-85122143D01*
X210653333Y-85074524D01*
X210605714Y-84979286D01*
X210605714Y-84788809D01*
X210653333Y-84693571D01*
X211224762Y-85122143D02*
X211272381Y-85026905D01*
X211272381Y-84788809D01*
X211224762Y-84693571D01*
X211129524Y-84645952D01*
X211034286Y-84645952D01*
X210939048Y-84693571D01*
X210891429Y-84788809D01*
X210891429Y-85026905D01*
X210843810Y-85122143D01*
X210605714Y-85503095D02*
X211272381Y-85741190D01*
X210605714Y-85979286D02*
X211272381Y-85741190D01*
X211510476Y-85645952D01*
X211558095Y-85598333D01*
X211605714Y-85503095D01*
X211224762Y-86741191D02*
X211272381Y-86645953D01*
X211272381Y-86455476D01*
X211224762Y-86360238D01*
X211129524Y-86312619D01*
X210748571Y-86312619D01*
X210653333Y-86360238D01*
X210605714Y-86455476D01*
X210605714Y-86645953D01*
X210653333Y-86741191D01*
X210748571Y-86788810D01*
X210843810Y-86788810D01*
X210939048Y-86312619D01*
X211272381Y-87217381D02*
X210605714Y-87217381D01*
X210796190Y-87217381D02*
X210700952Y-87265000D01*
X210653333Y-87312619D01*
X210605714Y-87407857D01*
X210605714Y-87503096D01*
X210367619Y-88550715D02*
X210320000Y-88598334D01*
X210272381Y-88693572D01*
X210272381Y-88931668D01*
X210320000Y-89026906D01*
X210367619Y-89074525D01*
X210462857Y-89122144D01*
X210558095Y-89122144D01*
X210700952Y-89074525D01*
X211272381Y-88503096D01*
X211272381Y-89122144D01*
X210320000Y-90836430D02*
X210272381Y-90741192D01*
X210272381Y-90598335D01*
X210320000Y-90455477D01*
X210415238Y-90360239D01*
X210510476Y-90312620D01*
X210700952Y-90265001D01*
X210843810Y-90265001D01*
X211034286Y-90312620D01*
X211129524Y-90360239D01*
X211224762Y-90455477D01*
X211272381Y-90598335D01*
X211272381Y-90693573D01*
X211224762Y-90836430D01*
X211177143Y-90884049D01*
X210843810Y-90884049D01*
X210843810Y-90693573D01*
X211272381Y-91312620D02*
X210272381Y-91312620D01*
X210272381Y-91693573D01*
X210320000Y-91788811D01*
X210367619Y-91836430D01*
X210462857Y-91884049D01*
X210605714Y-91884049D01*
X210700952Y-91836430D01*
X210748571Y-91788811D01*
X210796190Y-91693573D01*
X210796190Y-91312620D01*
X211272381Y-92312620D02*
X210272381Y-92312620D01*
X210272381Y-92979286D02*
X210272381Y-93169763D01*
X210320000Y-93265001D01*
X210415238Y-93360239D01*
X210605714Y-93407858D01*
X210939048Y-93407858D01*
X211129524Y-93360239D01*
X211224762Y-93265001D01*
X211272381Y-93169763D01*
X211272381Y-92979286D01*
X211224762Y-92884048D01*
X211129524Y-92788810D01*
X210939048Y-92741191D01*
X210605714Y-92741191D01*
X210415238Y-92788810D01*
X210320000Y-92884048D01*
X210272381Y-92979286D01*
X194294761Y-76382619D02*
X194294761Y-77382619D01*
X194675714Y-77382619D01*
X194770952Y-77335000D01*
X194818571Y-77287381D01*
X194866190Y-77192143D01*
X194866190Y-77049286D01*
X194818571Y-76954048D01*
X194770952Y-76906429D01*
X194675714Y-76858810D01*
X194294761Y-76858810D01*
X195437618Y-76382619D02*
X195342380Y-76430238D01*
X195294761Y-76525476D01*
X195294761Y-77382619D01*
X196247143Y-76382619D02*
X196247143Y-76906429D01*
X196199524Y-77001667D01*
X196104286Y-77049286D01*
X195913809Y-77049286D01*
X195818571Y-77001667D01*
X196247143Y-76430238D02*
X196151905Y-76382619D01*
X195913809Y-76382619D01*
X195818571Y-76430238D01*
X195770952Y-76525476D01*
X195770952Y-76620714D01*
X195818571Y-76715952D01*
X195913809Y-76763571D01*
X196151905Y-76763571D01*
X196247143Y-76811190D01*
X196628095Y-77049286D02*
X196866190Y-76382619D01*
X197104286Y-77049286D02*
X196866190Y-76382619D01*
X196770952Y-76144524D01*
X196723333Y-76096905D01*
X196628095Y-76049286D01*
X197866191Y-76430238D02*
X197770953Y-76382619D01*
X197580476Y-76382619D01*
X197485238Y-76430238D01*
X197437619Y-76525476D01*
X197437619Y-76906429D01*
X197485238Y-77001667D01*
X197580476Y-77049286D01*
X197770953Y-77049286D01*
X197866191Y-77001667D01*
X197913810Y-76906429D01*
X197913810Y-76811190D01*
X197437619Y-76715952D01*
X198342381Y-76382619D02*
X198342381Y-77049286D01*
X198342381Y-76858810D02*
X198390000Y-76954048D01*
X198437619Y-77001667D01*
X198532857Y-77049286D01*
X198628096Y-77049286D01*
X200247144Y-76382619D02*
X199675715Y-76382619D01*
X199961429Y-76382619D02*
X199961429Y-77382619D01*
X199866191Y-77239762D01*
X199770953Y-77144524D01*
X199675715Y-77096905D01*
X201961430Y-77335000D02*
X201866192Y-77382619D01*
X201723335Y-77382619D01*
X201580477Y-77335000D01*
X201485239Y-77239762D01*
X201437620Y-77144524D01*
X201390001Y-76954048D01*
X201390001Y-76811190D01*
X201437620Y-76620714D01*
X201485239Y-76525476D01*
X201580477Y-76430238D01*
X201723335Y-76382619D01*
X201818573Y-76382619D01*
X201961430Y-76430238D01*
X202009049Y-76477857D01*
X202009049Y-76811190D01*
X201818573Y-76811190D01*
X202437620Y-76382619D02*
X202437620Y-77382619D01*
X202818573Y-77382619D01*
X202913811Y-77335000D01*
X202961430Y-77287381D01*
X203009049Y-77192143D01*
X203009049Y-77049286D01*
X202961430Y-76954048D01*
X202913811Y-76906429D01*
X202818573Y-76858810D01*
X202437620Y-76858810D01*
X203437620Y-76382619D02*
X203437620Y-77382619D01*
X204104286Y-77382619D02*
X204294763Y-77382619D01*
X204390001Y-77335000D01*
X204485239Y-77239762D01*
X204532858Y-77049286D01*
X204532858Y-76715952D01*
X204485239Y-76525476D01*
X204390001Y-76430238D01*
X204294763Y-76382619D01*
X204104286Y-76382619D01*
X204009048Y-76430238D01*
X203913810Y-76525476D01*
X203866191Y-76715952D01*
X203866191Y-77049286D01*
X203913810Y-77239762D01*
X204009048Y-77335000D01*
X204104286Y-77382619D01*
D15*
G36*
X185278470Y-120782245D02*
X185623036Y-120447201D01*
X185746780Y-120255425D01*
X186036885Y-119860711D01*
X186363104Y-119698863D01*
X186664393Y-119676334D01*
X187240333Y-119676333D01*
X187240333Y-114596333D01*
X176699333Y-114596333D01*
X176895335Y-113616325D01*
X174998167Y-113501176D01*
X174101931Y-113439006D01*
X173210939Y-113363984D01*
X172450732Y-113287292D01*
X172085000Y-113241675D01*
X171455279Y-113165804D01*
X170625953Y-113084374D01*
X169735568Y-113010473D01*
X169339077Y-112982306D01*
X168478139Y-112911984D01*
X167907162Y-112812257D01*
X167577524Y-112646108D01*
X167440605Y-112376525D01*
X167447784Y-111966492D01*
X167509933Y-111589797D01*
X167696961Y-111040114D01*
X168042161Y-110364245D01*
X168472758Y-109683711D01*
X168915979Y-109120033D01*
X169096910Y-108939756D01*
X169361206Y-108658140D01*
X169460333Y-108468071D01*
X169307364Y-108288539D01*
X168903550Y-108078962D01*
X168331528Y-107868319D01*
X167673936Y-107685590D01*
X167013411Y-107559754D01*
X166798714Y-107534692D01*
X166145961Y-107443924D01*
X165803950Y-107318639D01*
X165735000Y-107203549D01*
X165657485Y-106863250D01*
X165574573Y-106677703D01*
X165452474Y-106377786D01*
X165277263Y-105855542D01*
X165083754Y-105215696D01*
X165054627Y-105113667D01*
X164862409Y-104457260D01*
X164686146Y-103894283D01*
X164560104Y-103533596D01*
X164548227Y-103505000D01*
X164251932Y-102746634D01*
X163973442Y-101902152D01*
X163739389Y-101067790D01*
X163576406Y-100339787D01*
X163511127Y-99814380D01*
X163511423Y-99758537D01*
X163501270Y-99272377D01*
X163402691Y-98956970D01*
X163171206Y-98802899D01*
X162762333Y-98800746D01*
X162131589Y-98941093D01*
X161234493Y-99214524D01*
X161118745Y-99251964D01*
X160345170Y-99495285D01*
X159671239Y-99692983D01*
X159172414Y-99823843D01*
X158931349Y-99866959D01*
X158679306Y-99705420D01*
X158470517Y-99264097D01*
X158317362Y-98600462D01*
X158232222Y-97771986D01*
X158227477Y-96836143D01*
X158237088Y-96644123D01*
X158252315Y-95791618D01*
X158211678Y-94864081D01*
X158125123Y-93956721D01*
X158002596Y-93164745D01*
X157854042Y-92583361D01*
X157798928Y-92449671D01*
X157410058Y-91660974D01*
X157130465Y-91127718D01*
X156922929Y-90799999D01*
X156750232Y-90627915D01*
X156575156Y-90561562D01*
X156382870Y-90551000D01*
X156048349Y-90598588D01*
X155926246Y-90812246D01*
X155913667Y-91053982D01*
X155983019Y-91492140D01*
X156160939Y-92073621D01*
X156312313Y-92450982D01*
X156740014Y-93525328D01*
X156986907Y-94484118D01*
X157080636Y-95478711D01*
X157056946Y-96528457D01*
X157026969Y-97692376D01*
X157098565Y-98706654D01*
X157287050Y-99749152D01*
X157361487Y-100064738D01*
X157402318Y-100352045D01*
X157292313Y-100520946D01*
X156956354Y-100648498D01*
X156735587Y-100706805D01*
X156199389Y-100856726D01*
X155755141Y-101003378D01*
X155659667Y-101041379D01*
X155227000Y-101212811D01*
X155013851Y-101287148D01*
X154787364Y-101508760D01*
X154736831Y-101884719D01*
X154845881Y-102290616D01*
X155098142Y-102602039D01*
X155194000Y-102656154D01*
X155486780Y-102858560D01*
X155575000Y-103027666D01*
X155626225Y-103248767D01*
X155768230Y-103734169D01*
X155983508Y-104427284D01*
X156254553Y-105271525D01*
X156503273Y-106028234D01*
X156877548Y-107185405D01*
X157151473Y-108117988D01*
X157346359Y-108917454D01*
X157483517Y-109675275D01*
X157584259Y-110482921D01*
X157615643Y-110802717D01*
X157700583Y-111944835D01*
X157703297Y-112813937D01*
X157608088Y-113469075D01*
X157399259Y-113969301D01*
X157061113Y-114373669D01*
X156577952Y-114741229D01*
X156566747Y-114748581D01*
X155662707Y-115483370D01*
X154997174Y-116327150D01*
X154741063Y-116848851D01*
X154680455Y-117467790D01*
X154937335Y-118178678D01*
X155513960Y-118987506D01*
X155571359Y-119053649D01*
X155991538Y-119462748D01*
X156379705Y-119645305D01*
X156709061Y-119676333D01*
X157168377Y-119740348D01*
X157370983Y-119950222D01*
X157377547Y-119972723D01*
X157615502Y-120358312D01*
X157995943Y-120516418D01*
X158410469Y-120447044D01*
X158750678Y-120150196D01*
X158839846Y-119972667D01*
X158876980Y-119915230D01*
X158957819Y-119865714D01*
X159105852Y-119823539D01*
X159344567Y-119788125D01*
X159697451Y-119758892D01*
X160187993Y-119735258D01*
X160839680Y-119716644D01*
X161676002Y-119702470D01*
X162720445Y-119692154D01*
X163996498Y-119685116D01*
X165527649Y-119680777D01*
X167337386Y-119678555D01*
X169449197Y-119677871D01*
X170767352Y-119677942D01*
X182583667Y-119679551D01*
X183599667Y-120315260D01*
X184322357Y-120714726D01*
X184863434Y-120870904D01*
X185278470Y-120782245D01*
X185278470Y-120782245D01*
G37*
X185278470Y-120782245D02*
X185623036Y-120447201D01*
X185746780Y-120255425D01*
X186036885Y-119860711D01*
X186363104Y-119698863D01*
X186664393Y-119676334D01*
X187240333Y-119676333D01*
X187240333Y-114596333D01*
X176699333Y-114596333D01*
X176895335Y-113616325D01*
X174998167Y-113501176D01*
X174101931Y-113439006D01*
X173210939Y-113363984D01*
X172450732Y-113287292D01*
X172085000Y-113241675D01*
X171455279Y-113165804D01*
X170625953Y-113084374D01*
X169735568Y-113010473D01*
X169339077Y-112982306D01*
X168478139Y-112911984D01*
X167907162Y-112812257D01*
X167577524Y-112646108D01*
X167440605Y-112376525D01*
X167447784Y-111966492D01*
X167509933Y-111589797D01*
X167696961Y-111040114D01*
X168042161Y-110364245D01*
X168472758Y-109683711D01*
X168915979Y-109120033D01*
X169096910Y-108939756D01*
X169361206Y-108658140D01*
X169460333Y-108468071D01*
X169307364Y-108288539D01*
X168903550Y-108078962D01*
X168331528Y-107868319D01*
X167673936Y-107685590D01*
X167013411Y-107559754D01*
X166798714Y-107534692D01*
X166145961Y-107443924D01*
X165803950Y-107318639D01*
X165735000Y-107203549D01*
X165657485Y-106863250D01*
X165574573Y-106677703D01*
X165452474Y-106377786D01*
X165277263Y-105855542D01*
X165083754Y-105215696D01*
X165054627Y-105113667D01*
X164862409Y-104457260D01*
X164686146Y-103894283D01*
X164560104Y-103533596D01*
X164548227Y-103505000D01*
X164251932Y-102746634D01*
X163973442Y-101902152D01*
X163739389Y-101067790D01*
X163576406Y-100339787D01*
X163511127Y-99814380D01*
X163511423Y-99758537D01*
X163501270Y-99272377D01*
X163402691Y-98956970D01*
X163171206Y-98802899D01*
X162762333Y-98800746D01*
X162131589Y-98941093D01*
X161234493Y-99214524D01*
X161118745Y-99251964D01*
X160345170Y-99495285D01*
X159671239Y-99692983D01*
X159172414Y-99823843D01*
X158931349Y-99866959D01*
X158679306Y-99705420D01*
X158470517Y-99264097D01*
X158317362Y-98600462D01*
X158232222Y-97771986D01*
X158227477Y-96836143D01*
X158237088Y-96644123D01*
X158252315Y-95791618D01*
X158211678Y-94864081D01*
X158125123Y-93956721D01*
X158002596Y-93164745D01*
X157854042Y-92583361D01*
X157798928Y-92449671D01*
X157410058Y-91660974D01*
X157130465Y-91127718D01*
X156922929Y-90799999D01*
X156750232Y-90627915D01*
X156575156Y-90561562D01*
X156382870Y-90551000D01*
X156048349Y-90598588D01*
X155926246Y-90812246D01*
X155913667Y-91053982D01*
X155983019Y-91492140D01*
X156160939Y-92073621D01*
X156312313Y-92450982D01*
X156740014Y-93525328D01*
X156986907Y-94484118D01*
X157080636Y-95478711D01*
X157056946Y-96528457D01*
X157026969Y-97692376D01*
X157098565Y-98706654D01*
X157287050Y-99749152D01*
X157361487Y-100064738D01*
X157402318Y-100352045D01*
X157292313Y-100520946D01*
X156956354Y-100648498D01*
X156735587Y-100706805D01*
X156199389Y-100856726D01*
X155755141Y-101003378D01*
X155659667Y-101041379D01*
X155227000Y-101212811D01*
X155013851Y-101287148D01*
X154787364Y-101508760D01*
X154736831Y-101884719D01*
X154845881Y-102290616D01*
X155098142Y-102602039D01*
X155194000Y-102656154D01*
X155486780Y-102858560D01*
X155575000Y-103027666D01*
X155626225Y-103248767D01*
X155768230Y-103734169D01*
X155983508Y-104427284D01*
X156254553Y-105271525D01*
X156503273Y-106028234D01*
X156877548Y-107185405D01*
X157151473Y-108117988D01*
X157346359Y-108917454D01*
X157483517Y-109675275D01*
X157584259Y-110482921D01*
X157615643Y-110802717D01*
X157700583Y-111944835D01*
X157703297Y-112813937D01*
X157608088Y-113469075D01*
X157399259Y-113969301D01*
X157061113Y-114373669D01*
X156577952Y-114741229D01*
X156566747Y-114748581D01*
X155662707Y-115483370D01*
X154997174Y-116327150D01*
X154741063Y-116848851D01*
X154680455Y-117467790D01*
X154937335Y-118178678D01*
X155513960Y-118987506D01*
X155571359Y-119053649D01*
X155991538Y-119462748D01*
X156379705Y-119645305D01*
X156709061Y-119676333D01*
X157168377Y-119740348D01*
X157370983Y-119950222D01*
X157377547Y-119972723D01*
X157615502Y-120358312D01*
X157995943Y-120516418D01*
X158410469Y-120447044D01*
X158750678Y-120150196D01*
X158839846Y-119972667D01*
X158876980Y-119915230D01*
X158957819Y-119865714D01*
X159105852Y-119823539D01*
X159344567Y-119788125D01*
X159697451Y-119758892D01*
X160187993Y-119735258D01*
X160839680Y-119716644D01*
X161676002Y-119702470D01*
X162720445Y-119692154D01*
X163996498Y-119685116D01*
X165527649Y-119680777D01*
X167337386Y-119678555D01*
X169449197Y-119677871D01*
X170767352Y-119677942D01*
X182583667Y-119679551D01*
X183599667Y-120315260D01*
X184322357Y-120714726D01*
X184863434Y-120870904D01*
X185278470Y-120782245D01*
G36*
X173572678Y-110522348D02*
X173989828Y-110464334D01*
X174172845Y-110316200D01*
X174173973Y-110035858D01*
X174046310Y-109583935D01*
X173921015Y-109090462D01*
X173807957Y-108492000D01*
X173789060Y-108365523D01*
X173687166Y-107638045D01*
X174833416Y-107688189D01*
X175979667Y-107738333D01*
X176121913Y-108415667D01*
X176261055Y-109048054D01*
X176417527Y-109719063D01*
X176440253Y-109812667D01*
X176616347Y-110532333D01*
X179573945Y-110532333D01*
X180973810Y-110517171D01*
X182087250Y-110464445D01*
X182965449Y-110363296D01*
X183659594Y-110202866D01*
X184220871Y-109972296D01*
X184700466Y-109660726D01*
X185029329Y-109375015D01*
X185633744Y-108584659D01*
X185962290Y-107670803D01*
X186028697Y-106685528D01*
X185846691Y-105680917D01*
X185430001Y-104709051D01*
X184792354Y-103822011D01*
X183947479Y-103071881D01*
X183261000Y-102666276D01*
X183000209Y-102555550D01*
X182696423Y-102470207D01*
X182300118Y-102405799D01*
X181761775Y-102357878D01*
X181031869Y-102321997D01*
X180060881Y-102293707D01*
X178841175Y-102269300D01*
X175098683Y-102203047D01*
X175312704Y-103650573D01*
X175422033Y-104328066D01*
X175475324Y-104605667D01*
X180286002Y-104605667D01*
X181132856Y-104605667D01*
X181694054Y-104639028D01*
X182089797Y-104786156D01*
X182490528Y-105117615D01*
X182578022Y-105203978D01*
X182952175Y-105626501D01*
X183127815Y-106012659D01*
X183175774Y-106531390D01*
X183176333Y-106631021D01*
X183063628Y-107358860D01*
X182717191Y-107847354D01*
X182124537Y-108108216D01*
X181544830Y-108161667D01*
X181085213Y-108145390D01*
X180870916Y-108054807D01*
X180808793Y-107827294D01*
X180805667Y-107664690D01*
X180754404Y-107148214D01*
X180660402Y-106775690D01*
X180554149Y-106379605D01*
X180446818Y-105811747D01*
X180400569Y-105494667D01*
X180286002Y-104605667D01*
X175475324Y-104605667D01*
X175528299Y-104881620D01*
X175613686Y-105221748D01*
X175636189Y-105275216D01*
X175546585Y-105378533D01*
X175127241Y-105437608D01*
X174556854Y-105452333D01*
X173368053Y-105452333D01*
X173203538Y-104817333D01*
X173088115Y-104275688D01*
X172974875Y-103593118D01*
X172923500Y-103208667D01*
X172807978Y-102235000D01*
X170100614Y-102235000D01*
X170187593Y-102785333D01*
X170321014Y-103609380D01*
X170490780Y-104628222D01*
X170682474Y-105758254D01*
X170881676Y-106915872D01*
X171073967Y-108017468D01*
X171244927Y-108979440D01*
X171380138Y-109718181D01*
X171414186Y-109897333D01*
X171536645Y-110532333D01*
X172869156Y-110532333D01*
X173572678Y-110522348D01*
X173572678Y-110522348D01*
G37*
X173572678Y-110522348D02*
X173989828Y-110464334D01*
X174172845Y-110316200D01*
X174173973Y-110035858D01*
X174046310Y-109583935D01*
X173921015Y-109090462D01*
X173807957Y-108492000D01*
X173789060Y-108365523D01*
X173687166Y-107638045D01*
X174833416Y-107688189D01*
X175979667Y-107738333D01*
X176121913Y-108415667D01*
X176261055Y-109048054D01*
X176417527Y-109719063D01*
X176440253Y-109812667D01*
X176616347Y-110532333D01*
X179573945Y-110532333D01*
X180973810Y-110517171D01*
X182087250Y-110464445D01*
X182965449Y-110363296D01*
X183659594Y-110202866D01*
X184220871Y-109972296D01*
X184700466Y-109660726D01*
X185029329Y-109375015D01*
X185633744Y-108584659D01*
X185962290Y-107670803D01*
X186028697Y-106685528D01*
X185846691Y-105680917D01*
X185430001Y-104709051D01*
X184792354Y-103822011D01*
X183947479Y-103071881D01*
X183261000Y-102666276D01*
X183000209Y-102555550D01*
X182696423Y-102470207D01*
X182300118Y-102405799D01*
X181761775Y-102357878D01*
X181031869Y-102321997D01*
X180060881Y-102293707D01*
X178841175Y-102269300D01*
X175098683Y-102203047D01*
X175312704Y-103650573D01*
X175422033Y-104328066D01*
X175475324Y-104605667D01*
X180286002Y-104605667D01*
X181132856Y-104605667D01*
X181694054Y-104639028D01*
X182089797Y-104786156D01*
X182490528Y-105117615D01*
X182578022Y-105203978D01*
X182952175Y-105626501D01*
X183127815Y-106012659D01*
X183175774Y-106531390D01*
X183176333Y-106631021D01*
X183063628Y-107358860D01*
X182717191Y-107847354D01*
X182124537Y-108108216D01*
X181544830Y-108161667D01*
X181085213Y-108145390D01*
X180870916Y-108054807D01*
X180808793Y-107827294D01*
X180805667Y-107664690D01*
X180754404Y-107148214D01*
X180660402Y-106775690D01*
X180554149Y-106379605D01*
X180446818Y-105811747D01*
X180400569Y-105494667D01*
X180286002Y-104605667D01*
X175475324Y-104605667D01*
X175528299Y-104881620D01*
X175613686Y-105221748D01*
X175636189Y-105275216D01*
X175546585Y-105378533D01*
X175127241Y-105437608D01*
X174556854Y-105452333D01*
X173368053Y-105452333D01*
X173203538Y-104817333D01*
X173088115Y-104275688D01*
X172974875Y-103593118D01*
X172923500Y-103208667D01*
X172807978Y-102235000D01*
X170100614Y-102235000D01*
X170187593Y-102785333D01*
X170321014Y-103609380D01*
X170490780Y-104628222D01*
X170682474Y-105758254D01*
X170881676Y-106915872D01*
X171073967Y-108017468D01*
X171244927Y-108979440D01*
X171380138Y-109718181D01*
X171414186Y-109897333D01*
X171536645Y-110532333D01*
X172869156Y-110532333D01*
X173572678Y-110522348D01*
M02*
