M48
;DRILL file {KiCad 4.0.6} date Sunday, 17 September 2017 'AMt' 11:44:53
;FORMAT={-:-/ absolute / inch / decimal}
FMAT,2
INCH,TZ
T1C0.016
T2C0.031
T3C0.032
T4C0.035
T5C0.039
T6C0.039
%
G90
G05
M72
T1
X4.5079Y-2.815
X4.8228Y-3.9764
X4.8228Y-4.1594
X4.9016Y-2.9213
X4.9016Y-4.4882
X4.9409Y-3.1693
X5.0591Y-4.626
X5.0591Y-4.9606
X5.2165Y-4.7835
X5.2165Y-5.0787
X5.2303Y-4.1954
X5.2362Y-2.9528
X5.2953Y-3.0709
X5.4331Y-3.1693
X5.4439Y-4.373
X5.5118Y-3.0709
X5.5118Y-3.4252
X5.5315Y-3.7598
X5.5315Y-4.0157
X5.5906Y-4.5866
X5.6693Y-2.8346
X5.6693Y-2.9331
X5.6693Y-4.0551
X5.689Y-3.4843
X5.689Y-3.5827
X5.689Y-3.9764
X5.748Y-2.815
X5.748Y-2.874
X5.7677Y-3.9764
X5.7855Y-3.7205
X5.7874Y-3.1102
X5.8268Y-3.7205
X5.8465Y-3.7992
X5.9006Y-2.9921
X5.9037Y-2.8525
X5.9055Y-4.1339
X5.9252Y-3.3811
X5.9311Y-4.0886
X5.9449Y-3.8386
X5.9843Y-3.0315
X5.9843Y-3.7598
X6.1024Y-4.2126
X6.1417Y-4.1339
X6.1811Y-4.0945
X6.2205Y-3.1693
X6.2205Y-3.7402
X6.2205Y-3.9764
X6.2402Y-2.9209
X6.2598Y-4.0157
X6.2795Y-4.0551
X6.3189Y-3.0906
X6.3386Y-3.6417
X6.3583Y-2.9528
X6.378Y-3.3465
X6.4173Y-3.0906
X6.4646Y-5.0472
X6.4764Y-3.3071
X6.4764Y-4.1142
X6.4764Y-4.1732
X6.5354Y-3.4449
X6.5551Y-4.7244
X6.5945Y-3.189
X6.5945Y-3.2874
X6.5945Y-4.311
X6.5945Y-5.1181
X6.6535Y-3.7992
X6.6732Y-4.6063
X6.7126Y-4.2323
X6.752Y-3.189
X6.752Y-4.7638
X6.7717Y-3.8976
X6.7717Y-5.0591
X6.9291Y-3.2283
X6.9488Y-3.6024
X6.9685Y-4.311
X6.9685Y-5.0984
X7.0079Y-3.563
X7.0669Y-3.5236
X7.1063Y-3.4843
X7.1654Y-3.1299
X7.1654Y-3.189
X7.185Y-4.9409
X7.377Y-4.2864
X7.4409Y-4.1142
X7.4606Y-3.4843
X7.4606Y-3.7795
X7.5807Y-3.4626
T2
X4.5276Y-3.3858
X4.626Y-3.3858
X4.9409Y-3.3858
X5.0394Y-3.3858
T3
X5.5709Y-5.2165
X5.6709Y-5.2165
X5.7709Y-5.2165
T4
X7.0809Y-2.8599
X7.0809Y-2.9499
X7.0809Y-3.3099
X7.0809Y-3.3999
X7.0809Y-4.6513
X7.0809Y-4.7413
X7.0809Y-5.1013
X7.0809Y-5.1913
X7.2709Y-3.0299
X7.2709Y-3.1099
X7.2709Y-3.1899
X7.2709Y-3.2699
X7.2709Y-4.8213
X7.2709Y-4.9013
X7.2709Y-4.9813
X7.2709Y-5.0613
X7.3409Y-2.9899
X7.3409Y-3.0699
X7.3409Y-3.1499
X7.3409Y-3.2299
X7.3409Y-4.7813
X7.3409Y-4.8613
X7.3409Y-4.9413
X7.3409Y-5.0213
T6
X4.1732Y-3.3858
X4.1732Y-3.4858
X6.378Y-3.7551
X6.378Y-3.8551
X6.378Y-3.9551
X6.378Y-4.0551
X6.378Y-4.1551
X6.378Y-4.2551
X7.4197Y-2.7559
X7.5197Y-2.7559
T5
X4.2897Y-4.5502G85X4.2897Y-4.5975
G05
X4.2907Y-5.0282G85X4.2907Y-5.0755
G05
X4.2913Y-3.874G85X4.2913Y-3.9213
G05
T6
X4.4905Y-4.4262G85X4.4236Y-4.4262
G05
X4.4905Y-4.7214G85X4.4236Y-4.7214
G05
X4.4915Y-4.9042G85X4.4246Y-4.9042
G05
X4.4915Y-5.1994G85X4.4246Y-5.1994
G05
X4.4921Y-3.75G85X4.4252Y-3.75
G05
X4.4921Y-4.0453G85X4.4252Y-4.0453
G05
T0
M30
